<svg width="1600" height="85" fill="none" xmlns="http://www.w3.org/2000/svg"><path d="M247 0h-369v85h369V0z" fill="#F7C4BA"/><path d="M18.149 33.508h-4.93l-.68-19.967h6.29l-.68 19.967z" fill="#231F20"/><path d="M45.239 48.337c0-12.608-7.91-22.834-17.66-22.834-3.15 0-6.11 1.07-8.66 2.927a5.436 5.436 0 01-6.45 0c-2.56-1.867-5.52-2.927-8.67-2.927-9.75 0-17.66 10.226-17.66 22.834 0 6.531 2.12 12.416 5.53 16.575 4.55 6.189 13.6 10.398 24.02 10.398 10.43 0 19.47-4.22 24.03-10.398 3.39-4.159 5.52-10.044 5.52-16.575z" fill="#E52226"/><path d="M111.809 33.508h-4.92l-.69-19.967h6.3l-.69 19.967z" fill="#231F20"/><path d="M138.899 48.337c0-12.608-7.91-22.834-17.66-22.834-3.15 0-6.11 1.07-8.66 2.927a5.436 5.436 0 01-6.45 0c-2.56-1.867-5.52-2.927-8.67-2.927-9.75 0-17.66 10.226-17.66 22.834 0 6.531 2.13 12.416 5.53 16.575 4.55 6.189 13.6 10.398 24.02 10.398 10.43 0 19.48-4.22 24.03-10.398 3.4-4.159 5.52-10.044 5.52-16.575z" fill="#E52226"/><path d="M205.479 33.508h-4.92l-.69-19.967h6.29l-.68 19.967z" fill="#231F20"/><path d="M232.569 48.337c0-12.608-7.91-22.834-17.66-22.834-3.15 0-6.1 1.07-8.66 2.927a5.436 5.436 0 01-6.45 0c-2.56-1.867-5.52-2.927-8.67-2.927-9.75 0-17.66 10.226-17.66 22.834 0 6.531 2.12 12.416 5.53 16.575 4.55 6.189 13.6 10.398 24.02 10.398 10.43 0 19.47-4.22 24.03-10.398 3.39-4.159 5.52-10.044 5.52-16.575z" fill="#E52226"/><path d="M616 0H247v85h369V0z" fill="#F7C4BA"/><path d="M293.479 33.508h-4.92l-.69-19.967h6.3l-.69 19.967z" fill="#231F20"/><path d="M320.569 48.337c0-12.608-7.91-22.834-17.66-22.834-3.15 0-6.1 1.07-8.66 2.927a5.436 5.436 0 01-6.45 0c-2.56-1.867-5.52-2.927-8.67-2.927-9.75 0-17.66 10.226-17.66 22.834 0 6.531 2.12 12.416 5.53 16.575 4.55 6.189 13.6 10.398 24.02 10.398 10.43 0 19.47-4.22 24.03-10.398 3.4-4.159 5.52-10.044 5.52-16.575z" fill="#E52226"/><path d="M387.149 33.508h-4.93l-.68-19.967h6.29l-.68 19.967z" fill="#231F20"/><path d="M414.239 48.337c0-12.608-7.91-22.834-17.66-22.834-3.15 0-6.11 1.07-8.66 2.927a5.436 5.436 0 01-6.45 0c-2.56-1.867-5.52-2.927-8.67-2.927-9.75 0-17.66 10.226-17.66 22.834 0 6.531 2.12 12.416 5.53 16.575 4.55 6.189 13.6 10.398 24.02 10.398 10.43 0 19.47-4.22 24.03-10.398 3.39-4.159 5.52-10.044 5.52-16.575z" fill="#E52226"/><path d="M480.809 33.508h-4.92l-.69-19.967h6.3l-.69 19.967z" fill="#231F20"/><path d="M507.899 48.337c0-12.608-7.91-22.834-17.66-22.834-3.15 0-6.11 1.07-8.66 2.927a5.436 5.436 0 01-6.45 0c-2.56-1.867-5.52-2.927-8.67-2.927-9.75 0-17.66 10.226-17.66 22.834 0 6.531 2.13 12.416 5.53 16.575 4.55 6.189 13.6 10.398 24.02 10.398 10.43 0 19.48-4.22 24.03-10.398 3.4-4.159 5.52-10.044 5.52-16.575z" fill="#E52226"/><path d="M574.479 33.508h-4.92l-.69-19.967h6.29l-.68 19.967z" fill="#231F20"/><path d="M601.569 48.337c0-12.608-7.91-22.834-17.66-22.834-3.15 0-6.1 1.07-8.66 2.927a5.436 5.436 0 01-6.45 0c-2.56-1.867-5.52-2.927-8.67-2.927-9.75 0-17.66 10.226-17.66 22.834 0 6.531 2.12 12.416 5.53 16.575 4.55 6.189 13.6 10.398 24.02 10.398 10.43 0 19.47-4.22 24.03-10.398 3.39-4.159 5.52-10.044 5.52-16.575z" fill="#E52226"/><path d="M985 0H616v85h369V0z" fill="#F7C4BA"/><path d="M662.479 33.508h-4.92l-.69-19.967h6.3l-.69 19.967z" fill="#231F20"/><path d="M689.569 48.337c0-12.608-7.91-22.834-17.66-22.834-3.15 0-6.1 1.07-8.66 2.927a5.436 5.436 0 01-6.45 0c-2.56-1.867-5.52-2.927-8.67-2.927-9.75 0-17.66 10.226-17.66 22.834 0 6.531 2.12 12.416 5.53 16.575 4.55 6.189 13.6 10.398 24.02 10.398 10.43 0 19.47-4.22 24.03-10.398 3.4-4.159 5.52-10.044 5.52-16.575z" fill="#E52226"/><path d="M756.149 33.508h-4.93l-.68-19.967h6.29l-.68 19.967z" fill="#231F20"/><path d="M783.239 48.337c0-12.608-7.91-22.834-17.66-22.834-3.15 0-6.11 1.07-8.66 2.927a5.436 5.436 0 01-6.45 0c-2.56-1.867-5.52-2.927-8.67-2.927-9.75 0-17.66 10.226-17.66 22.834 0 6.531 2.12 12.416 5.53 16.575 4.55 6.189 13.6 10.398 24.02 10.398 10.43 0 19.47-4.22 24.03-10.398 3.39-4.159 5.52-10.044 5.52-16.575z" fill="#E52226"/><path d="M849.809 33.508h-4.92l-.69-19.967h6.3l-.69 19.967z" fill="#231F20"/><path d="M876.899 48.337c0-12.608-7.91-22.834-17.66-22.834-3.15 0-6.11 1.07-8.66 2.927a5.436 5.436 0 01-6.45 0c-2.56-1.867-5.52-2.927-8.67-2.927-9.75 0-17.66 10.226-17.66 22.834 0 6.531 2.13 12.416 5.53 16.575 4.55 6.189 13.6 10.398 24.02 10.398 10.43 0 19.48-4.22 24.03-10.398 3.4-4.159 5.52-10.044 5.52-16.575z" fill="#E52226"/><path d="M943.479 33.508h-4.92l-.69-19.967h6.29l-.68 19.967z" fill="#231F20"/><path d="M970.569 48.337c0-12.608-7.91-22.834-17.66-22.834-3.15 0-6.1 1.07-8.66 2.927a5.436 5.436 0 01-6.45 0c-2.56-1.867-5.52-2.927-8.67-2.927-9.75 0-17.66 10.226-17.66 22.834 0 6.531 2.12 12.416 5.53 16.575 4.55 6.189 13.6 10.398 24.02 10.398 10.43 0 19.47-4.22 24.03-10.398 3.39-4.159 5.52-10.044 5.52-16.575z" fill="#E52226"/><path d="M1354 0H985v85h369V0z" fill="#F7C4BA"/><path d="M1031.48 33.508h-4.92l-.69-19.967h6.3l-.69 19.967z" fill="#231F20"/><path d="M1058.57 48.337c0-12.608-7.91-22.834-17.66-22.834-3.15 0-6.1 1.07-8.66 2.927a5.436 5.436 0 01-6.45 0c-2.56-1.867-5.52-2.927-8.67-2.927-9.75 0-17.661 10.226-17.661 22.834 0 6.531 2.121 12.416 5.531 16.575 4.55 6.189 13.6 10.398 24.02 10.398 10.43 0 19.47-4.22 24.03-10.398 3.4-4.159 5.52-10.044 5.52-16.575z" fill="#E52226"/><path d="M1125.15 33.508h-4.93l-.68-19.967h6.29l-.68 19.967z" fill="#231F20"/><path d="M1152.24 48.337c0-12.608-7.91-22.834-17.66-22.834-3.15 0-6.11 1.07-8.66 2.927a5.436 5.436 0 01-6.45 0c-2.56-1.867-5.52-2.927-8.67-2.927-9.75 0-17.66 10.226-17.66 22.834 0 6.531 2.12 12.416 5.53 16.575 4.55 6.189 13.6 10.398 24.02 10.398 10.43 0 19.47-4.22 24.03-10.398 3.39-4.159 5.52-10.044 5.52-16.575z" fill="#E52226"/><path d="M1218.81 33.508h-4.92l-.69-19.967h6.3l-.69 19.967z" fill="#231F20"/><path d="M1245.9 48.337c0-12.608-7.91-22.834-17.66-22.834-3.15 0-6.11 1.07-8.66 2.927a5.436 5.436 0 01-6.45 0c-2.56-1.867-5.52-2.927-8.67-2.927-9.75 0-17.66 10.226-17.66 22.834 0 6.531 2.13 12.416 5.53 16.575 4.55 6.189 13.6 10.398 24.02 10.398 10.43 0 19.48-4.22 24.03-10.398 3.4-4.159 5.52-10.044 5.52-16.575z" fill="#E52226"/><path d="M1312.48 33.508h-4.92l-.69-19.967h6.29l-.68 19.967z" fill="#231F20"/><path d="M1339.57 48.337c0-12.608-7.91-22.834-17.66-22.834-3.15 0-6.1 1.07-8.66 2.927a5.436 5.436 0 01-6.45 0c-2.56-1.867-5.52-2.927-8.67-2.927-9.75 0-17.66 10.226-17.66 22.834 0 6.531 2.12 12.416 5.53 16.575 4.55 6.189 13.6 10.398 24.02 10.398 10.43 0 19.47-4.22 24.03-10.398 3.39-4.159 5.52-10.044 5.52-16.575z" fill="#E52226"/><path d="M1723 0h-369v85h369V0z" fill="#F7C4BA"/><path d="M1400.48 33.508h-4.92l-.69-19.967h6.3l-.69 19.967z" fill="#231F20"/><path d="M1427.57 48.337c0-12.608-7.91-22.834-17.66-22.834-3.15 0-6.1 1.07-8.66 2.927a5.436 5.436 0 01-6.45 0c-2.56-1.867-5.52-2.927-8.67-2.927-9.75 0-17.66 10.226-17.66 22.834 0 6.531 2.12 12.416 5.53 16.575 4.55 6.189 13.6 10.398 24.02 10.398 10.43 0 19.47-4.22 24.03-10.398 3.4-4.159 5.52-10.044 5.52-16.575z" fill="#E52226"/><path d="M1494.15 33.508h-4.93l-.68-19.967h6.29l-.68 19.967z" fill="#231F20"/><path d="M1521.24 48.337c0-12.608-7.91-22.834-17.66-22.834-3.15 0-6.11 1.07-8.66 2.927a5.436 5.436 0 01-6.45 0c-2.56-1.867-5.52-2.927-8.67-2.927-9.75 0-17.66 10.226-17.66 22.834 0 6.531 2.12 12.416 5.53 16.575 4.55 6.189 13.6 10.398 24.02 10.398 10.43 0 19.47-4.22 24.03-10.398 3.39-4.159 5.52-10.044 5.52-16.575z" fill="#E52226"/><path d="M1587.81 33.508h-4.92l-.69-19.967h6.3l-.69 19.967z" fill="#231F20"/><path d="M1614.9 48.337c0-12.608-7.91-22.834-17.66-22.834-3.15 0-6.11 1.07-8.66 2.927a5.436 5.436 0 01-6.45 0c-2.56-1.867-5.52-2.927-8.67-2.927-9.75 0-17.66 10.226-17.66 22.834 0 6.531 2.13 12.416 5.53 16.575 4.55 6.189 13.6 10.398 24.02 10.398 10.43 0 19.48-4.22 24.03-10.398 3.4-4.159 5.52-10.044 5.52-16.575z" fill="#E52226"/></svg>