<svg width="1600" height="18" viewBox="0 0 1600 18" fill="none" xmlns="http://www.w3.org/2000/svg">
<path d="M441.892 17.4534H474.066V0H441.892V17.4534ZM393.631 17.4534H425.805V0H393.631V17.4534ZM345.37 17.4534H377.544V0H345.37V17.4534ZM297.109 17.4534H329.283V0H297.109V17.4534ZM248.837 17.4534H281.011V0H248.837V17.4534ZM200.576 17.4534H232.75V0H200.576V17.4534ZM152.316 17.4534H184.489V0H152.316V17.4534ZM104.055 17.4534H136.229V0H104.055V17.4534ZM55.7937 17.4534H87.9676V0H55.7937V17.4534ZM7.53285 17.4534H39.7068V0H7.53285V17.4534ZM-40.7391 17.4534H-8.56519V0H-40.7391V17.4534ZM-89 17.4534H-56.8261V0H-89V17.4534Z" fill="black"/>
<path d="M880.838 17.4534H913.012V0H880.838V17.4534ZM832.578 17.4534H864.751V0H832.578V17.4534ZM784.317 17.4534H816.491V0H784.317V17.4534ZM736.056 17.4534H768.23V0H736.056V17.4534ZM687.795 17.4534H719.969V0H687.795V17.4534ZM639.523 17.4534H671.697V0H639.523V17.4534ZM591.262 17.4534H623.436V0H591.262V17.4534ZM543.001 17.4534H575.175V0H543.001V17.4534ZM494.74 17.4534H526.914V0H494.74V17.4534Z" fill="black"/>
<path d="M1320.22 17.4534H1352.39V0H1320.22V17.4534ZM1271.96 17.4534H1304.13V0H1271.96V17.4534ZM1223.7 17.4534H1255.87V0H1223.7V17.4534ZM1175.43 17.4534H1207.61V0H1175.43V17.4534ZM1127.17 17.4534H1159.35V0H1127.17V17.4534ZM1078.9 17.4534H1111.08V0H1078.9V17.4534ZM1030.64 17.4534H1062.81V0H1030.64V17.4534ZM982.38 17.4534H1014.55V0H982.38V17.4534ZM934.119 17.4534H966.293V0H934.119V17.4534Z" fill="black"/>
<path d="M1655.83 17.4534H1688V0H1655.83V17.4534ZM1607.57 17.4534H1639.74V0H1607.57V17.4534ZM1559.3 17.4534H1591.48V0H1559.3V17.4534ZM1511.03 17.4534H1543.21V0H1511.03V17.4534ZM1462.77 17.4534H1494.95V0H1462.77V17.4534ZM1414.51 17.4534H1446.68V0H1414.51V17.4534ZM1366.25 17.4534H1398.42V0H1366.25V17.4534Z" fill="black"/>
</svg>
