<svg width="169" height="250" viewBox="0 0 169 250" fill="none" xmlns="http://www.w3.org/2000/svg">
<path d="M87 0H0V61.9496H87V0Z" fill="#E52226"/>
<path d="M59.3616 21.1953L36.1729 37.1052L27.1035 63.0799H81.0064L80.3553 52.2918L59.3616 22.6417V21.1953Z" fill="#F7C4BA"/>
<path d="M87.2636 61.7775H64.8139C64.1148 57.6663 68.4149 55.6306 66.7004 49.4628C65.4649 45.0081 59.5052 46.955 55.1821 41.4555C51.957 37.3444 55.7735 29.8887 57.9075 26.3853C58.7235 25.039 59.1568 23.4077 59.1568 21.7389V21.3626L59.2737 21.1943L87.2636 61.7775Z" fill="#F48D83"/>
<path d="M59.271 61.8074H0.636719C0.636719 61.8074 9.65649 47.6229 12.7257 43.4019C16.5399 38.1596 31.281 24.6436 31.281 24.6436L59.271 61.8074Z" fill="#F7C4BA"/>
<path d="M59.2714 61.808H36.8217C36.1226 58.0427 40.4227 56.18 38.7082 50.531C37.4727 46.4502 31.513 48.2335 27.1899 43.1992C23.9648 39.4339 27.7813 32.607 29.9153 29.4003C30.7314 28.1663 31.1646 26.6728 31.1646 25.1443V24.8007L31.2815 24.6465L59.2714 61.808Z" fill="#F48D83"/>
<path d="M169 92.9248H87V249.797H169V92.9248Z" fill="#E8F1CF"/>
<path d="M106 227.814H98L99.3494 133.143L104.841 132.892L106 227.814Z" fill="#E52226"/>
<path d="M108.873 132.857C106.942 132.124 104.97 132.093 103.365 132.63L114 126.652C112.226 124.599 108.649 124.287 105.508 126.054C103.418 127.228 101.998 129.057 101.501 130.921C101.005 129.057 99.5848 127.228 97.4948 126.051C94.3515 124.284 90.7766 124.599 89 126.649L99.7897 132.715C98.1794 132.168 96.198 132.197 94.2574 132.935C90.8923 134.215 88.8023 137.18 89.1808 139.886L101.665 135.137L113.947 139.809C114.328 137.103 112.238 134.138 108.873 132.857Z" fill="#1BB16B"/>
<path d="M162 244.801H155L156.179 163.867H160.988L162 244.801Z" fill="#E52226"/>
<path d="M164.693 163.77C163.071 163.134 161.415 163.107 160.066 163.573L169 158.391C167.508 156.613 164.505 156.342 161.866 157.873C160.111 158.891 158.918 160.476 158.501 162.092C158.084 160.476 156.891 158.891 155.136 157.871C152.495 156.34 149.492 156.613 148 158.389L157.065 163.646C155.713 163.172 154.048 163.197 152.418 163.837C149.594 164.947 147.836 167.516 148.154 169.861L158.641 165.746L168.957 169.794C169.273 167.449 167.518 164.88 164.693 163.77Z" fill="#1BB16B"/>
<path d="M169 0H108V92.9243H169V0Z" fill="black"/>
<path d="M125.398 55.5527C125.398 55.5527 135.856 68.4137 144.316 70.4501C152.775 72.4895 154.929 51.0835 154.929 51.0835L153.851 49.6719C153.851 49.6719 145.467 62.6861 125.398 55.5527Z" fill="black"/>
<path d="M157.315 38.6647C157.315 44.3489 155.624 49.5239 152.761 53.5071C149.351 58.3784 144.276 61.4476 138.579 61.4476C132.832 61.4476 127.68 58.3003 124.247 53.3307C121.486 49.3735 119.844 44.2476 119.844 38.6647C119.844 38.0312 119.869 37.3977 119.918 36.7613C119.991 35.7199 120.116 34.7306 120.292 33.7413C122.008 24.1752 128.678 16.8682 136.888 15.9802C137.436 15.9049 138.009 15.8789 138.582 15.8789C139.13 15.8789 139.677 15.9049 140.225 15.9541C148.435 16.8161 155.153 24.1491 156.847 33.7384C157.02 34.6786 157.145 35.6158 157.221 36.5791C157.289 37.2704 157.315 37.956 157.315 38.6647Z" fill="#F7C4BA"/>
<path d="M142.422 51.955C142.275 53.9076 140.655 55.4465 138.703 55.4465C136.717 55.4465 135.131 53.9076 134.986 51.955H135.242C135.721 51.955 136.379 51.038 136.456 50.8673C136.657 50.4276 137.08 50.1904 137.559 50.1904C138.039 50.1904 138.479 50.4537 138.737 50.8673C138.921 50.4537 139.361 50.1904 139.84 50.1904C140.32 50.1904 140.723 50.4508 140.981 50.8673C141.066 51.0004 141.753 51.955 142.195 51.955H142.422Z" fill="#E52226"/>
<path d="M153.161 38.1904V42.7001C153.161 46.4173 150.103 49.417 146.407 49.2232C143.842 49.0901 141.635 47.3632 140.75 44.9998C140.679 44.8147 140.619 44.6267 140.568 44.4387C140.386 44.0395 140.097 43.7155 139.734 43.4841C139.399 43.27 138.999 43.1456 138.574 43.1456C138.148 43.1456 137.748 43.27 137.413 43.4841C137.064 43.7039 136.784 44.0192 136.599 44.3982C136.548 44.6007 136.486 44.8003 136.403 44.9998C135.524 47.3603 133.317 49.0901 130.752 49.2232C127.05 49.417 124 46.4173 124 42.7001V38.1904H132.219C134.449 38.1904 136.327 39.8017 136.735 41.9394H140.426C140.835 39.8017 142.713 38.1904 144.943 38.1904H153.161Z" fill="black"/>
<path d="M168.997 72.6934C168.997 72.6934 168.872 72.6528 168.633 72.5775C167.449 72.2211 163.504 71.0591 159.227 70.1666C160.456 61.1433 161.885 47.675 162.155 40.5584C162.297 36.8987 161.21 32.2682 159.406 28.1188C157.963 24.7807 156.053 21.7526 153.953 19.7822C147.6 13.8246 134.656 14.2535 130.057 16.5977C124.889 19.2288 121.562 23.3782 119.475 28.1188C113.234 42.2854 118.058 61.7258 118.058 61.7258L108 70.5549V92.9248H169V92.6293L168.997 72.6934ZM139.694 29.3068C139.694 29.3068 156.03 33.746 156.551 38.3272C156.819 40.7091 155.618 45.3569 153.981 50.2771C153.662 51.2334 153.327 52.2012 152.982 53.1661C152.982 53.1719 152.982 53.1719 152.977 53.1748V53.1806C150.537 60.0306 147.66 66.6547 147.099 67.779C143.653 67.1154 142.947 66.9937 142.836 66.9763C136.586 65.3189 131.81 61.9634 128.327 58.0544L128.321 58.0486C127.814 57.4807 127.339 56.9041 126.887 56.3187C120.77 48.3763 119.529 38.9502 121.727 36.7856C124.647 33.8996 134.101 29.669 137.611 29.1793C138.314 29.0837 139.017 29.1213 139.694 29.3068Z" fill="#1BB16B"/>
<path d="M118.759 78.304C118.683 77.9338 118.592 77.5751 118.481 77.2222C117.976 75.6514 117.108 74.2542 115.97 73.1348C115.681 73.3141 115.412 73.5166 115.156 73.7307C116.217 74.7402 117.037 76.0101 117.511 77.442C117.809 78.3474 117.973 79.3107 117.973 80.3144C117.973 80.8322 117.928 81.3414 117.843 81.8331C117.996 81.8968 118.158 81.9488 118.317 81.9951C118.476 82.0414 118.637 82.0674 118.802 82.0906C118.856 81.8071 118.893 81.5207 118.918 81.2314C118.944 80.9277 118.958 80.6211 118.958 80.3144C118.958 79.626 118.884 78.952 118.759 78.304Z" fill="#F48D83"/>
<path d="M123.647 73.0586C122.518 74.1607 121.638 75.5261 121.122 77.0592V77.065C120.983 77.4786 120.87 77.8923 120.785 78.3233V78.3291C120.654 78.9713 120.586 79.6308 120.586 80.3164C120.586 80.6461 120.603 80.9759 120.637 81.2999V81.3057C120.663 81.5718 120.697 81.8379 120.745 82.0954C120.844 82.0867 120.938 82.0665 121.031 82.0491C121.179 82.0231 121.324 81.9797 121.468 81.9334C121.545 81.9045 121.627 81.8784 121.701 81.8466C121.619 81.352 121.576 80.8371 121.576 80.3193C121.576 79.3184 121.738 78.3609 122.03 77.4613V77.4555C122.515 75.9831 123.366 74.6756 124.473 73.6574C124.214 73.4346 123.934 73.2379 123.647 73.0586Z" fill="#F48D83"/>
<path d="M137.623 78.304C137.546 77.9338 137.455 77.5751 137.344 77.2222C136.839 75.6514 135.971 74.2542 134.834 73.1348C134.544 73.3141 134.275 73.5166 134.02 73.7307C135.081 74.7402 135.9 76.0101 136.374 77.442C136.675 78.3474 136.837 79.3107 136.837 80.3144C136.837 80.8322 136.791 81.3414 136.706 81.8331C136.859 81.8968 137.021 81.9488 137.18 81.9951C137.339 82.0414 137.501 82.0674 137.665 82.0906C137.719 81.8071 137.756 81.5207 137.781 81.2314C137.807 80.9277 137.821 80.6211 137.821 80.3144C137.818 79.626 137.753 78.952 137.623 78.304Z" fill="#F48D83"/>
<path d="M142.511 73.0586C141.381 74.1607 140.502 75.5261 139.986 77.0592V77.065C139.847 77.4786 139.733 77.8923 139.648 78.3233V78.3291C139.517 78.9713 139.455 79.6308 139.455 80.3164C139.455 80.6461 139.469 80.9759 139.5 81.2999V81.3057C139.526 81.5718 139.563 81.8379 139.608 82.0954C139.708 82.0867 139.801 82.0665 139.895 82.0491C140.042 82.0231 140.187 81.9797 140.332 81.9334C140.408 81.9045 140.491 81.8784 140.567 81.8466C140.485 81.352 140.442 80.8371 140.442 80.3193C140.442 79.3184 140.604 78.3609 140.896 77.4613V77.4555C141.381 75.9831 142.232 74.6756 143.339 73.6574C143.078 73.4346 142.8 73.2379 142.511 73.0586Z" fill="#F48D83"/>
<path d="M156.484 78.304C156.407 77.9338 156.316 77.5751 156.206 77.2222C155.701 75.6514 154.833 74.2542 153.695 73.1348C153.411 73.3141 153.136 73.5166 152.881 73.7307C153.942 74.7402 154.762 76.0101 155.236 77.442V77.4478C155.536 78.3532 155.698 79.3107 155.698 80.3144C155.698 80.8322 155.658 81.3414 155.568 81.8331C155.721 81.8968 155.877 81.9488 156.041 81.9951C156.2 82.0414 156.362 82.0674 156.526 82.0906H156.532C156.583 81.8071 156.617 81.5207 156.646 81.2314C156.671 80.9277 156.685 80.6211 156.685 80.3144C156.682 79.626 156.614 78.952 156.484 78.304Z" fill="#F48D83"/>
<path d="M161.376 73.0586C160.247 74.1607 159.367 75.5261 158.856 77.0592L158.851 77.065V77.0708C158.712 77.4786 158.598 77.8952 158.513 78.3233V78.3291C158.383 78.9713 158.32 79.6308 158.32 80.3164C158.32 80.6461 158.334 80.9759 158.366 81.2999V81.3057C158.391 81.5718 158.428 81.8379 158.474 82.0954C158.564 82.0867 158.652 82.0722 158.743 82.0549C158.769 82.0491 158.797 82.0462 158.825 82.0404C158.848 82.0346 158.871 82.0317 158.893 82.0231C158.956 82.0086 159.015 81.9941 159.075 81.9739C159.197 81.9421 159.319 81.9016 159.435 81.8495C159.353 81.3549 159.31 80.84 159.31 80.3222C159.31 79.3213 159.472 78.3638 159.764 77.4642V77.4584C160.255 75.986 161.106 74.6785 162.207 73.6603C161.943 73.4346 161.668 73.2379 161.376 73.0586Z" fill="#F48D83"/>
<path d="M120.264 92.4667V92.4493V90.8236C120.264 86.9416 122.262 84.3729 126.066 82.3625C126.367 82.2063 127.326 81.6827 127.326 81.6827C127.326 81.6827 126.56 81.3009 126.066 81.298C123.388 81.2835 121.422 84.02 120.264 86.447V82.1253C120.42 82.1253 120.585 82.1166 120.741 82.0935C120.84 82.0848 120.934 82.0645 121.027 82.0472C121.175 82.0183 121.32 81.9778 121.464 81.9315C121.541 81.9054 121.62 81.8765 121.697 81.8447C122.279 81.6046 122.812 81.2199 123.24 80.6934C124.063 79.6694 124.293 78.359 123.978 77.1701C123.317 77.092 122.642 77.1932 122.023 77.4594C121.802 77.5519 121.592 77.6705 121.385 77.8094C121.322 77.549 121.232 77.3032 121.115 77.0717V77.0659C120.826 76.4701 120.392 75.9609 119.856 75.5791C119.257 75.9841 118.772 76.5568 118.474 77.225C118.375 77.4304 118.298 77.6474 118.244 77.8672C118.015 77.6966 117.762 77.5606 117.501 77.4449C116.888 77.1874 116.227 77.092 115.572 77.1701C115.251 78.359 115.487 79.6723 116.307 80.6934C116.729 81.217 117.26 81.6017 117.836 81.8418C117.989 81.9054 118.151 81.9575 118.31 81.998C118.468 82.0443 118.63 82.0703 118.795 82.0935C118.951 82.1108 119.11 82.1253 119.271 82.1253V86.447C118.114 84.0229 116.148 81.2835 113.47 81.3038C112.976 81.3038 112.213 81.6885 112.213 81.6885C112.213 81.6885 113.172 82.2063 113.47 82.3683C117.277 84.3729 119.271 86.9416 119.271 90.8236V92.4493V92.4667H120.264V92.4667Z" fill="#97CF9B"/>
<path d="M146.193 81.6827C146.193 81.6827 145.234 82.2063 144.933 82.3625C141.129 84.3729 139.132 86.9416 139.132 90.8236V92.4667H138.147V91.029C138.142 90.9596 138.142 90.8902 138.142 90.8236C138.142 90.7831 138.142 90.7369 138.147 90.6964V90.6356C138.142 90.6298 138.147 90.6269 138.147 90.6211C138.076 86.8491 136.085 84.3353 132.346 82.3654C132.045 82.2034 131.086 81.6856 131.086 81.6856C131.086 81.6856 131.846 81.3009 132.346 81.3009C135.018 81.2835 136.984 84.0229 138.147 86.4441V82.1224C137.985 82.1224 137.824 82.1079 137.665 82.0906C137.498 82.0674 137.336 82.0414 137.18 81.9951C137.024 81.9546 136.859 81.9025 136.706 81.8389C136.13 81.6017 135.6 81.2141 135.177 80.6934C134.357 79.6694 134.124 78.359 134.442 77.1701C135.1 77.092 135.764 77.1874 136.374 77.4449C136.635 77.5606 136.888 77.6966 137.117 77.8672C137.171 77.6474 137.248 77.4304 137.347 77.225C137.645 76.5539 138.13 75.9812 138.734 75.5791C139.265 75.9609 139.702 76.4701 139.991 77.0659V77.0717C140.108 77.306 140.198 77.549 140.261 77.8094C140.468 77.6705 140.678 77.5519 140.899 77.4594C141.515 77.1932 142.19 77.092 142.854 77.1701C143.174 78.359 142.939 79.6723 142.116 80.6934C141.688 81.2199 141.157 81.6075 140.573 81.8447C140.496 81.8765 140.414 81.9054 140.337 81.9315C140.193 81.9778 140.048 82.0183 139.9 82.0472C139.807 82.0645 139.71 82.0848 139.611 82.0935C139.452 82.1166 139.291 82.1253 139.134 82.1253V86.447C140.292 84.02 142.258 81.2835 144.936 81.298C145.427 81.3009 146.193 81.6827 146.193 81.6827Z" fill="#97CF9B"/>
<path d="M165.056 81.6827C165.056 81.6827 164.097 82.2063 163.797 82.3625C159.992 84.3729 157.995 86.9416 157.995 90.8236V92.4667H157.01V91.029C157.005 90.9596 157.005 90.8902 157.005 90.8236C157.005 90.7831 157.005 90.7369 157.01 90.6964V90.6356C157.005 90.6298 157.01 90.6269 157.01 90.6211C156.94 86.8491 154.948 84.3353 151.209 82.3654C150.908 82.2034 149.949 81.6856 149.949 81.6856C149.949 81.6856 150.71 81.3009 151.209 81.3009C153.881 81.2835 155.847 84.0229 157.01 86.4441V82.1224C156.849 82.1224 156.69 82.1079 156.534 82.0906H156.528C156.361 82.0674 156.199 82.0414 156.043 81.9951C155.887 81.9546 155.722 81.9025 155.569 81.8389C154.993 81.6017 154.466 81.2141 154.04 80.6934C153.22 79.6694 152.988 78.359 153.305 77.1701C153.964 77.092 154.627 77.1874 155.237 77.4449C155.498 77.5606 155.751 77.6966 155.981 77.8672C156.04 77.6474 156.111 77.4304 156.21 77.225C156.508 76.5539 156.993 75.9812 157.598 75.5791C158.128 75.9609 158.565 76.4701 158.855 77.0659V77.0717V77.0775C158.971 77.3118 159.062 77.549 159.124 77.8123C159.331 77.6734 159.541 77.5548 159.762 77.4623C160.378 77.1961 161.053 77.0949 161.72 77.173C162.035 78.3619 161.802 79.6752 160.977 80.6963C160.554 81.2228 160.018 81.6104 159.433 81.8476C159.317 81.8968 159.195 81.9402 159.073 81.972C159.013 81.9951 158.957 82.0096 158.894 82.0211C158.846 82.0356 158.795 82.0443 158.747 82.053C158.656 82.0703 158.568 82.0848 158.477 82.0935C158.318 82.1166 158.157 82.1253 158.001 82.1253V86.447C159.161 84.02 161.124 81.2835 163.802 81.298C164.29 81.3009 165.056 81.6827 165.056 81.6827Z" fill="#97CF9B"/>
<path d="M87 61.9258H0V180.829H87V61.9258Z" fill="#1BB16B"/>
<path d="M69.224 118.776H16.7227V161.027H69.224V118.776Z" fill="#1CB16B"/>
<path d="M72.4658 111.835V116.669H14.75V111.835C14.75 111.581 14.7528 111.329 14.7585 111.074C14.994 100.516 20.146 90.6809 28.6598 84.6207L29.1818 84.2476L38.7056 77.4642L40.1354 76.4459L43.6051 73.9756L47.0804 76.4517L48.5074 77.4671L58.0312 84.2476L58.5503 84.6178C67.0698 90.678 72.2218 100.513 72.4573 111.072C72.463 111.326 72.4658 111.581 72.4658 111.835Z" fill="#F7C4BA"/>
<path d="M67.1385 110.015C66.4548 109.43 65.7143 108.898 64.9115 108.427C62.4546 106.98 59.768 106.295 57.1211 106.295C58.446 103.954 59.2034 101.241 59.2034 98.3484C59.2034 97.4054 59.124 96.4826 58.9708 95.583C62.7128 95.5801 66.2392 96.9541 68.9882 99.303V99.3088C69.6124 102.913 69.0138 106.711 67.1385 110.015Z" fill="#92CB7B"/>
<path d="M67.1388 110.014C66.6934 110.804 66.1714 111.562 65.5785 112.285C63.9614 114.249 61.9783 115.715 59.8109 116.667H58.5541C55.8419 114.501 52.4659 113.288 48.9707 113.28C52.4233 111.99 55.3057 109.496 57.1214 106.294C59.7683 106.294 62.4521 106.982 64.9118 108.429C65.7118 108.897 66.4551 109.433 67.1388 110.014Z" fill="#1CB16B"/>
<path d="M71.7307 116.668H59.8125C61.9771 115.716 63.963 114.25 65.5801 112.285C66.173 111.562 66.695 110.804 67.1405 110.015C69.2569 111.825 70.8144 114.134 71.7307 116.668Z" fill="#92CB7B"/>
<path d="M27.4122 116.67H15.4883C16.4075 114.136 17.9621 111.828 20.0842 110.022C20.5296 110.812 21.046 111.567 21.6389 112.287C23.256 114.252 25.2447 115.721 27.4122 116.67Z" fill="#92CB7B"/>
<path d="M38.2445 113.28C34.7521 113.288 31.3761 114.501 28.6639 116.667H27.41C25.2425 115.718 23.2538 114.249 21.6367 112.285C21.0438 111.562 20.5274 110.807 20.082 110.02C20.7629 109.433 21.509 108.9 22.3091 108.429C24.7716 106.98 27.4525 106.294 30.0995 106.294C31.9123 109.496 34.7947 111.99 38.2445 113.28Z" fill="#1CB16B"/>
<path d="M30.0958 106.295C27.4489 106.295 24.768 106.977 22.3055 108.427C21.5026 108.898 20.7621 109.43 20.0784 110.018C18.2032 106.717 17.6046 102.913 18.223 99.3059C20.9721 96.9512 24.5013 95.5772 28.2433 95.5801C28.0901 96.4797 28.0106 97.4025 28.0106 98.3455C28.0135 101.241 28.7738 103.954 30.0958 106.295Z" fill="#92CB7B"/>
<path d="M28.666 116.668C31.3782 114.501 34.7514 113.289 38.2465 113.28C34.7968 111.99 31.9144 109.497 30.0987 106.294C33.7357 106.294 37.299 107.599 40.119 110.006C38.2777 106.751 37.6451 102.948 38.2749 99.3027C41.0467 101.678 42.9588 104.996 43.6113 108.678C44.261 104.998 46.1703 101.681 48.942 99.3027C49.5718 102.948 48.9335 106.757 47.0951 110.006C49.9151 107.596 53.484 106.294 57.1211 106.294C55.3054 109.497 52.423 111.993 48.9704 113.28C52.4684 113.289 55.8416 114.501 58.5537 116.668H28.666V116.668Z" fill="#F48D83"/>
<path d="M40.1221 110.006C37.3022 107.596 33.7361 106.295 30.1019 106.295C28.777 103.954 28.0195 101.241 28.0195 98.3484C28.0195 97.4054 28.099 96.4826 28.2522 95.583C29.1487 95.583 30.0508 95.6611 30.9643 95.826C33.7616 96.3264 36.2496 97.5645 38.2781 99.303C37.6483 102.951 38.2781 106.755 40.1221 110.006Z" fill="#1CB16B"/>
<path d="M43.6066 89.8812C42.9229 90.4684 42.2789 91.1221 41.686 91.8453C39.8618 94.064 38.7299 96.6414 38.2759 99.3027C36.2475 97.5642 33.7566 96.3261 30.9622 95.8257C30.0487 95.6608 29.1465 95.5827 28.25 95.5827C28.894 91.8222 30.8373 88.5187 33.5864 86.1641C37.1752 86.1641 40.7413 87.4282 43.6066 89.8812Z" fill="#92CB7B"/>
<path d="M58.9697 95.5827C58.0733 95.5827 57.1711 95.6608 56.2576 95.8257C53.4631 96.3261 50.9723 97.5642 48.9438 99.3027C48.4871 96.6414 47.3523 94.064 45.5281 91.8453C44.9351 91.1221 44.2883 90.4684 43.6074 89.8812C46.4699 87.4282 50.0389 86.1698 53.6277 86.1641C56.3824 88.5187 58.3201 91.8251 58.9697 95.5827Z" fill="#92CB7B"/>
<path d="M48.9434 99.3024C46.1688 101.677 44.2595 104.995 43.6098 108.678C42.9573 104.995 41.048 101.677 38.2734 99.3024C38.7274 96.6411 39.8593 94.0637 41.6835 91.845C42.2764 91.1218 42.9233 90.4681 43.6042 89.8809C44.2879 90.4681 44.9319 91.1218 45.5248 91.845C47.3518 94.0637 48.4866 96.644 48.9434 99.3024Z" fill="#1CB16B"/>
<path d="M59.202 98.3484C59.202 101.244 58.4417 103.954 57.1197 106.295C53.4827 106.295 49.9166 107.596 47.0938 110.006C48.935 106.758 49.5704 102.951 48.9435 99.303C50.9719 97.5645 53.4628 96.3264 56.2572 95.826C57.1708 95.6611 58.0729 95.583 58.9694 95.583C59.1226 96.4826 59.202 97.4054 59.202 98.3484Z" fill="#1CB16B"/>
<path d="M32.5748 159.264H18.98V120.982H32.5748V159.264ZM36.8076 116.669H14.75V163.58H36.8076V116.669Z" fill="#B1D794"/>
<path d="M50.4069 159.264H36.812V120.982H50.4069V159.264ZM54.6397 116.669H32.582V163.58H54.6397V116.669Z" fill="#B1D794"/>
<path d="M68.2339 159.264H54.639V120.982H68.2339V159.264ZM72.4639 116.669H50.4062V163.58H72.4639V116.669Z" fill="#B1D794"/>
<path d="M72.4671 163.58H14.7031V166.6H72.4671V163.58Z" fill="#F7C4BA"/>
<path d="M32.5432 128.609C29.326 127.197 26.8181 124.417 25.7315 120.989C24.645 124.417 22.1371 127.2 18.9199 128.609C23.8506 130.735 23.8506 137.984 18.9199 140.11C18.9455 140.122 18.9738 140.133 18.9994 140.145C23.8932 142.332 23.8932 149.549 18.9994 151.736C18.9738 151.747 18.9455 151.759 18.9199 151.77C22.1371 153.182 24.645 155.962 25.7315 159.39C26.8181 155.962 29.326 153.179 32.5432 151.77C32.5176 151.759 32.4893 151.747 32.4637 151.736C27.5699 149.549 27.5699 142.332 32.4637 140.145C32.4893 140.133 32.5148 140.122 32.5432 140.11C32.5176 140.098 32.4921 140.087 32.4637 140.075C27.6352 137.917 27.6352 130.801 32.4637 128.643C32.4921 128.632 32.5176 128.62 32.5432 128.609Z" fill="#F48D83"/>
<path d="M50.3928 128.609C47.1756 127.197 44.6677 124.417 43.5812 120.989C42.4946 124.417 39.9867 127.2 36.7695 128.609C41.7002 130.735 41.7002 137.984 36.7695 140.11C36.7951 140.122 36.8234 140.133 36.849 140.145C41.7428 142.332 41.7428 149.549 36.849 151.736C36.8234 151.747 36.7951 151.759 36.7695 151.77C39.9867 153.182 42.4946 155.962 43.5812 159.39C44.6677 155.962 47.1756 153.179 50.3928 151.77C50.3672 151.759 50.3389 151.747 50.3133 151.736C45.4195 149.549 45.4195 142.332 50.3133 140.145C50.3389 140.133 50.3644 140.122 50.3928 140.11C50.3672 140.098 50.3417 140.087 50.3133 140.075C45.4848 137.917 45.4848 130.801 50.3133 128.643C50.3417 128.632 50.3672 128.62 50.3928 128.609Z" fill="#F48D83"/>
<path d="M68.2424 140.11C68.2168 140.098 68.1913 140.087 68.1629 140.075C63.3344 137.917 63.3344 130.798 68.1629 128.643C68.1885 128.632 68.214 128.62 68.2424 128.609C65.0252 127.197 62.5173 124.417 61.4308 120.989C60.3442 124.417 57.8363 127.2 54.6191 128.609C54.6447 128.62 54.6702 128.632 54.6986 128.643C59.5271 130.801 59.5271 137.92 54.6986 140.075C54.673 140.087 54.6475 140.098 54.6191 140.11C54.6447 140.122 54.673 140.133 54.6986 140.145C59.5924 142.332 59.5924 149.549 54.6986 151.736C54.673 151.747 54.6447 151.759 54.6191 151.77C57.8363 153.182 60.3442 155.962 61.4308 159.39C62.5173 155.962 65.0252 153.179 68.2424 151.77C68.2168 151.759 68.1885 151.747 68.1629 151.736C63.2691 149.549 63.2691 142.332 68.1629 140.145C68.1913 140.133 68.2168 140.122 68.2424 140.11Z" fill="#F48D83"/>
<path d="M158.475 210.258V226.706H158.441V249.995H145.521V229.434C145.521 225.251 141.482 221.184 138.281 218.621C136.182 216.935 134.437 215.899 134.437 215.899C134.437 215.899 124.241 222.552 124.241 228.919V249.995H111.299V210.258H158.475Z" fill="#92CB7B"/>
<path d="M155.304 228.949H148.83V220.299C148.83 218.361 151.931 216.834 151.931 216.834C151.931 216.834 155.304 218.347 155.304 220.456V228.949V228.949Z" fill="#1BB16B"/>
<path d="M120.933 228.949H114.459V220.299C114.459 218.361 117.56 216.834 117.56 216.834C117.56 216.834 120.933 218.347 120.933 220.456V228.949Z" fill="#1BB16B"/>
<path d="M155.308 241.872V249.995H148.834V241.719C148.834 239.781 151.935 238.256 151.935 238.256C151.935 238.256 155.308 239.772 155.308 241.872Z" fill="#1BB16B"/>
<path d="M120.933 241.872V249.995H114.459V241.719C114.459 239.781 117.56 238.256 117.56 238.256C117.56 238.256 120.933 239.772 120.933 241.872Z" fill="#1BB16B"/>
<path d="M121.336 195.892V210.356H119.35V201.012C119.35 200.558 119.188 200.147 118.925 199.849C118.664 199.554 118.303 199.369 117.903 199.369C117.098 199.369 116.451 200.101 116.451 201.012V210.356H114.465V195.892H121.336Z" fill="#92CB7B"/>
<path d="M114.582 195.896H112.908V210.357H114.582V195.896Z" fill="#1BB16B"/>
<path d="M122.928 195.896H121.254V210.357H122.928V195.896Z" fill="#1BB16B"/>
<path d="M120.421 194.438L118.691 193.429V192.329C119.057 192.049 119.298 191.574 119.298 191.036C119.298 190.397 118.543 189.306 118.149 188.783V185.361H117.684V188.783C117.289 189.306 116.535 190.397 116.535 191.036C116.535 191.574 116.776 192.049 117.142 192.329V193.431L115.411 194.441L112.906 195.902H117.916H122.927L120.421 194.438Z" fill="#1BB16B"/>
<path d="M154.966 195.892V210.356H152.98V201.012C152.98 200.558 152.818 200.147 152.555 199.849C152.294 199.554 151.933 199.369 151.533 199.369C150.73 199.369 150.081 200.101 150.081 201.012V210.356H148.098V195.892H154.966Z" fill="#92CB7B"/>
<path d="M148.213 195.896H146.539V210.357H148.213V195.896Z" fill="#1BB16B"/>
<path d="M156.555 195.896H154.881V210.357H156.555V195.896Z" fill="#1BB16B"/>
<path d="M154.054 194.438L152.324 193.429V192.329C152.69 192.049 152.931 191.574 152.931 191.036C152.931 190.397 152.176 189.306 151.782 188.783V185.361H151.317V188.783C150.922 189.306 150.168 190.394 150.168 191.033C150.168 191.571 150.409 192.046 150.775 192.326V193.429L149.044 194.438L146.539 195.899H151.549H156.559L154.054 194.438Z" fill="#1BB16B"/>
<path d="M145.52 229.438V250H124.242V228.92C124.242 222.554 134.438 215.9 134.438 215.9C134.438 215.9 136.18 216.939 138.282 218.622C141.48 221.188 145.52 225.255 145.52 229.438Z" fill="#1BB16B"/>
<path d="M158.475 226.711H158.441V250H158.475V226.711Z" fill="white"/>
<path d="M169 226.815H158V249.797H169V226.815Z" fill="#92CB7B"/>
<path d="M169 239.449V249.797H159V239.71C159 236.196 164.207 233.81 164.207 233.81C164.207 233.81 169 236.219 169 239.449Z" fill="#1BB16B"/>
<path d="M111.342 226.658H86.9727V249.994H111.342V226.658Z" fill="#92CB7B"/>
<path d="M96.7672 241.818V249.996H90.2988V241.665C90.2988 239.727 93.3997 238.197 93.3997 238.197C93.3997 238.197 94.6678 238.767 95.6466 239.695C96.265 240.277 96.7672 241.006 96.7672 241.818Z" fill="#1BB16B"/>
<path d="M111.189 239.568V249.996H100.082V239.299C100.082 235.973 105.401 233.491 105.401 233.491C105.401 233.491 111.189 235.952 111.189 239.568Z" fill="#1BB16B"/>
<path d="M92.6211 77.0596V78.853C92.6211 81.6185 94.8198 83.8603 97.5319 83.8603V82.0668C97.5319 79.3014 95.3333 77.0596 92.6211 77.0596Z" fill="#231F20"/>
<path d="M97.9707 82.0668V83.8603C100.683 83.8603 102.882 81.6185 102.882 78.853V77.0596C100.169 77.0596 97.9707 79.3014 97.9707 82.0668Z" fill="#231F20"/>
<path d="M92.6211 69.959V71.7525C92.6211 74.5179 94.8198 76.7597 97.5319 76.7597V74.9662C97.5319 72.2008 95.3333 69.959 92.6211 69.959Z" fill="#231F20"/>
<path d="M97.9707 74.9662V76.7597C100.683 76.7597 102.882 74.5179 102.882 71.7525V69.959C100.169 69.959 97.9707 72.2008 97.9707 74.9662Z" fill="#231F20"/>
<path d="M92.6211 62.665V64.4585C92.6211 67.2239 94.8198 69.4658 97.5319 69.4658V67.6723C97.5319 64.9069 95.3333 62.665 92.6211 62.665Z" fill="#231F20"/>
<path d="M102.882 62.665C100.169 62.665 97.9707 64.9069 97.9707 67.6723V69.4658C100.683 69.4658 102.882 67.2239 102.882 64.4585V62.665Z" fill="#231F20"/>
<path d="M93.4168 17.1289H92.7246V61.9686H93.4168V17.1289Z" fill="#231F20"/>
<path d="M94.993 17.1289H94.3008V61.9686H94.993V17.1289Z" fill="#231F20"/>
<path d="M96.5692 17.1289H95.877V61.9686H96.5692V17.1289Z" fill="#231F20"/>
<path d="M98.1395 17.1289H97.4473V61.9686H98.1395V17.1289Z" fill="#231F20"/>
<path d="M99.7137 17.1289H99.0215V61.9686H99.7137V17.1289Z" fill="#231F20"/>
<path d="M101.286 17.1289H100.594V61.9686H101.286V17.1289Z" fill="#231F20"/>
<path d="M102.86 17.1289H102.168V61.9686H102.86V17.1289Z" fill="#231F20"/>
<path d="M87.3497 180.724H0.435547V249.998H87.3497V180.724Z" fill="#97CF9B"/>
<path d="M66.0049 181.17C66.0049 189.032 60.1153 195.734 51.8625 198.28C49.5674 198.989 47.085 199.376 44.4977 199.376C41.9103 199.376 39.428 198.989 37.1328 198.28C28.8829 195.731 22.9961 189.032 22.9961 181.17C22.9961 181.019 22.9961 180.872 23.0046 180.724H65.9964C66.0049 180.872 66.0049 181.019 66.0049 181.17Z" fill="#F7C4BA"/>
<path d="M57.9212 183.914L48.6272 182.621L56.2758 187.269L56.5339 191.363L51.6969 191.146L46.2073 184.672L47.7364 192.537L44.4966 195.583L41.2596 192.537L42.783 184.672L37.2934 191.146L32.462 191.363L32.7145 187.269L40.3631 182.621L31.0748 183.914L27.4746 181.172L28.0619 180.723H60.9284L61.5157 181.172L57.9212 183.914Z" fill="#97CF9B"/>
<path d="M66.0049 215.386C66.0049 225.441 56.3762 233.593 44.5005 233.593C32.6248 233.593 22.9961 225.441 22.9961 215.386C22.9961 205.331 32.6248 197.179 44.5005 197.179C56.3762 197.182 66.0049 205.331 66.0049 215.386Z" fill="#F7C4BA"/>
<path d="M61.5185 215.388L57.9212 212.648L48.6301 213.938L56.2786 209.293L56.5339 205.199L51.6997 205.413L46.2073 211.89L47.7364 204.025L44.4966 200.976L41.2567 204.025L42.7859 211.89L37.2934 205.413L32.4592 205.199L32.7145 209.293L40.3631 213.938L31.0719 212.648L27.4746 215.388L31.0719 218.13L40.3631 216.837L32.7145 221.485L32.4592 225.578L37.2934 225.364L42.7859 218.888L41.2567 226.753L44.4966 229.799L47.7364 226.753L46.2073 218.888L51.6997 225.364L56.5339 225.578L56.2786 221.485L48.6301 216.837L57.9212 218.13L61.5185 215.388Z" fill="#97CF9B"/>
<path d="M87.3492 180.723V216.457C84.7619 216.457 82.2795 216.072 79.9844 215.363C71.7344 212.815 65.8477 206.115 65.8477 198.253C65.8477 189.913 72.4749 182.878 81.5079 180.723H87.3492Z" fill="#F7C4BA"/>
<path d="M87.352 183.839V212.662L84.115 209.616L85.6385 201.751L80.1489 208.225L75.3175 208.439L75.57 204.349L83.2185 199.7L73.9274 200.99L70.3301 198.251L73.9274 195.508L83.2185 196.802L75.57 192.153L75.3175 188.057L80.1489 188.277L85.6385 194.751L84.115 186.885L87.352 183.839Z" fill="#97CF9B"/>
<path d="M87.3492 214.266V250H81.5079C72.4749 247.845 65.8477 240.815 65.8477 232.47C65.8477 224.608 71.7373 217.908 79.9844 215.362C82.2795 214.651 84.7619 214.266 87.3492 214.266Z" fill="#F7C4BA"/>
<path d="M87.352 218.058V246.88L84.115 243.834L85.6385 235.966L80.1489 242.446L75.3175 242.66L75.57 238.567L83.2185 233.918L73.9274 235.211L70.3301 232.469L73.9274 229.73L83.2185 231.02L75.57 226.371L75.3175 222.281L80.1489 222.495L85.6385 228.969L84.115 221.107L87.352 218.058Z" fill="#97CF9B"/>
<path d="M23 198.475C23 206.39 16.8785 213.137 8.30064 215.699C5.91513 216.413 3.335 216.8 0.64577 216.8C0.427565 216.8 0.212308 216.797 0 216.788V180.829H6.71718C16.1147 182.998 23 190.08 23 198.475Z" fill="#F7C4BA"/>
<path d="M14.3282 201.069L4.84938 199.772L12.6558 204.445L12.9134 208.557L7.98296 208.342L2.38129 201.834L3.94084 209.741L0.636554 212.803L0 212.216V184.414L0.636554 183.827L3.94084 186.889L2.38129 194.796L7.98296 188.288L12.9134 188.07L12.6558 192.185L4.84938 196.858L14.3282 195.558L18 198.315L14.3282 201.069Z" fill="#97CF9B"/>
<path d="M23 232.128C23 240.526 16.1118 247.604 6.71718 249.773H0V213.814C0.215256 213.805 0.427565 213.802 0.64577 213.802C3.335 213.802 5.91513 214.189 8.30064 214.906C16.8814 217.468 23 224.214 23 232.128Z" fill="#F7C4BA"/>
<path d="M14.3282 235.044L4.84938 233.744L12.6558 238.418L12.9134 242.533L7.98296 242.318L2.38129 235.803L3.94084 243.713L0.636554 246.776L0 246.185V218.387L0.636554 217.799L3.94084 220.864L2.38129 228.769L7.98296 222.26L12.9134 222.045L12.6558 226.157L4.84938 230.831L14.3282 229.534L18 232.288L14.3282 235.044Z" fill="#97CF9B"/>
<path d="M65.9948 249.997H23.0059C23.1903 241.868 29.67 235.045 38.4902 232.875C40.3966 232.404 42.4137 232.152 44.4989 232.152C46.5841 232.152 48.6012 232.404 50.5077 232.875C59.3307 235.045 65.8104 241.868 65.9948 249.997Z" fill="#F7C4BA"/>
<path d="M61.0419 249.995H27.9512L31.0747 247.617L40.363 248.91L32.7145 244.262L32.462 240.172L37.2934 240.386L42.783 246.859L41.2595 238.994L44.4965 235.948L47.7364 238.994L46.2072 246.859L51.6968 240.386L56.5339 240.172L56.2757 244.262L48.6272 248.91L57.9212 247.617L61.0419 249.995Z" fill="#97CF9B"/>
</svg>
