<svg width="113" height="67" viewBox="0 0 113 67" fill="none" xmlns="http://www.w3.org/2000/svg">
<path d="M14.4684 61.381C14.164 62.9673 13.3902 64.2025 12.1598 65.1106C10.942 66.0067 9.44517 66.4669 7.69464 66.4669C5.70309 66.4669 4.01599 65.8251 2.63333 64.5294C1.26335 63.2459 0.565674 61.6596 0.565674 59.7705C0.565674 57.8936 1.26335 56.3073 2.64601 55.0117C4.02868 53.716 5.71578 53.0742 7.70732 53.0742C9.39443 53.0742 10.8532 53.5223 12.109 54.4183C13.3521 55.3144 14.1386 56.5011 14.4684 57.9905L11.2211 58.7171C11.0181 57.8089 10.6122 57.1308 9.99062 56.6585C9.36906 56.1863 8.60796 55.9562 7.72001 55.9562C6.65447 55.9562 5.74115 56.3195 5.00542 57.046C4.26969 57.7725 3.88914 58.6807 3.88914 59.7584C3.88914 60.8482 4.25701 61.7564 5.00542 62.483C5.74115 63.2095 6.65447 63.5849 7.72001 63.5849C8.59527 63.5849 9.35637 63.3427 9.97794 62.8705C10.5995 62.3982 11.0181 61.6838 11.2464 60.7514L14.4684 61.381Z" fill="#C42729"/>
<path d="M29.1448 60.3996C29.1448 62.2402 28.5993 63.7054 27.5084 64.8073C26.4175 65.9093 24.9841 66.4663 23.1955 66.4663C21.3688 66.4663 19.8847 65.9093 18.7811 64.8073C17.6775 63.7054 17.1067 62.2402 17.1067 60.3996V53.3643H20.4175V60.3996C20.4175 61.3684 20.6712 62.1433 21.1786 62.7004C21.686 63.2695 22.3583 63.548 23.2082 63.548C24.0073 63.548 24.6543 63.2695 25.1363 62.7004C25.6183 62.1312 25.8593 61.3684 25.8593 60.3996V53.3643H29.1701V60.3996H29.1448Z" fill="#C42729"/>
<path d="M42.1472 66.1757H32.2275V53.3643H35.5256V63.4269H42.1472V66.1757Z" fill="#C42729"/>
<path d="M48.4135 56.113V66.1757H45.1281V56.113H40.7771V53.3643H52.7644V56.113H48.4135Z" fill="#C42729"/>
<path d="M67.1237 60.3996C67.1237 62.2402 66.5783 63.7054 65.4874 64.8073C64.3965 65.9093 62.9631 66.4663 61.1745 66.4663C59.3478 66.4663 57.8764 65.9093 56.7601 64.8073C55.6438 63.7054 55.0857 62.2402 55.0857 60.3996V53.3643H58.3965V60.3996C58.3965 61.3684 58.6502 62.1433 59.1576 62.7004C59.665 63.2695 60.3373 63.548 61.1872 63.548C61.9863 63.548 62.6332 63.2695 63.1026 62.7004C63.5846 62.1312 63.8256 61.3684 63.8256 60.3996V53.3643H67.1364V60.3996H67.1237Z" fill="#C42729"/>
<path d="M78.9337 66.1757L74.8871 61.7801H73.9231V66.1757H70.6123V53.3643H77.4115C78.8702 53.3643 80.0373 53.7517 80.9125 54.5267C81.8005 55.3017 82.2318 56.3068 82.2318 57.554C82.2318 58.5954 81.9146 59.4794 81.2931 60.2059C80.6588 60.9203 79.8089 61.4047 78.7053 61.6348L82.9167 66.1878H78.9337V66.1757ZM77.0436 59.1403C77.6271 59.1403 78.0965 58.995 78.4516 58.7165C78.8068 58.438 78.9844 58.0626 78.9844 57.5903C78.9844 57.1302 78.8068 56.7669 78.4516 56.4763C78.0965 56.1978 77.6271 56.0525 77.0436 56.0525H73.9104V59.1282H77.0436V59.1403Z" fill="#C42729"/>
<path d="M96.2867 66.1757H85.8215V53.3643H96.2232V56.0767H89.1323V58.4864H95.6397V61.0535H89.1323V63.4632H96.2867V66.1757Z" fill="#C42729"/>
<path d="M108.667 66.1757L107.729 63.8386H102.071L101.132 66.1757H97.5806L103.187 53.3643H106.574L112.194 66.1757H108.667ZM104.9 56.9243L103.2 61.1383H106.625L104.9 56.9243Z" fill="#C42729"/>
<path d="M73.3901 12.6298C70.8531 5.07371 63.5592 0 55.2505 0C46.9165 0 39.4323 5.30378 37.0222 12.9083C36.2865 15.2332 36.1342 17.7883 36.5529 20.4038C36.6797 21.203 36.8573 22.0143 37.0983 22.8256C37.2505 23.3584 37.4408 23.9155 37.6564 24.4967C38.5317 23.7096 39.5846 22.7046 40.7262 21.5784C43.9482 18.3937 47.8552 14.2524 50.4937 11.4794L52.0032 9.88102C54.4641 7.28967 57.0645 5.94557 59.7156 5.87291C64.7008 5.75182 68.3034 9.50564 69.7241 13.7438C70.4979 16.0446 70.5232 18.6601 69.8129 21.2999C69.7621 21.4815 69.7114 21.6753 69.648 21.8569C68.2907 26.4099 64.6882 33.1789 55.2252 39.8874C54.5148 39.3788 53.8425 38.8823 53.1956 38.3737C57.0518 34.9105 62.2399 29.5583 65.0941 25.3686C67.0729 22.4624 68.1258 19.3746 68.075 16.6742C68.0243 14.0466 66.8446 11.6126 64.9038 10.1595C62.6078 8.44004 59.0687 8.45215 56.3034 10.1837C54.2357 11.4794 51.2928 14.7368 50.9249 15.1485C48.4006 18.1636 44.5951 21.8206 41.7537 24.4362C40.5233 25.5623 39.4704 26.5068 38.7854 27.1123C39.3055 28.1779 39.9271 29.2919 40.6755 30.4423C41.0814 30.0911 42.1469 29.1587 43.5423 27.8872C46.4979 25.1869 50.9757 20.973 53.8932 17.4734C54.6924 16.5895 57.0518 14.095 58.4218 13.2352C59.7664 12.3997 61.5676 12.3028 62.5444 13.0294C63.3435 13.6348 64.2188 14.9184 64.2442 16.7227C64.2822 18.6964 63.445 21.0456 61.8848 23.3463C58.7389 27.972 53.6142 32.9488 50.3034 35.9035C48.9588 37.1023 47.9059 37.9741 47.4239 38.3374C47.4366 38.3495 47.4493 38.3616 47.4619 38.3737C47.6142 38.519 47.7664 38.6522 47.9186 38.7975C48.667 39.4635 49.4535 40.1417 50.3034 40.8077C51.3816 41.6674 52.5359 42.5271 53.7791 43.3869L55.2505 44.4283L56.722 43.3869C67.6691 35.8914 71.8171 28.081 73.3774 22.8378C73.4408 22.6198 73.5042 22.4139 73.555 22.196C74.4302 18.9023 74.3795 15.5844 73.3901 12.6298ZM49.1617 7.41077L47.6395 9.00917C45.6099 11.1525 42.8065 14.1192 40.1808 16.7953C40.2442 15.8145 40.4091 14.87 40.6882 13.9618C42.4767 8.30684 47.8044 4.25029 53.8932 3.71749C52.2569 4.58935 50.6712 5.82447 49.1617 7.41077Z" fill="#C42729"/>
<path d="M61.2506 18.9627C61.8341 18.1151 61.5931 16.9769 60.7051 16.4198C59.8299 15.8628 58.6248 16.0929 58.0413 16.9405C54.2485 22.3896 49.3902 26.9669 45.3563 30.5633C44.646 31.1929 43.961 31.7984 43.314 32.3554L42.5149 33.0577C43.2379 33.9901 44.0498 34.9467 44.9504 35.9034L45.9271 35.0436C46.5107 34.5229 47.1322 33.978 47.7792 33.4089C52.0033 29.6793 57.166 24.8478 61.2506 18.9627Z" fill="#C42729"/>
</svg>
