<svg width="164" height="46" fill="none" xmlns="http://www.w3.org/2000/svg"><path d="M62.775 28.76c-.315 1.642-1.116 2.921-2.39 3.861-1.26.928-2.81 1.405-4.623 1.405-2.062 0-3.809-.665-5.24-2.006-1.419-1.33-2.141-2.972-2.141-4.928 0-1.943.722-3.585 2.154-4.927 1.431-1.341 3.178-2.006 5.24-2.006 1.747 0 3.257.464 4.558 1.392 1.287.928 2.101 2.156 2.442 3.698l-3.362.753c-.21-.94-.63-1.643-1.274-2.132-.643-.489-1.431-.727-2.35-.727-1.104 0-2.05.376-2.811 1.128-.762.753-1.156 1.693-1.156 2.809 0 1.128.38 2.069 1.156 2.82.761.753 1.707 1.142 2.81 1.142.907 0 1.695-.251 2.338-.74.644-.489 1.077-1.229 1.314-2.194l3.335.652zM77.972 27.743c0 1.906-.565 3.423-1.694 4.564-1.13 1.14-2.614 1.718-4.466 1.718-1.891 0-3.428-.577-4.57-1.718-1.143-1.141-1.734-2.658-1.734-4.564V20.46h3.428v7.284c0 1.003.262 1.806.788 2.382.525.59 1.221.878 2.101.878.828 0 1.497-.288 1.996-.878.5-.589.75-1.379.75-2.382V20.46h3.427v7.284h-.026zM91.433 33.724h-10.27V20.459h3.414v10.419h6.856v2.846zM97.92 23.305v10.419H94.52V23.305h-4.505v-2.846h12.411v2.846H97.92zM117.294 27.743c0 1.906-.565 3.423-1.694 4.564-1.13 1.14-2.614 1.718-4.466 1.718-1.891 0-3.415-.577-4.57-1.718-1.156-1.141-1.734-2.658-1.734-4.564V20.46h3.428v7.284c0 1.003.263 1.806.788 2.382.525.59 1.221.878 2.101.878.828 0 1.498-.288 1.984-.878.499-.589.748-1.379.748-2.382V20.46h3.428v7.284h-.013zM129.522 33.724l-4.19-4.551h-.998v4.55h-3.428V20.46h7.04c1.51 0 2.719.401 3.625 1.204.919.802 1.366 1.843 1.366 3.134 0 1.078-.329 1.993-.972 2.746-.657.74-1.537 1.24-2.679 1.48l4.36 4.713h-4.124v-.012zm-1.957-7.285c.604 0 1.09-.15 1.458-.439.368-.288.552-.677.552-1.165 0-.477-.184-.853-.552-1.154-.368-.288-.854-.439-1.458-.439h-3.244v3.185h3.244v.012zM147.488 33.724h-10.836V20.459h10.77v2.808h-7.342v2.495h6.738v2.658h-6.738v2.495h7.408v2.809zM160.307 33.724l-.972-2.42h-5.858l-.971 2.42h-3.678l5.805-13.265h3.507l5.818 13.265h-3.651zm-3.901-9.579l-1.76 4.363h3.546l-1.786-4.363zM38.378 13.077C35.751 5.253 28.2 0 19.597 0 10.968 0 3.219 5.491.724 13.365c-.762 2.407-.92 5.053-.486 7.76.131.828.315 1.668.564 2.508.158.552.355 1.129.578 1.73a98.924 98.924 0 003.179-3.021c3.336-3.298 7.38-7.585 10.113-10.456l1.563-1.655c2.548-2.683 5.24-4.075 7.985-4.15 5.162-.126 8.892 3.76 10.363 8.149.8 2.382.827 5.09.091 7.823-.052.188-.105.39-.17.577-1.406 4.714-5.136 11.723-14.933 18.668a58.313 58.313 0 01-2.102-1.567c3.993-3.586 9.365-9.127 12.32-13.465 2.048-3.009 3.139-6.206 3.086-9.002-.053-2.72-1.274-5.24-3.283-6.745-2.378-1.78-6.042-1.768-8.905.025-2.14 1.341-5.188 4.714-5.569 5.14-2.613 3.122-6.553 6.909-9.495 9.617a251.559 251.559 0 01-3.074 2.77 32.265 32.265 0 001.957 3.448c.42-.363 1.524-1.329 2.968-2.645 3.06-2.796 7.697-7.16 10.718-10.782.827-.916 3.27-3.498 4.688-4.388 1.393-.866 3.258-.966 4.269-.214.827.627 1.733 1.956 1.76 3.824.04 2.044-.828 4.476-2.443 6.858-3.257 4.79-8.563 9.942-11.991 13.002-1.393 1.24-2.483 2.144-2.982 2.52l.04.037c.157.15.315.289.473.44.774.689 1.589 1.39 2.469 2.08 1.116.89 2.311 1.78 3.598 2.67L19.597 46l1.523-1.078c11.335-7.76 15.63-15.848 17.245-21.276.066-.226.131-.44.184-.665.906-3.41.854-6.845-.17-9.904zM13.293 7.673l-1.576 1.655c-2.102 2.219-5.004 5.29-7.723 8.062.066-1.016.236-1.994.525-2.934C6.371 8.6 11.887 4.4 18.192 3.849c-1.695.903-3.336 2.182-4.9 3.824z" fill="#1BB36C"/><path d="M25.809 19.634c.604-.878.354-2.056-.565-2.633-.906-.577-2.154-.339-2.758.539-3.927 5.642-8.957 10.381-13.134 14.105-.735.652-1.445 1.278-2.114 1.855l-.828.727c.749.966 1.59 1.956 2.522 2.947l1.011-.89c.604-.54 1.248-1.104 1.918-1.693 4.373-3.862 9.719-8.864 13.948-14.957z" fill="#1BB36C"/></svg>