<svg width="966" height="853" viewBox="0 0 966 853" fill="none" xmlns="http://www.w3.org/2000/svg">
<g clip-path="url(#clip0)">
<path d="M966.25 1.11035H565.811V598.19H966.25V1.11035Z" fill="#E1DFDE"/>
<path d="M966.45 0H565.811V208.051H966.45V0Z" fill="#F7C4BA"/>
<path d="M312 0H0V479.497H312V0Z" fill="#E8F1CF"/>
<path d="M44.0004 145.343L27.6504 157.608L77.3704 227.524L88.6304 205.992L44.0004 145.343Z" fill="#F7C4BA"/>
<path d="M140.13 73.6712L139.42 75.6598L151.23 111.526L160.45 118.36L178.88 78.6882L176.2 71.9248L140.13 73.6712Z" fill="white"/>
<path d="M144.98 273.515H120.83V458.469H144.98V273.515Z" fill="#F7C4BA"/>
<path d="M185.791 273.515H161.641V458.469H185.791V273.515Z" fill="#F7C4BA"/>
<path d="M212.86 85.9861V165.492H105.84V85.9861H122.99C123.19 86.0265 123.38 86.0265 123.58 86.0265C123.78 86.0265 123.97 86.0265 124.17 85.9861C131.12 85.7741 136.99 81.07 139.67 74.458L158.59 115.372L177.31 74.6902C180.05 80.9085 185.79 85.7741 192.44 85.9861C192.64 86.0265 192.83 86.0265 193.03 86.0265C193.23 86.0265 193.42 86.0265 193.62 85.9861H212.86Z" fill="black"/>
<path d="M124.17 93.0527C123.97 93.0827 123.78 93.0827 123.58 93.0827C123.39 93.0827 123.19 93.0827 122.99 93.0527H124.17Z" fill="#231F20"/>
<path d="M193.61 93.0527C193.41 93.0827 193.22 93.0827 193.02 93.0827C192.83 93.0827 192.63 93.0827 192.43 93.0527H193.61Z" fill="#231F20"/>
<path d="M201.77 335.194C201.61 335.224 201.48 335.244 201.31 335.275C187.34 338.273 173.13 339.767 158.91 339.767H158.4C158.45 281.642 158.48 223.527 158.54 165.401H176.36L201.77 335.194Z" fill="#B2D793"/>
<path d="M294.89 324.655C281.92 336.173 267.9 345.783 253.15 353.455C252.99 353.566 252.83 353.647 252.66 353.728C238.05 361.299 222.75 366.982 207.11 370.798C206.95 370.848 206.76 370.879 206.6 370.909C190.96 374.694 174.94 376.572 158.92 376.622H158.38C142.36 376.572 126.34 374.694 110.7 370.909C110.54 370.879 110.35 370.858 110.19 370.798C94.5201 366.982 79.2301 361.299 64.6101 353.728C64.4501 353.647 64.2901 353.566 64.1301 353.485V353.455C49.4101 345.783 35.3802 336.163 22.4102 324.655C26.9102 316.054 31.4201 307.423 35.9201 298.823C44.9201 305.627 54.3601 311.562 64.1301 316.63C64.2901 316.741 64.4501 316.822 64.6101 316.902V316.872C67.7701 318.507 70.9701 320.062 74.1901 321.495C74.3301 321.606 74.4901 321.657 74.6201 321.717C86.1601 326.947 98.0501 330.994 110.19 333.942V333.972C110.35 334.023 110.54 334.053 110.7 334.083C112.29 334.487 113.91 334.841 115.53 335.194C115.69 335.224 115.83 335.244 115.99 335.275C129.96 338.273 144.17 339.767 158.38 339.767H158.92C173.13 339.767 187.34 338.273 201.32 335.275C201.48 335.244 201.61 335.224 201.78 335.194C203.4 334.841 205.02 334.487 206.61 334.083C206.77 334.053 206.96 334.033 207.12 333.972V333.942C219.23 330.994 231.12 326.947 242.66 321.717C242.79 321.667 242.96 321.606 243.09 321.495C246.3 320.052 249.51 318.497 252.67 316.872V316.902C252.83 316.822 252.99 316.741 253.16 316.63C262.92 311.562 272.38 305.627 281.39 298.823C285.89 307.423 290.39 316.054 294.89 324.655Z" fill="black"/>
<path d="M123.49 165.401C107.2 217.51 90.9099 269.609 74.6199 321.717C74.4899 321.667 74.3199 321.606 74.1899 321.495C70.9799 320.052 67.7699 318.497 64.6099 316.872V316.902C64.4499 316.821 64.2899 316.741 64.1299 316.63C54.3699 311.562 44.9299 305.637 35.9199 298.823C59.1699 254.335 82.41 209.889 105.66 165.401H123.49Z" fill="#1BB16B"/>
<path d="M110.189 370.808C110.349 370.858 110.539 370.888 110.699 370.919V370.949C110.539 370.888 110.349 370.858 110.189 370.808Z" fill="#51B27F"/>
<path d="M141.12 165.401C132.73 222.022 124.34 278.654 115.99 335.275C115.83 335.244 115.69 335.224 115.53 335.194C113.91 334.84 112.29 334.487 110.7 334.083C110.54 334.053 110.35 334.033 110.18 333.972V333.952C98.0497 331.005 86.1497 326.957 74.6097 321.727C74.4697 321.677 74.3097 321.616 74.1797 321.505C90.5497 269.477 106.92 217.429 123.29 165.411H141.12V165.401Z" fill="#92CB7B"/>
<path d="M158.889 339.767H158.379C144.169 339.767 129.959 338.273 115.989 335.275C115.829 335.244 115.689 335.224 115.529 335.194L140.929 165.401H158.729C158.789 223.527 158.839 281.642 158.889 339.767Z" fill="#E9F2E1"/>
<path d="M206.6 370.908C206.76 370.878 206.95 370.858 207.11 370.797C206.95 370.848 206.76 370.878 206.6 370.929V370.908Z" fill="#FCD0B0"/>
<path d="M243.089 321.505C242.959 321.616 242.789 321.667 242.659 321.717C231.119 326.946 219.229 331.004 207.119 333.942V333.972C206.959 334.022 206.769 334.053 206.609 334.083C205.019 334.497 203.399 334.85 201.779 335.204C201.619 335.234 201.489 335.254 201.319 335.284C192.959 278.653 184.579 222.032 176.189 165.411H194.019C210.379 217.419 226.719 269.477 243.089 321.505Z" fill="#92CB7B"/>
<path d="M281.381 298.823C272.371 305.627 262.901 311.562 253.141 316.63C252.981 316.741 252.821 316.821 252.651 316.902V316.872C249.501 318.507 246.291 320.062 243.081 321.495C242.951 321.606 242.781 321.657 242.651 321.717C226.391 269.609 210.071 217.51 193.811 165.401H211.611C234.861 209.889 258.141 254.346 281.381 298.823Z" fill="#1BB16B"/>
<path d="M183.011 55.4501C183.011 62.8293 180.791 69.5423 177.041 74.7108C172.571 81.03 165.921 85.0174 158.451 85.0174C150.921 85.0174 144.161 80.9392 139.661 74.4786C136.041 69.3404 133.891 62.688 133.891 55.44C133.891 54.6224 133.921 53.7946 133.991 52.9769C134.091 51.6242 134.251 50.3422 134.481 49.0602C136.731 36.6437 145.471 27.1648 156.241 26.014C156.961 25.9131 157.711 25.8828 158.461 25.8828C159.181 25.8828 159.901 25.9131 160.611 25.9838C171.371 27.1043 180.181 36.6235 182.401 49.0703C182.631 50.2917 182.791 51.5132 182.891 52.7548C182.981 53.6432 183.011 54.5315 183.011 55.4501Z" fill="#F7C4BA"/>
<path d="M161.651 32.1724C161.651 36.1195 160.47 39.7737 158.42 42.8122C155.06 47.8192 149.351 51.11 142.891 51.11C139.861 51.11 137.02 50.3832 134.48 49.0709C136.73 36.6545 145.47 27.1756 156.24 26.0248C156.96 25.9238 157.711 25.8936 158.461 25.8936C159.181 25.8936 159.89 25.9238 160.61 25.9945C161.29 27.9226 161.651 29.992 161.651 32.1724Z" fill="#231F20"/>
<path d="M182.389 49.0595C179.839 50.3819 176.969 51.0987 173.909 51.0987C167.449 51.0987 161.779 47.8078 158.419 42.8008C156.369 39.7724 155.189 36.1182 155.189 32.161C155.189 29.9907 155.549 27.9112 156.229 26.0033C156.949 25.9024 157.699 25.8721 158.449 25.8721C159.159 25.8721 159.879 25.9024 160.599 25.973C171.369 27.1036 180.179 36.6128 182.389 49.0595Z" fill="#231F20"/>
<path d="M101.91 71.0155C79.1303 59.2552 51.2202 68.3606 39.5702 91.3563L20.7203 128.555C9.07027 151.551 18.0902 179.725 40.8702 191.485C63.6502 203.246 91.5603 194.14 103.21 171.145L122.06 133.946C133.71 110.95 124.69 82.7758 101.91 71.0155Z" fill="white"/>
<path d="M191.709 37.1685C190.699 36.472 190.389 35.0991 190.999 34.0291C192.059 32.1616 190.309 29.9508 188.269 30.5767C187.099 30.9401 185.849 30.3344 185.399 29.1836C184.619 27.1849 181.809 27.1849 181.029 29.1836C180.579 30.3344 179.329 30.9401 178.159 30.5767C177.449 30.3546 176.789 30.4959 176.259 30.8291C176.089 30.4858 175.859 30.1628 175.499 29.9205C174.489 29.224 174.179 27.8511 174.789 26.7811C175.849 24.9136 174.099 22.7028 172.059 23.3287C170.889 23.6921 169.639 23.0864 169.189 21.9357C168.409 19.9369 165.599 19.9369 164.819 21.9357C164.369 23.0864 163.129 23.6921 161.949 23.3287C159.909 22.7028 158.159 24.9136 159.219 26.7811C159.819 27.8309 159.519 29.1634 158.559 29.8701C158.509 29.8297 158.469 29.7691 158.419 29.7388C157.409 29.0423 157.099 27.6694 157.709 26.5994C158.769 24.7319 157.019 22.5211 154.989 23.147C153.819 23.5104 152.569 22.9047 152.119 21.7539C151.339 19.7552 148.529 19.7552 147.749 21.7539C147.299 22.9047 146.049 23.5104 144.879 23.147C142.839 22.5211 141.089 24.7319 142.159 26.5994C142.769 27.6694 142.459 29.0423 141.449 29.7388C140.769 30.2133 140.449 30.9098 140.429 31.6164C139.339 31.4045 138.519 30.4858 138.509 29.3451C138.489 27.195 135.869 26.1754 134.439 27.7603C133.609 28.6688 132.229 28.7798 131.259 28.0227C129.579 26.6902 127.159 28.1237 127.489 30.2537C127.679 31.4751 126.899 32.636 125.709 32.9288C123.639 33.4234 123.239 36.2297 125.089 37.2998C126.149 37.9155 126.569 39.248 126.049 40.3685C125.139 42.3168 127.059 44.3761 129.039 43.5786C130.179 43.1244 131.479 43.6291 132.019 44.7395C132.959 46.6676 135.749 46.4354 136.379 44.3862C136.729 43.2051 137.929 42.4985 139.129 42.761C141.209 43.2253 142.769 40.8733 141.559 39.0966C140.859 38.077 141.069 36.6941 142.019 35.9067C142.579 35.4423 142.839 34.8265 142.869 34.2108C143.829 34.5641 144.489 35.4928 144.419 36.5729C144.269 38.713 146.789 39.9445 148.359 38.4909C149.259 37.6531 150.649 37.6531 151.549 38.4909C153.119 39.9445 155.639 38.7231 155.489 36.5729C155.399 35.3313 156.269 34.2411 157.479 34.0594C157.819 34.0089 158.109 33.8675 158.369 33.706C158.679 33.9685 159.059 34.1704 159.519 34.241C160.729 34.4328 161.589 35.5231 161.509 36.7647C161.359 38.9048 163.879 40.1363 165.449 38.6726C166.349 37.8348 167.739 37.8348 168.639 38.6726C170.209 40.1363 172.729 38.9048 172.579 36.7647C172.489 35.5231 173.349 34.4328 174.569 34.241C174.899 34.1906 175.169 34.0694 175.429 33.918C175.449 33.9584 175.459 34.0089 175.479 34.0493C176.089 35.1193 175.779 36.4821 174.769 37.1887C173.009 38.4001 173.629 41.166 175.739 41.489C176.949 41.6707 177.819 42.7711 177.729 44.0026C177.579 46.1528 180.099 47.3742 181.669 45.9206C182.569 45.0827 183.959 45.0827 184.859 45.9206C186.429 47.3843 188.949 46.1528 188.799 44.0026C188.709 42.7711 189.569 41.6707 190.789 41.489C192.839 41.1357 193.469 38.3799 191.709 37.1685Z" fill="#E52226"/>
<path d="M277.489 145.343L293.849 157.608L244.119 227.524L232.859 205.992L277.489 145.343Z" fill="#F7C4BA"/>
<path d="M296.72 128.959L277.66 91.3465C266.01 68.3509 238.099 59.2455 215.319 71.0058C192.539 82.7661 183.519 110.94 195.169 133.936L214.229 171.549C225.879 194.544 253.789 203.65 276.569 191.889C299.359 180.139 308.38 151.955 296.72 128.959Z" fill="white"/>
<path d="M207.049 479.356H161.659V471.633H161.619V412.913H185.789V463.659C185.789 468.06 189.319 471.623 193.679 471.623H199.399C203.629 471.643 207.049 475.096 207.049 479.356Z" fill="black"/>
<path d="M144.889 412.922V479.355H100.459C100.459 475.085 103.879 471.633 108.109 471.633H112.819C117.179 471.633 120.709 468.07 120.709 463.668V412.922H144.889V412.922Z" fill="black"/>
<path d="M163.49 72.7017C163.3 75.2354 161.17 77.2342 158.62 77.2342C156.01 77.2342 153.94 75.2354 153.74 72.7017H154.08C154.71 72.7017 155.57 71.5105 155.67 71.2884C155.93 70.7231 156.49 70.4102 157.12 70.4102C157.75 70.4102 158.33 70.7534 158.67 71.2884C158.91 70.7534 159.49 70.4102 160.12 70.4102C160.75 70.4102 161.28 70.7433 161.62 71.2884C161.73 71.46 162.63 72.7017 163.21 72.7017H163.49Z" fill="#E52226"/>
<path d="M217.971 494.629L216.641 494.841L217.931 494.619H217.951L217.971 494.629Z" fill="#F19B96"/>
<path d="M311.24 521.794V562.849L278.701 553.592L92.5105 500.544L19 479.497L163.461 479.608L216 494.639L216.5 494.72L216.62 494.841H216.63L277.18 512.113L311.24 521.794Z" fill="#1BB16B"/>
<path d="M311.239 521.794L277.179 512.113L216.629 494.841L278.699 512.517L311.239 521.794Z" fill="#F1F0EF"/>
<path d="M217.971 494.629L216.641 494.841L217.931 494.619H217.951L217.971 494.629Z" fill="#F1F0EF"/>
<path d="M91 500.098V542.084L0 515.809V479.497H19L91 500.098Z" fill="#F7C4BA"/>
<path d="M297 600.633H151.027L116 590.652V549.15L189.581 570.069L297 600.633Z" fill="#B2D793"/>
<path d="M151 600.633H1.38441H0V558.235L116.139 590.83L151 600.633Z" fill="#1BB16B"/>
<path d="M311 479.497V480.008L310.67 479.898L278.412 484.925L217.882 494.339L217.571 494.389H217.551L216.249 494.609H216.239L216.029 494.639L215.498 494.489L163 479.497H311Z" fill="#92CB7B"/>
<path d="M311.239 480.123L217.969 494.629L216.629 494.841L217.929 494.619H217.949L218.259 494.568L278.699 485.079L310.909 480.012L311.239 480.123Z" fill="#FAD6CE"/>
<path d="M217.971 494.629L216.641 494.841L217.931 494.619H217.951L217.971 494.629Z" fill="#FCD2B2"/>
<path d="M311 562.778V600.633H296.551L189.544 570.034L116.245 549.092V590.857L0 558.235V515.695L91 541.579V500.191L279 553.693L311 562.778Z" fill="#92CB7B"/>
<path d="M311.239 521.794L277.179 512.113L216.629 494.841L278.699 512.517L311.239 521.794Z" fill="#FCD2B2"/>
<path d="M311.239 480.123L217.969 494.629L216.629 494.841L217.929 494.619H217.949L218.259 494.568L278.699 485.079L310.909 480.012L311.239 480.123Z" fill="#FCD2B2"/>
<path d="M310.97 479.497L311 521.895L278.666 512.571L216 494.639L218.5 494.134L310.97 479.497Z" fill="#F48D83"/>
<path d="M566 599.624H309V853H566V599.624Z" fill="#F7C4BA"/>
<path d="M462.8 719.397C461.08 713.935 455.65 710.857 450.42 712.199C449.86 706.718 445.43 702.438 440.05 702.438C434.46 702.438 429.91 707.061 429.65 712.875C424.37 711.644 419 714.864 417.41 720.386C415.83 725.898 418.57 731.702 423.6 733.751C421.05 738.587 422.32 744.765 426.72 748.025C431.2 751.346 437.3 750.407 440.74 746.047C444.31 750.105 450.28 750.781 454.59 747.409C459.01 743.977 460.08 737.607 457.21 732.812C462.01 730.521 464.48 724.767 462.8 719.397ZM440.15 733.761C436.41 733.761 433.37 730.571 433.37 726.645C433.37 722.708 436.4 719.528 440.15 719.528C443.89 719.528 446.93 722.718 446.93 726.645C446.92 730.581 443.89 733.761 440.15 733.761Z" fill="#E52226"/>
<path d="M446.919 726.645C446.919 730.582 443.889 733.771 440.139 733.771C436.399 733.771 433.359 730.582 433.359 726.645C433.359 722.708 436.389 719.528 440.139 719.528C443.889 719.518 446.919 722.708 446.919 726.645Z" fill="#F19B96"/>
<path d="M460.15 669.711C460.25 662.362 457.65 655.266 454.59 648.765L451.31 651.924C455.07 642.779 444.28 632.331 440.16 626.354C435.3 633.502 425.57 642.032 429.01 651.924C428.21 651.147 426.53 649.522 425.73 648.765C421.78 657.688 416.05 671.074 424.52 678.928C423.78 678.736 421.69 678.191 420.91 677.989C423.2 701.287 457.13 701.287 459.42 677.989L455.81 678.928C458.32 676.687 459.97 673.396 460.15 669.711Z" fill="#E52226"/>
<path d="M440.16 626.344V695.462C431.1 695.462 422.06 689.637 420.9 677.988C421.68 678.19 423.77 678.735 424.51 678.927C416.05 671.083 421.78 657.698 425.73 648.764C426.52 649.521 428.2 651.146 429.01 651.924C425.57 642.041 435.29 633.501 440.16 626.344Z" fill="#F48D83"/>
<path d="M380.57 665.168C380.18 662.089 380.08 659.293 380.29 656.719C382.66 656.335 384.77 654.67 385.72 652.166C387.15 648.381 385.39 644.091 381.79 642.587C378.18 641.082 374.1 642.94 372.67 646.725C371.44 649.976 372.57 653.6 375.21 655.508C374.9 658.688 374.98 662.13 375.45 665.905C375.67 667.591 375.94 669.196 376.27 670.71C371.29 666.511 366.25 661.898 360.73 656.729C360.77 656.648 360.8 656.578 360.83 656.487C362.26 652.712 360.5 648.421 356.9 646.907C353.3 645.403 349.21 647.26 347.78 651.036C346.35 654.821 348.11 659.122 351.71 660.626C353.5 661.373 355.41 661.292 357.06 660.545C362.56 665.703 367.59 670.307 372.56 674.516C371.23 674.869 369.87 675.303 368.48 675.818C365.55 676.908 362.97 678.15 360.68 679.584C360.33 679.271 359.95 678.998 359.54 678.766C356.12 676.818 351.87 678.14 350.01 681.724C348.16 685.307 349.42 689.779 352.82 691.727C356.23 693.676 360.49 692.353 362.34 688.77C363.07 687.367 363.32 685.832 363.15 684.358V684.348C365.18 683.046 367.52 681.925 370.2 680.926C372.95 679.907 375.5 679.24 377.92 678.917C382.54 682.592 387.23 685.963 392.3 689.143C387.71 690.667 383.38 692.848 379.46 694.948C379.36 694.998 379.25 695.059 379.14 695.119C378.97 694.978 378.79 694.837 378.6 694.715C375.33 692.525 370.99 693.534 368.9 696.967C366.83 700.409 367.79 704.972 371.05 707.162C374.32 709.343 378.67 708.333 380.74 704.891C381.7 703.326 382.01 701.499 381.75 699.793C381.77 699.783 381.78 699.783 381.79 699.773C387.17 696.906 392.86 694.079 398.82 692.979C399.33 693.262 399.83 693.544 400.34 693.817C400.35 693.837 400.35 693.857 400.35 693.867L400.39 693.847C405.74 696.755 411.59 699.541 418.24 702.286L420.13 697.239C414.41 694.857 409.29 692.464 404.57 689.971C402.72 683.44 402.91 676.363 403.33 669.59C405.77 669.257 407.98 667.581 408.95 664.997C410.38 661.211 408.63 656.921 405.02 655.407C401.41 653.903 397.33 655.76 395.89 659.546C394.69 662.715 395.73 666.248 398.23 668.187C398.22 668.358 398.22 668.52 398.2 668.671C397.84 674.284 397.61 680.522 398.56 686.63C393.26 683.531 388.45 680.25 383.76 676.666C382.2 673.507 381.15 669.721 380.57 665.168Z" fill="#E52226"/>
<path d="M501.291 665.168C501.681 662.089 501.781 659.293 501.571 656.719C499.201 656.335 497.091 654.67 496.141 652.166C494.711 648.381 496.471 644.091 500.071 642.587C503.671 641.082 507.761 642.94 509.201 646.725C510.431 649.976 509.301 653.6 506.661 655.508C506.971 658.688 506.891 662.13 506.411 665.905C506.191 667.591 505.921 669.196 505.591 670.71C510.571 666.511 515.611 661.898 521.131 656.729C521.091 656.648 521.061 656.578 521.031 656.487C519.601 652.712 521.351 648.421 524.961 646.907C528.571 645.403 532.651 647.26 534.081 651.036C535.511 654.821 533.751 659.122 530.141 660.626C528.351 661.373 526.441 661.292 524.791 660.545C519.291 665.703 514.261 670.307 509.291 674.516C510.611 674.869 511.981 675.303 513.371 675.818C516.301 676.908 518.881 678.15 521.171 679.584C521.521 679.271 521.901 678.998 522.311 678.766C525.731 676.818 529.981 678.14 531.841 681.724C533.691 685.307 532.431 689.779 529.031 691.727C525.631 693.676 521.361 692.353 519.511 688.77C518.781 687.367 518.531 685.832 518.701 684.358V684.348C516.661 683.046 514.331 681.925 511.651 680.926C508.901 679.907 506.351 679.24 503.931 678.917C499.311 682.592 494.621 685.963 489.551 689.143C494.151 690.667 498.471 692.848 502.391 694.948C502.491 694.998 502.601 695.059 502.711 695.119C502.881 694.978 503.061 694.837 503.251 694.715C506.521 692.525 510.861 693.534 512.951 696.967C515.031 700.409 514.071 704.972 510.801 707.162C507.531 709.343 503.181 708.333 501.111 704.891C500.151 703.326 499.841 701.499 500.111 699.793C500.101 699.783 500.081 699.783 500.071 699.773C494.691 696.906 489.001 694.079 483.031 692.979C482.521 693.262 482.021 693.544 481.511 693.817C481.501 693.837 481.501 693.857 481.501 693.867L481.461 693.847C476.111 696.755 470.261 699.541 463.611 702.286L461.721 697.239C467.441 694.857 472.561 692.464 477.281 689.971C479.131 683.44 478.941 676.363 478.521 669.59C476.071 669.257 473.871 667.581 472.901 664.997C471.471 661.211 473.221 656.921 476.831 655.407C480.441 653.903 484.521 655.76 485.961 659.546C487.161 662.715 486.121 666.248 483.621 668.187C483.631 668.358 483.641 668.52 483.651 668.671C484.011 674.284 484.251 680.522 483.291 686.63C488.591 683.531 493.401 680.25 498.091 676.666C499.651 673.507 500.711 669.721 501.291 665.168Z" fill="#E52226"/>
<path d="M421.7 784.75C421.6 792.099 424.2 799.195 427.26 805.696L430.54 802.537C426.78 811.682 437.56 822.13 441.69 828.106C446.55 820.959 456.28 812.429 452.84 802.537C453.64 803.314 455.32 804.929 456.12 805.696C460.07 796.772 465.8 783.387 457.33 775.533C458.07 775.725 460.16 776.27 460.94 776.472C458.65 753.174 424.73 753.184 422.43 776.472L426.04 775.533C423.53 777.774 421.88 781.065 421.7 784.75Z" fill="#F48D83"/>
<path d="M441.689 828.107V758.988C450.749 758.988 459.789 764.823 460.939 776.462C460.159 776.26 458.069 775.715 457.329 775.523C465.789 783.367 460.059 796.763 456.109 805.686C455.319 804.929 453.639 803.304 452.829 802.527C456.289 812.419 446.559 820.96 441.689 828.107Z" fill="#E52226"/>
<path d="M501.291 789.282C501.681 792.361 501.781 795.158 501.571 797.732C499.201 798.125 497.091 799.781 496.141 802.284C494.711 806.07 496.471 810.37 500.071 811.864C503.671 813.368 507.761 811.521 509.201 807.725C510.431 804.485 509.301 800.851 506.661 798.943C506.971 795.763 506.891 792.321 506.411 788.556C506.191 786.87 505.921 785.265 505.591 783.74C510.571 787.94 515.611 792.553 521.131 797.722C521.091 797.802 521.061 797.873 521.031 797.964C519.601 801.739 521.351 806.03 524.961 807.534C528.571 809.038 532.651 807.18 534.081 803.405C535.511 799.619 533.751 795.319 530.141 793.815C528.351 793.068 526.441 793.149 524.791 793.896C519.291 788.737 514.261 784.134 509.291 779.925C510.611 779.561 511.981 779.127 513.371 778.622C516.301 777.532 518.881 776.291 521.171 774.847C521.521 775.16 521.901 775.433 522.311 775.665C525.731 777.613 529.981 776.291 531.841 772.707C533.691 769.123 532.431 764.651 529.031 762.703C525.631 760.755 521.361 762.077 519.511 765.661C518.781 767.064 518.531 768.598 518.701 770.072V770.082C516.661 771.385 514.331 772.505 511.651 773.504C508.901 774.524 506.351 775.19 503.931 775.523C499.311 771.849 494.621 768.477 489.551 765.297C494.151 763.773 498.471 761.583 502.391 759.493C502.491 759.443 502.601 759.382 502.711 759.321C502.881 759.463 503.061 759.594 503.251 759.725C506.521 761.916 510.861 760.906 512.951 757.474C515.031 754.032 514.071 749.469 510.801 747.278C507.531 745.098 503.181 746.097 501.111 749.54C500.151 751.114 499.841 752.931 500.111 754.637C500.101 754.648 500.081 754.648 500.071 754.658C494.691 757.525 489.001 760.351 483.031 761.441C482.521 761.159 482.021 760.876 481.511 760.603C481.501 760.583 481.501 760.563 481.501 760.553L481.461 760.573C476.111 757.666 470.261 754.88 463.611 752.134L461.721 757.181C467.441 759.554 472.561 761.956 477.281 764.45C479.131 770.971 478.941 778.057 478.521 784.831C476.071 785.164 473.871 786.85 472.901 789.424C471.471 793.209 473.221 797.499 476.831 799.014C480.441 800.518 484.521 798.66 485.961 794.875C487.161 791.695 486.121 788.172 483.621 786.234C483.631 786.062 483.641 785.901 483.651 785.749C484.011 780.137 484.251 773.898 483.291 767.791C488.591 770.89 493.401 774.171 498.091 777.754C499.651 780.944 500.711 784.74 501.291 789.282Z" fill="#E52226"/>
<path d="M380.57 789.282C380.18 792.361 380.08 795.158 380.29 797.732C382.66 798.125 384.77 799.781 385.72 802.284C387.15 806.07 385.39 810.37 381.79 811.864C378.18 813.368 374.1 811.521 372.67 807.725C371.44 804.485 372.57 800.851 375.21 798.943C374.9 795.763 374.98 792.321 375.45 788.556C375.67 786.87 375.94 785.265 376.27 783.74C371.29 787.94 366.25 792.553 360.73 797.722C360.77 797.802 360.8 797.873 360.83 797.964C362.26 801.739 360.5 806.03 356.9 807.534C353.3 809.038 349.21 807.18 347.78 803.405C346.35 799.619 348.11 795.319 351.71 793.815C353.5 793.068 355.41 793.149 357.06 793.896C362.56 788.737 367.59 784.134 372.56 779.925C371.23 779.561 369.87 779.127 368.48 778.622C365.55 777.532 362.97 776.291 360.68 774.847C360.33 775.16 359.95 775.433 359.54 775.665C356.12 777.613 351.87 776.291 350.01 772.707C348.16 769.123 349.42 764.651 352.82 762.703C356.23 760.755 360.49 762.077 362.34 765.661C363.07 767.064 363.32 768.598 363.15 770.072V770.082C365.18 771.385 367.52 772.505 370.2 773.504C372.95 774.524 375.5 775.19 377.92 775.523C382.54 771.849 387.23 768.477 392.3 765.297C387.71 763.773 383.38 761.583 379.46 759.493C379.36 759.443 379.25 759.382 379.14 759.321C378.97 759.463 378.79 759.594 378.6 759.725C375.33 761.916 370.99 760.906 368.9 757.474C366.83 754.032 367.79 749.469 371.05 747.278C374.32 745.098 378.67 746.097 380.74 749.54C381.7 751.114 382.01 752.931 381.75 754.637C381.77 754.648 381.78 754.648 381.79 754.658C387.17 757.525 392.86 760.351 398.82 761.441C399.33 761.159 399.83 760.876 400.34 760.603C400.35 760.583 400.35 760.563 400.35 760.553L400.39 760.573C405.74 757.666 411.59 754.88 418.24 752.134L420.13 757.181C414.41 759.554 409.29 761.956 404.57 764.45C402.72 770.971 402.91 778.057 403.33 784.831C405.77 785.164 407.98 786.85 408.95 789.424C410.38 793.209 408.63 797.499 405.02 799.014C401.41 800.518 397.33 798.66 395.89 794.875C394.69 791.695 395.73 788.172 398.23 786.234C398.22 786.062 398.22 785.901 398.2 785.749C397.84 780.137 397.61 773.898 398.56 767.791C393.26 770.89 388.45 774.171 383.76 777.754C382.2 780.944 381.15 784.74 380.57 789.282Z" fill="#E52226"/>
<path d="M352.69 715.329C363.37 715.329 368.58 722.032 368.58 727.231C368.58 732.43 363.37 739.122 352.69 739.122C342.01 739.122 329.91 727.231 329.91 727.231C329.91 727.231 342.01 715.329 352.69 715.329Z" fill="#F48D83"/>
<path d="M529.73 715.329C519.05 715.329 513.84 722.032 513.84 727.231C513.84 732.43 519.05 739.122 529.73 739.122C540.41 739.122 552.51 727.231 552.51 727.231C552.51 727.231 540.41 715.329 529.73 715.329Z" fill="#F48D83"/>
<path d="M568.46 0H311.24V126.123H568.46V0Z" fill="#1BB16B"/>
<path d="M568 126.184H311V573.378H568V126.184Z" fill="#97CF9B"/>
<path d="M627.29 44.5083H622.37L621.68 24.541H627.98L627.29 44.5083Z" fill="#231F20"/>
<path d="M654.379 59.3371C654.379 46.7288 646.469 36.5029 636.719 36.5029C633.569 36.5029 630.619 37.573 628.059 39.4304C626.119 40.8436 623.549 40.8436 621.609 39.4304C619.049 37.5629 616.089 36.5029 612.939 36.5029C603.189 36.5029 595.279 46.7288 595.279 59.3371C595.279 65.8683 597.399 71.7535 600.809 75.9125C605.359 82.1006 614.409 86.3101 624.829 86.3101C635.259 86.3101 644.299 82.0905 648.859 75.9125C652.259 71.7535 654.379 65.8683 654.379 59.3371Z" fill="#E52226"/>
<path d="M720.96 44.5083H716.03L715.35 24.541H721.64L720.96 44.5083Z" fill="#231F20"/>
<path d="M748.049 59.3371C748.049 46.7288 740.139 36.5029 730.389 36.5029C727.239 36.5029 724.279 37.573 721.729 39.4304C719.789 40.8436 717.219 40.8436 715.279 39.4304C712.719 37.5629 709.759 36.5029 706.609 36.5029C696.859 36.5029 688.949 46.7288 688.949 59.3371C688.949 65.8683 691.069 71.7535 694.479 75.9125C699.029 82.1006 708.079 86.3101 718.499 86.3101C728.929 86.3101 737.969 82.0905 742.529 75.9125C745.919 71.7535 748.049 65.8683 748.049 59.3371Z" fill="#E52226"/>
<path d="M814.62 44.5083H809.7L809.01 24.541H815.31L814.62 44.5083Z" fill="#231F20"/>
<path d="M841.709 59.3371C841.709 46.7288 833.799 36.5029 824.049 36.5029C820.899 36.5029 817.939 37.573 815.389 39.4304C813.449 40.8436 810.879 40.8436 808.939 39.4304C806.379 37.5629 803.419 36.5029 800.269 36.5029C790.519 36.5029 782.609 46.7288 782.609 59.3371C782.609 65.8683 784.739 71.7535 788.139 75.9125C792.689 82.1006 801.739 86.3101 812.159 86.3101C822.589 86.3101 831.639 82.0905 836.189 75.9125C839.589 71.7535 841.709 65.8683 841.709 59.3371Z" fill="#E52226"/>
<path d="M908.29 44.5083H903.37L902.68 24.541H908.97L908.29 44.5083Z" fill="#231F20"/>
<path d="M935.379 59.3371C935.379 46.7288 927.469 36.5029 917.719 36.5029C914.569 36.5029 911.619 37.573 909.059 39.4304C907.119 40.8436 904.549 40.8436 902.609 39.4304C900.049 37.5629 897.089 36.5029 893.939 36.5029C884.189 36.5029 876.279 46.7288 876.279 59.3371C876.279 65.8683 878.399 71.7535 881.809 75.9125C886.359 82.1006 895.409 86.3101 905.829 86.3101C916.259 86.3101 925.299 82.0905 929.859 75.9125C933.249 71.7535 935.379 65.8683 935.379 59.3371Z" fill="#E52226"/>
<path d="M396 520.041V599.624H311V520.041H336.629L351.277 511.398L366.085 502.715L380.862 511.398L384.399 513.495L395.54 520.041H396Z" fill="#E52226"/>
<path d="M484 520.041V599.624H569V520.041H543.371L528.713 511.398L513.915 502.715L499.138 511.398L495.6 513.495L484.46 520.041H484Z" fill="#E52226"/>
<path d="M966 706.627H566V853H966V706.627Z" fill="#1BB16B"/>
<path d="M890.409 815.276C890.409 825.997 882.109 834.688 871.889 834.688C861.649 834.688 853.369 825.987 853.369 815.276C853.369 814.035 853.479 812.813 853.699 811.642C854.599 806.655 857.319 802.345 861.099 799.498C864.139 797.207 867.859 795.864 871.889 795.864C875.909 795.864 879.639 797.207 882.679 799.498C886.469 802.355 889.189 806.655 890.079 811.642C890.299 812.813 890.409 814.035 890.409 815.276Z" fill="#E52226"/>
<path d="M751.521 815.276C751.521 825.997 743.22 834.688 733 834.688C722.76 834.688 714.48 825.987 714.48 815.276C714.48 814.035 714.591 812.813 714.811 811.642C715.711 806.655 718.43 802.345 722.21 799.498C725.25 797.207 728.97 795.864 733 795.864C737.02 795.864 740.751 797.207 743.791 799.498C747.581 802.355 750.301 806.655 751.191 811.642C751.411 812.813 751.521 814.035 751.521 815.276Z" fill="#E52226"/>
<path d="M917.93 783.72L908.11 774.16L875.19 739.414C871.9 736.224 867.58 734.448 863.1 734.448L790.7 734.65C788.22 734.65 785.82 735.548 783.91 737.183L751.4 768.487C751.4 768.487 716.98 774.14 716.3 774.19C708.52 774.705 702.23 781.176 701.64 789.413L701 798.367H716.8C721.53 792.472 729.11 789.181 737.31 790.816C742.21 791.806 746.43 794.572 749.45 798.367C752.25 801.88 754.02 806.271 754.35 810.955C754.47 812.348 754.44 813.751 754.28 815.185C754.27 815.246 754.27 815.296 754.26 815.357H850.35C850.25 814.499 850.2 813.62 850.2 812.732C850.2 812.136 850.22 811.551 850.27 810.955C850.62 806.18 852.41 801.83 855.19 798.367C859.91 792.482 867.48 789.181 875.68 790.816C880.59 791.786 884.82 794.562 887.84 798.367H921.09V791.301C921.09 788.424 919.95 785.678 917.93 783.72ZM830.94 768.82H765.1L785.26 743.987C787.69 740.989 791.26 739.263 795.02 739.263H830.94V768.82V768.82ZM877.16 768.82H837.39L836.19 739.424L859.11 739.727C862.46 739.768 865.64 741.342 867.8 744.028L881.34 760.815C883.9 764.116 881.45 768.82 877.16 768.82Z" fill="white"/>
<path d="M716.799 798.368C714.029 801.82 712.229 806.181 711.879 810.956H696.709V798.368H716.799Z" fill="#E52226"/>
<path d="M855.189 798.368C852.409 801.83 850.619 806.181 850.269 810.956H754.349C754.019 806.272 752.249 801.881 749.449 798.368H855.189Z" fill="#E52226"/>
<path d="M923.78 798.368V810.956H892.75C892.41 806.272 890.64 801.881 887.84 798.368H923.78Z" fill="#E52226"/>
<path d="M467.52 231.158H457.47V182.936H421.31V231.158H411.25V311.451H467.52V231.158Z" fill="white"/>
<path d="M411.271 311.451H410.971L410.991 311.511H411.291L411.271 311.451Z" fill="#C6E3C7"/>
<path d="M410.99 311.501H391.68L391.7 311.451H410.96L410.99 311.501Z" fill="#FAD5CD"/>
<path d="M410 160.262H409.84V160.162C409.9 160.212 409.95 160.232 410 160.262Z" fill="#FAD5CD"/>
<path d="M445.98 209.989C445.46 213.169 442.71 215.612 439.39 215.612C436.09 215.612 433.35 213.169 432.8 209.989C432.7 209.636 432.68 209.232 432.68 208.829C432.68 205.094 435.7 202.075 439.4 202.075C443.1 202.075 446.09 205.104 446.09 208.829C446.08 209.232 446.06 209.636 445.98 209.989Z" fill="#F7C4BA"/>
<path d="M410 160.262H409.84V160.162C409.9 160.212 409.95 160.232 410 160.262Z" fill="#FAD5CD"/>
<path d="M486.721 293.815V310.997L486.981 311.451H486.721H493.411V293.815H486.721Z" fill="#E52226"/>
<path d="M391.81 311.259L392.04 310.865V293.815H385.35V311.451H391.7L391.81 311.259Z" fill="#E52226"/>
<path d="M411.25 311.391L411.17 311.259L406.39 302.921L401.49 294.341L396.58 302.921L392.05 310.866H392.04V311.451H391.7L391.68 311.502H411.3L411.27 311.451L411.25 311.391Z" fill="#E52226"/>
<path d="M392.039 310.865L391.809 311.259L391.699 311.451H392.039V310.865Z" fill="#F7A89E"/>
<path d="M482.21 303.102L477.3 294.522L472.37 303.102L467.6 311.451H486.72V310.996L482.21 303.102Z" fill="#E52226"/>
<path d="M486.721 310.997V311.451H486.981L486.721 310.997Z" fill="#F7A89E"/>
<path d="M493 311.925V599.624H385V311.925H391.376L391.337 311.986H410.946L410.906 311.925H493Z" fill="white"/>
<path d="M481.57 324.393H474.4V361.379H481.57V324.393Z" fill="#F7C4BA"/>
<path d="M462.54 324.393H455.35V361.379H462.54V324.393Z" fill="#F7C4BA"/>
<path d="M443.479 324.393H436.289V361.379H443.479V324.393Z" fill="#F7C4BA"/>
<path d="M424.45 324.393H417.26V361.379H424.45V324.393Z" fill="#F7C4BA"/>
<path d="M405.4 324.393H398.18V361.379H405.4V324.393Z" fill="#F7C4BA"/>
<path d="M416.78 556.822H406.07V577.112H416.78V556.822Z" fill="#F7C4BA"/>
<path d="M416.78 523.015H406.07V543.305H416.78V523.015Z" fill="#F7C4BA"/>
<path d="M416.78 489.208H406.07V509.498H416.78V489.208Z" fill="#F7C4BA"/>
<path d="M416.78 455.401H406.07V475.691H416.78V455.401Z" fill="#F7C4BA"/>
<path d="M416.78 421.594H406.07V441.884H416.78V421.594Z" fill="#F7C4BA"/>
<path d="M416.78 387.787H406.07V408.077H416.78V387.787Z" fill="#F7C4BA"/>
<path d="M435.691 556.822H424.98V577.112H435.691V556.822Z" fill="#F7C4BA"/>
<path d="M435.691 523.015H424.98V543.305H435.691V523.015Z" fill="#F7C4BA"/>
<path d="M435.691 489.208H424.98V509.498H435.691V489.208Z" fill="#F7C4BA"/>
<path d="M435.691 455.401H424.98V475.691H435.691V455.401Z" fill="#F7C4BA"/>
<path d="M435.691 421.594H424.98V441.884H435.691V421.594Z" fill="#F7C4BA"/>
<path d="M435.691 387.787H424.98V408.077H435.691V387.787Z" fill="#F7C4BA"/>
<path d="M454.62 556.822H443.91V577.112H454.62V556.822Z" fill="#F7C4BA"/>
<path d="M454.62 523.015H443.91V543.305H454.62V523.015Z" fill="#F7C4BA"/>
<path d="M454.62 489.208H443.91V509.498H454.62V489.208Z" fill="#F7C4BA"/>
<path d="M454.62 455.401H443.91V475.691H454.62V455.401Z" fill="#F7C4BA"/>
<path d="M454.62 421.594H443.91V441.884H454.62V421.594Z" fill="#F7C4BA"/>
<path d="M454.62 387.787H443.91V408.077H454.62V387.787Z" fill="#F7C4BA"/>
<path d="M473.55 556.822H462.84V577.112H473.55V556.822Z" fill="#F7C4BA"/>
<path d="M473.55 523.015H462.84V543.305H473.55V523.015Z" fill="#F7C4BA"/>
<path d="M473.55 489.208H462.84V509.498H473.55V489.208Z" fill="#F7C4BA"/>
<path d="M473.55 455.401H462.84V475.691H473.55V455.401Z" fill="#F7C4BA"/>
<path d="M473.55 421.594H462.84V441.884H473.55V421.594Z" fill="#F7C4BA"/>
<path d="M473.55 387.787H462.84V408.077H473.55V387.787Z" fill="#F7C4BA"/>
<path d="M498.579 371.555H381.109V378.328H498.579V371.555Z" fill="#F7C4BA"/>
<path d="M454.8 172.781C448.25 172.781 442.95 167.531 442.76 160.97C444.93 159.718 446.41 157.386 446.41 154.681C446.41 152.157 445.13 149.936 443.2 148.624V127.516V127.011V96.6667V96.6465V12.356C442.02 11.4172 440.76 10.8418 439.43 10.8418C438.08 10.8418 436.8 11.4273 435.61 12.3964V96.6263V127.001V127.334V148.412C433.46 149.674 432 151.996 432 154.681C432 157.275 433.35 159.536 435.38 160.818C435.26 167.451 429.92 172.77 423.33 172.77C422.66 172.77 421.98 172.72 421.33 172.599V182.936H457.49V172.498C456.59 172.68 455.72 172.781 454.8 172.781Z" fill="#E52226"/>
<path d="M439.84 21.3301C417 21.3301 398.5 40.0052 398.5 63.0615C398.5 84.6641 414.76 102.431 435.59 104.571V77.5271C429.41 75.7101 424.88 69.9057 424.88 63.0716C424.88 54.7435 431.59 47.9699 439.84 47.9699C448.11 47.9699 454.8 54.7435 454.8 63.0716C454.8 70.2489 449.85 76.2653 443.19 77.7694V104.641C464.46 102.956 481.2 84.9871 481.2 63.0716C481.2 40.0052 462.68 21.3301 439.84 21.3301Z" fill="white"/>
<path d="M449.264 81.0445L445.49 85.9854L450.385 89.7946L454.158 84.8537L449.264 81.0445Z" fill="black"/>
<path d="M435.6 95.5458V96.5754L432.3 100.876L427.41 97.06L431.2 92.1338L435.6 95.5458Z" fill="black"/>
<path d="M417.794 79.9011L414.02 84.8408L418.913 88.6513L422.688 83.7116L417.794 79.9011Z" fill="black"/>
<path d="M411.326 38.145L407.553 43.0859L412.447 46.8946L416.22 41.9536L411.326 38.145Z" fill="black"/>
<path d="M428.723 38.7843L424.949 43.7246L429.843 47.5338L433.617 42.5935L428.723 38.7843Z" fill="black"/>
<path d="M412.564 60.5864L408.791 65.5273L413.686 69.3359L417.458 64.395L412.564 60.5864Z" fill="black"/>
<path d="M447.865 27.4657L444.09 32.4053L448.983 36.2158L452.758 31.2762L447.865 27.4657Z" fill="black"/>
<path d="M462.732 58.4878L458.959 63.4287L463.854 67.2373L467.626 62.2964L462.732 58.4878Z" fill="black"/>
<path d="M466.314 38.3416L462.539 43.2812L467.432 47.0917L471.207 42.152L466.314 38.3416Z" fill="black"/>
<path d="M470.779 73.7838L467.006 78.7246L471.9 82.5332L475.673 77.5924L470.779 73.7838Z" fill="black"/>
<path d="M838.071 206.183H837.7C836.97 206.032 836.25 205.941 835.48 205.83C836.33 205.921 837.211 206.032 838.071 206.183Z" fill="#D0D2D3"/>
<path d="M831.761 290.999V291.019H831.141C831.341 291.019 831.561 291.019 831.761 290.999Z" fill="#D0D2D3"/>
<path d="M841.049 273.263H831.789V442.833H841.049V273.263Z" fill="#E52226"/>
<path d="M819.589 276.533H810.289V444.155H819.589V276.533Z" fill="#E52226"/>
<path d="M750.849 111.859V111.91C750.849 112.273 750.799 112.646 750.799 113.01C750.849 112.586 750.899 112.172 750.959 111.748L750.849 111.859Z" fill="white"/>
<path d="M760.409 133.3L736.419 146.564L706.869 162.867L728.989 137.186L750.849 111.919V111.869L750.949 111.768C750.899 112.192 750.849 112.605 750.789 113.029C750.739 113.453 750.739 113.918 750.739 114.342C750.739 115.18 750.789 115.967 750.899 116.754C750.899 117.067 750.949 117.431 750.999 117.754C751.099 118.541 751.259 119.278 751.419 120.005C751.629 120.893 751.939 121.792 752.249 122.629C752.559 123.518 752.979 124.356 753.389 125.143C754.119 126.607 754.999 127.919 756.039 129.181C756.349 129.544 756.659 129.918 757.029 130.281C757.439 130.756 757.859 131.17 758.329 131.594C758.949 132.199 759.679 132.775 760.409 133.3Z" fill="#E52226"/>
<path d="M823.03 280.218C820.75 280.581 818.46 280.793 816.12 280.793C813.73 280.793 811.39 280.581 809.16 280.218H823.03Z" fill="#231F20"/>
<path d="M820.78 279.925C818.49 280.288 816.21 280.5 813.87 280.5C811.48 280.5 809.14 280.288 806.91 279.925H820.78Z" fill="white"/>
<path d="M777.391 114.535C777.391 116.786 776.041 118.784 774.121 119.723C773.391 120.087 772.561 120.299 771.681 120.299C768.511 120.299 765.971 117.674 765.971 114.535C765.971 111.335 768.521 108.771 771.681 108.771C772.561 108.771 773.391 108.983 774.121 109.346C776.031 110.234 777.391 112.223 777.391 114.535Z" fill="#231F20"/>
<path d="M864.721 222.244L856.411 206.204L842.491 198.501L830.911 195.15L827.741 194.474L826.131 194.262C825.811 194.181 825.451 194.11 825.011 194.05C821.431 193.555 817.301 193.424 817.311 193.434C816.911 193.424 816.501 193.424 816.101 193.424C815.321 193.424 814.541 193.424 813.821 193.474C807.951 193.686 802.291 194.625 796.941 196.2V195.564V193.737V190.86V187.074V182.512V177.303V171.589V165.502V159.173V152.742V146.352V140.124V134.198V128.717V123.811V119.612V116.26C796.941 115.18 796.971 114.09 796.951 113.01C796.891 109.608 795.771 106.085 794.181 103.107C793.621 102.057 792.981 101.058 792.271 100.109C792.101 99.8765 791.931 99.6443 791.741 99.4222C787.481 94.2336 781.041 90.9326 773.881 90.9326C761.941 90.9326 752.071 100.109 750.831 111.849L750.931 111.748C750.881 112.172 750.831 112.586 750.771 113.01C750.721 113.434 750.721 113.898 750.721 114.322C750.721 115.16 750.771 115.947 750.881 116.735C750.881 117.048 750.931 117.421 750.981 117.734C751.081 118.521 751.241 119.258 751.401 119.985C751.611 120.873 751.921 121.772 752.231 122.61C752.541 123.498 752.961 124.336 753.371 125.123C754.101 126.587 755.031 127.899 756.021 129.161C756.331 129.525 756.641 129.898 757.011 130.261C757.431 130.736 757.841 131.15 758.311 131.574C758.931 132.2 759.661 132.775 760.391 133.3C764.181 136.076 768.851 137.701 773.891 137.701H774.101V209.091C774.101 221.255 773.171 233.57 774.101 245.785C774.781 254.587 780.591 263.501 786.871 269.316C789.931 272.142 793.461 274.555 797.201 276.392C799.331 277.432 801.931 278.663 804.521 279.441C804.521 279.441 815.491 283.166 828.431 279.965C829.871 280.026 831.221 279.945 832.301 279.804C833.701 279.642 834.641 279.38 834.641 279.38L847.211 276.342L852.921 274.979L853.541 274.03L863.821 259.039L876.071 243.423L864.721 222.244ZM774.111 119.723C773.381 120.086 772.551 120.298 771.671 120.298C768.501 120.298 765.961 117.673 765.961 114.534C765.961 111.334 768.501 108.77 771.671 108.77C772.551 108.77 773.381 108.982 774.111 109.345C776.031 110.234 777.381 112.232 777.381 114.534C777.391 116.785 776.031 118.774 774.111 119.723ZM848.781 204.912C842.711 200.036 835.401 196.432 827.461 194.696C835.561 196.472 842.841 200.046 848.781 204.912ZM850.961 206.809C850.371 206.274 849.781 205.739 849.161 205.235C849.781 205.749 850.381 206.264 850.961 206.809Z" fill="white"/>
<path d="M894.84 264.278C894.84 269.982 894.11 275.463 892.71 280.793H823.86C823.96 280.783 824.411 280.722 824.541 280.692C827.271 280.167 829.781 279.632 832.321 278.784C851.171 272.717 864.671 256.465 864.671 237.366C864.671 215.682 847.171 197.583 824.071 194.049C823.031 193.888 821.94 193.777 820.85 193.676C820.02 193.605 819.191 193.514 818.311 193.464C860.771 194.473 894.84 225.817 894.84 264.278Z" fill="#231F20"/>
<path d="M966 398.597V599.624H566V398.668L589.649 362.698L601.438 344.718V326.068H623.788V342.7L636.906 362.688L660.495 398.547V398.658H660.934C667.429 396.082 673.893 388.213 678.489 377.027C680.257 372.748 681.716 367.971 682.835 362.911C683.015 362.059 683.184 361.207 683.344 360.355C684.054 356.542 684.513 352.78 684.713 349.17L702.977 327.63C701.918 327.498 700.988 326.93 700.309 326.058H706.384C705.744 326.89 704.835 327.468 703.826 327.6L722.02 349.028C722.199 352.435 722.619 356.025 723.278 359.655C723.458 360.751 723.658 361.805 723.898 362.911C724.997 367.981 726.485 372.748 728.244 377.027C732.79 388.213 739.264 396.082 745.758 398.658H747.746L763.113 371.744L778.509 344.779L793.925 371.744L809.121 398.323V379.157H819.562V359.006H831.751V338.775H849.085V359.017H860.305V379.167H871.565V398.648H871.605L895.214 383.923L918.842 369.178L942.471 383.923L966 398.597Z" fill="#B2D793"/>
<path d="M745.995 398.664C739.445 396.089 732.925 388.22 728.33 377.036C726.547 372.757 725.055 367.981 723.947 362.922C723.705 361.827 723.503 360.772 723.322 359.667C722.657 356.037 722.234 352.447 722.052 349.04L703.703 327.615C704.731 327.483 705.637 326.895 706.282 326.074C706.947 325.222 707.351 324.097 707.351 322.85C707.351 320.162 705.527 317.982 703.229 317.982C700.932 317.982 699.088 320.152 699.088 322.85C699.088 324.107 699.491 325.222 700.156 326.074C700.851 326.946 701.778 327.504 702.856 327.646L684.436 349.182C684.235 352.792 683.771 356.554 683.056 360.367C682.894 361.218 682.723 362.07 682.542 362.922C681.403 367.981 679.932 372.757 678.148 377.036C673.513 388.22 666.993 396.089 660.443 398.664H660V599.624H748V398.664H745.995ZM712.48 416.46H727.645V455.204H712.48V416.46ZM712.48 478.403H727.645V517.147H712.48V478.403ZM712.48 540.367H727.645V579.111H712.48V540.367ZM680.345 416.46H695.51V455.204H680.345V416.46ZM680.345 478.403H695.51V517.147H680.345V478.403ZM680.345 540.367H695.51V579.111H680.345V540.367Z" fill="#97CF9B"/>
<path d="M636.535 362.676L623.485 342.689V326.058H601.252V344.707L589.525 362.686L566 398.666H566.07V599.624H660V398.534L636.535 362.676ZM606.55 568.086H587.547V538.323H606.55V568.086ZM606.55 513.093H587.547V483.371H606.55V513.093ZM606.55 458.11H587.547V428.368H606.55V458.11ZM613.03 391.851C609.561 391.851 606.749 388.535 606.749 384.408C606.749 380.311 609.561 376.995 613.03 376.995C616.479 376.995 619.311 380.311 619.311 384.408C619.311 388.535 616.479 391.851 613.03 391.851ZM638.512 568.086H619.49V538.323H638.512V568.086ZM638.512 513.093H619.49V483.371H638.512V513.093ZM638.512 458.11H619.49V428.368H638.512V458.11Z" fill="#1BB16B"/>
<path d="M871.95 398.176V378.652H860.599V358.457H849.288V338.171H831.813V358.457H819.525V378.652H809V398.491H809.181V599.623H872V398.176H871.95ZM848.774 394.72H857.637V446.655H848.774V394.72ZM848.774 461.565H857.637V513.499H848.774V461.565ZM848.774 528.419H857.637V580.354H848.774V528.419ZM823.534 394.72H832.397V446.655H823.534V394.72ZM823.534 461.565H832.397V513.499H823.534V461.565ZM823.534 528.419H832.397V580.354H823.534V528.419Z" fill="#92CB7B"/>
<path d="M808.812 397.885L793.76 371.25L778.49 344.229L763.24 371.25L748.02 398.22L748 398.24V599.624H808.98V398.24H809L808.812 397.885ZM794.215 457.14H782.231V442.832H794.215V457.14ZM782.231 519.302H794.215V533.59H782.231V519.302ZM794.215 571.84H782.231V557.532H794.215V571.84ZM782.231 481.082H794.215V495.37H782.231V481.082ZM772.503 393.911H784.487V408.199H772.503V393.911ZM762.785 442.832H774.769V457.14H762.785V442.832ZM762.785 481.082H774.769V495.37H762.785V481.082ZM762.785 519.302H774.769V533.59H762.785V519.302ZM762.785 557.532H774.769V571.84H762.785V557.532Z" fill="#231F20"/>
<path d="M965.911 397.976L942.5 383.246L919 368.456L895.5 383.246L872.02 398.017H872V599.624H965.911V398.027H966L965.911 397.976ZM905.297 576.319H889.707V552.352H905.297V576.319ZM905.297 530.431H889.707V506.465H905.297V530.431ZM905.297 484.533H889.707V460.567H905.297V484.533ZM905.297 438.655H889.707V414.679H905.297V438.655ZM926.591 438.655H911.001V414.679H926.591V438.655ZM948.273 576.319H932.683V552.352H948.273V576.319ZM948.273 530.431H932.683V506.465H948.273V530.431ZM948.273 484.533H932.683V460.567H948.273V484.533ZM948.273 438.655H932.683V414.679H948.273V438.655Z" fill="white"/>
<path d="M966 599.624H566V706.627H966V599.624Z" fill="#F48D83"/>
<path d="M672.82 611.939C650.56 611.939 632.52 630.15 632.52 652.611C632.52 675.072 650.56 693.292 672.82 693.292C695.07 693.292 713.109 675.082 713.109 652.611C713.109 630.15 695.07 611.939 672.82 611.939ZM672.82 665.754C665.63 665.754 659.81 659.869 659.81 652.611C659.81 645.363 665.63 639.478 672.82 639.478C680 639.478 685.829 645.363 685.829 652.611C685.829 659.879 680 665.754 672.82 665.754Z" fill="#E52226"/>
<path d="M667.118 625.924L662.875 630.207L667.118 634.489L671.36 630.207L667.118 625.924Z" fill="#231F20"/>
<path d="M685.821 617.505L681.578 621.788L685.821 626.071L690.063 621.788L685.821 617.505Z" fill="#231F20"/>
<path d="M697.221 630.943L692.979 635.226L697.221 639.509L701.464 635.226L697.221 630.943Z" fill="#231F20"/>
<path d="M698.264 671.965L694.021 676.248L698.264 680.53L702.507 676.248L698.264 671.965Z" fill="#231F20"/>
<path d="M681.584 669.188L677.342 673.471L681.584 677.753L685.827 673.471L681.584 669.188Z" fill="#231F20"/>
<path d="M699.834 650.19L695.592 654.473L699.834 658.756L704.077 654.473L699.834 650.19Z" fill="#231F20"/>
<path d="M661.825 677.698L657.582 681.981L661.825 686.264L666.067 681.981L661.825 677.698Z" fill="#231F20"/>
<path d="M651.258 645.899L647.016 650.182L651.258 654.464L655.501 650.182L651.258 645.899Z" fill="#231F20"/>
<path d="M645.395 664.904L641.152 669.187L645.395 673.47L649.638 669.187L645.395 664.904Z" fill="#231F20"/>
<path d="M645.395 630.159L641.152 634.441L645.395 638.724L649.638 634.441L645.395 630.159Z" fill="#231F20"/>
<path d="M808.719 652.621C808.719 630.16 790.679 611.939 768.429 611.939C746.179 611.939 728.129 630.15 728.129 652.621C728.129 675.092 746.169 693.292 768.429 693.292C790.689 693.292 808.719 675.092 808.719 652.621ZM755.409 652.621C755.409 645.363 761.239 639.488 768.429 639.488C775.609 639.488 781.439 645.363 781.439 652.621C781.439 659.869 775.609 665.754 768.429 665.754C761.239 665.754 755.409 659.879 755.409 652.621Z" fill="#E52226"/>
<path d="M790.674 642.542L786.432 646.825L790.674 651.108L794.917 646.825L790.674 642.542Z" fill="#231F20"/>
<path d="M799.006 661.55L794.764 665.833L799.006 670.115L803.249 665.833L799.006 661.55Z" fill="#231F20"/>
<path d="M785.688 673.064L781.445 677.347L785.688 681.629L789.931 677.347L785.688 673.064Z" fill="#231F20"/>
<path d="M745.057 674.11L740.814 678.393L745.057 682.675L749.3 678.393L745.057 674.11Z" fill="#231F20"/>
<path d="M747.807 657.271L743.564 661.554L747.807 665.837L752.05 661.554L747.807 657.271Z" fill="#231F20"/>
<path d="M766.627 675.696L762.385 679.979L766.627 684.261L770.87 679.979L766.627 675.696Z" fill="#231F20"/>
<path d="M739.377 637.324L735.135 641.607L739.377 645.89L743.62 641.607L739.377 637.324Z" fill="#231F20"/>
<path d="M770.866 626.658L766.623 630.94L770.866 635.223L775.108 630.94L770.866 626.658Z" fill="#231F20"/>
<path d="M752.132 620.628L747.889 624.911L752.131 629.195L756.374 624.912L752.132 620.628Z" fill="#231F20"/>
<path d="M786.554 620.626L782.311 624.909L786.553 629.192L790.796 624.909L786.554 620.626Z" fill="#231F20"/>
<path d="M864.511 693.292C886.761 693.292 904.811 675.082 904.811 652.621C904.811 630.15 886.771 611.939 864.511 611.939C842.251 611.939 824.221 630.15 824.221 652.621C824.221 675.092 842.251 693.292 864.511 693.292ZM864.511 639.478C871.701 639.478 877.521 645.363 877.521 652.621C877.521 659.869 871.701 665.754 864.511 665.754C857.331 665.754 851.501 659.869 851.501 652.621C851.501 645.363 857.321 639.478 864.511 639.478Z" fill="#E52226"/>
<path d="M870.186 670.773L865.943 675.056L870.186 679.338L874.429 675.056L870.186 670.773Z" fill="#231F20"/>
<path d="M851.471 679.149L847.229 683.432L851.471 687.714L855.714 683.432L851.471 679.149Z" fill="#231F20"/>
<path d="M840.065 665.719L835.822 670.002L840.065 674.285L844.307 670.002L840.065 665.719Z" fill="#231F20"/>
<path d="M839.026 624.692L834.783 628.975L839.026 633.257L843.268 628.975L839.026 624.692Z" fill="#231F20"/>
<path d="M855.691 627.426L851.449 631.709L855.692 635.991L859.934 631.708L855.691 627.426Z" fill="#231F20"/>
<path d="M837.457 646.465L833.215 650.748L837.457 655.031L841.7 650.748L837.457 646.465Z" fill="#231F20"/>
<path d="M875.465 618.958L871.223 623.241L875.465 627.523L879.708 623.241L875.465 618.958Z" fill="#231F20"/>
<path d="M886.026 650.748L881.783 655.031L886.026 659.314L890.268 655.031L886.026 650.748Z" fill="#231F20"/>
<path d="M891.911 631.794L887.668 636.076L891.91 640.359L896.153 636.077L891.911 631.794Z" fill="#231F20"/>
<path d="M891.911 666.539L887.668 670.821L891.91 675.105L896.153 670.823L891.911 666.539Z" fill="#231F20"/>
<path d="M311 599.624H0V853H311V599.624Z" fill="#E52226"/>
<path d="M126.55 697.168C122.07 705.002 113.68 710.281 104.06 710.281C94.4403 710.281 86.0503 705.002 81.5703 697.168C86.0503 689.335 94.4403 684.055 104.06 684.055C113.68 684.065 122.07 689.345 126.55 697.168Z" fill="#F7C4BA"/>
<path d="M235.4 697.168C230.92 705.002 222.53 710.281 212.91 710.281C203.29 710.281 194.9 705.002 190.42 697.168C194.9 689.335 203.29 684.055 212.91 684.055C222.53 684.065 230.92 689.345 235.4 697.168Z" fill="#F7C4BA"/>
<path d="M217.829 753.345C218.669 774.746 204.749 793.744 204.749 793.744L202.689 784.437L202.209 785.951C196.539 803.687 162.629 832.558 162.629 832.558C163.079 833.154 159.649 826.491 153.059 821.636C143.959 814.933 137.369 811.925 129.599 800.73L130.789 812.308C130.789 812.308 114.149 800.144 109.959 787.849C106.939 778.986 106.239 760.987 106.239 760.987L101.519 778.067C101.519 778.067 97.0392 766.468 97.9792 753.355C100.529 717.691 124.809 688.588 157.899 688.588C191.009 688.578 216.439 717.61 217.829 753.345Z" fill="#F48D83"/>
<path d="M127.461 674.133C127.461 674.133 89.4706 663.654 114.051 630.736C114.521 630.1 113.741 629.302 113.121 629.777C101.211 639.003 72.0506 665.451 113.881 688.245L124.491 693.838L127.461 674.133Z" fill="#F7C4BA"/>
<path d="M190.42 674.132C190.42 674.132 227.95 663.775 204.28 631.341C203.74 630.604 204.65 629.685 205.36 630.24C217.61 639.851 245.17 665.824 204.02 688.244L193.41 693.837L190.42 674.132Z" fill="#F7C4BA"/>
<path d="M169.209 793.189H148.599C132.469 793.189 125.439 774.15 125.439 757.868L112.699 708.797L119.399 670.629H198.429L204.679 708.929L192.159 757.444C192.149 773.726 185.339 793.189 169.209 793.189Z" fill="#F7C4BA"/>
<path d="M142.059 715.844C142.059 719.215 139.349 721.951 136.009 721.951C132.669 721.951 129.959 719.215 129.959 715.844C129.959 712.472 132.669 709.736 136.009 709.736C139.349 709.736 142.059 712.472 142.059 715.844Z" fill="#E52226"/>
<path d="M190.42 715.844C190.42 719.215 187.71 721.951 184.37 721.951C181.03 721.951 178.32 719.215 178.32 715.844C178.32 712.472 181.03 709.736 184.37 709.736C187.72 709.736 190.42 712.472 190.42 715.844Z" fill="#E52226"/>
<path d="M112.5 649.582C121.63 628.05 182.91 615.028 204.8 649.582C206.72 652.621 209.19 660.828 206.72 670.711C206.34 672.225 205.25 675.324 205.25 675.324L201.07 672.134C201.07 672.134 186 700.47 164.68 706.86C164.44 706.86 131.1 683.824 131.1 683.824L131.43 692.677C131.43 692.677 123.89 688.275 122.25 686.761C112.69 677.948 105.79 665.421 112.5 649.582Z" fill="#F48D83"/>
<path d="M192.149 757.444V772.919C192.149 784.104 183.169 793.189 172.069 793.189H160.989H157.769H145.539C134.439 793.189 125.449 784.114 125.449 772.919V757.858C126.609 757.393 127.819 757.01 129.069 756.747C130.879 756.323 132.749 756.111 134.689 756.111C136.629 756.111 138.509 756.323 140.309 756.747C145.959 758.019 150.909 761.189 154.469 765.55C157.039 768.709 161.699 768.709 164.269 765.55C167.829 761.189 172.779 758.019 178.439 756.747C180.239 756.323 182.119 756.111 184.059 756.111C185.999 756.111 187.879 756.323 189.679 756.747C190.519 756.929 191.339 757.161 192.149 757.444Z" fill="#E52226"/>
<path d="M152.669 783.074C150.559 784.891 146.789 783.912 144.229 780.894C141.679 777.875 141.309 773.958 143.419 772.141C145.529 770.324 149.299 771.304 151.859 774.322C154.419 777.34 154.779 781.257 152.669 783.074Z" fill="#F3B5B5"/>
<path d="M167.509 783.074C169.619 784.891 173.389 783.912 175.949 780.894C178.499 777.875 178.869 773.958 176.759 772.141C174.649 770.324 170.879 771.304 168.319 774.322C165.769 777.34 165.409 781.257 167.509 783.074Z" fill="#F3B5B5"/>
</g>
<defs>
<clipPath id="clip0">
<rect width="966" height="853" fill="white"/>
</clipPath>
</defs>
</svg>
