<svg width="169" height="250" viewBox="0 0 169 250" fill="none" xmlns="http://www.w3.org/2000/svg">
<path d="M92.5861 0H0V140.326H92.5861V0Z" fill="#E8F1CF"/>
<path d="M13.0589 42.5352L8.20703 46.1246L22.9615 66.5856L26.3029 60.2842L13.0589 42.5352Z" fill="#F7C4BA"/>
<path d="M41.5837 21.5599L41.373 22.1419L44.8777 32.6383L47.6137 34.6383L53.0828 23.0282L52.2875 21.0488L41.5837 21.5599Z" fill="white"/>
<path d="M43.0239 80.0439H35.8574V134.171H43.0239V80.0439Z" fill="#F7C4BA"/>
<path d="M55.1333 80.0439H47.9668V134.171H55.1333V80.0439Z" fill="#F7C4BA"/>
<path d="M63.1684 25.1638V48.4313H31.4102V25.1638H36.4994C36.5588 25.1756 36.6152 25.1756 36.6745 25.1756C36.7339 25.1756 36.7902 25.1756 36.8496 25.1638C38.912 25.1017 40.6539 23.7251 41.4492 21.79L47.0637 33.7636L52.6189 21.858C53.432 23.6778 55.1353 25.1017 57.1087 25.1638C57.1681 25.1756 57.2245 25.1756 57.2838 25.1756C57.3432 25.1756 57.3995 25.1756 57.4589 25.1638H63.1684Z" fill="black"/>
<path d="M36.8501 27.2314C36.7907 27.2403 36.7344 27.2403 36.675 27.2403C36.6187 27.2403 36.5593 27.2403 36.5 27.2314H36.8501Z" fill="#231F20"/>
<path d="M57.4555 27.2314C57.3962 27.2403 57.3398 27.2403 57.2805 27.2403C57.2241 27.2403 57.1648 27.2403 57.1055 27.2314H57.4555Z" fill="#231F20"/>
<path d="M59.8759 98.0955C59.8284 98.1044 59.7899 98.1103 59.7394 98.1192C55.5938 98.9966 51.377 99.4338 47.1572 99.4338H47.0059C47.0207 82.4233 47.0296 65.4158 47.0474 48.4053H52.3355L59.8759 98.0955Z" fill="#B2D793"/>
<path d="M87.5109 95.012C83.662 98.3828 79.5016 101.195 75.1245 103.44C75.0771 103.473 75.0296 103.497 74.9791 103.52C70.6436 105.736 66.1033 107.399 61.4621 108.516C61.4147 108.531 61.3583 108.539 61.3108 108.548C56.6696 109.656 51.9157 110.206 47.1617 110.22H47.0015C42.2475 110.206 37.4936 109.656 32.8524 108.548C32.805 108.539 32.7486 108.534 32.7011 108.516C28.051 107.399 23.5137 105.736 19.1752 103.52C19.1277 103.497 19.0802 103.473 19.0328 103.449V103.44C14.6646 101.195 10.5012 98.3799 6.65234 95.012C7.98772 92.495 9.32605 89.9692 10.6614 87.4521C13.3322 89.4433 16.1335 91.1804 19.0328 92.6634C19.0802 92.6959 19.1277 92.7195 19.1752 92.7432V92.7343C20.1129 93.2129 21.0625 93.6679 22.0181 94.0874C22.0596 94.1199 22.1071 94.1346 22.1457 94.1524C25.5702 95.6826 29.0985 96.8673 32.7011 97.7299V97.7388C32.7486 97.7536 32.805 97.7624 32.8524 97.7713C33.3243 97.8895 33.805 97.9929 34.2857 98.0963C34.3332 98.1051 34.3748 98.111 34.4222 98.1199C38.5678 98.9973 42.7847 99.4345 47.0015 99.4345H47.1617C51.3786 99.4345 55.5954 98.9973 59.744 98.1199C59.7914 98.111 59.83 98.1051 59.8805 98.0963C60.3612 97.9929 60.8419 97.8895 61.3138 97.7713C61.3612 97.7624 61.4176 97.7565 61.4651 97.7388V97.7299C65.0588 96.8673 68.5871 95.6826 72.0116 94.1524C72.0502 94.1376 72.1006 94.1199 72.1392 94.0874C73.0918 93.6649 74.0444 93.2099 74.9821 92.7343V92.7432C75.0296 92.7195 75.0771 92.6959 75.1275 92.6634C78.0238 91.1804 80.831 89.4433 83.5048 87.4521C84.8401 89.9692 86.1755 92.495 87.5109 95.012Z" fill="black"/>
<path d="M28 146.254V159L0 151.024V140H5.84615L28 146.254Z" fill="#F7C4BA"/>
<path d="M36.6485 48.4053C31.8145 63.655 26.9804 78.9019 22.1464 94.1516C22.1078 94.1369 22.0573 94.1191 22.0188 94.0866C21.0662 93.6642 20.1136 93.2092 19.1759 92.7336V92.7424C19.1284 92.7188 19.0809 92.6952 19.0334 92.6627C16.1372 91.1797 13.3358 89.4455 10.6621 87.4514C17.5616 74.4321 24.4581 61.4246 31.3575 48.4053H36.6485Z" fill="#1BB16B"/>
<path d="M32.6973 108.519C32.7446 108.533 32.8008 108.542 32.8482 108.551V108.56C32.8008 108.542 32.7446 108.533 32.6973 108.519Z" fill="#51B27F"/>
<path d="M41.8801 48.4053C39.3904 64.9756 36.9006 81.5488 34.4228 98.1192C34.3753 98.1103 34.3337 98.1044 34.2863 98.0955C33.8055 97.9921 33.3248 97.8887 32.853 97.7706C32.8055 97.7617 32.7491 97.7558 32.6986 97.7381V97.7322C29.0991 96.8695 25.5677 95.6849 22.1432 94.1546C22.1017 94.1398 22.0542 94.1221 22.0156 94.0896C26.8734 78.8634 31.7312 63.6314 36.589 48.4082H41.8801V48.4053Z" fill="#92CB7B"/>
<path d="M47.1522 99.4338H47.0009C42.7841 99.4338 38.5673 98.9966 34.4216 98.1192C34.3742 98.1103 34.3326 98.1044 34.2852 98.0955L41.8226 48.4053H47.1048C47.1226 65.4158 47.1374 82.4233 47.1522 99.4338Z" fill="#E9F2E1"/>
<path d="M61.3086 108.548C61.3559 108.54 61.4122 108.534 61.4595 108.516C61.4122 108.531 61.3559 108.54 61.3086 108.554V108.548Z" fill="#FCD0B0"/>
<path d="M72.1378 94.0886C72.0992 94.1211 72.0487 94.1358 72.0102 94.1506C68.5857 95.6809 65.0573 96.8685 61.4636 97.7282V97.7371C61.4162 97.7518 61.3598 97.7607 61.3123 97.7696C60.8405 97.8907 60.3597 97.9941 59.879 98.0975C59.8315 98.1063 59.7929 98.1123 59.7425 98.1211C57.2617 81.5478 54.7749 64.9775 52.2852 48.4072H57.5762C62.4311 63.6275 67.28 78.8624 72.1378 94.0886Z" fill="#92CB7B"/>
<path d="M83.5001 87.4514C80.8264 89.4426 78.0162 91.1797 75.1199 92.6627C75.0724 92.6952 75.0249 92.7188 74.9745 92.7424V92.7336C74.0397 93.2122 73.0871 93.6671 72.1346 94.0866C72.096 94.1191 72.0455 94.1339 72.007 94.1516C67.1818 78.9019 62.3388 63.655 57.5137 48.4053H62.7958C69.6953 61.4246 76.6036 74.4351 83.5001 87.4514Z" fill="#1BB16B"/>
<path d="M54.3088 16.2272C54.3088 18.3867 53.65 20.3513 52.5372 21.8639C51.2107 23.7132 49.2373 24.8801 47.0206 24.8801C44.7861 24.8801 42.7801 23.6866 41.4447 21.7959C40.3704 20.2922 39.7324 18.3454 39.7324 16.2242C39.7324 15.9849 39.7413 15.7427 39.7621 15.5034C39.7918 15.1075 39.8392 14.7323 39.9075 14.3571C40.5752 10.7234 43.1688 7.94941 46.3648 7.61263C46.5784 7.58308 46.801 7.57422 47.0236 7.57422C47.2372 7.57422 47.4509 7.58308 47.6616 7.60376C50.8546 7.93168 53.469 10.7175 54.1278 14.3601C54.196 14.7176 54.2435 15.075 54.2732 15.4384C54.2999 15.6984 54.3088 15.9583 54.3088 16.2272Z" fill="#F7C4BA"/>
<path d="M46.9768 9.41566C46.9768 10.5708 46.6266 11.6402 46.0183 12.5294C45.0212 13.9947 43.3268 14.9578 41.4097 14.9578C40.5106 14.9578 39.6678 14.7451 38.9141 14.361C39.5818 10.7273 42.1754 7.95331 45.3714 7.61653C45.585 7.58698 45.8076 7.57812 46.0301 7.57812C46.2438 7.57812 46.4545 7.58699 46.6682 7.60766C46.8699 8.17192 46.9768 8.77755 46.9768 9.41566Z" fill="#231F20"/>
<path d="M53.1322 14.3581C52.3754 14.7452 51.5238 14.9549 50.6157 14.9549C48.6987 14.9549 47.0161 13.9918 46.019 12.5265C45.4107 11.6402 45.0605 10.5708 45.0605 9.41275C45.0605 8.77759 45.1674 8.16902 45.3692 7.61067C45.5828 7.58113 45.8054 7.57227 46.028 7.57227C46.2386 7.57227 46.4523 7.58113 46.666 7.60181C49.862 7.93268 52.4763 10.7156 53.1322 14.3581Z" fill="#231F20"/>
<path d="M30.2427 20.7824C23.4827 17.3407 15.2004 20.0055 11.7433 26.7352L6.14954 37.6216C2.69239 44.3513 5.36907 52.5966 12.129 56.0383C18.889 59.48 27.1713 56.8153 30.6285 50.0855L36.2222 39.1991C39.6794 32.4694 37.0027 24.2241 30.2427 20.7824Z" fill="white"/>
<path d="M55.8945 10.8776C55.5948 10.6737 55.5028 10.2719 55.6838 9.95879C55.9984 9.41226 55.4791 8.76528 54.8737 8.94844C54.5265 9.05479 54.1556 8.87754 54.022 8.54076C53.7906 7.95582 52.9567 7.95582 52.7252 8.54076C52.5917 8.87754 52.2208 9.05479 51.8736 8.94844C51.6629 8.88345 51.467 8.92481 51.3097 9.0223C51.2593 8.92185 51.191 8.82732 51.0842 8.75641C50.7845 8.55257 50.6925 8.1508 50.8735 7.83765C51.1881 7.29111 50.6687 6.64414 50.0634 6.8273C49.7162 6.93365 49.3452 6.7564 49.2117 6.41962C48.9802 5.83468 48.1464 5.83468 47.9149 6.41962C47.7814 6.7564 47.4134 6.93365 47.0632 6.8273C46.4579 6.64414 45.9385 7.29111 46.2531 7.83765C46.4311 8.14489 46.3421 8.53485 46.0572 8.74165C46.0424 8.72983 46.0305 8.7121 46.0157 8.70324C45.716 8.4994 45.624 8.09762 45.805 7.78447C46.1196 7.23794 45.6002 6.59096 44.9978 6.77412C44.6506 6.88048 44.2797 6.70322 44.1462 6.36644C43.9147 5.7815 43.0808 5.7815 42.8494 6.36644C42.7158 6.70322 42.3449 6.88048 41.9977 6.77412C41.3923 6.59096 40.873 7.23794 41.1905 7.78447C41.3716 8.09762 41.2796 8.4994 40.9798 8.70324C40.778 8.84209 40.6831 9.04593 40.6771 9.25273C40.3537 9.19069 40.1104 8.92185 40.1074 8.58803C40.1015 7.95877 39.324 7.66039 38.8996 8.12421C38.6533 8.39009 38.2438 8.42259 37.956 8.20102C37.4574 7.81106 36.7393 8.23056 36.8372 8.8539C36.8936 9.21137 36.6621 9.55111 36.309 9.63678C35.6947 9.78154 35.576 10.6028 36.125 10.916C36.4396 11.0962 36.5642 11.4861 36.4099 11.8141C36.1398 12.3842 36.7096 12.9869 37.2972 12.7535C37.6355 12.6206 38.0212 12.7683 38.1815 13.0932C38.4604 13.6575 39.2884 13.5895 39.4753 12.9898C39.5792 12.6442 39.9353 12.4374 40.2914 12.5142C40.9086 12.6501 41.3715 11.9618 41.0125 11.4418C40.8048 11.1434 40.8671 10.7387 41.149 10.5083C41.3152 10.3724 41.3923 10.1922 41.4012 10.012C41.6861 10.1154 41.882 10.3872 41.8612 10.7033C41.8167 11.3296 42.5645 11.69 43.0304 11.2646C43.2975 11.0194 43.7099 11.0194 43.977 11.2646C44.4429 11.69 45.1907 11.3325 45.1462 10.7033C45.1195 10.3399 45.3777 10.0208 45.7367 9.96765C45.8376 9.95288 45.9237 9.91152 46.0009 9.86425C46.0928 9.94106 46.2056 10.0001 46.3421 10.0208C46.7012 10.077 46.9564 10.396 46.9327 10.7594C46.8881 11.3857 47.636 11.7461 48.1018 11.3177C48.3689 11.0725 48.7814 11.0725 49.0485 11.3177C49.5144 11.7461 50.2622 11.3857 50.2177 10.7594C50.191 10.396 50.4462 10.077 50.8082 10.0208C50.9061 10.0061 50.9863 9.97061 51.0634 9.92629C51.0693 9.93811 51.0723 9.95288 51.0782 9.9647C51.2593 10.2778 51.1673 10.6767 50.8676 10.8835C50.3453 11.238 50.5293 12.0474 51.1554 12.142C51.5145 12.1951 51.7726 12.5172 51.7459 12.8776C51.7014 13.5068 52.4492 13.8643 52.9151 13.4389C53.1822 13.1937 53.5947 13.1937 53.8618 13.4389C54.3277 13.8672 55.0755 13.5068 55.031 12.8776C55.0043 12.5172 55.2595 12.1951 55.6215 12.142C56.2298 12.0386 56.4168 11.2321 55.8945 10.8776Z" fill="#E52226"/>
<path d="M82.3455 42.5352L87.2004 46.1246L72.443 66.5856L69.1016 60.2842L82.3455 42.5352Z" fill="#F7C4BA"/>
<path d="M88.0521 37.7407L82.3961 26.7333C78.9389 20.0035 70.6566 17.3388 63.8966 20.7805C57.1367 24.2222 54.46 32.4674 57.9171 39.1972L63.5732 50.2047C67.0303 56.9344 75.3126 59.5991 82.0726 56.1574C88.8355 52.7187 91.5122 44.4705 88.0521 37.7407Z" fill="white"/>
<path d="M61.4423 140.285H47.9728V138.025H47.9609V120.84H55.1334V135.691C55.1334 136.979 56.1809 138.022 57.4748 138.022H59.1722C60.4274 138.028 61.4423 139.038 61.4423 140.285Z" fill="black"/>
<path d="M42.9952 120.843V140.285H29.8105C29.8105 139.035 30.8254 138.025 32.0807 138.025H33.4784C34.7722 138.025 35.8197 136.982 35.8197 135.694V120.843H42.9952V120.843Z" fill="black"/>
<path d="M47.5213 21.2761C47.4649 22.0176 46.8331 22.6025 46.0766 22.6025C45.3023 22.6025 44.6882 22.0176 44.6289 21.2761H44.7298C44.9167 21.2761 45.1718 20.9275 45.2014 20.8625C45.2786 20.6971 45.4447 20.6055 45.6316 20.6055C45.8185 20.6055 45.9905 20.7059 46.0914 20.8625C46.1626 20.7059 46.3347 20.6055 46.5216 20.6055C46.7085 20.6055 46.8657 20.703 46.9665 20.8625C46.9992 20.9127 47.2662 21.2761 47.4382 21.2761H47.5213Z" fill="#E52226"/>
<path d="M64.6836 144.755L64.2891 144.817L64.6717 144.752H64.6777L64.6836 144.755Z" fill="#F19B96"/>
<path d="M92.3631 152.705V164.72L82.7069 162.011L27.4549 146.487L5.64062 140.327L48.5093 140.36L64.1005 144.759L64.2488 144.782L64.2846 144.818H64.2876L82.2558 149.872L92.3631 152.705Z" fill="#1BB16B"/>
<path d="M92.3627 152.705L82.2553 149.872L64.2871 144.817L82.7064 149.99L92.3627 152.705Z" fill="#F1F0EF"/>
<path d="M64.6836 144.755L64.2891 144.817L64.6717 144.752H64.6777L64.6836 144.755Z" fill="#F1F0EF"/>
<path d="M89 176H44.6435L34 172.898V160L56.359 166.501L89 176Z" fill="#B2D793"/>
<path d="M44.8093 175.777H0.410823H0V163.369L34.4644 172.908L44.8093 175.777Z" fill="#1BB16B"/>
<path d="M92.2901 140.327V140.477L92.1921 140.444L82.6195 141.916L64.6572 144.671L64.5651 144.685H64.5591L64.1728 144.75H64.1698L64.1074 144.759L63.9499 144.715L48.3711 140.327H92.2901Z" fill="#92CB7B"/>
<path d="M92.3627 140.51L64.6848 144.755L64.2871 144.817L64.6729 144.752H64.6788L64.7708 144.738L82.7064 141.961L92.2647 140.478L92.3627 140.51Z" fill="#FAD6CE"/>
<path d="M64.6836 144.755L64.2891 144.817L64.6717 144.752H64.6777L64.6836 144.755Z" fill="#FCD2B2"/>
<path d="M93 164.693V176H88.6793L56.6804 166.861L34.7613 160.606V173.08L0 163.337V150.631L27.2122 158.362V146L83.4309 161.98L93 164.693Z" fill="#92CB7B"/>
<path d="M92.3627 152.705L82.2553 149.872L64.2871 144.817L82.7064 149.99L92.3627 152.705Z" fill="#FCD2B2"/>
<path d="M92.3627 140.51L64.6848 144.755L64.2871 144.817L64.6729 144.752H64.6788L64.7708 144.738L82.7064 141.961L92.2647 140.478L92.3627 140.51Z" fill="#FCD2B2"/>
<path d="M92.2801 140.327L92.2889 152.735L82.6939 150.006L64.0977 144.759L64.8395 144.611L92.2801 140.327Z" fill="#F48D83"/>
<path d="M169 175H91V250H169V175Z" fill="#F7C4BA"/>
<path d="M137.338 210.533C136.828 208.935 135.217 208.034 133.665 208.427C133.498 206.823 132.184 205.57 130.587 205.57C128.928 205.57 127.578 206.923 127.501 208.625C125.934 208.265 124.341 209.207 123.869 210.823C123.4 212.436 124.213 214.135 125.706 214.734C124.949 216.149 125.326 217.957 126.632 218.912C127.961 219.884 129.771 219.609 130.792 218.333C131.851 219.52 133.623 219.718 134.902 218.731C136.214 217.727 136.531 215.863 135.68 214.46C137.104 213.789 137.837 212.105 137.338 210.533ZM130.617 214.737C129.507 214.737 128.605 213.804 128.605 212.655C128.605 211.502 129.504 210.572 130.617 210.572C131.727 210.572 132.629 211.505 132.629 212.655C132.626 213.807 131.727 214.737 130.617 214.737Z" fill="#E52226"/>
<path d="M132.626 212.655C132.626 213.807 131.726 214.741 130.614 214.741C129.504 214.741 128.602 213.807 128.602 212.655C128.602 211.503 129.501 210.572 130.614 210.572C131.726 210.569 132.626 211.503 132.626 212.655Z" fill="#F19B96"/>
<path d="M136.551 195.993C136.581 193.842 135.809 191.766 134.901 189.863L133.928 190.788C135.044 188.111 131.842 185.054 130.619 183.305C129.177 185.396 126.289 187.893 127.31 190.788C127.073 190.56 126.574 190.085 126.337 189.863C125.165 192.475 123.464 196.392 125.978 198.69C125.758 198.634 125.138 198.475 124.907 198.416C125.586 205.234 135.655 205.234 136.334 198.416L135.263 198.69C136.008 198.035 136.498 197.071 136.551 195.993Z" fill="#E52226"/>
<path d="M130.62 183.302V203.529C127.931 203.529 125.249 201.825 124.904 198.416C125.136 198.475 125.756 198.634 125.976 198.69C123.465 196.395 125.165 192.478 126.338 189.863C126.572 190.085 127.071 190.56 127.311 190.788C126.29 187.896 129.175 185.396 130.62 183.302Z" fill="#F48D83"/>
<path d="M112.937 194.663C112.821 193.762 112.791 192.944 112.853 192.191C113.557 192.078 114.183 191.591 114.465 190.858C114.889 189.75 114.367 188.495 113.299 188.055C112.227 187.614 111.017 188.158 110.592 189.266C110.227 190.217 110.563 191.278 111.346 191.836C111.254 192.767 111.278 193.774 111.417 194.879C111.482 195.372 111.563 195.842 111.661 196.285C110.183 195.056 108.687 193.706 107.049 192.194C107.061 192.17 107.07 192.149 107.079 192.123C107.503 191.018 106.981 189.762 105.912 189.319C104.844 188.879 103.63 189.422 103.206 190.527C102.782 191.635 103.304 192.894 104.372 193.334C104.904 193.552 105.47 193.529 105.96 193.31C107.592 194.82 109.085 196.167 110.56 197.399C110.165 197.502 109.761 197.629 109.349 197.78C108.479 198.099 107.714 198.462 107.034 198.882C106.93 198.79 106.818 198.711 106.696 198.643C105.681 198.072 104.42 198.459 103.868 199.508C103.319 200.557 103.693 201.866 104.702 202.436C105.714 203.006 106.978 202.619 107.527 201.57C107.743 201.16 107.818 200.711 107.767 200.279V200.276C108.37 199.895 109.064 199.567 109.859 199.275C110.675 198.976 111.432 198.781 112.15 198.687C113.521 199.762 114.913 200.749 116.417 201.68C115.055 202.126 113.77 202.764 112.607 203.378C112.577 203.393 112.545 203.411 112.512 203.428C112.462 203.387 112.408 203.346 112.352 203.31C111.382 202.669 110.094 202.965 109.473 203.969C108.859 204.977 109.144 206.312 110.112 206.953C111.082 207.591 112.373 207.296 112.987 206.288C113.272 205.83 113.364 205.296 113.287 204.796C113.293 204.793 113.296 204.793 113.299 204.79C114.895 203.951 116.584 203.124 118.352 202.802C118.504 202.885 118.652 202.968 118.803 203.047C118.806 203.053 118.806 203.059 118.806 203.062L118.818 203.056C120.406 203.907 122.142 204.722 124.115 205.526L124.676 204.049C122.979 203.352 121.459 202.652 120.059 201.922C119.51 200.01 119.566 197.94 119.691 195.957C120.415 195.86 121.07 195.369 121.358 194.613C121.783 193.505 121.263 192.25 120.192 191.807C119.121 191.366 117.91 191.91 117.483 193.018C117.127 193.945 117.435 194.979 118.177 195.547C118.174 195.597 118.174 195.644 118.168 195.688C118.061 197.331 117.993 199.157 118.275 200.944C116.702 200.037 115.275 199.077 113.883 198.028C113.42 197.103 113.109 195.996 112.937 194.663Z" fill="#E52226"/>
<path d="M148.76 194.663C148.876 193.762 148.905 192.944 148.843 192.191C148.14 192.078 147.514 191.591 147.232 190.858C146.807 189.75 147.33 188.495 148.398 188.055C149.466 187.614 150.68 188.158 151.107 189.266C151.472 190.217 151.137 191.278 150.354 191.836C150.446 192.767 150.422 193.774 150.279 194.879C150.214 195.372 150.134 195.842 150.036 196.285C151.514 195.056 153.009 193.706 154.648 192.194C154.636 192.17 154.627 192.149 154.618 192.123C154.194 191.018 154.713 189.762 155.784 189.319C156.855 188.879 158.066 189.422 158.49 190.527C158.915 191.635 158.393 192.894 157.321 193.334C156.79 193.552 156.223 193.529 155.734 193.31C154.102 194.82 152.609 196.167 151.134 197.399C151.526 197.502 151.932 197.629 152.345 197.78C153.214 198.099 153.98 198.462 154.659 198.882C154.763 198.79 154.876 198.711 154.998 198.643C156.013 198.072 157.274 198.459 157.826 199.508C158.375 200.557 158.001 201.866 156.992 202.436C155.983 203.006 154.716 202.619 154.167 201.57C153.95 201.16 153.876 200.711 153.926 200.279V200.276C153.321 199.895 152.63 199.567 151.834 199.275C151.018 198.976 150.262 198.781 149.543 198.687C148.172 199.762 146.781 200.749 145.276 201.68C146.641 202.126 147.923 202.764 149.086 203.378C149.116 203.393 149.149 203.411 149.181 203.428C149.232 203.387 149.285 203.346 149.342 203.31C150.312 202.669 151.6 202.965 152.22 203.969C152.837 204.977 152.552 206.312 151.582 206.953C150.612 207.591 149.321 207.296 148.707 206.288C148.422 205.83 148.33 205.296 148.41 204.796C148.407 204.793 148.401 204.793 148.398 204.79C146.801 203.951 145.113 203.124 143.341 202.802C143.19 202.885 143.042 202.968 142.89 203.047C142.887 203.053 142.887 203.059 142.887 203.062L142.875 203.056C141.288 203.907 139.552 204.722 137.578 205.526L137.018 204.049C138.715 203.352 140.234 202.652 141.635 201.922C142.184 200.01 142.128 197.94 142.003 195.957C141.276 195.86 140.623 195.369 140.335 194.613C139.911 193.505 140.43 192.25 141.501 191.807C142.573 191.366 143.783 191.91 144.211 193.018C144.567 193.945 144.258 194.979 143.516 195.547C143.519 195.597 143.522 195.644 143.525 195.688C143.632 197.331 143.703 199.157 143.419 200.944C144.991 200.037 146.419 199.077 147.81 198.028C148.273 197.103 148.588 195.996 148.76 194.663Z" fill="#E52226"/>
<path d="M125.141 229.659C125.112 231.81 125.883 233.887 126.791 235.789L127.765 234.865C126.649 237.541 129.848 240.599 131.074 242.348C132.516 240.256 135.403 237.76 134.382 234.865C134.62 235.092 135.118 235.565 135.356 235.789C136.528 233.178 138.228 229.26 135.715 226.962C135.934 227.018 136.555 227.178 136.786 227.237C136.106 220.418 126.041 220.421 125.358 227.237L126.429 226.962C125.685 227.618 125.195 228.581 125.141 229.659Z" fill="#F48D83"/>
<path d="M131.072 242.348V222.12C133.761 222.12 136.443 223.828 136.785 227.234C136.553 227.175 135.933 227.015 135.713 226.959C138.224 229.255 136.524 233.175 135.351 235.786C135.117 235.565 134.618 235.089 134.378 234.862C135.405 237.757 132.517 240.256 131.072 242.348Z" fill="#E52226"/>
<path d="M148.76 230.985C148.876 231.887 148.905 232.705 148.843 233.458C148.14 233.573 147.514 234.058 147.232 234.791C146.807 235.898 147.33 237.157 148.398 237.594C149.466 238.034 150.68 237.494 151.107 236.383C151.472 235.435 151.137 234.371 150.354 233.813C150.446 232.882 150.422 231.875 150.279 230.773C150.214 230.279 150.134 229.81 150.036 229.364C151.514 230.593 153.009 231.943 154.648 233.455C154.636 233.479 154.627 233.5 154.618 233.526C154.194 234.631 154.713 235.887 155.784 236.327C156.855 236.767 158.066 236.223 158.49 235.118C158.915 234.011 158.393 232.752 157.321 232.312C156.79 232.093 156.223 232.117 155.734 232.336C154.102 230.826 152.609 229.479 151.134 228.247C151.526 228.141 151.932 228.014 152.345 227.866C153.214 227.547 153.98 227.183 154.659 226.761C154.763 226.852 154.876 226.932 154.998 227C156.013 227.57 157.274 227.183 157.826 226.135C158.375 225.086 158.001 223.777 156.992 223.207C155.983 222.637 154.716 223.024 154.167 224.073C153.95 224.483 153.876 224.932 153.926 225.364V225.367C153.321 225.748 152.63 226.076 151.834 226.368C151.018 226.666 150.262 226.861 149.543 226.959C148.172 225.884 146.781 224.897 145.276 223.966C146.641 223.52 147.923 222.879 149.086 222.268C149.116 222.253 149.149 222.235 149.181 222.217C149.232 222.259 149.285 222.297 149.342 222.335C150.312 222.977 151.6 222.681 152.22 221.677C152.837 220.669 152.552 219.334 151.582 218.693C150.612 218.055 149.321 218.347 148.707 219.355C148.422 219.816 148.33 220.347 148.41 220.847C148.407 220.849 148.401 220.849 148.398 220.852C146.801 221.691 145.113 222.519 143.341 222.838C143.19 222.755 143.042 222.672 142.89 222.592C142.887 222.587 142.887 222.581 142.887 222.578L142.875 222.584C141.288 221.733 139.552 220.917 137.578 220.114L137.018 221.591C138.715 222.285 140.234 222.988 141.635 223.718C142.184 225.626 142.128 227.7 142.003 229.683C141.276 229.78 140.623 230.274 140.335 231.027C139.911 232.135 140.43 233.39 141.501 233.833C142.573 234.274 143.783 233.73 144.211 232.622C144.567 231.692 144.258 230.66 143.516 230.093C143.519 230.043 143.522 229.996 143.525 229.951C143.632 228.309 143.703 226.483 143.419 224.696C144.991 225.603 146.419 226.563 147.81 227.612C148.273 228.545 148.588 229.656 148.76 230.985Z" fill="#E52226"/>
<path d="M112.937 230.985C112.821 231.887 112.791 232.705 112.853 233.458C113.557 233.573 114.183 234.058 114.465 234.791C114.889 235.898 114.367 237.157 113.299 237.594C112.227 238.034 111.017 237.494 110.592 236.383C110.227 235.435 110.563 234.371 111.346 233.813C111.254 232.882 111.278 231.875 111.417 230.773C111.482 230.279 111.563 229.81 111.661 229.364C110.183 230.593 108.687 231.943 107.049 233.455C107.061 233.479 107.07 233.5 107.079 233.526C107.503 234.631 106.981 235.887 105.912 236.327C104.844 236.767 103.63 236.223 103.206 235.118C102.782 234.011 103.304 232.752 104.372 232.312C104.904 232.093 105.47 232.117 105.96 232.336C107.592 230.826 109.085 229.479 110.56 228.247C110.165 228.141 109.761 228.014 109.349 227.866C108.479 227.547 107.714 227.183 107.034 226.761C106.93 226.852 106.818 226.932 106.696 227C105.681 227.57 104.42 227.183 103.868 226.135C103.319 225.086 103.693 223.777 104.702 223.207C105.714 222.637 106.978 223.024 107.527 224.073C107.743 224.483 107.818 224.932 107.767 225.364V225.367C108.37 225.748 109.064 226.076 109.859 226.368C110.675 226.666 111.432 226.861 112.15 226.959C113.521 225.884 114.913 224.897 116.417 223.966C115.055 223.52 113.77 222.879 112.607 222.268C112.577 222.253 112.545 222.235 112.512 222.217C112.462 222.259 112.408 222.297 112.352 222.335C111.382 222.977 110.094 222.681 109.473 221.677C108.859 220.669 109.144 219.334 110.112 218.693C111.082 218.055 112.373 218.347 112.987 219.355C113.272 219.816 113.364 220.347 113.287 220.847C113.293 220.849 113.296 220.849 113.299 220.852C114.895 221.691 116.584 222.519 118.352 222.838C118.504 222.755 118.652 222.672 118.803 222.592C118.806 222.587 118.806 222.581 118.806 222.578L118.818 222.584C120.406 221.733 122.142 220.917 124.115 220.114L124.676 221.591C122.979 222.285 121.459 222.988 120.059 223.718C119.51 225.626 119.566 227.7 119.691 229.683C120.415 229.78 121.07 230.274 121.358 231.027C121.783 232.135 121.263 233.39 120.192 233.833C119.121 234.274 117.91 233.73 117.483 232.622C117.127 231.692 117.435 230.66 118.177 230.093C118.174 230.043 118.174 229.996 118.168 229.951C118.061 228.309 117.993 226.483 118.275 224.696C116.702 225.603 115.275 226.563 113.883 227.612C113.42 228.545 113.109 229.656 112.937 230.985Z" fill="#E52226"/>
<path d="M104.664 209.343C107.834 209.343 109.38 211.304 109.38 212.826C109.38 214.347 107.834 216.306 104.664 216.306C101.495 216.306 97.9043 212.826 97.9043 212.826C97.9043 212.826 101.495 209.343 104.664 209.343Z" fill="#F48D83"/>
<path d="M157.198 209.343C154.028 209.343 152.482 211.304 152.482 212.826C152.482 214.347 154.028 216.306 157.198 216.306C160.367 216.306 163.958 212.826 163.958 212.826C163.958 212.826 160.367 209.343 157.198 209.343Z" fill="#F48D83"/>
<path d="M169 0H92V37H169V0Z" fill="#1BB16B"/>
<path d="M169 37H92V168H169V37Z" fill="#97CF9B"/>
<path d="M118 152.006V175H92V152.006H99.8394L104.32 149.509L108.849 147L113.37 149.509L114.452 150.115L117.859 152.006H118Z" fill="#E52226"/>
<path d="M144 152.006V175H169V152.006H161.462L157.151 149.509L152.799 147L148.452 149.509L147.412 150.115L144.135 152.006H144Z" fill="#E52226"/>
<path d="M138.737 67.6485H135.755V53.5361H125.024V67.6485H122.039V91.1465H138.737V67.6485Z" fill="white"/>
<path d="M122.044 91.1475H121.955L121.961 91.1653H122.05L122.044 91.1475Z" fill="#C6E3C7"/>
<path d="M121.963 91.1622H116.232L116.238 91.1475H121.954L121.963 91.1622Z" fill="#FAD5CD"/>
<path d="M121.668 46.9019H121.619V46.8711C121.638 46.8865 121.653 46.8926 121.668 46.9019Z" fill="#FAD5CD"/>
<path d="M132.345 61.4548C132.191 62.3854 131.375 63.1003 130.39 63.1003C129.41 63.1003 128.597 62.3854 128.434 61.4548C128.404 61.3514 128.398 61.2332 128.398 61.1151C128.398 60.022 129.295 59.1387 130.393 59.1387C131.491 59.1387 132.378 60.0249 132.378 61.1151C132.375 61.2332 132.369 61.3514 132.345 61.4548Z" fill="#F7C4BA"/>
<path d="M121.668 46.9019H121.619V46.8711C121.638 46.8865 121.653 46.8926 121.668 46.9019Z" fill="#FAD5CD"/>
<path d="M144.436 85.9854V91.0135L144.513 91.1464H144.436H146.42V85.9854H144.436Z" fill="#E52226"/>
<path d="M116.27 91.0903L116.338 90.9751V85.9854H114.354V91.1464H116.237L116.27 91.0903Z" fill="#E52226"/>
<path d="M122.04 91.1293L122.016 91.0909L120.598 88.6507L119.144 86.1396L117.686 88.6507L116.342 90.9757H116.339V91.1471H116.238L116.232 91.1619H122.055L122.046 91.1471L122.04 91.1293Z" fill="#E52226"/>
<path d="M116.339 90.9756L116.271 91.0912L116.238 91.1475H116.339V90.9756Z" fill="#F7A89E"/>
<path d="M143.095 88.7045L141.638 86.1934L140.175 88.7045L138.76 91.1476H144.434V91.0147L143.095 88.7045Z" fill="#E52226"/>
<path d="M144.436 91.0146V91.1476H144.512L144.436 91.0146Z" fill="#F7A89E"/>
<path d="M146 91V175H114V91H115.889L115.878 91.0177H121.688L121.676 91H146Z" fill="white"/>
<path d="M142.908 94.9346H140.781V105.759H142.908V94.9346Z" fill="#F7C4BA"/>
<path d="M137.258 94.9346H135.125V105.759H137.258V94.9346Z" fill="#F7C4BA"/>
<path d="M131.6 94.9346H129.467V105.759H131.6V94.9346Z" fill="#F7C4BA"/>
<path d="M125.953 94.9346H123.82V105.759H125.953V94.9346Z" fill="#F7C4BA"/>
<path d="M120.306 94.9346H118.164V105.759H120.306V94.9346Z" fill="#F7C4BA"/>
<path d="M123.68 162.956H120.502V168.894H123.68V162.956Z" fill="#F7C4BA"/>
<path d="M123.68 153.062H120.502V159H123.68V153.062Z" fill="#F7C4BA"/>
<path d="M123.68 143.167H120.502V149.105H123.68V143.167Z" fill="#F7C4BA"/>
<path d="M123.68 133.273H120.502V139.211H123.68V133.273Z" fill="#F7C4BA"/>
<path d="M123.68 123.381H120.502V129.319H123.68V123.381Z" fill="#F7C4BA"/>
<path d="M123.68 113.487H120.502V119.425H123.68V113.487Z" fill="#F7C4BA"/>
<path d="M129.292 162.956H126.113V168.894H129.292V162.956Z" fill="#F7C4BA"/>
<path d="M129.292 153.062H126.113V159H129.292V153.062Z" fill="#F7C4BA"/>
<path d="M129.292 143.167H126.113V149.105H129.292V143.167Z" fill="#F7C4BA"/>
<path d="M129.292 133.273H126.113V139.211H129.292V133.273Z" fill="#F7C4BA"/>
<path d="M129.292 123.381H126.113V129.319H129.292V123.381Z" fill="#F7C4BA"/>
<path d="M129.292 113.487H126.113V119.425H129.292V113.487Z" fill="#F7C4BA"/>
<path d="M134.909 162.956H131.73V168.894H134.909V162.956Z" fill="#F7C4BA"/>
<path d="M134.909 153.062H131.73V159H134.909V153.062Z" fill="#F7C4BA"/>
<path d="M134.909 143.167H131.73V149.105H134.909V143.167Z" fill="#F7C4BA"/>
<path d="M134.909 133.273H131.73V139.211H134.909V133.273Z" fill="#F7C4BA"/>
<path d="M134.909 123.381H131.73V129.319H134.909V123.381Z" fill="#F7C4BA"/>
<path d="M134.909 113.487H131.73V119.425H134.909V113.487Z" fill="#F7C4BA"/>
<path d="M140.528 162.956H137.35V168.894H140.528V162.956Z" fill="#F7C4BA"/>
<path d="M140.528 153.062H137.35V159H140.528V153.062Z" fill="#F7C4BA"/>
<path d="M140.528 143.167H137.35V149.105H140.528V143.167Z" fill="#F7C4BA"/>
<path d="M140.528 133.273H137.35V139.211H140.528V133.273Z" fill="#F7C4BA"/>
<path d="M140.528 123.381H137.35V129.319H140.528V123.381Z" fill="#F7C4BA"/>
<path d="M140.528 113.487H137.35V119.425H140.528V113.487Z" fill="#F7C4BA"/>
<path d="M147.957 108.736H113.098V110.719H147.957V108.736Z" fill="#F7C4BA"/>
<path d="M134.964 50.5637C133.02 50.5637 131.447 49.0275 131.391 47.1073C132.035 46.741 132.474 46.0585 132.474 45.2668C132.474 44.5282 132.094 43.8783 131.521 43.4943V37.3169V37.1692V28.2888V28.2829V3.61501C131.171 3.34027 130.797 3.17188 130.402 3.17188C130.002 3.17188 129.622 3.34322 129.269 3.62683V28.277V37.1663V37.2638V43.4322C128.631 43.8015 128.198 44.481 128.198 45.2668C128.198 46.026 128.598 46.6878 129.201 47.063C129.165 49.0039 127.58 50.5608 125.625 50.5608C125.426 50.5608 125.224 50.546 125.031 50.5106V53.5357H135.762V50.481C135.495 50.5342 135.237 50.5637 134.964 50.5637Z" fill="#E52226"/>
<path d="M130.524 6.24219C123.746 6.24219 118.256 11.7075 118.256 18.455C118.256 24.7771 123.081 29.9765 129.262 30.6028V22.6884C127.428 22.1567 126.084 20.458 126.084 18.458C126.084 16.0207 128.075 14.0384 130.524 14.0384C132.978 14.0384 134.963 16.0207 134.963 18.458C134.963 20.5584 133.494 22.3191 131.518 22.7593V30.6235C137.83 30.1301 142.797 24.8716 142.797 18.458C142.797 11.7075 137.301 6.24219 130.524 6.24219Z" fill="white"/>
<path d="M133.321 23.7183L132.201 25.1641L133.653 26.2786L134.773 24.8328L133.321 23.7183Z" fill="black"/>
<path d="M129.264 27.9614V28.2628L128.285 29.5213L126.834 28.4046L127.958 26.9629L129.264 27.9614Z" fill="black"/>
<path d="M123.979 23.3837L122.859 24.8291L124.311 25.944L125.431 24.4986L123.979 23.3837Z" fill="black"/>
<path d="M121.067 11.1636L119.947 12.6094L121.399 13.7238L122.519 12.2779L121.067 11.1636Z" fill="black"/>
<path d="M126.231 11.3513L125.111 12.7969L126.563 13.9114L127.683 12.4658L126.231 11.3513Z" fill="black"/>
<path d="M121.436 17.731L120.316 19.1768L121.769 20.2911L122.888 18.8453L121.436 17.731Z" fill="black"/>
<path d="M131.911 8.03896L130.791 9.48438L132.243 10.5993L133.363 9.15388L131.911 8.03896Z" fill="black"/>
<path d="M136.321 17.1177L135.201 18.5635L136.653 19.6779L137.773 18.232L136.321 17.1177Z" fill="black"/>
<path d="M137.388 11.2206L136.268 12.666L137.719 13.7809L138.839 12.3355L137.388 11.2206Z" fill="black"/>
<path d="M138.713 21.5933L137.594 23.0391L139.046 24.1534L140.165 22.7077L138.713 21.5933Z" fill="black"/>
<path d="M92 175H0V250H92V175Z" fill="#E52226"/>
<path d="M37.5529 204.028C36.2235 206.32 33.7337 207.866 30.879 207.866C28.0243 207.866 25.5345 206.32 24.2051 204.028C25.5345 201.735 28.0243 200.19 30.879 200.19C33.7337 200.193 36.2235 201.738 37.5529 204.028Z" fill="#F7C4BA"/>
<path d="M69.8537 204.028C68.5243 206.32 66.0345 207.866 63.1798 207.866C60.3251 207.866 57.8353 206.32 56.5059 204.028C57.8353 201.735 60.3251 200.19 63.1798 200.19C66.0345 200.193 68.5243 201.738 69.8537 204.028Z" fill="#F7C4BA"/>
<path d="M64.6411 220.469C64.8904 226.732 60.7596 232.291 60.7596 232.291L60.1483 229.568L60.0059 230.011C58.3233 235.201 48.2605 243.65 48.2605 243.65C48.394 243.825 47.3762 241.875 45.4206 240.454C42.7202 238.492 40.7646 237.612 38.4588 234.336L38.812 237.724C38.812 237.724 33.874 234.164 32.6307 230.566C31.7345 227.972 31.5267 222.705 31.5267 222.705L30.1261 227.703C30.1261 227.703 28.7966 224.309 29.0756 220.471C29.8323 210.034 37.0374 201.517 46.8569 201.517C56.6823 201.514 64.2286 210.011 64.6411 220.469Z" fill="#F48D83"/>
<path d="M37.826 197.287C37.826 197.287 26.5525 194.221 33.8466 184.587C33.9861 184.401 33.7546 184.167 33.5706 184.306C30.0363 187.006 21.3831 194.747 33.7961 201.417L36.9447 203.054L37.826 197.287Z" fill="#F7C4BA"/>
<path d="M56.5059 197.287C56.5059 197.287 67.6429 194.256 60.6188 184.764C60.4586 184.548 60.7286 184.279 60.9393 184.442C64.5745 187.254 72.753 194.856 60.5417 201.417L57.3932 203.054L56.5059 197.287Z" fill="#F7C4BA"/>
<path d="M50.2147 232.129H44.0987C39.3121 232.129 37.2259 226.557 37.2259 221.792L33.4453 207.432L35.4335 196.262H58.8857L60.7404 207.47L57.0251 221.668C57.0221 226.433 55.0013 232.129 50.2147 232.129Z" fill="#F7C4BA"/>
<path d="M42.1551 209.494C42.1551 210.481 41.3509 211.281 40.3598 211.281C39.3686 211.281 38.5645 210.481 38.5645 209.494C38.5645 208.507 39.3686 207.707 40.3598 207.707C41.3509 207.707 42.1551 208.507 42.1551 209.494Z" fill="#E52226"/>
<path d="M56.5086 209.494C56.5086 210.481 55.7045 211.281 54.7133 211.281C53.7222 211.281 52.918 210.481 52.918 209.494C52.918 208.507 53.7222 207.707 54.7133 207.707C55.7074 207.707 56.5086 208.507 56.5086 209.494Z" fill="#E52226"/>
<path d="M33.3839 190.102C36.0933 183.801 54.2781 179.99 60.774 190.102C61.3437 190.991 62.0767 193.393 61.3438 196.285C61.231 196.729 60.9075 197.636 60.9075 197.636L59.6671 196.702C59.6671 196.702 55.1951 204.995 48.8684 206.865C48.7971 206.865 38.9035 200.123 38.9035 200.123L39.0014 202.714C39.0014 202.714 36.7639 201.426 36.2772 200.983C33.4403 198.404 31.3927 194.737 33.3839 190.102Z" fill="#F48D83"/>
<path d="M57.0198 221.668V226.197C57.0198 229.47 54.355 232.129 51.0611 232.129H47.7731H46.8175H43.1883C39.8944 232.129 37.2266 229.473 37.2266 226.197V221.789C37.5708 221.653 37.9299 221.541 38.3008 221.464C38.8379 221.34 39.3928 221.278 39.9685 221.278C40.5442 221.278 41.1021 221.34 41.6363 221.464C43.3129 221.836 44.7818 222.764 45.8383 224.04C46.6009 224.965 47.9838 224.965 48.7464 224.04C49.8028 222.764 51.2718 221.836 52.9514 221.464C53.4855 221.34 54.0434 221.278 54.6191 221.278C55.1948 221.278 55.7527 221.34 56.2868 221.464C56.5361 221.517 56.7794 221.585 57.0198 221.668Z" fill="#E52226"/>
<path d="M45.3059 229.169C44.6798 229.701 43.561 229.414 42.8013 228.531C42.0446 227.647 41.9348 226.501 42.561 225.969C43.1871 225.438 44.3059 225.724 45.0655 226.608C45.8252 227.491 45.9321 228.637 45.3059 229.169Z" fill="#F3B5B5"/>
<path d="M49.7062 229.169C50.3324 229.701 51.4511 229.414 52.2108 228.531C52.9675 227.647 53.0773 226.501 52.4512 225.969C51.825 225.438 50.7063 225.724 49.9466 226.608C49.1899 227.491 49.0831 228.637 49.7062 229.169Z" fill="#F3B5B5"/>
</svg>
