<svg width="1870" height="1094" viewBox="0 0 1870 1094" fill="none" xmlns="http://www.w3.org/2000/svg">
<g clip-path="url(#clip0)">
<path d="M174.903 1032.27H-1.73108V1093.5H174.903V1032.27Z" fill="white"/>
<path d="M46.9116 1056.62H43.3958L42.9023 1042.48H47.405L46.9116 1056.62Z" fill="black"/>
<path d="M66.2793 1067.1C66.2793 1058.18 60.6202 1050.94 53.6503 1050.94C51.399 1050.94 49.2864 1051.7 47.4514 1053.03C46.0636 1054.03 44.2286 1054.03 42.8408 1053.03C41.0058 1051.7 38.8933 1050.94 36.642 1050.94C29.6721 1050.94 24.0129 1058.18 24.0129 1067.1C24.0129 1071.73 25.5241 1075.89 27.9605 1078.84C31.2141 1083.22 37.6751 1086.21 45.1384 1086.21C52.5863 1086.21 59.0627 1083.22 62.3164 1078.84C64.7527 1075.89 66.2793 1071.73 66.2793 1067.1Z" fill="#C42729"/>
<path d="M97.3195 1056.62H93.7883L93.3103 1042.48H97.7975L97.3195 1056.62Z" fill="black"/>
<path d="M116.671 1067.1C116.671 1058.18 111.012 1050.94 104.042 1050.94C101.791 1050.94 99.6784 1051.7 97.8434 1053.03C96.4556 1054.03 94.6206 1054.03 93.2328 1053.03C91.3978 1051.7 89.2853 1050.94 87.0339 1050.94C80.0641 1050.94 74.4049 1058.18 74.4049 1067.1C74.4049 1071.73 75.9161 1075.89 78.3524 1078.84C81.6061 1083.22 88.0671 1086.21 95.5304 1086.21C102.978 1086.21 109.455 1083.22 112.708 1078.84C115.16 1075.89 116.671 1071.73 116.671 1067.1Z" fill="#C42729"/>
<path d="M147.712 1056.62H144.196L143.703 1042.48H148.205L147.712 1056.62Z" fill="black"/>
<path d="M167.08 1067.1C167.08 1058.18 161.42 1050.94 154.451 1050.94C152.199 1050.94 150.087 1051.7 148.252 1053.03C146.864 1054.03 145.029 1054.03 143.641 1053.03C141.806 1051.7 139.694 1050.94 137.442 1050.94C130.472 1050.94 124.813 1058.18 124.813 1067.1C124.813 1071.73 126.324 1075.89 128.761 1078.84C132.014 1083.22 138.475 1086.21 145.939 1086.21C153.387 1086.21 159.863 1083.22 163.117 1078.84C165.553 1075.89 167.08 1071.73 167.08 1067.1Z" fill="#C42729"/>
<path d="M334.161 1032.27H174.903V1093.5H334.161V1032.27Z" fill="white"/>
<path d="M205.882 1056.62H202.366L201.873 1042.48H206.375L205.882 1056.62Z" fill="black"/>
<path d="M225.25 1067.1C225.25 1058.18 219.59 1050.94 212.621 1050.94C210.369 1050.94 208.257 1051.7 206.422 1053.03C205.034 1054.03 203.199 1054.03 201.811 1053.03C199.976 1051.7 197.864 1050.94 195.612 1050.94C188.642 1050.94 182.983 1058.18 182.983 1067.1C182.983 1071.73 184.494 1075.89 186.931 1078.84C190.184 1083.22 196.645 1086.21 204.109 1086.21C211.557 1086.21 218.033 1083.22 221.287 1078.84C223.723 1075.89 225.25 1071.73 225.25 1067.1Z" fill="#C42729"/>
<path d="M256.29 1056.62H252.759L252.281 1042.48H256.768L256.29 1056.62Z" fill="black"/>
<path d="M275.642 1067.1C275.642 1058.18 269.983 1050.94 263.013 1050.94C260.762 1050.94 258.649 1051.7 256.814 1053.03C255.426 1054.03 253.591 1054.03 252.204 1053.03C250.369 1051.7 248.256 1050.94 246.005 1050.94C239.035 1050.94 233.376 1058.18 233.376 1067.1C233.376 1071.73 234.887 1075.89 237.323 1078.84C240.577 1083.22 247.038 1086.21 254.501 1086.21C261.949 1086.21 268.425 1083.22 271.679 1078.84C274.131 1075.89 275.642 1071.73 275.642 1067.1Z" fill="#C42729"/>
<path d="M306.682 1056.62H303.167L302.673 1042.48H307.176L306.682 1056.62Z" fill="black"/>
<path d="M326.05 1067.1C326.05 1058.18 320.391 1050.94 313.421 1050.94C311.17 1050.94 309.057 1051.7 307.222 1053.03C305.834 1054.03 303.999 1054.03 302.611 1053.03C300.777 1051.7 298.664 1050.94 296.413 1050.94C289.443 1050.94 283.784 1058.18 283.784 1067.1C283.784 1071.73 285.295 1075.89 287.731 1078.84C290.985 1083.22 297.446 1086.21 304.909 1086.21C312.357 1086.21 318.833 1083.22 322.087 1078.84C324.523 1075.89 326.05 1071.73 326.05 1067.1Z" fill="#C42729"/>
<path d="M493.132 1032.27H333.873V1093.5H493.132V1032.27Z" fill="white"/>
<path d="M364.853 1056.62H361.337L360.843 1042.48H365.346L364.853 1056.62Z" fill="black"/>
<path d="M384.22 1067.1C384.22 1058.18 378.561 1050.94 371.591 1050.94C369.34 1050.94 367.227 1051.7 365.392 1053.03C364.005 1054.03 362.17 1054.03 360.782 1053.03C358.947 1051.7 356.834 1050.94 354.583 1050.94C347.613 1050.94 341.954 1058.18 341.954 1067.1C341.954 1071.73 343.465 1075.89 345.901 1078.84C349.155 1083.22 355.616 1086.21 363.079 1086.21C370.527 1086.21 377.004 1083.22 380.257 1078.84C382.694 1075.89 384.22 1071.73 384.22 1067.1Z" fill="#C42729"/>
<path d="M415.261 1056.62H411.729L411.251 1042.48H415.739L415.261 1056.62Z" fill="black"/>
<path d="M434.612 1067.1C434.612 1058.18 428.953 1050.94 421.983 1050.94C419.732 1050.94 417.62 1051.7 415.785 1053.03C414.397 1054.03 412.562 1054.03 411.174 1053.03C409.339 1051.7 407.226 1050.94 404.975 1050.94C398.005 1050.94 392.346 1058.18 392.346 1067.1C392.346 1071.73 393.857 1075.89 396.294 1078.84C399.547 1083.22 406.008 1086.21 413.472 1086.21C420.919 1086.21 427.396 1083.22 430.65 1078.84C433.101 1075.89 434.612 1071.73 434.612 1067.1Z" fill="#C42729"/>
<path d="M465.653 1056.62H462.137L461.644 1042.48H466.146L465.653 1056.62Z" fill="black"/>
<path d="M485.021 1067.1C485.021 1058.18 479.361 1050.94 472.392 1050.94C470.14 1050.94 468.028 1051.7 466.193 1053.03C464.805 1054.03 462.97 1054.03 461.582 1053.03C459.747 1051.7 457.635 1050.94 455.383 1050.94C448.413 1050.94 442.754 1058.18 442.754 1067.1C442.754 1071.73 444.265 1075.89 446.702 1078.84C449.955 1083.22 456.416 1086.21 463.88 1086.21C471.328 1086.21 477.804 1083.22 481.058 1078.84C483.494 1075.89 485.021 1071.73 485.021 1067.1Z" fill="#C42729"/>
<path d="M652.102 1032.27H492.844V1093.5H652.102V1032.27Z" fill="white"/>
<path d="M523.823 1056.62H520.308L519.814 1042.48H524.317L523.823 1056.62Z" fill="black"/>
<path d="M543.191 1067.1C543.191 1058.18 537.532 1050.94 530.562 1050.94C528.31 1050.94 526.198 1051.7 524.363 1053.03C522.975 1054.03 521.14 1054.03 519.752 1053.03C517.917 1051.7 515.805 1050.94 513.553 1050.94C506.584 1050.94 500.924 1058.18 500.924 1067.1C500.924 1071.73 502.436 1075.89 504.872 1078.84C508.126 1083.22 514.587 1086.21 522.05 1086.21C529.498 1086.21 535.974 1083.22 539.228 1078.84C541.664 1075.89 543.191 1071.73 543.191 1067.1Z" fill="#C42729"/>
<path d="M574.231 1056.62H570.7L570.222 1042.48H574.709L574.231 1056.62Z" fill="black"/>
<path d="M593.583 1067.1C593.583 1058.18 587.924 1050.94 580.954 1050.94C578.703 1050.94 576.59 1051.7 574.755 1053.03C573.367 1054.03 571.532 1054.03 570.145 1053.03C568.31 1051.7 566.197 1050.94 563.946 1050.94C556.976 1050.94 551.317 1058.18 551.317 1067.1C551.317 1071.73 552.828 1075.89 555.264 1078.84C558.518 1083.22 564.979 1086.21 572.442 1086.21C579.89 1086.21 586.366 1083.22 589.62 1078.84C592.072 1075.89 593.583 1071.73 593.583 1067.1Z" fill="#C42729"/>
<path d="M624.623 1056.62H621.108L620.614 1042.48H625.117L624.623 1056.62Z" fill="black"/>
<path d="M643.991 1067.1C643.991 1058.18 638.332 1050.94 631.362 1050.94C629.111 1050.94 626.998 1051.7 625.163 1053.03C623.775 1054.03 621.94 1054.03 620.553 1053.03C618.718 1051.7 616.605 1050.94 614.354 1050.94C607.384 1050.94 601.725 1058.18 601.725 1067.1C601.725 1071.73 603.236 1075.89 605.672 1078.84C608.926 1083.22 615.387 1086.21 622.85 1086.21C630.298 1086.21 636.774 1083.22 640.028 1078.84C642.464 1075.89 643.991 1071.73 643.991 1067.1Z" fill="#C42729"/>
<path d="M811.073 1032.27H651.814V1093.5H811.073V1032.27Z" fill="white"/>
<path d="M682.794 1056.62H679.278L678.784 1042.48H683.287L682.794 1056.62Z" fill="black"/>
<path d="M702.161 1067.1C702.161 1058.18 696.502 1050.94 689.532 1050.94C687.281 1050.94 685.169 1051.7 683.334 1053.03C681.946 1054.03 680.111 1054.03 678.723 1053.03C676.888 1051.7 674.775 1050.94 672.524 1050.94C665.554 1050.94 659.895 1058.18 659.895 1067.1C659.895 1071.73 661.406 1075.89 663.843 1078.84C667.096 1083.22 673.557 1086.21 681.021 1086.21C688.468 1086.21 694.945 1083.22 698.198 1078.84C700.635 1075.89 702.161 1071.73 702.161 1067.1Z" fill="#C42729"/>
<path d="M733.202 1056.62H729.671L729.193 1042.48H733.68L733.202 1056.62Z" fill="black"/>
<path d="M752.554 1067.1C752.554 1058.18 746.895 1050.94 739.925 1050.94C737.673 1050.94 735.561 1051.7 733.726 1053.03C732.338 1054.03 730.503 1054.03 729.115 1053.03C727.28 1051.7 725.168 1050.94 722.916 1050.94C715.947 1050.94 710.287 1058.18 710.287 1067.1C710.287 1071.73 711.799 1075.89 714.235 1078.84C717.489 1083.22 723.95 1086.21 731.413 1086.21C738.861 1086.21 745.337 1083.22 748.591 1078.84C751.043 1075.89 752.554 1071.73 752.554 1067.1Z" fill="#C42729"/>
<path d="M783.594 1056.62H780.078L779.585 1042.48H784.087L783.594 1056.62Z" fill="black"/>
<path d="M802.962 1067.1C802.962 1058.18 797.303 1050.94 790.333 1050.94C788.081 1050.94 785.969 1051.7 784.134 1053.03C782.746 1054.03 780.911 1054.03 779.523 1053.03C777.688 1051.7 775.576 1050.94 773.324 1050.94C766.354 1050.94 760.695 1058.18 760.695 1067.1C760.695 1071.73 762.206 1075.89 764.643 1078.84C767.896 1083.22 774.358 1086.21 781.821 1086.21C789.269 1086.21 795.745 1083.22 798.999 1078.84C801.435 1075.89 802.962 1071.73 802.962 1067.1Z" fill="#C42729"/>
<path d="M970.043 1032.27H810.785V1093.5H970.043V1032.27Z" fill="white"/>
<path d="M841.764 1056.62H838.248L837.755 1042.48H842.258L841.764 1056.62Z" fill="black"/>
<path d="M861.132 1067.1C861.132 1058.18 855.472 1050.94 848.503 1050.94C846.251 1050.94 844.139 1051.7 842.304 1053.03C840.916 1054.03 839.081 1054.03 837.693 1053.03C835.858 1051.7 833.746 1050.94 831.494 1050.94C824.524 1050.94 818.865 1058.18 818.865 1067.1C818.865 1071.73 820.376 1075.89 822.813 1078.84C826.066 1083.22 832.527 1086.21 839.991 1086.21C847.439 1086.21 853.915 1083.22 857.169 1078.84C859.605 1075.89 861.132 1071.73 861.132 1067.1Z" fill="#C42729"/>
<path d="M892.172 1056.62H888.641L888.163 1042.48H892.65L892.172 1056.62Z" fill="black"/>
<path d="M911.524 1067.1C911.524 1058.18 905.865 1050.94 898.895 1050.94C896.644 1050.94 894.531 1051.7 892.696 1053.03C891.308 1054.03 889.473 1054.03 888.085 1053.03C886.251 1051.7 884.138 1050.94 881.887 1050.94C874.917 1050.94 869.258 1058.18 869.258 1067.1C869.258 1071.73 870.769 1075.89 873.205 1078.84C876.459 1083.22 882.92 1086.21 890.383 1086.21C897.831 1086.21 904.307 1083.22 907.561 1078.84C910.013 1075.89 911.524 1071.73 911.524 1067.1Z" fill="#C42729"/>
<path d="M942.565 1056.62H939.049L938.555 1042.48H943.058L942.565 1056.62Z" fill="black"/>
<path d="M961.932 1067.1C961.932 1058.18 956.273 1050.94 949.303 1050.94C947.052 1050.94 944.939 1051.7 943.104 1053.03C941.716 1054.03 939.882 1054.03 938.494 1053.03C936.659 1051.7 934.546 1050.94 932.295 1050.94C925.325 1050.94 919.666 1058.18 919.666 1067.1C919.666 1071.73 921.177 1075.89 923.613 1078.84C926.867 1083.22 933.328 1086.21 940.791 1086.21C948.239 1086.21 954.716 1083.22 957.969 1078.84C960.406 1075.89 961.932 1071.73 961.932 1067.1Z" fill="#C42729"/>
<path d="M1129.01 1032.27H969.755V1093.5H1129.01V1032.27Z" fill="white"/>
<path d="M1000.73 1056.62H997.219L996.725 1042.48H1001.23L1000.73 1056.62Z" fill="black"/>
<path d="M1020.1 1067.1C1020.1 1058.18 1014.44 1050.94 1007.47 1050.94C1005.22 1050.94 1003.11 1051.7 1001.27 1053.03C999.887 1054.03 998.052 1054.03 996.664 1053.03C994.829 1051.7 992.716 1050.94 990.465 1050.94C983.495 1050.94 977.836 1058.18 977.836 1067.1C977.836 1071.73 979.347 1075.89 981.783 1078.84C985.037 1083.22 991.498 1086.21 998.961 1086.21C1006.41 1086.21 1012.89 1083.22 1016.14 1078.84C1018.58 1075.89 1020.1 1071.73 1020.1 1067.1Z" fill="#C42729"/>
<path d="M1051.14 1056.62H1047.61L1047.13 1042.48H1051.62L1051.14 1056.62Z" fill="black"/>
<path d="M1070.49 1067.1C1070.49 1058.18 1064.84 1050.94 1057.87 1050.94C1055.61 1050.94 1053.5 1051.7 1051.67 1053.03C1050.28 1054.03 1048.44 1054.03 1047.06 1053.03C1045.22 1051.7 1043.11 1050.94 1040.86 1050.94C1033.89 1050.94 1028.23 1058.18 1028.23 1067.1C1028.23 1071.73 1029.74 1075.89 1032.18 1078.84C1035.43 1083.22 1041.89 1086.21 1049.35 1086.21C1056.8 1086.21 1063.28 1083.22 1066.53 1078.84C1068.98 1075.89 1070.49 1071.73 1070.49 1067.1Z" fill="#C42729"/>
<path d="M1101.54 1056.62H1098.02L1097.53 1042.48H1102.03L1101.54 1056.62Z" fill="black"/>
<path d="M1120.9 1067.1C1120.9 1058.18 1115.24 1050.94 1108.27 1050.94C1106.02 1050.94 1103.91 1051.7 1102.07 1053.03C1100.69 1054.03 1098.85 1054.03 1097.46 1053.03C1095.63 1051.7 1093.52 1050.94 1091.27 1050.94C1084.3 1050.94 1078.64 1058.18 1078.64 1067.1C1078.64 1071.73 1080.15 1075.89 1082.58 1078.84C1085.84 1083.22 1092.3 1086.21 1099.76 1086.21C1107.21 1086.21 1113.69 1083.22 1116.94 1078.84C1119.38 1075.89 1120.9 1071.73 1120.9 1067.1Z" fill="#C42729"/>
<path d="M1287.98 1032.27H1128.73V1093.5H1287.98V1032.27Z" fill="white"/>
<path d="M1159.71 1056.62H1156.19L1155.7 1042.48H1160.2L1159.71 1056.62Z" fill="black"/>
<path d="M1179.07 1067.1C1179.07 1058.18 1173.41 1050.94 1166.44 1050.94C1164.19 1050.94 1162.08 1051.7 1160.24 1053.03C1158.86 1054.03 1157.02 1054.03 1155.63 1053.03C1153.8 1051.7 1151.69 1050.94 1149.44 1050.94C1142.47 1050.94 1136.81 1058.18 1136.81 1067.1C1136.81 1071.73 1138.32 1075.89 1140.75 1078.84C1144.01 1083.22 1150.47 1086.21 1157.93 1086.21C1165.38 1086.21 1171.86 1083.22 1175.11 1078.84C1177.55 1075.89 1179.07 1071.73 1179.07 1067.1Z" fill="#C42729"/>
<path d="M1210.11 1056.62H1206.58L1206.1 1042.48H1210.59L1210.11 1056.62Z" fill="black"/>
<path d="M1229.46 1067.1C1229.46 1058.18 1223.81 1050.94 1216.84 1050.94C1214.58 1050.94 1212.47 1051.7 1210.64 1053.03C1209.25 1054.03 1207.41 1054.03 1206.03 1053.03C1204.19 1051.7 1202.08 1050.94 1199.83 1050.94C1192.86 1050.94 1187.2 1058.18 1187.2 1067.1C1187.2 1071.73 1188.71 1075.89 1191.15 1078.84C1194.4 1083.22 1200.86 1086.21 1208.32 1086.21C1215.77 1086.21 1222.25 1083.22 1225.5 1078.84C1227.95 1075.89 1229.46 1071.73 1229.46 1067.1Z" fill="#C42729"/>
<path d="M1260.51 1056.62H1256.99L1256.5 1042.48H1261L1260.51 1056.62Z" fill="black"/>
<path d="M1279.87 1067.1C1279.87 1058.18 1274.21 1050.94 1267.24 1050.94C1264.99 1050.94 1262.88 1051.7 1261.05 1053.03C1259.66 1054.03 1257.82 1054.03 1256.43 1053.03C1254.6 1051.7 1252.49 1050.94 1250.24 1050.94C1243.27 1050.94 1237.61 1058.18 1237.61 1067.1C1237.61 1071.73 1239.12 1075.89 1241.55 1078.84C1244.81 1083.22 1251.27 1086.21 1258.73 1086.21C1266.18 1086.21 1272.66 1083.22 1275.91 1078.84C1278.35 1075.89 1279.87 1071.73 1279.87 1067.1Z" fill="#C42729"/>
<path d="M1446.95 1032.27H1287.7V1093.5H1446.95V1032.27Z" fill="white"/>
<path d="M1318.68 1056.62H1315.16L1314.67 1042.48H1319.17L1318.68 1056.62Z" fill="black"/>
<path d="M1338.04 1067.1C1338.04 1058.18 1332.38 1050.94 1325.41 1050.94C1323.16 1050.94 1321.05 1051.7 1319.22 1053.03C1317.83 1054.03 1315.99 1054.03 1314.6 1053.03C1312.77 1051.7 1310.66 1050.94 1308.41 1050.94C1301.44 1050.94 1295.78 1058.18 1295.78 1067.1C1295.78 1071.73 1297.29 1075.89 1299.72 1078.84C1302.98 1083.22 1309.44 1086.21 1316.9 1086.21C1324.35 1086.21 1330.83 1083.22 1334.08 1078.84C1336.52 1075.89 1338.04 1071.73 1338.04 1067.1Z" fill="#C42729"/>
<path d="M1369.08 1056.62H1365.55L1365.07 1042.48H1369.56L1369.08 1056.62Z" fill="black"/>
<path d="M1388.44 1067.1C1388.44 1058.18 1382.78 1050.94 1375.81 1050.94C1373.56 1050.94 1371.44 1051.7 1369.61 1053.03C1368.22 1054.03 1366.38 1054.03 1365 1053.03C1363.16 1051.7 1361.05 1050.94 1358.8 1050.94C1351.83 1050.94 1346.17 1058.18 1346.17 1067.1C1346.17 1071.73 1347.68 1075.89 1350.12 1078.84C1353.37 1083.22 1359.83 1086.21 1367.29 1086.21C1374.74 1086.21 1381.22 1083.22 1384.47 1078.84C1386.92 1075.89 1388.44 1071.73 1388.44 1067.1Z" fill="#C42729"/>
<path d="M1419.48 1056.62H1415.96L1415.47 1042.48H1419.97L1419.48 1056.62Z" fill="black"/>
<path d="M1438.84 1067.1C1438.84 1058.18 1433.18 1050.94 1426.21 1050.94C1423.96 1050.94 1421.85 1051.7 1420.02 1053.03C1418.63 1054.03 1416.79 1054.03 1415.4 1053.03C1413.57 1051.7 1411.46 1050.94 1409.21 1050.94C1402.24 1050.94 1396.58 1058.18 1396.58 1067.1C1396.58 1071.73 1398.09 1075.89 1400.52 1078.84C1403.78 1083.22 1410.24 1086.21 1417.7 1086.21C1425.15 1086.21 1431.63 1083.22 1434.88 1078.84C1437.32 1075.89 1438.84 1071.73 1438.84 1067.1Z" fill="#C42729"/>
<path d="M1605.93 1032.27H1446.67V1093.5H1605.93V1032.27Z" fill="white"/>
<path d="M1477.65 1056.62H1474.13L1473.64 1042.48H1478.14L1477.65 1056.62Z" fill="black"/>
<path d="M1497.01 1067.1C1497.01 1058.18 1491.35 1050.94 1484.38 1050.94C1482.13 1050.94 1480.02 1051.7 1478.19 1053.03C1476.8 1054.03 1474.96 1054.03 1473.58 1053.03C1471.74 1051.7 1469.63 1050.94 1467.38 1050.94C1460.41 1050.94 1454.75 1058.18 1454.75 1067.1C1454.75 1071.73 1456.26 1075.89 1458.69 1078.84C1461.95 1083.22 1468.41 1086.21 1475.87 1086.21C1483.32 1086.21 1489.8 1083.22 1493.05 1078.84C1495.49 1075.89 1497.01 1071.73 1497.01 1067.1Z" fill="#C42729"/>
<path d="M1528.05 1056.62H1524.52L1524.05 1042.48H1528.53L1528.05 1056.62Z" fill="black"/>
<path d="M1547.41 1067.1C1547.41 1058.18 1541.75 1050.94 1534.78 1050.94C1532.53 1050.94 1530.41 1051.7 1528.58 1053.03C1527.19 1054.03 1525.36 1054.03 1523.97 1053.03C1522.13 1051.7 1520.02 1050.94 1517.77 1050.94C1510.8 1050.94 1505.14 1058.18 1505.14 1067.1C1505.14 1071.73 1506.65 1075.89 1509.09 1078.84C1512.34 1083.22 1518.8 1086.21 1526.27 1086.21C1533.71 1086.21 1540.19 1083.22 1543.44 1078.84C1545.9 1075.89 1547.41 1071.73 1547.41 1067.1Z" fill="#C42729"/>
<path d="M1578.45 1056.62H1574.93L1574.44 1042.48H1578.94L1578.45 1056.62Z" fill="black"/>
<path d="M1597.81 1067.1C1597.81 1058.18 1592.15 1050.94 1585.18 1050.94C1582.93 1050.94 1580.82 1051.7 1578.99 1053.03C1577.6 1054.03 1575.76 1054.03 1574.38 1053.03C1572.54 1051.7 1570.43 1050.94 1568.18 1050.94C1561.21 1050.94 1555.55 1058.18 1555.55 1067.1C1555.55 1071.73 1557.06 1075.89 1559.49 1078.84C1562.75 1083.22 1569.21 1086.21 1576.67 1086.21C1584.12 1086.21 1590.6 1083.22 1593.85 1078.84C1596.29 1075.89 1597.81 1071.73 1597.81 1067.1Z" fill="#C42729"/>
<path d="M1764.9 1032.27H1605.64V1093.5H1764.9V1032.27Z" fill="white"/>
<path d="M1636.62 1056.62H1633.1L1632.61 1042.48H1637.11L1636.62 1056.62Z" fill="black"/>
<path d="M1655.98 1067.1C1655.98 1058.18 1650.33 1050.94 1643.36 1050.94C1641.1 1050.94 1638.99 1051.7 1637.16 1053.03C1635.77 1054.03 1633.93 1054.03 1632.55 1053.03C1630.71 1051.7 1628.6 1050.94 1626.35 1050.94C1619.38 1050.94 1613.72 1058.18 1613.72 1067.1C1613.72 1071.73 1615.23 1075.89 1617.67 1078.84C1620.92 1083.22 1627.38 1086.21 1634.84 1086.21C1642.29 1086.21 1648.77 1083.22 1652.02 1078.84C1654.46 1075.89 1655.98 1071.73 1655.98 1067.1Z" fill="#C42729"/>
<path d="M1687.02 1056.62H1683.49L1683.02 1042.48H1687.5L1687.02 1056.62Z" fill="black"/>
<path d="M1706.38 1067.1C1706.38 1058.18 1700.72 1050.94 1693.75 1050.94C1691.5 1050.94 1689.38 1051.7 1687.55 1053.03C1686.16 1054.03 1684.33 1054.03 1682.94 1053.03C1681.1 1051.7 1678.99 1050.94 1676.74 1050.94C1669.77 1050.94 1664.11 1058.18 1664.11 1067.1C1664.11 1071.73 1665.62 1075.89 1668.06 1078.84C1671.31 1083.22 1677.77 1086.21 1685.24 1086.21C1692.68 1086.21 1699.16 1083.22 1702.41 1078.84C1704.87 1075.89 1706.38 1071.73 1706.38 1067.1Z" fill="#C42729"/>
<path d="M1737.42 1056.62H1733.9L1733.41 1042.48H1737.91L1737.42 1056.62Z" fill="black"/>
<path d="M1756.78 1067.1C1756.78 1058.18 1751.13 1050.94 1744.16 1050.94C1741.9 1050.94 1739.79 1051.7 1737.96 1053.03C1736.57 1054.03 1734.73 1054.03 1733.35 1053.03C1731.51 1051.7 1729.4 1050.94 1727.15 1050.94C1720.18 1050.94 1714.52 1058.18 1714.52 1067.1C1714.52 1071.73 1716.03 1075.89 1718.47 1078.84C1721.72 1083.22 1728.18 1086.21 1735.64 1086.21C1743.09 1086.21 1749.57 1083.22 1752.82 1078.84C1755.26 1075.89 1756.78 1071.73 1756.78 1067.1Z" fill="#C42729"/>
<path d="M1882.36 1032.27H1764.61V1093.5H1882.36V1032.27Z" fill="white"/>
<path d="M1795.59 1056.62H1792.07L1791.58 1042.48H1796.08L1795.59 1056.62Z" fill="black"/>
<path d="M1814.96 1067.1C1814.96 1058.18 1809.3 1050.94 1802.33 1050.94C1800.07 1050.94 1797.96 1051.7 1796.13 1053.03C1794.74 1054.03 1792.9 1054.03 1791.52 1053.03C1789.68 1051.7 1787.57 1050.94 1785.32 1050.94C1778.35 1050.94 1772.69 1058.18 1772.69 1067.1C1772.69 1071.73 1774.2 1075.89 1776.64 1078.84C1779.89 1083.22 1786.35 1086.21 1793.81 1086.21C1801.26 1086.21 1807.74 1083.22 1810.99 1078.84C1813.43 1075.89 1814.96 1071.73 1814.96 1067.1Z" fill="#C42729"/>
<path d="M1846 1056.62H1842.46L1841.99 1042.48H1846.47L1846 1056.62Z" fill="black"/>
<path d="M1865.35 1067.1C1865.35 1058.18 1859.69 1050.94 1852.72 1050.94C1850.47 1050.94 1848.35 1051.7 1846.52 1053.03C1845.13 1054.03 1843.3 1054.03 1841.91 1053.03C1840.07 1051.7 1837.96 1050.94 1835.71 1050.94C1828.74 1050.94 1823.08 1058.18 1823.08 1067.1C1823.08 1071.73 1824.59 1075.89 1827.03 1078.84C1830.28 1083.22 1836.74 1086.21 1844.21 1086.21C1851.65 1086.21 1858.13 1083.22 1861.38 1078.84C1863.84 1075.89 1865.35 1071.73 1865.35 1067.1Z" fill="#C42729"/>
<path d="M683.077 347.41C658.309 338.636 633.65 311.821 616.269 273.67C609.534 259.079 603.994 242.912 599.757 225.561C598.888 221.815 598.019 218.266 597.367 214.52C594.869 202.098 593.239 189.972 592.588 178.339L523.281 105.387C530.994 104.402 537.077 97.5994 537.077 89.1212C537.077 79.9529 530.125 72.5591 521.434 72.5591C512.744 72.5591 505.792 80.0515 505.792 89.1212C505.792 97.698 512.092 104.599 520.022 105.486L450.39 178.832C449.629 191.057 447.891 203.971 445.176 216.984C444.632 219.843 443.872 222.8 443.22 225.659C438.984 243.01 433.443 259.178 426.708 273.768C409.219 311.92 384.559 338.735 359.9 347.509H358.162V1032.07H690.573V347.509H683.077V347.41ZM492.43 962.177H435.182V830.174H492.43V962.177ZM492.43 751.011H435.182V619.008H492.43V751.011ZM492.43 539.944H435.182V407.94H492.43V539.944ZM613.771 962.177H556.522V830.174H613.771V962.177ZM613.771 751.011H556.522V619.008H613.771V751.011ZM613.771 539.944H556.522V407.94H613.771V539.944Z" fill="#A8CF9E"/>
<path d="M268.434 224.773L218.464 156.75V100.163H133.297V163.651L88.3239 224.871L-1.73108 347.411H-1.51394V1031.97H358.163V347.016L268.434 224.773ZM153.611 924.519H80.8283V823.175H153.611V924.519ZM153.611 737.21H80.8283V635.965H153.611V737.21ZM153.611 550H80.8283V448.656H153.611V550ZM178.379 324.243C165.126 324.243 154.263 312.906 154.263 298.908C154.263 284.909 165.126 273.67 178.379 273.67C191.632 273.67 202.495 285.007 202.495 298.908C202.495 312.906 191.632 324.243 178.379 324.243ZM275.93 924.519H203.147V823.175H275.93V924.519ZM275.93 737.21H203.147V635.965H275.93V737.21ZM275.93 550H203.147V448.656H275.93V550Z" fill="#C42729"/>
<path d="M1161.84 347.311V280.964H1118.82V212.35H1076.13V143.44H1010.08V212.35H963.589V280.964H923.831V348.396H924.482V1032.07H1161.84V347.41V347.311ZM1012.36 966.515H978.798V789.951H1012.36V966.515ZM1012.36 739.279H978.798V562.716H1012.36V739.279ZM1012.36 512.044H978.798V335.481H1012.36V512.044ZM1107.74 966.515H1074.28V789.951H1107.74V966.515ZM1107.74 739.279H1074.28V562.716H1107.74V739.279ZM1107.74 512.044H1074.28V335.481H1107.74V512.044Z" fill="#66B06E"/>
<path d="M866.556 255.727L807.895 163.847L749.234 255.727L690.574 347.508V1032.07H925.108V347.508H925.216L866.556 255.727ZM784.865 332.721H830.925V381.322H784.865V332.721ZM793.556 937.531H747.496V888.929H793.556V937.531ZM793.556 807.499H747.496V758.898H793.556V807.499ZM793.556 677.566H747.496V628.964H793.556V677.566ZM793.556 547.633H747.496V499.031H793.556V547.633ZM868.294 937.531H822.234V888.929H868.294V937.531ZM868.294 807.499H822.234V758.898H868.294V807.499ZM868.294 677.566H822.234V628.964H868.294V677.566ZM868.294 547.633H822.234V499.031H868.294V547.633Z" fill="#DD8C83"/>
<path d="M1432.52 297.132L1342.47 246.953L1252.41 297.132L1162.36 347.311V1031.97H1522.03V347.311H1522.36L1432.52 297.132ZM1290 952.712H1230.25V871.381H1290V952.712ZM1290 796.852H1230.25V715.52H1290V796.852ZM1290 641.09H1230.25V559.758H1290V641.09ZM1290 485.229H1230.25V403.898H1290V485.229ZM1371.58 485.229H1311.83V403.898H1371.58V485.229ZM1454.68 952.712H1394.94V871.381H1454.68V952.712ZM1454.68 796.852H1394.94V715.52H1454.68V796.852ZM1454.68 641.09H1394.94V559.758H1454.68V641.09ZM1454.68 485.229H1394.94V403.898H1454.68V485.229Z" fill="#BDD796"/>
<path d="M1792.31 224.181C1746.9 161.778 1657.72 161.778 1612.2 224.181L1522.36 347.608L1522.25 347.805H1522.36V1032.27H1882.04V347.805H1882.36L1792.31 224.181ZM1675.31 881.536H1596.67V798.627H1675.31V881.536ZM1675.31 689.693H1596.67V606.784H1675.31V689.693ZM1675.31 497.75H1596.67V414.842H1675.31V497.75ZM1702.25 308.963C1685.74 308.963 1672.38 294.865 1672.38 277.515C1672.38 260.164 1685.74 246.067 1702.25 246.067C1718.77 246.067 1732.13 260.164 1732.13 277.515C1732.13 294.865 1718.77 308.963 1702.25 308.963ZM1807.95 881.536H1729.3V798.627H1807.95V881.536ZM1807.95 689.693H1729.3V606.784H1807.95V689.693ZM1807.95 497.75H1729.3V414.842H1807.95V497.75Z" fill="#DD8C83"/>
<path d="M930.045 1.12V44H940.605V30.88H950.717C955.645 30.88 959.549 29.536 962.493 26.784C965.437 24.096 966.909 20.448 966.909 15.904C966.909 11.488 965.437 7.904 962.621 5.216C959.805 2.528 955.965 1.12 951.165 1.12H930.045ZM940.605 22.048V10.144H949.949C951.933 10.144 953.533 10.72 954.749 11.808C955.901 12.896 956.541 14.304 956.541 16.032C956.541 17.888 955.901 19.36 954.749 20.448C953.597 21.536 951.997 22.048 949.949 22.048H940.605ZM993.921 0.159996C987.521 0.159996 982.081 2.336 977.665 6.688C973.249 11.04 971.073 16.352 971.073 22.624C971.073 28.896 973.249 34.144 977.665 38.496C982.081 42.848 987.521 44.96 993.921 44.96C1000.32 44.96 1005.7 42.848 1010.11 38.496C1014.53 34.144 1016.77 28.896 1016.77 22.624C1016.77 16.352 1014.53 11.04 1010.11 6.688C1005.7 2.336 1000.32 0.159996 993.921 0.159996ZM993.921 35.296C990.401 35.296 987.457 34.144 985.153 31.712C982.785 29.28 981.633 26.272 981.633 22.624C981.633 18.976 982.785 15.904 985.153 13.472C987.457 11.04 990.401 9.824 993.921 9.824C997.377 9.824 1000.32 11.04 1002.69 13.472C1004.99 15.904 1006.21 18.976 1006.21 22.624C1006.21 26.272 1004.99 29.28 1002.69 31.712C1000.32 34.144 997.377 35.296 993.921 35.296ZM1054.41 34.784H1033.29V1.12H1022.73V44H1054.41V34.784ZM1076.5 0.159996C1071.38 0.159996 1067.29 1.376 1064.21 3.808C1061.08 6.24 1059.54 9.568 1059.54 13.664C1059.54 20.192 1063.38 24.352 1071.06 26.08L1080.02 28C1081.49 28.32 1082.52 28.768 1083.09 29.344C1083.67 29.984 1083.99 30.752 1083.99 31.776C1083.99 33.12 1083.41 34.208 1082.26 34.976C1081.11 35.808 1079.57 36.192 1077.65 36.192C1073.05 36.192 1070.23 34.08 1069.21 29.856L1058.33 31.968C1058.84 36.064 1060.89 39.264 1064.34 41.568C1067.8 43.872 1072.09 44.96 1077.08 44.96C1082.07 44.96 1086.29 43.744 1089.69 41.312C1093.01 38.88 1094.74 35.488 1094.74 31.072C1094.74 24.544 1090.77 20.384 1082.97 18.592L1074.07 16.608C1071.77 16.096 1070.61 14.944 1070.61 13.024C1070.61 11.808 1071.13 10.784 1072.21 9.952C1073.24 9.12 1074.65 8.672 1076.37 8.672C1078.17 8.672 1079.77 9.248 1081.17 10.272C1082.58 11.296 1083.48 12.768 1083.86 14.688L1094.23 12.576C1093.4 8.736 1091.41 5.664 1088.28 3.488C1085.08 1.312 1081.17 0.159996 1076.5 0.159996ZM1141.69 44L1122.17 22.624L1140.41 1.12H1127.73L1113.14 18.144H1111.61V1.12H1101.05V44H1111.61V27.872H1113.85L1127.86 44H1141.69ZM1162.92 0.159996C1156.52 0.159996 1151.08 2.336 1146.67 6.688C1142.25 11.04 1140.07 16.352 1140.07 22.624C1140.07 28.896 1142.25 34.144 1146.67 38.496C1151.08 42.848 1156.52 44.96 1162.92 44.96C1169.32 44.96 1174.7 42.848 1179.11 38.496C1183.53 34.144 1185.77 28.896 1185.77 22.624C1185.77 16.352 1183.53 11.04 1179.11 6.688C1174.7 2.336 1169.32 0.159996 1162.92 0.159996ZM1162.92 35.296C1159.4 35.296 1156.46 34.144 1154.15 31.712C1151.79 29.28 1150.63 26.272 1150.63 22.624C1150.63 18.976 1151.79 15.904 1154.15 13.472C1156.46 11.04 1159.4 9.824 1162.92 9.824C1166.38 9.824 1169.32 11.04 1171.69 13.472C1173.99 15.904 1175.21 18.976 1175.21 22.624C1175.21 26.272 1173.99 29.28 1171.69 31.712C1169.32 34.144 1166.38 35.296 1162.92 35.296Z" fill="#C42729"/>
<path d="M354.455 165.262C353.466 162.169 350.372 160.421 347.383 161.192C347.061 158.087 344.531 155.661 341.461 155.661C338.264 155.661 335.666 158.282 335.516 161.571C332.503 160.87 329.433 162.698 328.525 165.826C327.616 168.953 329.192 172.23 332.066 173.392C330.606 176.128 331.33 179.624 333.849 181.464C336.413 183.338 339.886 182.809 341.852 180.349C343.887 182.648 347.302 183.028 349.763 181.119C352.281 179.176 352.902 175.565 351.258 172.851C353.995 171.563 355.409 168.309 354.455 165.262ZM341.507 173.403C339.368 173.403 337.632 171.598 337.632 169.379C337.632 167.148 339.368 165.343 341.507 165.343C343.646 165.343 345.382 167.148 345.382 169.379C345.382 171.598 343.646 173.403 341.507 173.403Z" fill="#C42729"/>
<path d="M345.382 169.367C345.382 171.598 343.646 173.403 341.507 173.403C339.368 173.403 337.632 171.598 337.632 169.367C337.632 167.136 339.368 165.342 341.507 165.342C343.646 165.342 345.382 167.148 345.382 169.367Z" fill="#DC9A95"/>
<path d="M352.937 137.147C352.994 132.985 351.511 128.971 349.751 125.292L347.877 127.074C350.027 121.9 343.864 115.989 341.507 112.597C338.736 116.645 333.17 121.474 335.136 127.074C334.676 126.637 333.722 125.717 333.262 125.292C331.008 130.34 327.731 137.917 332.572 142.368C332.147 142.253 330.951 141.954 330.514 141.839C331.825 155.028 351.2 155.028 352.511 141.839L350.453 142.368C351.89 141.091 352.833 139.228 352.937 137.147Z" fill="#C42729"/>
<path d="M341.518 112.609V151.728C336.344 151.728 331.169 148.428 330.514 141.839C330.962 141.954 332.158 142.264 332.572 142.368C327.743 137.929 331.008 130.352 333.262 125.292C333.722 125.717 334.677 126.637 335.136 127.074C333.182 121.486 338.736 116.645 341.518 112.609Z" fill="#DD8C83"/>
<path d="M307.47 134.572C307.252 132.824 307.194 131.249 307.309 129.788C308.666 129.57 309.874 128.627 310.414 127.213C311.23 125.074 310.23 122.636 308.172 121.785C306.114 120.934 303.779 121.981 302.963 124.131C302.261 125.971 302.905 128.017 304.412 129.098C304.228 130.904 304.285 132.847 304.55 134.974C304.676 135.929 304.826 136.837 305.021 137.699C302.181 135.319 299.295 132.709 296.144 129.788C296.167 129.742 296.179 129.696 296.202 129.65C297.018 127.512 296.018 125.085 293.959 124.234C291.901 123.383 289.567 124.43 288.75 126.569C287.934 128.707 288.946 131.145 291.004 131.996C292.028 132.421 293.12 132.375 294.063 131.95C297.202 134.871 300.077 137.481 302.917 139.861C302.158 140.068 301.376 140.31 300.583 140.597C298.915 141.207 297.432 141.919 296.133 142.724C295.937 142.552 295.719 142.391 295.477 142.264C293.522 141.161 291.096 141.908 290.038 143.943C288.98 145.967 289.705 148.508 291.648 149.601C293.591 150.705 296.029 149.957 297.087 147.933C297.501 147.14 297.65 146.266 297.547 145.438V145.427C298.708 144.691 300.042 144.058 301.572 143.495C303.147 142.92 304.596 142.54 305.987 142.356C308.62 144.438 311.311 146.347 314.197 148.14C311.575 149.003 309.103 150.233 306.861 151.429C306.803 151.452 306.746 151.486 306.677 151.521C306.585 151.44 306.47 151.36 306.366 151.291C304.504 150.049 302.02 150.624 300.824 152.567C299.64 154.511 300.192 157.098 302.054 158.34C303.929 159.582 306.412 159.007 307.597 157.063C308.149 156.178 308.321 155.143 308.172 154.177C308.183 154.177 308.183 154.166 308.195 154.166C311.265 152.544 314.519 150.946 317.923 150.325C318.21 150.486 318.498 150.647 318.797 150.797C318.797 150.808 318.797 150.82 318.808 150.831L318.831 150.82C321.89 152.464 325.224 154.039 329.031 155.603L330.111 152.751C326.846 151.406 323.914 150.049 321.223 148.635C320.165 144.944 320.269 140.931 320.51 137.101C321.901 136.918 323.166 135.963 323.718 134.503C324.535 132.352 323.534 129.926 321.476 129.075C319.418 128.224 317.083 129.271 316.255 131.421C315.566 133.215 316.163 135.216 317.589 136.308C317.578 136.4 317.578 136.492 317.566 136.584C317.359 139.758 317.233 143.288 317.773 146.749C314.738 145.001 311.989 143.138 309.322 141.115C308.402 139.298 307.804 137.147 307.47 134.572Z" fill="#C42729"/>
<path d="M376.44 134.572C376.659 132.824 376.716 131.249 376.601 129.788C375.244 129.57 374.037 128.627 373.496 127.213C372.68 125.074 373.68 122.636 375.739 121.785C377.797 120.934 380.131 121.981 380.948 124.131C381.649 125.971 381.005 128.017 379.499 129.098C379.683 130.904 379.625 132.847 379.361 134.974C379.234 135.929 379.085 136.837 378.889 137.699C381.73 135.319 384.616 132.709 387.766 129.788C387.743 129.742 387.72 129.696 387.709 129.65C386.892 127.512 387.893 125.085 389.951 124.234C392.009 123.383 394.344 124.43 395.16 126.569C395.977 128.707 394.976 131.145 392.918 131.996C391.894 132.421 390.802 132.375 389.859 131.95C386.72 134.871 383.845 137.481 381.005 139.861C381.764 140.068 382.546 140.31 383.339 140.597C385.018 141.207 386.49 141.919 387.801 142.724C387.996 142.552 388.215 142.391 388.456 142.264C390.411 141.161 392.837 141.908 393.895 143.943C394.953 145.967 394.229 148.508 392.285 149.601C390.342 150.705 387.904 149.957 386.846 147.933C386.433 147.14 386.283 146.266 386.387 145.438V145.427C385.225 144.691 383.891 144.058 382.362 143.495C380.787 142.92 379.338 142.54 377.946 142.356C375.313 144.438 372.623 146.347 369.736 148.14C372.37 149.003 374.83 150.233 377.073 151.429C377.13 151.452 377.188 151.486 377.257 151.521C377.36 151.44 377.464 151.36 377.567 151.291C379.441 150.049 381.914 150.624 383.109 152.567C384.294 154.511 383.742 157.098 381.879 158.34C380.005 159.582 377.521 159.007 376.337 157.063C375.785 156.178 375.612 155.143 375.762 154.177C375.75 154.177 375.75 154.166 375.739 154.166C372.669 152.544 369.414 150.946 366.011 150.325C365.723 150.486 365.436 150.647 365.148 150.797C365.148 150.808 365.148 150.82 365.137 150.831L365.114 150.82C362.055 152.464 358.72 154.039 354.914 155.603L353.833 152.751C357.099 151.406 360.031 150.049 362.722 148.635C363.78 144.944 363.676 140.931 363.435 137.101C362.044 136.918 360.779 135.963 360.227 134.503C359.41 132.352 360.411 129.926 362.469 129.075C364.527 128.224 366.862 129.271 367.69 131.421C368.379 133.215 367.782 135.216 366.356 136.308C366.367 136.4 366.367 136.492 366.367 136.584C366.574 139.758 366.712 143.288 366.16 146.749C369.184 145.001 371.933 143.138 374.612 141.115C375.509 139.298 376.107 137.147 376.44 134.572Z" fill="#C42729"/>
<path d="M330.974 202.253C330.916 206.416 332.4 210.429 334.147 214.109L336.022 212.326C333.871 217.501 340.035 223.411 342.392 226.803C345.163 222.756 350.729 217.926 348.762 212.326C349.222 212.763 350.177 213.683 350.637 214.109C352.89 209.061 356.168 201.483 351.327 197.033C351.752 197.148 352.948 197.447 353.385 197.562C352.074 184.373 332.699 184.384 331.388 197.562L333.446 197.033C332.02 198.309 331.066 200.172 330.974 202.253Z" fill="#DD8C83"/>
<path d="M342.392 226.791V187.672C347.567 187.672 352.741 190.973 353.397 197.561C352.948 197.446 351.764 197.136 351.338 197.032C356.168 201.471 352.902 209.049 350.648 214.108C350.2 213.683 349.234 212.763 348.774 212.326C350.729 217.914 345.175 222.755 342.392 226.791Z" fill="#C42729"/>
<path d="M376.44 204.817C376.659 206.565 376.716 208.14 376.601 209.601C375.244 209.819 374.037 210.762 373.496 212.176C372.68 214.327 373.68 216.753 375.739 217.604C377.797 218.455 380.131 217.408 380.948 215.269C381.649 213.43 381.005 211.383 379.499 210.302C379.683 208.497 379.625 206.553 379.361 204.426C379.234 203.472 379.085 202.563 378.889 201.701C381.73 204.081 384.616 206.691 387.766 209.612C387.743 209.658 387.72 209.704 387.709 209.75C386.892 211.889 387.893 214.315 389.951 215.166C392.009 216.017 394.344 214.97 395.16 212.832C395.977 210.681 394.976 208.255 392.918 207.404C391.894 206.979 390.802 207.025 389.859 207.45C386.72 204.53 383.845 201.919 381.005 199.539C381.764 199.332 382.546 199.091 383.339 198.803C385.018 198.194 386.49 197.481 387.801 196.664C387.996 196.837 388.215 196.998 388.456 197.124C390.411 198.228 392.837 197.481 393.895 195.457C394.953 193.433 394.229 190.892 392.285 189.788C390.342 188.684 387.904 189.432 386.846 191.467C386.433 192.26 386.283 193.134 386.387 193.962V193.974C385.225 194.71 383.891 195.342 382.362 195.906C380.787 196.48 379.338 196.86 377.946 197.044C375.313 194.963 372.623 193.054 369.736 191.26C372.37 190.398 374.83 189.156 377.073 187.971C377.13 187.948 377.188 187.902 377.257 187.879C377.36 187.96 377.464 188.04 377.567 188.109C379.441 189.351 381.914 188.776 383.109 186.833C384.294 184.89 383.742 182.302 381.879 181.061C380.005 179.819 377.521 180.394 376.337 182.337C375.785 183.222 375.612 184.257 375.762 185.223C375.75 185.223 375.75 185.235 375.739 185.235C372.669 186.856 369.414 188.454 366.011 189.075C365.723 188.914 365.436 188.753 365.148 188.604C365.148 188.592 365.148 188.581 365.137 188.569L365.114 188.581C362.055 186.936 358.72 185.361 354.914 183.797L353.833 186.649C357.099 187.994 360.031 189.351 362.722 190.766C363.78 194.457 363.676 198.47 363.435 202.299C362.044 202.483 360.779 203.437 360.227 204.898C359.41 207.036 360.411 209.474 362.469 210.325C364.527 211.176 366.862 210.129 367.69 207.979C368.379 206.185 367.782 204.185 366.356 203.092C366.367 203 366.367 202.908 366.367 202.816C366.574 199.643 366.712 196.112 366.16 192.651C369.184 194.411 371.933 196.262 374.612 198.286C375.509 200.103 376.107 202.253 376.44 204.817Z" fill="#C42729"/>
<path d="M307.47 204.817C307.252 206.565 307.194 208.14 307.309 209.601C308.666 209.819 309.874 210.762 310.414 212.176C311.23 214.327 310.23 216.753 308.172 217.604C306.114 218.455 303.779 217.408 302.963 215.269C302.261 213.43 302.905 211.383 304.412 210.302C304.228 208.497 304.285 206.553 304.55 204.426C304.676 203.472 304.826 202.563 305.021 201.701C302.181 204.081 299.295 206.691 296.144 209.612C296.167 209.658 296.179 209.704 296.202 209.75C297.018 211.889 296.018 214.315 293.959 215.166C291.901 216.017 289.567 214.97 288.75 212.832C287.934 210.681 288.946 208.255 291.004 207.404C292.028 206.979 293.12 207.025 294.063 207.45C297.202 204.53 300.077 201.919 302.917 199.539C302.158 199.332 301.376 199.091 300.583 198.803C298.915 198.194 297.432 197.481 296.133 196.664C295.937 196.837 295.719 196.998 295.477 197.124C293.522 198.228 291.096 197.481 290.038 195.457C288.98 193.433 289.705 190.892 291.648 189.788C293.591 188.684 296.029 189.432 297.087 191.467C297.501 192.26 297.65 193.134 297.547 193.962V193.974C298.708 194.71 300.042 195.342 301.572 195.906C303.147 196.48 304.596 196.86 305.987 197.044C308.62 194.963 311.311 193.054 314.197 191.26C311.575 190.398 309.103 189.156 306.861 187.971C306.803 187.948 306.746 187.902 306.677 187.879C306.585 187.96 306.47 188.04 306.366 188.109C304.504 189.351 302.02 188.776 300.824 186.833C299.64 184.89 300.192 182.302 302.054 181.061C303.929 179.819 306.412 180.394 307.597 182.337C308.149 183.222 308.321 184.257 308.172 185.223C308.183 185.223 308.183 185.235 308.195 185.235C311.265 186.856 314.519 188.454 317.923 189.075C318.21 188.914 318.498 188.753 318.797 188.604C318.797 188.592 318.797 188.581 318.808 188.569L318.831 188.581C321.89 186.936 325.224 185.361 329.031 183.797L330.111 186.649C326.846 187.994 323.914 189.351 321.223 190.766C320.165 194.457 320.269 198.47 320.51 202.299C321.901 202.483 323.166 203.437 323.718 204.898C324.535 207.036 323.534 209.474 321.476 210.325C319.418 211.176 317.083 210.129 316.255 207.979C315.566 206.185 316.163 204.185 317.589 203.092C317.578 203 317.578 202.908 317.566 202.816C317.359 199.643 317.233 196.112 317.773 192.651C314.738 194.411 311.989 196.262 309.322 198.286C308.402 200.103 307.804 202.253 307.47 204.817Z" fill="#C42729"/>
<path d="M291.544 162.961C297.65 162.961 300.617 166.756 300.617 169.7C300.617 172.643 297.639 176.438 291.544 176.438C285.439 176.438 278.528 169.7 278.528 169.7C278.528 169.7 285.439 162.961 291.544 162.961Z" fill="#DD8C83"/>
<path d="M392.688 162.961C386.582 162.961 383.604 166.756 383.604 169.7C383.604 172.643 386.582 176.438 392.688 176.438C398.794 176.438 405.704 169.7 405.704 169.7C405.704 169.7 398.794 162.961 392.688 162.961Z" fill="#DD8C83"/>
<path d="M703.012 165.262C702.023 162.169 698.93 160.421 695.94 161.192C695.618 158.087 693.088 155.661 690.018 155.661C686.822 155.661 684.223 158.282 684.073 161.571C681.061 160.87 677.991 162.698 677.082 165.826C676.174 168.953 677.749 172.23 680.624 173.392C679.163 176.128 679.888 179.624 682.406 181.464C684.97 183.338 688.443 182.809 690.409 180.349C692.445 182.648 695.86 183.028 698.32 181.119C700.839 179.176 701.46 175.565 699.815 172.851C702.552 171.563 703.966 168.309 703.012 165.262ZM690.064 173.403C687.925 173.403 686.189 171.598 686.189 169.379C686.189 167.148 687.925 165.343 690.064 165.343C692.203 165.343 693.939 167.148 693.939 169.379C693.939 171.598 692.203 173.403 690.064 173.403Z" fill="#C42729"/>
<path d="M693.939 169.367C693.939 171.598 692.203 173.403 690.064 173.403C687.925 173.403 686.189 171.598 686.189 169.367C686.189 167.136 687.925 165.342 690.064 165.342C692.203 165.342 693.939 167.148 693.939 169.367Z" fill="#DC9A95"/>
<path d="M701.494 137.147C701.551 132.985 700.068 128.971 698.309 125.292L696.434 127.074C698.585 121.9 692.421 115.989 690.064 112.597C687.293 116.645 681.727 121.474 683.694 127.074C683.234 126.637 682.279 125.717 681.819 125.292C679.566 130.34 676.289 137.917 681.13 142.368C680.704 142.253 679.508 141.954 679.071 141.839C680.382 155.028 699.758 155.028 701.068 141.839L699.01 142.368C700.447 141.091 701.39 139.228 701.494 137.147Z" fill="#C42729"/>
<path d="M690.076 112.609V151.728C684.901 151.728 679.727 148.428 679.071 141.839C679.52 141.954 680.716 142.264 681.13 142.368C676.3 137.929 679.566 130.352 681.82 125.292C682.28 125.717 683.234 126.637 683.694 127.074C681.739 121.486 687.293 116.645 690.076 112.609Z" fill="#DD8C83"/>
<path d="M656.028 134.572C655.809 132.824 655.752 131.249 655.867 129.788C657.224 129.57 658.431 128.627 658.972 127.213C659.788 125.074 658.788 122.636 656.729 121.785C654.671 120.934 652.337 121.981 651.52 124.131C650.819 125.971 651.463 128.017 652.969 129.098C652.785 130.904 652.843 132.847 653.107 134.974C653.234 135.929 653.383 136.837 653.579 137.699C650.739 135.319 647.852 132.709 644.702 129.788C644.725 129.742 644.736 129.696 644.759 129.65C645.576 127.512 644.575 125.085 642.517 124.234C640.459 123.383 638.124 124.43 637.308 126.569C636.492 128.707 637.503 131.145 639.562 131.996C640.585 132.421 641.678 132.375 642.62 131.95C645.76 134.871 648.634 137.481 651.474 139.861C650.716 140.068 649.934 140.31 649.14 140.597C647.473 141.207 645.99 141.919 644.69 142.724C644.495 142.552 644.276 142.391 644.035 142.264C642.08 141.161 639.654 141.908 638.596 143.943C637.538 145.967 638.262 148.508 640.206 149.601C642.149 150.705 644.587 149.957 645.645 147.933C646.059 147.14 646.208 146.266 646.105 145.438V145.427C647.266 144.691 648.6 144.058 650.129 143.495C651.704 142.92 653.153 142.54 654.545 142.356C657.178 144.438 659.869 146.347 662.755 148.14C660.133 149.003 657.661 150.233 655.419 151.429C655.361 151.452 655.304 151.486 655.235 151.521C655.143 151.44 655.028 151.36 654.924 151.291C653.061 150.049 650.578 150.624 649.382 152.567C648.197 154.511 648.749 157.098 650.612 158.34C652.486 159.582 654.97 159.007 656.154 157.063C656.706 156.178 656.879 155.143 656.729 154.177C656.741 154.177 656.741 154.166 656.752 154.166C659.823 152.544 663.077 150.946 666.48 150.325C666.768 150.486 667.055 150.647 667.354 150.797C667.354 150.808 667.354 150.82 667.366 150.831L667.389 150.82C670.447 152.464 673.782 154.039 677.588 155.603L678.669 152.751C675.403 151.406 672.471 150.049 669.781 148.635C668.723 144.944 668.826 140.931 669.068 137.101C670.459 136.918 671.724 135.963 672.276 134.503C673.092 132.352 672.092 129.926 670.034 129.075C667.975 128.224 665.641 129.271 664.813 131.421C664.123 133.215 664.721 135.216 666.147 136.308C666.135 136.4 666.135 136.492 666.124 136.584C665.917 139.758 665.79 143.288 666.331 146.749C663.295 145.001 660.547 143.138 657.879 141.115C656.959 139.298 656.361 137.147 656.028 134.572Z" fill="#C42729"/>
<path d="M724.998 134.572C725.216 132.824 725.274 131.249 725.159 129.788C723.802 129.57 722.594 128.627 722.054 127.213C721.238 125.074 722.238 122.636 724.296 121.785C726.355 120.934 728.689 121.981 729.505 124.131C730.207 125.971 729.563 128.017 728.056 129.098C728.24 130.904 728.183 132.847 727.918 134.974C727.792 135.929 727.642 136.837 727.447 137.699C730.287 135.319 733.173 132.709 736.324 129.788C736.301 129.742 736.278 129.696 736.267 129.65C735.45 127.512 736.451 125.085 738.509 124.234C740.567 123.383 742.901 124.43 743.718 126.569C744.534 128.707 743.534 131.145 741.475 131.996C740.452 132.421 739.36 132.375 738.417 131.95C735.278 134.871 732.403 137.481 729.563 139.861C730.322 140.068 731.104 140.31 731.897 140.597C733.576 141.207 735.048 141.919 736.359 142.724C736.554 142.552 736.772 142.391 737.014 142.264C738.969 141.161 741.395 141.908 742.453 143.943C743.511 145.967 742.786 148.508 740.843 149.601C738.9 150.705 736.462 149.957 735.404 147.933C734.99 147.14 734.841 146.266 734.944 145.438V145.427C733.783 144.691 732.449 144.058 730.92 143.495C729.344 142.92 727.895 142.54 726.504 142.356C723.871 144.438 721.18 146.347 718.294 148.14C720.927 149.003 723.388 150.233 725.63 151.429C725.688 151.452 725.745 151.486 725.814 151.521C725.918 151.44 726.021 151.36 726.125 151.291C727.999 150.049 730.471 150.624 731.667 152.567C732.851 154.511 732.299 157.098 730.437 158.34C728.562 159.582 726.079 159.007 724.894 157.063C724.342 156.178 724.17 155.143 724.319 154.177C724.308 154.177 724.308 154.166 724.296 154.166C721.226 152.544 717.972 150.946 714.568 150.325C714.281 150.486 713.993 150.647 713.706 150.797C713.706 150.808 713.706 150.82 713.694 150.831L713.671 150.82C710.613 152.464 707.278 154.039 703.472 155.603L702.391 152.751C705.657 151.406 708.589 150.049 711.28 148.635C712.338 144.944 712.234 140.931 711.993 137.101C710.601 136.918 709.336 135.963 708.784 134.503C707.968 132.352 708.968 129.926 711.027 129.075C713.085 128.224 715.419 129.271 716.247 131.421C716.937 133.215 716.339 135.216 714.913 136.308C714.925 136.4 714.925 136.492 714.925 136.584C715.132 139.758 715.27 143.288 714.718 146.749C717.742 145.001 720.49 143.138 723.169 141.115C724.066 139.298 724.664 137.147 724.998 134.572Z" fill="#C42729"/>
<path d="M679.531 202.253C679.474 206.416 680.957 210.429 682.705 214.109L684.579 212.326C682.429 217.501 688.592 223.411 690.949 226.803C693.721 222.756 699.286 217.926 697.32 212.326C697.78 212.763 698.734 213.683 699.194 214.109C701.448 209.061 704.725 201.483 699.884 197.033C700.309 197.148 701.505 197.447 701.942 197.562C700.631 184.373 681.256 184.384 679.945 197.562L682.003 197.033C680.578 198.309 679.623 200.172 679.531 202.253Z" fill="#DD8C83"/>
<path d="M690.95 226.791V187.672C696.124 187.672 701.299 190.973 701.954 197.561C701.506 197.446 700.321 197.136 699.896 197.032C704.725 201.471 701.46 209.049 699.206 214.108C698.757 213.683 697.791 212.763 697.332 212.326C699.286 217.914 693.732 222.755 690.95 226.791Z" fill="#C42729"/>
<path d="M724.998 204.817C725.216 206.565 725.274 208.14 725.159 209.601C723.802 209.819 722.594 210.762 722.054 212.176C721.238 214.327 722.238 216.753 724.296 217.604C726.355 218.455 728.689 217.408 729.505 215.269C730.207 213.43 729.563 211.383 728.056 210.302C728.24 208.497 728.183 206.553 727.918 204.426C727.792 203.472 727.642 202.563 727.447 201.701C730.287 204.081 733.173 206.691 736.324 209.612C736.301 209.658 736.278 209.704 736.267 209.75C735.45 211.889 736.451 214.315 738.509 215.166C740.567 216.017 742.901 214.97 743.718 212.832C744.534 210.681 743.534 208.255 741.475 207.404C740.452 206.979 739.36 207.025 738.417 207.45C735.278 204.53 732.403 201.919 729.563 199.539C730.322 199.332 731.104 199.091 731.897 198.803C733.576 198.194 735.048 197.481 736.359 196.664C736.554 196.837 736.772 196.998 737.014 197.124C738.969 198.228 741.395 197.481 742.453 195.457C743.511 193.433 742.786 190.892 740.843 189.788C738.9 188.684 736.462 189.432 735.404 191.467C734.99 192.26 734.841 193.134 734.944 193.962V193.974C733.783 194.71 732.449 195.342 730.92 195.906C729.344 196.48 727.895 196.86 726.504 197.044C723.871 194.963 721.18 193.054 718.294 191.26C720.927 190.398 723.388 189.156 725.63 187.971C725.688 187.948 725.745 187.902 725.814 187.879C725.918 187.96 726.021 188.04 726.125 188.109C727.999 189.351 730.471 188.776 731.667 186.833C732.851 184.89 732.299 182.302 730.437 181.061C728.562 179.819 726.079 180.394 724.894 182.337C724.342 183.222 724.17 184.257 724.319 185.223C724.308 185.223 724.308 185.235 724.296 185.235C721.226 186.856 717.972 188.454 714.568 189.075C714.281 188.914 713.993 188.753 713.706 188.604C713.706 188.592 713.706 188.581 713.694 188.569L713.671 188.581C710.613 186.936 707.278 185.361 703.472 183.797L702.391 186.649C705.657 187.994 708.589 189.351 711.28 190.766C712.338 194.457 712.234 198.47 711.993 202.299C710.601 202.483 709.336 203.437 708.784 204.898C707.968 207.036 708.968 209.474 711.027 210.325C713.085 211.176 715.419 210.129 716.247 207.979C716.937 206.185 716.339 204.185 714.913 203.092C714.925 203 714.925 202.908 714.925 202.816C715.132 199.643 715.27 196.112 714.718 192.651C717.742 194.411 720.49 196.262 723.169 198.286C724.066 200.103 724.664 202.253 724.998 204.817Z" fill="#C42729"/>
<path d="M656.028 204.817C655.809 206.565 655.752 208.14 655.867 209.601C657.224 209.819 658.431 210.762 658.972 212.176C659.788 214.327 658.788 216.753 656.729 217.604C654.671 218.455 652.337 217.408 651.52 215.269C650.819 213.43 651.463 211.383 652.969 210.302C652.785 208.497 652.843 206.553 653.107 204.426C653.234 203.472 653.383 202.563 653.579 201.701C650.739 204.081 647.852 206.691 644.702 209.612C644.725 209.658 644.736 209.704 644.759 209.75C645.576 211.889 644.575 214.315 642.517 215.166C640.459 216.017 638.124 214.97 637.308 212.832C636.492 210.681 637.503 208.255 639.562 207.404C640.585 206.979 641.678 207.025 642.62 207.45C645.76 204.53 648.634 201.919 651.474 199.539C650.716 199.332 649.934 199.091 649.14 198.803C647.473 198.194 645.99 197.481 644.69 196.664C644.495 196.837 644.276 196.998 644.035 197.124C642.08 198.228 639.654 197.481 638.596 195.457C637.538 193.433 638.262 190.892 640.206 189.788C642.149 188.684 644.587 189.432 645.645 191.467C646.059 192.26 646.208 193.134 646.105 193.962V193.974C647.266 194.71 648.6 195.342 650.129 195.906C651.704 196.48 653.153 196.86 654.545 197.044C657.178 194.963 659.869 193.054 662.755 191.26C660.133 190.398 657.661 189.156 655.419 187.971C655.361 187.948 655.304 187.902 655.235 187.879C655.143 187.96 655.028 188.04 654.924 188.109C653.061 189.351 650.578 188.776 649.382 186.833C648.197 184.89 648.749 182.302 650.612 181.061C652.486 179.819 654.97 180.394 656.154 182.337C656.706 183.222 656.879 184.257 656.729 185.223C656.741 185.223 656.741 185.235 656.752 185.235C659.823 186.856 663.077 188.454 666.48 189.075C666.768 188.914 667.055 188.753 667.354 188.604C667.354 188.592 667.354 188.581 667.366 188.569L667.389 188.581C670.447 186.936 673.782 185.361 677.588 183.797L678.669 186.649C675.403 187.994 672.471 189.351 669.781 190.766C668.723 194.457 668.826 198.47 669.068 202.299C670.459 202.483 671.724 203.437 672.276 204.898C673.092 207.036 672.092 209.474 670.034 210.325C667.975 211.176 665.641 210.129 664.813 207.979C664.123 206.185 664.721 204.185 666.147 203.092C666.135 203 666.135 202.908 666.124 202.816C665.917 199.643 665.79 196.112 666.331 192.651C663.295 194.411 660.547 196.262 657.879 198.286C656.959 200.103 656.361 202.253 656.028 204.817Z" fill="#C42729"/>
<path d="M640.102 162.961C646.208 162.961 649.175 166.756 649.175 169.7C649.175 172.643 646.196 176.438 640.102 176.438C633.996 176.438 627.085 169.7 627.085 169.7C627.085 169.7 633.996 162.961 640.102 162.961Z" fill="#DD8C83"/>
<path d="M741.245 162.961C735.139 162.961 732.161 166.756 732.161 169.7C732.161 172.643 735.139 176.438 741.245 176.438C747.351 176.438 754.262 169.7 754.262 169.7C754.262 169.7 747.351 162.961 741.245 162.961Z" fill="#DD8C83"/>
<path d="M1534.37 165.262C1533.38 162.169 1530.29 160.421 1527.3 161.192C1526.98 158.087 1524.45 155.661 1521.38 155.661C1518.18 155.661 1515.58 158.282 1515.43 161.571C1512.42 160.87 1509.35 162.698 1508.44 165.826C1507.53 168.953 1509.11 172.23 1511.98 173.392C1510.52 176.128 1511.25 179.624 1513.76 181.464C1516.33 183.338 1519.8 182.809 1521.77 180.349C1523.8 182.648 1527.22 183.028 1529.68 181.119C1532.2 179.176 1532.82 175.565 1531.17 172.851C1533.91 171.563 1535.32 168.309 1534.37 165.262ZM1521.42 173.403C1519.28 173.403 1517.55 171.598 1517.55 169.379C1517.55 167.148 1519.28 165.343 1521.42 165.343C1523.56 165.343 1525.3 167.148 1525.3 169.379C1525.3 171.598 1523.56 173.403 1521.42 173.403Z" fill="#C42729"/>
<path d="M1525.3 169.367C1525.3 171.598 1523.56 173.403 1521.42 173.403C1519.28 173.403 1517.55 171.598 1517.55 169.367C1517.55 167.136 1519.28 165.342 1521.42 165.342C1523.56 165.342 1525.3 167.148 1525.3 169.367Z" fill="#DC9A95"/>
<path d="M1532.85 137.147C1532.91 132.985 1531.43 128.971 1529.67 125.292L1527.79 127.074C1529.94 121.9 1523.78 115.989 1521.42 112.597C1518.65 116.645 1513.09 121.474 1515.05 127.074C1514.59 126.637 1513.64 125.717 1513.18 125.292C1510.92 130.34 1507.65 137.917 1512.49 142.368C1512.06 142.253 1510.87 141.954 1510.43 141.839C1511.74 155.028 1531.12 155.028 1532.43 141.839L1530.37 142.368C1531.81 141.091 1532.75 139.228 1532.85 137.147Z" fill="#C42729"/>
<path d="M1521.43 112.609V151.728C1516.26 151.728 1511.08 148.428 1510.43 141.839C1510.88 141.954 1512.07 142.264 1512.49 142.368C1507.66 137.929 1510.92 130.352 1513.18 125.292C1513.64 125.717 1514.59 126.637 1515.05 127.074C1513.1 121.486 1518.65 116.645 1521.43 112.609Z" fill="#DD8C83"/>
<path d="M1487.39 134.572C1487.17 132.824 1487.11 131.249 1487.22 129.788C1488.58 129.57 1489.79 128.627 1490.33 127.213C1491.15 125.074 1490.15 122.636 1488.09 121.785C1486.03 120.934 1483.69 121.981 1482.88 124.131C1482.18 125.971 1482.82 128.017 1484.33 129.098C1484.14 130.904 1484.2 132.847 1484.47 134.974C1484.59 135.929 1484.74 136.837 1484.94 137.699C1482.1 135.319 1479.21 132.709 1476.06 129.788C1476.08 129.742 1476.09 129.696 1476.12 129.65C1476.93 127.512 1475.93 125.085 1473.87 124.234C1471.82 123.383 1469.48 124.43 1468.67 126.569C1467.85 128.707 1468.86 131.145 1470.92 131.996C1471.94 132.421 1473.04 132.375 1473.98 131.95C1477.12 134.871 1479.99 137.481 1482.83 139.861C1482.07 140.068 1481.29 140.31 1480.5 140.597C1478.83 141.207 1477.35 141.919 1476.05 142.724C1475.85 142.552 1475.63 142.391 1475.39 142.264C1473.44 141.161 1471.01 141.908 1469.95 143.943C1468.9 145.967 1469.62 148.508 1471.56 149.601C1473.51 150.705 1475.94 149.957 1477 147.933C1477.42 147.14 1477.57 146.266 1477.46 145.438V145.427C1478.62 144.691 1479.96 144.058 1481.49 143.495C1483.06 142.92 1484.51 142.54 1485.9 142.356C1488.54 144.438 1491.23 146.347 1494.11 148.14C1491.49 149.003 1489.02 150.233 1486.78 151.429C1486.72 151.452 1486.66 151.486 1486.59 151.521C1486.5 151.44 1486.39 151.36 1486.28 151.291C1484.42 150.049 1481.94 150.624 1480.74 152.567C1479.56 154.511 1480.11 157.098 1481.97 158.34C1483.84 159.582 1486.33 159.007 1487.51 157.063C1488.06 156.178 1488.24 155.143 1488.09 154.177C1488.1 154.177 1488.1 154.166 1488.11 154.166C1491.18 152.544 1494.43 150.946 1497.84 150.325C1498.13 150.486 1498.41 150.647 1498.71 150.797C1498.71 150.808 1498.71 150.82 1498.72 150.831L1498.75 150.82C1501.81 152.464 1505.14 154.039 1508.95 155.603L1510.03 152.751C1506.76 151.406 1503.83 150.049 1501.14 148.635C1500.08 144.944 1500.18 140.931 1500.43 137.101C1501.82 136.918 1503.08 135.963 1503.63 134.503C1504.45 132.352 1503.45 129.926 1501.39 129.075C1499.33 128.224 1497 129.271 1496.17 131.421C1495.48 133.215 1496.08 135.216 1497.5 136.308C1497.49 136.4 1497.49 136.492 1497.48 136.584C1497.27 139.758 1497.15 143.288 1497.69 146.749C1494.65 145.001 1491.9 143.138 1489.24 141.115C1488.32 139.298 1487.72 137.147 1487.39 134.572Z" fill="#C42729"/>
<path d="M1556.36 134.572C1556.57 132.824 1556.63 131.249 1556.52 129.788C1555.16 129.57 1553.95 128.627 1553.41 127.213C1552.6 125.074 1553.6 122.636 1555.65 121.785C1557.71 120.934 1560.05 121.981 1560.86 124.131C1561.56 125.971 1560.92 128.017 1559.41 129.098C1559.6 130.904 1559.54 132.847 1559.28 134.974C1559.15 135.929 1559 136.837 1558.8 137.699C1561.64 135.319 1564.53 132.709 1567.68 129.788C1567.66 129.742 1567.64 129.696 1567.62 129.65C1566.81 127.512 1567.81 125.085 1569.87 124.234C1571.92 123.383 1574.26 124.43 1575.08 126.569C1575.89 128.707 1574.89 131.145 1572.83 131.996C1571.81 132.421 1570.72 132.375 1569.77 131.95C1566.64 134.871 1563.76 137.481 1560.92 139.861C1561.68 140.068 1562.46 140.31 1563.25 140.597C1564.93 141.207 1566.41 141.919 1567.72 142.724C1567.91 142.552 1568.13 142.391 1568.37 142.264C1570.33 141.161 1572.75 141.908 1573.81 143.943C1574.87 145.967 1574.14 148.508 1572.2 149.601C1570.26 150.705 1567.82 149.957 1566.76 147.933C1566.35 147.14 1566.2 146.266 1566.3 145.438V145.427C1565.14 144.691 1563.81 144.058 1562.28 143.495C1560.7 142.92 1559.25 142.54 1557.86 142.356C1555.23 144.438 1552.54 146.347 1549.65 148.14C1552.28 149.003 1554.75 150.233 1556.99 151.429C1557.05 151.452 1557.1 151.486 1557.17 151.521C1557.28 151.44 1557.38 151.36 1557.48 151.291C1559.36 150.049 1561.83 150.624 1563.02 152.567C1564.21 154.511 1563.66 157.098 1561.79 158.34C1559.92 159.582 1557.44 159.007 1556.25 157.063C1555.7 156.178 1555.53 155.143 1555.68 154.177C1555.67 154.177 1555.67 154.166 1555.65 154.166C1552.58 152.544 1549.33 150.946 1545.93 150.325C1545.64 150.486 1545.35 150.647 1545.06 150.797C1545.06 150.808 1545.06 150.82 1545.05 150.831L1545.03 150.82C1541.97 152.464 1538.64 154.039 1534.83 155.603L1533.75 152.751C1537.01 151.406 1539.95 150.049 1542.64 148.635C1543.69 144.944 1543.59 140.931 1543.35 137.101C1541.96 136.918 1540.69 135.963 1540.14 134.503C1539.33 132.352 1540.33 129.926 1542.38 129.075C1544.44 128.224 1546.78 129.271 1547.6 131.421C1548.29 133.215 1547.7 135.216 1546.27 136.308C1546.28 136.4 1546.28 136.492 1546.28 136.584C1546.49 139.758 1546.63 143.288 1546.08 146.749C1549.1 145.001 1551.85 143.138 1554.53 141.115C1555.42 139.298 1556.02 137.147 1556.36 134.572Z" fill="#C42729"/>
<path d="M1510.89 202.253C1510.83 206.416 1512.32 210.429 1514.06 214.109L1515.94 212.326C1513.79 217.501 1519.95 223.411 1522.31 226.803C1525.08 222.756 1530.64 217.926 1528.68 212.326C1529.14 212.763 1530.09 213.683 1530.55 214.109C1532.81 209.061 1536.08 201.483 1531.24 197.033C1531.67 197.148 1532.86 197.447 1533.3 197.562C1531.99 184.373 1512.61 184.384 1511.3 197.562L1513.36 197.033C1511.94 198.309 1510.98 200.172 1510.89 202.253Z" fill="#DD8C83"/>
<path d="M1522.31 226.791V187.672C1527.48 187.672 1532.66 190.973 1533.31 197.561C1532.86 197.446 1531.68 197.136 1531.25 197.032C1536.08 201.471 1532.82 209.049 1530.56 214.108C1530.12 213.683 1529.15 212.763 1528.69 212.326C1530.64 217.914 1525.09 222.755 1522.31 226.791Z" fill="#C42729"/>
<path d="M1556.36 204.817C1556.57 206.565 1556.63 208.14 1556.52 209.601C1555.16 209.819 1553.95 210.762 1553.41 212.176C1552.6 214.327 1553.6 216.753 1555.65 217.604C1557.71 218.455 1560.05 217.408 1560.86 215.269C1561.56 213.43 1560.92 211.383 1559.41 210.302C1559.6 208.497 1559.54 206.553 1559.28 204.426C1559.15 203.472 1559 202.563 1558.8 201.701C1561.64 204.081 1564.53 206.691 1567.68 209.612C1567.66 209.658 1567.64 209.704 1567.62 209.75C1566.81 211.889 1567.81 214.315 1569.87 215.166C1571.92 216.017 1574.26 214.97 1575.08 212.832C1575.89 210.681 1574.89 208.255 1572.83 207.404C1571.81 206.979 1570.72 207.025 1569.77 207.45C1566.64 204.53 1563.76 201.919 1560.92 199.539C1561.68 199.332 1562.46 199.091 1563.25 198.803C1564.93 198.194 1566.41 197.481 1567.72 196.664C1567.91 196.837 1568.13 196.998 1568.37 197.124C1570.33 198.228 1572.75 197.481 1573.81 195.457C1574.87 193.433 1574.14 190.892 1572.2 189.788C1570.26 188.684 1567.82 189.432 1566.76 191.467C1566.35 192.26 1566.2 193.134 1566.3 193.962V193.974C1565.14 194.71 1563.81 195.342 1562.28 195.906C1560.7 196.48 1559.25 196.86 1557.86 197.044C1555.23 194.963 1552.54 193.054 1549.65 191.26C1552.28 190.398 1554.75 189.156 1556.99 187.971C1557.05 187.948 1557.1 187.902 1557.17 187.879C1557.28 187.96 1557.38 188.04 1557.48 188.109C1559.36 189.351 1561.83 188.776 1563.02 186.833C1564.21 184.89 1563.66 182.302 1561.79 181.061C1559.92 179.819 1557.44 180.394 1556.25 182.337C1555.7 183.222 1555.53 184.257 1555.68 185.223C1555.67 185.223 1555.67 185.235 1555.65 185.235C1552.58 186.856 1549.33 188.454 1545.93 189.075C1545.64 188.914 1545.35 188.753 1545.06 188.604C1545.06 188.592 1545.06 188.581 1545.05 188.569L1545.03 188.581C1541.97 186.936 1538.64 185.361 1534.83 183.797L1533.75 186.649C1537.01 187.994 1539.95 189.351 1542.64 190.766C1543.69 194.457 1543.59 198.47 1543.35 202.299C1541.96 202.483 1540.69 203.437 1540.14 204.898C1539.33 207.036 1540.33 209.474 1542.38 210.325C1544.44 211.176 1546.78 210.129 1547.6 207.979C1548.29 206.185 1547.7 204.185 1546.27 203.092C1546.28 203 1546.28 202.908 1546.28 202.816C1546.49 199.643 1546.63 196.112 1546.08 192.651C1549.1 194.411 1551.85 196.262 1554.53 198.286C1555.42 200.103 1556.02 202.253 1556.36 204.817Z" fill="#C42729"/>
<path d="M1487.39 204.817C1487.17 206.565 1487.11 208.14 1487.22 209.601C1488.58 209.819 1489.79 210.762 1490.33 212.176C1491.15 214.327 1490.15 216.753 1488.09 217.604C1486.03 218.455 1483.69 217.408 1482.88 215.269C1482.18 213.43 1482.82 211.383 1484.33 210.302C1484.14 208.497 1484.2 206.553 1484.47 204.426C1484.59 203.472 1484.74 202.563 1484.94 201.701C1482.1 204.081 1479.21 206.691 1476.06 209.612C1476.08 209.658 1476.09 209.704 1476.12 209.75C1476.93 211.889 1475.93 214.315 1473.87 215.166C1471.82 216.017 1469.48 214.97 1468.67 212.832C1467.85 210.681 1468.86 208.255 1470.92 207.404C1471.94 206.979 1473.04 207.025 1473.98 207.45C1477.12 204.53 1479.99 201.919 1482.83 199.539C1482.07 199.332 1481.29 199.091 1480.5 198.803C1478.83 198.194 1477.35 197.481 1476.05 196.664C1475.85 196.837 1475.63 196.998 1475.39 197.124C1473.44 198.228 1471.01 197.481 1469.95 195.457C1468.9 193.433 1469.62 190.892 1471.56 189.788C1473.51 188.684 1475.94 189.432 1477 191.467C1477.42 192.26 1477.57 193.134 1477.46 193.962V193.974C1478.62 194.71 1479.96 195.342 1481.49 195.906C1483.06 196.48 1484.51 196.86 1485.9 197.044C1488.54 194.963 1491.23 193.054 1494.11 191.26C1491.49 190.398 1489.02 189.156 1486.78 187.971C1486.72 187.948 1486.66 187.902 1486.59 187.879C1486.5 187.96 1486.39 188.04 1486.28 188.109C1484.42 189.351 1481.94 188.776 1480.74 186.833C1479.56 184.89 1480.11 182.302 1481.97 181.061C1483.84 179.819 1486.33 180.394 1487.51 182.337C1488.06 183.222 1488.24 184.257 1488.09 185.223C1488.1 185.223 1488.1 185.235 1488.11 185.235C1491.18 186.856 1494.43 188.454 1497.84 189.075C1498.13 188.914 1498.41 188.753 1498.71 188.604C1498.71 188.592 1498.71 188.581 1498.72 188.569L1498.75 188.581C1501.81 186.936 1505.14 185.361 1508.95 183.797L1510.03 186.649C1506.76 187.994 1503.83 189.351 1501.14 190.766C1500.08 194.457 1500.18 198.47 1500.43 202.299C1501.82 202.483 1503.08 203.437 1503.63 204.898C1504.45 207.036 1503.45 209.474 1501.39 210.325C1499.33 211.176 1497 210.129 1496.17 207.979C1495.48 206.185 1496.08 204.185 1497.5 203.092C1497.49 203 1497.49 202.908 1497.48 202.816C1497.27 199.643 1497.15 196.112 1497.69 192.651C1494.65 194.411 1491.9 196.262 1489.24 198.286C1488.32 200.103 1487.72 202.253 1487.39 204.817Z" fill="#C42729"/>
<path d="M1471.46 162.961C1477.57 162.961 1480.53 166.756 1480.53 169.7C1480.53 172.643 1477.55 176.438 1471.46 176.438C1465.35 176.438 1458.44 169.7 1458.44 169.7C1458.44 169.7 1465.35 162.961 1471.46 162.961Z" fill="#DD8C83"/>
<path d="M1572.6 162.961C1566.5 162.961 1563.52 166.756 1563.52 169.7C1563.52 172.643 1566.5 176.438 1572.6 176.438C1578.71 176.438 1585.62 169.7 1585.62 169.7C1585.62 169.7 1578.71 162.961 1572.6 162.961Z" fill="#DD8C83"/>
<path d="M1894.7 165.262C1893.71 162.169 1890.62 160.421 1887.63 161.192C1887.31 158.087 1884.78 155.661 1881.71 155.661C1878.51 155.661 1875.91 158.282 1875.76 161.571C1872.75 160.87 1869.68 162.698 1868.77 165.826C1867.86 168.953 1869.44 172.23 1872.31 173.392C1870.85 176.128 1871.58 179.624 1874.1 181.464C1876.66 183.338 1880.13 182.809 1882.1 180.349C1884.14 182.648 1887.55 183.028 1890.01 181.119C1892.53 179.176 1893.15 175.565 1891.51 172.851C1894.24 171.563 1895.66 168.309 1894.7 165.262ZM1881.75 173.403C1879.62 173.403 1877.88 171.598 1877.88 169.379C1877.88 167.148 1879.62 165.343 1881.75 165.343C1883.89 165.343 1885.63 167.148 1885.63 169.379C1885.63 171.598 1883.89 173.403 1881.75 173.403Z" fill="#C42729"/>
<path d="M1893.18 137.147C1893.24 132.985 1891.76 128.971 1890 125.292L1888.13 127.074C1890.28 121.9 1884.11 115.989 1881.75 112.597C1878.98 116.645 1873.42 121.474 1875.38 127.074C1874.92 126.637 1873.97 125.717 1873.51 125.292C1871.26 130.34 1867.98 137.917 1872.82 142.368C1872.39 142.253 1871.2 141.954 1870.76 141.839C1872.07 155.028 1891.45 155.028 1892.76 141.839L1890.7 142.368C1892.14 141.091 1893.08 139.228 1893.18 137.147Z" fill="#C42729"/>
<path d="M1881.77 112.609V151.728C1876.59 151.728 1871.42 148.428 1870.76 141.839C1871.21 141.954 1872.41 142.264 1872.82 142.368C1867.99 137.929 1871.26 130.352 1873.51 125.292C1873.97 125.717 1874.93 126.637 1875.39 127.074C1873.43 121.486 1878.98 116.645 1881.77 112.609Z" fill="#DD8C83"/>
<path d="M1847.72 134.572C1847.5 132.824 1847.44 131.249 1847.56 129.788C1848.91 129.57 1850.12 128.627 1850.66 127.213C1851.48 125.074 1850.48 122.636 1848.42 121.785C1846.36 120.934 1844.03 121.981 1843.21 124.131C1842.51 125.971 1843.15 128.017 1844.66 129.098C1844.48 130.904 1844.53 132.847 1844.8 134.974C1844.92 135.929 1845.07 136.837 1845.27 137.699C1842.43 135.319 1839.54 132.709 1836.39 129.788C1836.42 129.742 1836.43 129.696 1836.45 129.65C1837.27 127.512 1836.27 125.085 1834.21 124.234C1832.15 123.383 1829.82 124.43 1829 126.569C1828.18 128.707 1829.19 131.145 1831.25 131.996C1832.28 132.421 1833.37 132.375 1834.31 131.95C1837.45 134.871 1840.33 137.481 1843.17 139.861C1842.41 140.068 1841.62 140.31 1840.83 140.597C1839.16 141.207 1837.68 141.919 1836.38 142.724C1836.19 142.552 1835.97 142.391 1835.73 142.264C1833.77 141.161 1831.34 141.908 1830.29 143.943C1829.23 145.967 1829.95 148.508 1831.9 149.601C1833.84 150.705 1836.28 149.957 1837.34 147.933C1837.75 147.14 1837.9 146.266 1837.8 145.438V145.427C1838.96 144.691 1840.29 144.058 1841.82 143.495C1843.4 142.92 1844.84 142.54 1846.24 142.356C1848.87 144.438 1851.56 146.347 1854.45 148.14C1851.82 149.003 1849.35 150.233 1847.11 151.429C1847.05 151.452 1846.99 151.486 1846.93 151.521C1846.83 151.44 1846.72 151.36 1846.62 151.291C1844.75 150.049 1842.27 150.624 1841.07 152.567C1839.89 154.511 1840.44 157.098 1842.3 158.34C1844.18 159.582 1846.66 159.007 1847.85 157.063C1848.4 156.178 1848.57 155.143 1848.42 154.177C1848.43 154.177 1848.43 154.166 1848.44 154.166C1851.51 152.544 1854.77 150.946 1858.17 150.325C1858.46 150.486 1858.75 150.647 1859.05 150.797C1859.05 150.808 1859.05 150.82 1859.06 150.831L1859.08 150.82C1862.14 152.464 1865.47 154.039 1869.28 155.603L1870.36 152.751C1867.09 151.406 1864.16 150.049 1861.47 148.635C1860.41 144.944 1860.52 140.931 1860.76 137.101C1862.15 136.918 1863.41 135.963 1863.97 134.503C1864.78 132.352 1863.78 129.926 1861.72 129.075C1859.67 128.224 1857.33 129.271 1856.5 131.421C1855.81 133.215 1856.41 135.216 1857.84 136.308C1857.83 136.4 1857.83 136.492 1857.81 136.584C1857.61 139.758 1857.48 143.288 1858.02 146.749C1854.99 145.001 1852.24 143.138 1849.57 141.115C1848.65 139.298 1848.05 137.147 1847.72 134.572Z" fill="#C42729"/>
<path d="M1847.72 204.817C1847.5 206.565 1847.44 208.14 1847.56 209.601C1848.91 209.819 1850.12 210.762 1850.66 212.176C1851.48 214.327 1850.48 216.753 1848.42 217.604C1846.36 218.455 1844.03 217.408 1843.21 215.269C1842.51 213.43 1843.15 211.383 1844.66 210.302C1844.48 208.497 1844.53 206.553 1844.8 204.426C1844.92 203.472 1845.07 202.563 1845.27 201.701C1842.43 204.081 1839.54 206.691 1836.39 209.612C1836.42 209.658 1836.43 209.704 1836.45 209.75C1837.27 211.889 1836.27 214.315 1834.21 215.166C1832.15 216.017 1829.82 214.97 1829 212.832C1828.18 210.681 1829.19 208.255 1831.25 207.404C1832.28 206.979 1833.37 207.025 1834.31 207.45C1837.45 204.53 1840.33 201.919 1843.17 199.539C1842.41 199.332 1841.62 199.091 1840.83 198.803C1839.16 198.194 1837.68 197.481 1836.38 196.664C1836.19 196.837 1835.97 196.998 1835.73 197.124C1833.77 198.228 1831.34 197.481 1830.29 195.457C1829.23 193.433 1829.95 190.892 1831.9 189.788C1833.84 188.684 1836.28 189.432 1837.34 191.467C1837.75 192.26 1837.9 193.134 1837.8 193.962V193.974C1838.96 194.71 1840.29 195.342 1841.82 195.906C1843.4 196.48 1844.84 196.86 1846.24 197.044C1848.87 194.963 1851.56 193.054 1854.45 191.26C1851.82 190.398 1849.35 189.156 1847.11 187.971C1847.05 187.948 1846.99 187.902 1846.93 187.879C1846.83 187.96 1846.72 188.04 1846.62 188.109C1844.75 189.351 1842.27 188.776 1841.07 186.833C1839.89 184.89 1840.44 182.302 1842.3 181.061C1844.18 179.819 1846.66 180.394 1847.85 182.337C1848.4 183.222 1848.57 184.257 1848.42 185.223C1848.43 185.223 1848.43 185.235 1848.44 185.235C1851.51 186.856 1854.77 188.454 1858.17 189.075C1858.46 188.914 1858.75 188.753 1859.05 188.604C1859.05 188.592 1859.05 188.581 1859.06 188.569L1859.08 188.581C1862.14 186.936 1865.47 185.361 1869.28 183.797L1870.36 186.649C1867.09 187.994 1864.16 189.351 1861.47 190.766C1860.41 194.457 1860.52 198.47 1860.76 202.299C1862.15 202.483 1863.41 203.437 1863.97 204.898C1864.78 207.036 1863.78 209.474 1861.72 210.325C1859.67 211.176 1857.33 210.129 1856.5 207.979C1855.81 206.185 1856.41 204.185 1857.84 203.092C1857.83 203 1857.83 202.908 1857.81 202.816C1857.61 199.643 1857.48 196.112 1858.02 192.651C1854.99 194.411 1852.24 196.262 1849.57 198.286C1848.65 200.103 1848.05 202.253 1847.72 204.817Z" fill="#C42729"/>
<path d="M1831.79 162.961C1837.9 162.961 1840.87 166.756 1840.87 169.7C1840.87 172.643 1837.89 176.438 1831.79 176.438C1825.69 176.438 1818.78 169.7 1818.78 169.7C1818.78 169.7 1825.69 162.961 1831.79 162.961Z" fill="#DD8C83"/>
<path d="M1.18671 165.262C0.197818 162.169 -2.89535 160.421 -5.88503 161.192C-6.207 158.087 -8.73676 155.661 -11.8069 155.661C-15.0036 155.661 -17.6023 158.282 -17.7518 161.571C-20.7645 160.87 -23.8347 162.698 -24.7431 165.826C-25.6515 168.953 -24.0761 172.23 -21.2014 173.392C-22.6618 176.128 -21.9374 179.624 -19.4191 181.464C-16.8549 183.338 -13.3822 182.809 -11.4159 180.349C-9.38066 182.648 -5.96555 183.028 -3.50481 181.119C-0.986576 179.176 -0.365621 175.565 -2.00995 172.851C0.726763 171.563 2.14111 168.309 1.18671 165.262ZM-11.7609 173.403C-13.8997 173.403 -15.636 171.598 -15.636 169.379C-15.636 167.148 -13.8997 165.343 -11.7609 165.343C-9.62215 165.343 -7.88584 167.148 -7.88584 169.379C-7.88584 171.598 -9.62215 173.403 -11.7609 173.403Z" fill="#C42729"/>
<path d="M23.1724 134.572C23.3909 132.824 23.4484 131.249 23.3334 129.788C21.9765 129.57 20.7692 128.627 20.2287 127.213C19.4123 125.074 20.4127 122.636 22.471 121.785C24.5293 120.934 26.8635 121.981 27.6799 124.131C28.3814 125.971 27.7374 128.017 26.2311 129.098C26.4151 130.904 26.3576 132.847 26.0931 134.974C25.9666 135.929 25.8171 136.837 25.6216 137.699C28.4618 135.319 31.348 132.709 34.4987 129.788C34.4757 129.742 34.4527 129.696 34.4412 129.65C33.6248 127.512 34.6252 125.085 36.6835 124.234C38.7418 123.383 41.076 124.43 41.8924 126.569C42.7088 128.707 41.7084 131.145 39.6501 131.996C38.6267 132.421 37.5344 132.375 36.5915 131.95C33.4523 134.871 30.5776 137.481 27.7374 139.861C28.4963 140.068 29.2783 140.31 30.0717 140.597C31.7505 141.207 33.2223 141.919 34.5332 142.724C34.7287 142.552 34.9472 142.391 35.1886 142.264C37.1434 141.161 39.5697 141.908 40.6275 143.943C41.6854 145.967 40.961 148.508 39.0177 149.601C37.0744 150.705 34.6367 149.957 33.5788 147.933C33.1648 147.14 33.0154 146.266 33.1188 145.438V145.427C31.9575 144.691 30.6236 144.058 29.0943 143.495C27.5189 142.92 26.0701 142.54 24.6787 142.356C22.0455 144.438 19.3548 146.347 16.4686 148.14C19.1018 149.003 21.5626 150.233 23.8048 151.429C23.8623 151.452 23.9198 151.486 23.9888 151.521C24.0923 151.44 24.1958 151.36 24.2993 151.291C26.1736 150.049 28.6458 150.624 29.8417 152.567C31.0261 154.511 30.4741 157.098 28.6113 158.34C26.737 159.582 24.2533 159.007 23.0689 157.063C22.517 156.178 22.3445 155.143 22.494 154.177C22.4825 154.177 22.4825 154.166 22.471 154.166C19.4008 152.544 16.1466 150.946 12.743 150.325C12.4555 150.486 12.1681 150.647 11.8806 150.797C11.8806 150.808 11.8806 150.82 11.8691 150.831L11.8461 150.82C8.78742 152.464 5.45278 154.039 1.64668 155.603L0.565796 152.751C3.83145 151.406 6.76365 150.049 9.45437 148.635C10.5123 144.944 10.4088 140.931 10.1673 137.101C8.77593 136.918 7.51106 135.963 6.95911 134.503C6.1427 132.352 7.14311 129.926 9.20139 129.075C11.2597 128.224 13.5939 129.271 14.4218 131.421C15.1118 133.215 14.5138 135.216 13.088 136.308C13.0995 136.4 13.0995 136.492 13.0995 136.584C13.3064 139.758 13.4444 143.288 12.8925 146.749C15.9167 145.001 18.6649 143.138 21.3441 141.115C22.241 139.298 22.8389 137.147 23.1724 134.572Z" fill="#C42729"/>
<path d="M-22.2939 202.253C-22.3514 206.416 -20.8681 210.429 -19.1202 214.109L-17.2459 212.326C-19.3962 217.501 -13.2328 223.411 -10.8756 226.803C-8.10439 222.756 -2.53901 217.926 -4.5053 212.326C-4.04535 212.763 -3.09095 213.683 -2.631 214.109C-0.377234 209.061 2.89992 201.483 -1.94106 197.033C-1.51561 197.148 -0.319723 197.447 0.117231 197.562C-1.19363 184.373 -20.5691 184.384 -21.8799 197.562L-19.8216 197.033C-21.2475 198.309 -22.2019 200.172 -22.2939 202.253Z" fill="#DD8C83"/>
<path d="M-10.8754 226.792V187.673C-5.70092 187.673 -0.526492 190.973 0.128939 197.562C-0.319514 197.447 -1.50386 197.136 -1.92932 197.033C2.90017 201.471 -0.365491 209.049 -2.61925 214.109C-3.0677 213.683 -4.03361 212.763 -4.49356 212.326C-2.53877 217.915 -8.09266 222.756 -10.8754 226.792Z" fill="#C42729"/>
<path d="M23.1724 204.817C23.3909 206.565 23.4484 208.14 23.3334 209.601C21.9765 209.819 20.7692 210.762 20.2287 212.176C19.4123 214.327 20.4127 216.753 22.471 217.604C24.5293 218.455 26.8635 217.408 27.6799 215.269C28.3814 213.43 27.7374 211.383 26.2311 210.302C26.4151 208.497 26.3576 206.553 26.0931 204.426C25.9666 203.472 25.8171 202.563 25.6216 201.701C28.4618 204.081 31.348 206.691 34.4987 209.612C34.4757 209.658 34.4527 209.704 34.4412 209.75C33.6248 211.889 34.6252 214.315 36.6835 215.166C38.7418 216.017 41.076 214.97 41.8924 212.832C42.7088 210.681 41.7084 208.255 39.6501 207.404C38.6267 206.979 37.5344 207.025 36.5915 207.45C33.4523 204.53 30.5776 201.919 27.7374 199.539C28.4963 199.332 29.2783 199.091 30.0717 198.803C31.7505 198.194 33.2223 197.481 34.5332 196.664C34.7287 196.837 34.9472 196.998 35.1886 197.124C37.1434 198.228 39.5697 197.481 40.6275 195.457C41.6854 193.433 40.961 190.892 39.0177 189.788C37.0744 188.684 34.6367 189.432 33.5788 191.467C33.1648 192.26 33.0154 193.134 33.1188 193.962V193.974C31.9575 194.71 30.6236 195.342 29.0943 195.906C27.5189 196.48 26.0701 196.86 24.6787 197.044C22.0455 194.963 19.3548 193.054 16.4686 191.26C19.1018 190.398 21.5626 189.156 23.8048 187.971C23.8623 187.948 23.9198 187.902 23.9888 187.879C24.0923 187.96 24.1958 188.04 24.2993 188.109C26.1736 189.351 28.6458 188.776 29.8417 186.833C31.0261 184.89 30.4741 182.302 28.6113 181.061C26.737 179.819 24.2533 180.394 23.0689 182.337C22.517 183.222 22.3445 184.257 22.494 185.223C22.4825 185.223 22.4825 185.235 22.471 185.235C19.4008 186.856 16.1466 188.454 12.743 189.075C12.4555 188.914 12.1681 188.753 11.8806 188.604C11.8806 188.592 11.8806 188.581 11.8691 188.569L11.8461 188.581C8.78742 186.936 5.45278 185.361 1.64668 183.797L0.565796 186.649C3.83145 187.994 6.76365 189.351 9.45437 190.766C10.5123 194.457 10.4088 198.47 10.1673 202.299C8.77593 202.483 7.51106 203.437 6.95911 204.898C6.1427 207.036 7.14311 209.474 9.20139 210.325C11.2597 211.176 13.5939 210.129 14.4218 207.979C15.1118 206.185 14.5138 204.185 13.088 203.092C13.0995 203 13.0995 202.908 13.0995 202.816C13.3064 199.643 13.4444 196.112 12.8925 192.651C15.9167 194.411 18.6649 196.262 21.3441 198.286C22.241 200.103 22.8389 202.253 23.1724 204.817Z" fill="#C42729"/>
<path d="M39.42 162.961C33.3141 162.961 30.3359 166.756 30.3359 169.7C30.3359 172.643 33.3141 176.438 39.42 176.438C45.5258 176.438 52.4366 169.7 52.4366 169.7C52.4366 169.7 45.5258 162.961 39.42 162.961Z" fill="#DD8C83"/>
<path d="M1004.23 90.8022C1006.53 89.4582 1007.68 87.2982 1007.68 84.3222C1007.68 81.3462 1006.58 78.9462 1004.47 77.0262C1002.36 75.1542 999.571 74.1942 996.163 74.1942C992.851 74.1942 990.115 75.1542 987.955 76.9782C985.747 78.8502 984.499 81.3462 984.163 84.5142L991.411 85.9062C991.507 84.1782 992.035 82.8822 992.899 82.0182C993.763 81.1542 994.867 80.7222 996.211 80.7222C997.459 80.7222 998.515 81.0582 999.283 81.7302C1000.05 82.4022 1000.48 83.3142 1000.48 84.4182C1000.48 85.4742 1000.1 86.3382 999.331 86.9622C998.563 87.6342 997.507 87.9222 996.163 87.9222H992.803V93.7782H996.499C997.843 93.7782 998.947 94.1142 999.715 94.7382C1000.48 95.4102 1000.87 96.2742 1000.87 97.3302C1000.87 98.4822 1000.44 99.4422 999.571 100.162C998.707 100.882 997.603 101.218 996.259 101.218C994.819 101.218 993.715 100.786 992.851 99.9222C991.987 99.0582 991.459 97.8582 991.267 96.2262L983.779 97.6182C984.115 100.738 985.411 103.234 987.715 105.058C989.971 106.882 992.803 107.794 996.211 107.794C999.715 107.794 1002.6 106.834 1004.85 104.914C1007.06 102.994 1008.21 100.498 1008.21 97.4262C1008.21 94.3542 1006.87 92.1462 1004.23 90.8022ZM1015.62 98.6742C1014.37 98.6742 1013.31 99.1062 1012.5 99.9702C1011.63 100.834 1011.25 101.842 1011.25 102.994C1011.25 104.242 1011.63 105.298 1012.5 106.114C1013.31 106.93 1014.37 107.314 1015.62 107.314C1016.86 107.314 1017.92 106.93 1018.78 106.066C1019.6 105.25 1020.03 104.242 1020.03 102.994C1020.03 101.842 1019.6 100.834 1018.74 99.9702C1017.87 99.1062 1016.86 98.6742 1015.62 98.6742ZM1061.58 101.17V94.8342H1057.69V74.9142H1047.9L1033.54 94.0662V101.17H1050.25V107.074H1057.69V101.17H1061.58ZM1050.25 94.8342H1041.56L1050.25 82.5462V94.8342ZM1068.63 98.6742C1067.38 98.6742 1066.33 99.1062 1065.51 99.9702C1064.65 100.834 1064.26 101.842 1064.26 102.994C1064.26 104.242 1064.65 105.298 1065.51 106.114C1066.33 106.93 1067.38 107.314 1068.63 107.314C1069.88 107.314 1070.94 106.93 1071.8 106.066C1072.62 105.25 1073.05 104.242 1073.05 102.994C1073.05 101.842 1072.62 100.834 1071.75 99.9702C1070.89 99.1062 1069.88 98.6742 1068.63 98.6742ZM1110.42 100.162H1098.7L1103.31 95.9382C1105.71 93.6342 1107.44 91.7142 1108.5 90.1302C1109.55 88.5462 1110.08 86.7222 1110.08 84.6102C1110.08 81.4422 1108.98 78.9462 1106.86 77.0262C1104.7 75.1542 1101.92 74.1942 1098.46 74.1942C1095.01 74.1942 1092.22 75.1542 1090.06 77.0262C1087.86 78.8982 1086.7 81.4422 1086.56 84.6102L1093.9 86.0022C1094.19 82.5462 1095.73 80.8182 1098.51 80.8182C1099.66 80.8182 1100.62 81.2022 1101.39 81.8742C1102.11 82.5942 1102.5 83.5062 1102.5 84.6582C1102.5 85.3782 1102.35 86.0502 1102.16 86.6262C1101.97 87.2502 1101.58 87.8742 1101.06 88.4982C1100.48 89.1702 1100.1 89.6502 1099.81 89.9382C1099.52 90.2262 1098.94 90.7542 1098.18 91.4742L1087.09 101.89V107.074H1110.42V100.162ZM1127.74 74.1942C1123.47 74.1942 1120.06 75.7782 1117.47 78.8502C1114.88 81.9222 1113.58 86.0022 1113.58 90.9942C1113.58 96.0342 1114.88 100.114 1117.47 103.186C1120.06 106.258 1123.47 107.794 1127.74 107.794C1131.97 107.794 1135.42 106.258 1138.01 103.186C1140.61 100.114 1141.95 96.0342 1141.95 90.9942C1141.95 86.0022 1140.61 81.9222 1138.01 78.8502C1135.42 75.7782 1131.97 74.1942 1127.74 74.1942ZM1127.74 100.834C1125.82 100.834 1124.33 99.9702 1123.23 98.1942C1122.08 96.4182 1121.55 94.0182 1121.55 90.9942C1121.55 88.0182 1122.08 85.6182 1123.23 83.8422C1124.33 82.0662 1125.82 81.1542 1127.74 81.1542C1129.61 81.1542 1131.1 82.0662 1132.25 83.8422C1133.41 85.6182 1133.98 88.0182 1133.98 90.9942C1133.98 94.0182 1133.41 96.4182 1132.25 98.1942C1131.1 99.9702 1129.61 100.834 1127.74 100.834ZM1168.4 100.162H1156.69L1161.3 95.9382C1163.7 93.6342 1165.42 91.7142 1166.48 90.1302C1167.54 88.5462 1168.06 86.7222 1168.06 84.6102C1168.06 81.4422 1166.96 78.9462 1164.85 77.0262C1162.69 75.1542 1159.9 74.1942 1156.45 74.1942C1152.99 74.1942 1150.21 75.1542 1148.05 77.0262C1145.84 78.8982 1144.69 81.4422 1144.54 84.6102L1151.89 86.0022C1152.18 82.5462 1153.71 80.8182 1156.5 80.8182C1157.65 80.8182 1158.61 81.2022 1159.38 81.8742C1160.1 82.5942 1160.48 83.5062 1160.48 84.6582C1160.48 85.3782 1160.34 86.0502 1160.14 86.6262C1159.95 87.2502 1159.57 87.8742 1159.04 88.4982C1158.46 89.1702 1158.08 89.6502 1157.79 89.9382C1157.5 90.2262 1156.93 90.7542 1156.16 91.4742L1145.07 101.89V107.074H1168.4V100.162ZM1185.43 74.9142H1180.44L1170.07 80.8662V87.9702L1177.75 84.0342V107.074H1185.43V74.9142Z" fill="#C42729"/>
</g>
<defs>
<clipPath id="clip0">
<rect width="1870" height="1094" fill="white"/>
</clipPath>
</defs>
</svg>
