<svg width="195" height="255" viewBox="0 0 195 255" fill="none" xmlns="http://www.w3.org/2000/svg">
<path d="M76.7301 100.714C80.4391 92.0686 83.0626 84.0694 84.6262 76.4041C77.9472 73.2677 73.1095 66.6355 72.4098 58.5744C71.3559 46.3857 80.1189 35.3608 91.9969 34.0508C103.875 32.7407 114.375 41.5776 115.412 53.8253C116.314 64.309 109.968 73.8568 100.598 77.1668C98.8809 86.7049 95.7139 96.5926 91.2071 107.117C89.1448 111.827 87.0316 116.267 84.7491 120.403C102.921 112.405 121.67 103.296 142.242 92.9862C142.191 92.716 142.14 92.4457 142.149 92.1926C141.095 80.0038 149.841 69.038 161.719 67.728C173.597 66.4179 184.097 75.2547 185.151 87.4435C186.204 99.6323 177.442 110.657 165.563 111.967C159.654 112.631 154.085 110.772 149.848 107.189C129.335 117.515 110.646 126.642 92.474 134.639C96.0845 136.829 99.7627 139.229 103.432 141.883C111.195 147.504 117.737 153.348 123.313 159.426C124.576 158.831 125.941 158.33 127.374 158.039C139.092 155.277 150.508 162.716 152.961 174.732C155.43 186.69 147.939 198.655 136.297 201.376C124.639 204.155 113.164 196.698 110.694 184.741C109.73 180.055 110.249 175.348 112.006 171.252L112.023 171.193C107.117 165.692 101.168 160.465 94.1087 155.302C86.8288 150.012 79.9129 145.913 73.0049 142.902C56.3428 149.673 39.6388 155.473 22.0959 160.392C34.4101 168.729 45.2906 178.698 55.0949 188.165C55.3576 188.368 55.6033 188.631 55.9084 188.91C56.5613 188.651 57.2144 188.392 57.8503 188.191C69.3564 184.602 81.2644 191.224 84.5651 202.973C87.8064 214.705 81.137 227.163 69.6902 230.77C58.1841 234.36 46.2166 227.72 42.9752 215.988C41.4349 210.625 42.0734 205.057 44.2714 200.322C44.2121 200.305 44.2291 200.246 44.1698 200.229C30.7217 187.349 16.2902 174.313 -0.35625 166.072C-2.07744 166.471 -3.7986 166.87 -5.50281 167.21C-5.51979 167.269 -5.53665 167.328 -5.61297 167.37L-5.71478 167.277C-23.927 171.173 -43.4613 174.305 -65.4115 176.678L-66.7771 160.438C-47.9384 158.384 -30.8035 155.775 -14.8297 152.513C-3.91888 135.141 1.47449 114.392 5.88412 94.3822C-1.02384 91.3716 -6.1412 84.5951 -6.83237 76.2808C-7.86924 64.033 0.876737 53.0672 12.7548 51.7572C24.6328 50.4471 35.1326 59.284 36.2288 71.5488C37.1395 81.7794 31.0987 91.1595 22.1275 94.648C22.051 95.1372 21.915 95.6092 21.7791 96.0813C18.1596 112.676 13.6575 130.998 5.6972 147.941C23.8842 143.462 40.8171 137.984 57.6317 131.577C64.9434 123.585 71.2049 113.437 76.7301 100.714Z" fill="#C42729"/>
</svg>
