<svg width="187" height="342" viewBox="0 0 187 342" fill="none" xmlns="http://www.w3.org/2000/svg">
<path d="M163.339 288.132C159.093 289.46 155.203 290.308 151.522 290.673C150.368 287.372 147.48 284.769 143.722 284.048C138.038 282.958 132.429 286.553 131.241 292.089C130.053 297.624 133.705 303.003 139.417 304.087C144.306 305.022 149.103 302.494 151.112 298.238C155.682 297.892 160.486 296.88 165.654 295.267C167.969 294.524 170.16 293.744 172.216 292.869C167.578 301.046 162.39 309.441 156.549 318.637C156.425 318.6 156.3 318.563 156.18 318.555C150.497 317.466 144.917 321.056 143.728 326.591C142.54 332.126 146.192 337.505 151.876 338.594C157.559 339.683 163.168 336.088 164.356 330.553C164.953 327.8 164.347 325.084 162.865 322.913C168.711 313.745 173.904 305.379 178.541 297.202C179.398 299.01 180.35 300.861 181.422 302.719C183.692 306.652 186.127 310.02 188.718 312.943C188.377 313.51 188.076 314.129 187.87 314.79C186.006 320.179 188.957 325.922 194.492 327.662C199.998 329.408 205.988 326.458 207.829 321.102C209.697 315.742 206.742 309.97 201.235 308.225C199.077 307.543 196.837 307.559 194.826 308.188L194.798 308.193C192.446 305.613 190.273 302.555 188.184 298.976C186.046 295.288 184.45 291.829 183.366 288.426C187.354 280.901 190.886 273.309 194.045 265.278C197.375 271.488 201.541 277.102 205.523 282.183C205.606 282.317 205.718 282.445 205.834 282.603C205.681 282.898 205.527 283.193 205.403 283.483C203.16 288.733 205.702 294.668 211.071 296.794C216.434 298.892 222.616 296.354 224.864 291.133C227.107 285.884 224.56 279.92 219.196 277.822C216.747 276.835 214.097 276.866 211.763 277.672C211.758 277.643 211.73 277.648 211.725 277.619C206.312 270.654 200.874 263.218 197.798 254.971C198.069 254.179 198.34 253.387 198.582 252.6C198.61 252.595 198.639 252.59 198.662 252.556L198.623 252.504C201.333 244.108 203.747 235.052 205.92 224.821L198.346 223.388C196.472 232.168 194.42 240.118 192.116 247.49C183.418 251.788 173.397 253.323 163.771 254.429C162.687 251.026 159.745 248.285 155.867 247.555C150.155 246.471 144.575 250.061 143.386 255.596C142.198 261.131 145.85 266.51 151.567 267.623C156.337 268.549 161.041 266.158 163.114 262.098C163.348 262.086 163.576 262.045 163.805 262.004C171.786 261.104 180.623 259.872 188.977 256.943C185.994 265.299 182.602 273.014 178.778 280.629C174.666 283.687 169.591 286.146 163.339 288.132Z" fill="#C42729"/>
<path d="M126.479 184.354C107.231 172.067 93.3404 153.131 81.8149 133.927L95.6661 130.664C65.4343 124.97 57.0429 78.7442 48.648 57.6522C75.5992 57.086 114.607 46.0005 134.304 71.9481C133.697 68.5108 132.376 61.3387 131.821 57.9361C161.787 62.7712 206.449 70.5181 212.159 106.246C212.922 103.939 215.179 97.5262 215.977 95.1658C272.438 140.977 213.678 230.27 149.267 196.54L157.933 188.65C147.725 191.425 136.33 190.153 126.479 184.354Z" fill="#C42729"/>
<path d="M48.6656 57.7396L227.918 175.698C243.611 151.852 244.181 118.054 215.977 95.1655C215.144 97.5789 212.94 104.026 212.159 106.246C206.467 70.6054 161.84 62.8055 131.821 57.9358C132.376 61.3384 133.697 68.5105 134.304 71.9478C114.625 46.0878 75.599 57.0858 48.6656 57.7396Z" fill="#DD8C83"/>
<path d="M176.243 266.464C158.786 270.107 140.692 267.11 123.774 262.675L129.729 253.292C109.736 266.612 79.8199 245.372 63.6195 238.172C78.3642 223.147 94.1022 195.666 119.266 199.409C117.05 197.82 112.398 194.535 110.231 192.937C129.608 179.284 158.782 159.236 181.47 176.076C180.638 174.37 178.398 169.557 177.556 167.802C234.094 162.576 250.007 244.52 195.622 260.834L196.155 251.697C191.969 258.818 184.91 264.327 176.243 266.464Z" fill="#C42729"/>
<path d="M63.677 238.212L228.178 206.267C223.928 184.383 205.801 165.194 177.555 167.802C178.407 169.605 180.695 174.409 181.47 176.075C158.839 159.275 129.656 179.274 110.231 192.937C112.398 194.535 117.05 197.82 119.265 199.409C94.1597 195.705 78.3639 223.147 63.677 238.212Z" fill="#DD8C83"/>
</svg>
