<svg width="187" height="301" viewBox="0 0 187 301" fill="none" xmlns="http://www.w3.org/2000/svg">
<path d="M126.479 184.354C107.231 172.067 93.3403 153.131 81.8148 133.927L95.666 130.664C65.4343 124.97 57.0428 78.7442 48.6479 57.6522C75.5991 57.086 114.607 46.0005 134.304 71.9481C133.697 68.5108 132.376 61.3387 131.821 57.9361C161.787 62.7712 206.449 70.5181 212.159 106.246C212.922 103.939 215.179 97.5262 215.977 95.1658C272.438 140.977 213.678 230.27 149.267 196.54L157.933 188.65C147.725 191.425 136.33 190.153 126.479 184.354Z" fill="#C42729"/>
<path d="M48.6655 57.7396L227.918 175.698C243.611 151.852 244.181 118.054 215.977 95.1655C215.144 97.5789 212.94 104.026 212.159 106.246C206.467 70.6054 161.84 62.8055 131.821 57.9358C132.376 61.3384 133.697 68.5105 134.304 71.9478C114.625 46.0878 75.5989 57.0858 48.6655 57.7396Z" fill="#DD8C83"/>
<path d="M176.242 266.464C158.785 270.107 140.692 267.11 123.774 262.675L129.729 253.292C109.736 266.612 79.8199 245.372 63.6195 238.172C78.3642 223.147 94.1022 195.666 119.265 199.409C117.05 197.82 112.398 194.535 110.231 192.937C129.608 179.284 158.782 159.236 181.47 176.076C180.637 174.37 178.398 169.557 177.556 167.802C234.094 162.576 250.007 244.52 195.621 260.834L196.155 251.697C191.969 258.818 184.91 264.327 176.242 266.464Z" fill="#C42729"/>
<path d="M63.677 238.212L228.177 206.267C223.928 184.383 205.8 165.194 177.555 167.802C178.407 169.605 180.695 174.409 181.47 176.075C158.839 159.275 129.656 179.274 110.231 192.937C112.398 194.535 117.05 197.82 119.265 199.409C94.1596 195.705 78.3639 223.147 63.677 238.212Z" fill="#DD8C83"/>
</svg>
