<svg width="156" height="186" viewBox="0 0 156 186" fill="none" xmlns="http://www.w3.org/2000/svg">
<path d="M85.8285 73.6358C83.1167 67.3148 81.1986 61.4663 80.0553 55.8619C84.9386 53.5688 88.4756 48.7198 88.9873 42.826C89.7578 33.9143 83.3508 25.8536 74.6664 24.8958C65.9819 23.938 58.3051 30.3989 57.5471 39.3537C56.8875 47.0187 61.5273 53.9995 68.3778 56.4195C69.6332 63.3932 71.9487 70.6225 75.2438 78.3173C76.7517 81.7611 78.2967 85.0073 79.9655 88.031C66.6794 82.1838 52.9715 75.5236 37.9304 67.9857C37.9675 67.7881 38.0047 67.5905 37.9984 67.4054C38.7689 58.4938 32.3744 50.4763 23.6899 49.5185C15.0054 48.5607 7.32868 55.0216 6.55817 63.9332C5.78766 72.8449 12.1946 80.9056 20.8791 81.8634C25.1996 82.3485 29.2712 80.9898 32.3692 78.3695C47.3668 85.92 61.0315 92.5927 74.3176 98.4399C71.6778 100.041 68.9885 101.796 66.3055 103.736C60.6297 107.846 55.8466 112.119 51.7702 116.562C50.8464 116.127 49.8482 115.761 48.8006 115.548C40.2334 113.529 31.8868 118.968 30.0935 127.753C28.2877 136.496 33.7651 145.244 42.2766 147.233C50.8004 149.265 59.1905 143.814 60.9962 135.071C61.7012 131.645 61.3214 128.203 60.0369 125.209L60.0245 125.166C63.6114 121.143 67.9609 117.322 73.1224 113.547C78.445 109.679 83.5014 106.682 88.5521 104.481C100.734 109.431 112.947 113.672 125.774 117.269C116.77 123.364 108.815 130.653 101.647 137.575C101.455 137.723 101.275 137.915 101.052 138.12C100.575 137.93 100.097 137.74 99.6322 137.594C91.2197 134.969 82.5133 139.811 80.1001 148.401C77.7302 156.979 82.6065 166.087 90.9756 168.724C99.3882 171.349 108.138 166.495 110.508 157.917C111.634 153.995 111.167 149.925 109.56 146.463C109.604 146.451 109.591 146.407 109.635 146.395C119.467 136.978 130.018 127.447 142.189 121.421C143.448 121.713 144.706 122.005 145.952 122.254C145.964 122.297 145.977 122.34 146.033 122.371L146.107 122.302C159.423 125.151 173.705 127.441 189.754 129.176L190.752 117.302C176.978 115.8 164.45 113.893 152.771 111.508C144.794 98.8065 140.851 83.6362 137.627 69.0064C142.677 66.8052 146.419 61.8506 146.924 55.7718C147.682 46.817 141.288 38.7994 132.603 37.8416C123.919 36.8838 116.242 43.3448 115.441 52.312C114.775 59.792 119.191 66.6501 125.751 69.2007C125.806 69.5584 125.906 69.9035 126.005 70.2486C128.652 82.3817 131.943 95.7774 137.763 108.165C124.466 104.891 112.086 100.885 99.7921 96.2006C94.4462 90.3574 89.8682 82.9384 85.8285 73.6358Z" fill="#C42729"/>
</svg>
