<svg width="139" height="207" viewBox="0 0 139 207" fill="none" xmlns="http://www.w3.org/2000/svg">
<path d="M43.5254 138.63C47.7818 137.405 51.4792 135.978 54.7393 134.263C53.8929 130.896 54.8694 127.158 57.5995 124.502C61.7287 120.486 68.358 120.394 72.3739 124.33C76.3899 128.266 76.2964 134.723 72.1407 138.75C68.5878 142.202 63.2169 142.735 59.2191 140.308C55.2307 142.525 50.6829 144.317 45.5039 145.811C43.1725 146.463 40.9246 147.016 38.7371 147.417C47.0656 151.653 55.9714 155.768 65.858 160.19C65.9414 160.091 66.0248 159.992 66.1196 159.92C70.2488 155.904 76.8516 155.823 80.8675 159.759C84.8835 163.696 84.79 170.153 80.6608 174.168C76.5316 178.183 69.9023 178.276 65.8863 174.34C63.8841 172.385 62.9026 169.803 62.9467 167.192C53.0716 162.797 44.1772 158.708 35.8486 154.472C36.1261 156.439 36.3468 158.494 36.4726 160.622C36.7362 165.124 36.5545 169.248 35.9999 173.09C36.5931 173.373 37.1827 173.72 37.7155 174.156C42.2129 177.601 42.9019 183.976 39.2523 188.449C35.6292 192.911 29.0356 193.747 24.5762 190.317C20.0902 186.899 19.3897 180.497 23.0127 176.035C24.4339 174.288 26.3045 173.075 28.3206 172.495L28.3472 172.483C28.8912 169.057 29.0243 165.333 28.8034 161.224C28.5631 156.996 27.9972 153.255 27.0368 149.842C19.6052 145.79 12.5149 141.434 5.49564 136.51C6.12505 143.479 5.73239 150.412 5.20191 156.804C5.20603 156.96 5.18357 157.128 5.17256 157.322C5.46161 157.483 5.75068 157.643 6.01317 157.815C10.7493 160.937 11.8827 167.247 8.58305 171.95C5.27197 176.626 -1.25615 177.908 -5.98086 174.813C-10.717 171.692 -11.8619 165.354 -8.55078 160.678C-7.05445 158.519 -4.83479 157.093 -2.45396 156.483C-2.46541 156.457 -2.43884 156.445 -2.45029 156.418C-1.76114 147.683 -1.30838 138.542 -3.263 130.023C-3.92126 129.515 -4.5795 129.007 -5.21119 128.488C-5.23776 128.499 -5.26431 128.511 -5.30233 128.496L-5.2987 128.431C-12.1443 122.958 -19.1053 116.776 -26.5092 109.487L-20.9959 104.151C-14.6351 110.401 -8.57971 115.865 -2.63196 120.712C6.95084 119.511 16.1211 115.293 24.7288 110.938C23.7684 107.525 24.7142 103.642 27.5391 100.913C31.6949 96.8864 38.2976 96.8051 42.3136 100.741C46.3295 104.678 46.2361 111.135 42.0918 115.188C38.6337 118.568 33.4149 119.162 29.4707 116.934C29.2696 117.052 29.0571 117.143 28.8445 117.234C21.717 120.86 13.697 124.678 5.14949 126.827C12.1999 132.117 19.2412 136.652 26.5857 140.868C31.6771 141.151 37.2414 140.408 43.5254 138.63Z" fill="#C42729"/>
<path d="M12.1603 52.433C26.3702 43.3718 42.9231 39.2313 58.8408 36.6272L56.1864 46.0308C69.9959 28.5589 101.753 34.3427 117.79 34.1381C109.008 51.0578 102.718 77.9919 79.8114 84.0789C82.1671 84.5194 87.1007 85.4049 89.4168 85.8699C76.2342 103.381 56.2487 129.35 31.9668 124.397C33.1512 125.422 36.397 128.355 37.6027 129.414C-10.19 153.666 -46.1179 95.8036 -3.18659 63.7226L-1.18916 70.999C0.535444 63.9808 5.19389 57.1867 12.1603 52.433Z" fill="#C42729"/>
<path d="M117.73 34.1281L-16.8136 117.669C-7.21861 133.122 13.7268 141.527 37.6034 129.414C36.3763 128.32 33.091 125.412 31.9674 124.397C56.1884 129.34 76.1953 103.405 89.4175 85.8696C87.1013 85.4047 82.1677 84.5191 79.812 84.0787C102.657 77.9819 109.009 51.0576 117.73 34.1281Z" fill="#DD8C83"/>
</svg>
