<svg width="56" height="109" viewBox="0 0 56 109" fill="none" xmlns="http://www.w3.org/2000/svg">
<path d="M0 0H56V92H41.5L28 109L14 92H0V0Z" fill="black"/>
<path d="M39.7288 58.6641H20.5L11 63.5V38.7511C11 36.1272 13.3584 34 16.2675 34H39.7324C42.6415 34 45 36.1272 45 38.7511V53.9129C44.9964 56.5368 42.6379 58.6641 39.7288 58.6641Z" fill="white"/>
<path d="M22.8134 47.2238C22.8134 48.5701 21.6034 49.6614 20.1108 49.6614C18.6182 49.6614 17.4082 48.5701 17.4082 47.2238C17.4082 45.8775 18.6182 44.7861 20.1108 44.7861C21.6034 44.7861 22.8134 45.8775 22.8134 47.2238Z" fill="black"/>
<path d="M30.7021 47.2238C30.7021 48.5701 29.4921 49.6614 27.9995 49.6614C26.5069 49.6614 25.2969 48.5701 25.2969 47.2238C25.2969 45.8775 26.5069 44.7861 27.9995 44.7861C29.4921 44.7861 30.7021 45.8775 30.7021 47.2238Z" fill="black"/>
<path d="M38.5868 47.2238C38.5868 48.5701 37.3768 49.6614 35.8842 49.6614C34.3916 49.6614 33.1816 48.5701 33.1816 47.2238C33.1816 45.8775 34.3916 44.7861 35.8842 44.7861C37.3768 44.7861 38.5868 45.8775 38.5868 47.2238Z" fill="black"/>
</svg>
