<svg width="56" height="109" viewBox="0 0 56 109" fill="none" xmlns="http://www.w3.org/2000/svg">
<path d="M0 0H56V92H41.5L28 109L14 92H0V0Z" fill="black"/>
<path d="M47.2889 45.1444C42.4808 39.3357 35.4509 36 28 36C20.5562 36 13.5263 39.3321 8.71113 45.1444L8 46.0036L8.71113 46.8628C13.5263 52.6643 20.5562 56 28 56C35.4509 56 42.4808 52.6679 47.2889 46.8628L48 46.0036L47.2889 45.1444Z" fill="white"/>
<path d="M34.9233 46.0002C34.9233 49.8249 31.8215 52.9233 28.0002 52.9233C24.1756 52.9233 21.0771 49.8249 21.0771 46.0002C21.0771 42.1756 24.179 39.0771 28.0002 39.0771C31.8215 39.0771 34.9233 42.1756 34.9233 46.0002Z" fill="black"/>
</svg>
