<svg width="56" height="109" viewBox="0 0 56 109" fill="none" xmlns="http://www.w3.org/2000/svg">
<path d="M0 0H56V92H41.5L28 109L14 92H0V0Z" fill="black"/>
<path d="M40.0992 67.1661L22.4795 67.5854L20.9076 65.2563L20.9191 65.2487C20.6552 64.9208 20.4143 64.574 20.2077 64.2118L18.7812 62.2868L10.6196 51.2895C9.59078 49.9057 9.86996 47.9388 11.2583 46.9134C11.6178 46.6428 12.0155 46.4598 12.4324 46.3645C13.6142 46.0938 14.8878 46.5017 15.6565 47.5347L17.5114 50.2222L17.8136 50.6071L18.9571 52.1281V29.8742C18.9571 28.2884 20.246 27 21.8332 27C23.4203 27 24.7169 28.2884 24.7169 29.8742V42.1981C24.7169 40.6047 26.0057 39.3239 27.5929 39.3239C29.1839 39.3239 30.4766 40.6085 30.4766 42.1981V43.2806C30.4766 41.6949 31.7655 40.4065 33.3527 40.4065C34.9399 40.4065 36.2364 41.6949 36.2364 43.2806V45.0798C36.2364 43.5017 37.5253 42.2095 39.1163 42.2095C39.9194 42.2095 40.6385 42.5373 41.1548 43.0481C41.6711 43.578 42 44.287 42 45.0798L40.0992 67.1661Z" fill="white"/>
</svg>
