<svg width="26" height="32" viewBox="0 0 26 32" fill="none" xmlns="http://www.w3.org/2000/svg">
<path d="M25 13.2727C25 22.8182 13 31 13 31C13 31 1 22.8182 1 13.2727C1 10.0178 2.26428 6.89618 4.51472 4.5946C6.76516 2.29302 9.8174 1 13 1C16.1826 1 19.2348 2.29302 21.4853 4.5946C23.7357 6.89618 25 10.0178 25 13.2727Z" stroke="#1BB36C" stroke-width="2" stroke-linecap="round" stroke-linejoin="round"/>
<path d="M12.998 17.3635C15.2072 17.3635 16.998 15.5319 16.998 13.2725C16.998 11.0132 15.2072 9.18164 12.998 9.18164C10.7889 9.18164 8.99805 11.0132 8.99805 13.2725C8.99805 15.5319 10.7889 17.3635 12.998 17.3635Z" stroke="#1BB36C" stroke-width="2" stroke-linecap="round" stroke-linejoin="round"/>
</svg>
