<svg width="56" height="109" viewBox="0 0 56 109" fill="none" xmlns="http://www.w3.org/2000/svg">
<path d="M0 0H56V92H41.5L28 109L14 92H0V0Z" fill="black"/>
<path d="M47 51.1295C47 51.1295 44.5923 52.4197 43.8327 52.8016C36.2359 56.7407 31.501 61.552 29.8851 68.16H26.131C24.5031 61.556 19.7802 56.7407 12.1713 52.8137C11.4116 52.4197 9 51.1415 9 51.1415C9 51.1415 10.9132 50.1889 12.1713 50.1889C18.8999 50.1407 23.8398 56.9055 26.762 62.8784V52.2188C26.356 52.2188 25.9541 52.1826 25.5602 52.1384H25.5562C25.1301 52.0781 24.7281 52.0097 24.3342 51.8972C23.9403 51.7927 23.5263 51.6721 23.1445 51.5154C21.6975 50.9326 20.3711 49.9759 19.2979 48.6897C17.2359 46.1614 16.649 42.9298 17.4489 39.9915C19.1009 39.8026 20.773 40.0358 22.3044 40.6668C22.9676 40.9522 23.5947 41.2939 24.1695 41.7119C24.3222 41.1652 24.5031 40.6347 24.7482 40.1242C25.4959 38.4722 26.7178 37.0614 28.2372 36.0605C29.5756 37.0011 30.6729 38.2592 31.3924 39.7303V39.7423V39.7544C31.6899 40.3332 31.9149 40.916 32.0797 41.5591C32.5983 41.2255 33.1248 40.9281 33.6835 40.703C35.235 40.0518 36.9353 39.8026 38.6074 39.9915C39.3992 42.9258 38.8123 46.1614 36.7423 48.6897C35.6772 49.988 34.3307 50.9366 32.8595 51.5274C32.5661 51.648 32.2647 51.7606 31.9552 51.8329C31.8105 51.8932 31.6577 51.9254 31.505 51.9615C31.3764 51.9897 31.2558 52.0138 31.1271 52.0419C30.902 52.0861 30.677 52.1223 30.4479 52.1464C30.054 52.1946 29.6439 52.2268 29.25 52.2268V62.8865C32.1682 56.9015 37.1041 50.1487 43.8407 50.1849C45.0747 50.1889 47 51.1295 47 51.1295Z" fill="white"/>
<path d="M23.9848 33.363H21.4163C17.7144 29.5767 25.1182 25.7904 21.4163 22H23.9848C27.6867 25.7904 20.2828 29.5767 23.9848 33.363Z" fill="white"/>
<path d="M30.0746 33.363H27.5062C23.8042 29.5767 31.2081 25.7904 27.5062 22H30.0746C33.7765 25.7904 26.3767 29.5767 30.0746 33.363Z" fill="white"/>
<path d="M36.1675 33.363H33.595C29.8931 29.5767 37.2969 25.7904 33.595 22H36.1635C39.8654 25.7904 32.4656 29.5767 36.1675 33.363Z" fill="white"/>
</svg>
