<svg width="330" height="250" viewBox="0 0 330 250" fill="none" xmlns="http://www.w3.org/2000/svg"><g clip-path="url(#clip0)"><path fill="#fff" d="M0 0h330v250H0z"/><path fill="#F7C4BA" d="M0-3h330v255.2H0z"/><path d="M268.8 173.2c-69-15.9-138 22.3-207.1 6.7V75.3c69 15.6 138-22.6 207.1-6.7v104.6z" fill="#E9C3BA"/><path d="M61.7 180c-4.2-1-8.3-2.2-12.5-3.5v-4c4.2 1.4 8.3 2.5 12.5 3.4v4zM61.7 165.6c-4.2-1-8.3-2.1-12.5-3.5v-4c4.2 1.4 8.3 2.5 12.5 3.5v4zM61.7 151.2c-4.2-1-8.3-2.1-12.5-3.5v-4a145 145 0 0012.5 3.5v4zM61.7 136.8c-4.2-1-8.3-2-12.5-3.4v-4a145 145 0 0012.5 3.4v4zM61.7 122.5c-4.2-1-8.3-2.1-12.5-3.5v-4a145 145 0 0012.5 3.5v4zM61.7 108c-4.2-.9-8.3-2-12.5-3.4v-4c4.2 1.4 8.3 2.6 12.5 3.5v4zM61.7 93.7c-4.2-1-8.3-2-12.5-3.4v-4c4.2 1.4 8.3 2.5 12.5 3.4v4zM61.7 79.3c-4.2-.9-8.3-2-12.5-3.4v-4c4.2 1.4 8.3 2.5 12.5 3.5v4zM280.8 176.5c-4.2-1.4-8.4-2.5-12.5-3.4v-4c4.1 1 8.3 2 12.5 3.4v4zM280.8 162.1c-4.2-1.3-8.4-2.5-12.5-3.4v-4c4.1 1 8.3 2 12.5 3.4v4zM280.8 147.8c-4.2-1.4-8.4-2.5-12.5-3.5v-4c4.1 1 8.3 2.1 12.5 3.5v4zM280.8 133.4c-4.2-1.4-8.4-2.5-12.5-3.5v-4c4.1 1 8.3 2.1 12.5 3.5v4zM280.8 119c-4.2-1.3-8.4-2.5-12.5-3.4v-4c4.1 1 8.3 2 12.5 3.4v4zM280.8 104.6c-4.2-1.3-8.4-2.5-12.5-3.4v-4c4.1 1 8.3 2.1 12.5 3.5v4zM280.8 90.3c-4.2-1.4-8.4-2.5-12.5-3.5v-4c4.1 1 8.3 2.1 12.5 3.5v4zM280.8 75.9c-4.2-1.4-8.4-2.5-12.5-3.4v-4c4.1 1 8.3 2 12.5 3.4v4zM106 101.3a748.2 748.2 0 0030.7 27.2 994 994 0 01-30.8 32.8A532 532 0 0175.1 130a480.2 480.2 0 0030.8-28.7z" fill="#C42729"/><path d="M104.6 124.6a569 569 0 007 6.4l-7 7.1-7-6.7a607 607 0 007-6.8z" fill="#DD8C83"/><path d="M165.2 94.2c10.3 8.3 20.6 16.6 30.8 25.3-10.2 11.3-20.5 23-30.8 34.6-10.2-8.3-20.5-16.6-30.8-25.3 10.3-11.3 20.6-23 30.8-34.6z" fill="#C42729"/><path d="M224.6 87c10.2 9.7 20.5 20 30.8 31.4a467.1 467.1 0 00-30.8 28.6 735 735 0 00-30.8-27.2 994.9 994.9 0 0130.8-32.7z" fill="#C42729"/><path d="M223 90.2c9.7 8.5 19.5 17.6 29.3 27.7a446.4 446.4 0 00-29.3 25.8 686 686 0 00-29-23.7 2966 2966 0 00-28.8 30.7c-9.6-7.2-19.3-14.4-28.9-22-9.6 10.1-19.3 19.9-28.9 29a495.6 495.6 0 01-29.3-27.5c9.8-7.9 19.5-16.6 29.3-26 9.6 8.5 19.3 16.3 28.9 23.7 9.6-10 19.3-20.4 28.9-30.7a1972 1972 0 0128.9 22c9.6-10.1 19.2-19.9 28.9-29zm0-13.7l-7 6.8a967 967 0 00-22 22.1c-7.2-5.7-14.5-11.2-21.8-16.6l-7-5.3-7 7.6a2448 2448 0 01-21.9 23.2 711.3 711.3 0 01-28.9-23.7l-7 6.6A390.2 390.2 0 0163 127.7l8 8.8c9.8 10.5 19.6 20 29.4 28.8l7 6.2 7-6.8c7.3-7.1 14.6-14.6 21.9-22.2 7.3 5.7 14.6 11.2 21.9 16.7l7 5.2 7-7.5 21.9-23.2a713 713 0 0121.8 17.7l7 6 7-6.6a384.4 384.4 0 0137.5-30.5A428.6 428.6 0 00230 82.7l-7-6.2z" fill="#DD8C83"/><path d="M165.2 117.4l7 5.6-7 8-7-5.7 7-8zM224 110.3l7 6.6a628 628 0 00-7 7l-7-6.5 7-7.1z" fill="#DD8C83"/><path d="M256.8 159.3c-61-8.8-122 19.8-183.1 11.2V89.2c61 8.6 122-20 183.1-11.2v81.3zm12-90.7c-69-15.9-138 22.3-207.1 6.7V180c69 15.6 138-22.6 207.1-6.7V68.6z" fill="#F0D6CE"/><path d="M268.8 68.6c-69-15.8-138 22.3-207.1 6.8V180c69 15.6 138-22.6 207.1-6.8V68.6zM73.6 89.2c61.1 8.6 122.2-20 183.2-11.2v81.3c-61-8.8-122 19.8-183.2 11.2V89.2z" fill="#CD4C2E"/><path d="M268.8 173.2v-.4l-5.6-8.8 5.6-2v-1.3l-4-3 4-1.4V155l-4-3 4-1.4v-1.3l-4-3.1c1.3-.5 2.6-1 4-1.3v-1.4l-4-3 4-1.4v-1.4l-4-3 4-1.4V132l-4-3.1 4-1.4v-1.3l-4-3.1c1.3-.5 2.6-1 4-1.3v-1.4l-4-3 4-1.4v-1.4l-4-3 4-1.4v-1.4l-4-3 4-1.3V103l-4-3 4-1.4v-1.4l-4-3 4-1.4v-1.3l-4-3.1c1.3-.5 2.6-1 4-1.3v-1.4l-4-3c1.3-.6 2.6-1 4-1.4v-1.4a282 282 0 00-5.6-4.2 398 398 0 015.6-6.5v-.6l-4.5-1c-2.7 1.3-5.5 2.7-8.2 4.2l-6.3-6-6 4.6-6.2-5.4-6 5-6.1-5-6 5.4-6.2-4.8-6 5.8-6.1-4.6-6 6-6.1-4.4-6.1 6-6.1-4.2-6 6.2-6.1-4.2-6.1 6.1-6-4.2-6.2 6.1-6-4.3-6.1 6-6-4.4-6.2 5.8-6-4.6-6 5.5c-2.1-1.6-4.2-3.2-6.2-5l-6 5.3-6.1-5.2-6 4.8-6.2-5.6-6.2 4.5c-2.8-2.2-5.5-4.6-8.3-7l-3.4-.7v2.1l4.6 7.2-4.6 1.5v2.5l3 2.3-3 1v2.5l3 2.3-3 1v2.5l3 2.2-3 1v2.6l3 2.2-3 1v2.5l3 2.3-3 1v2.5l3 2.3-3 1v2.5l3 2.2-3 1v2.6l3 2.2-3 1v2.6l3 2.2-3 1v2.5l3 2.3-3 1v2.5l3 2.2-3 1v2.5l3 2.3-3 1v2.5l3 2.3-3 1v2.5l3 2.2-3 1v2.6l4.6 3.4-4.6 5.2v1.9l4 .8 7.3-4 6.7 6 6-4.6 6.1 5.5 6.1-5.1 6.1 5.1 6-5.4 6.2 4.8 6-5.7 6.1 4.5 6-5.9 6.2 4.4 6-6.1 6.1 4.2 6.1-6.1 6 4.2 6.1-6.2 6.1 4.2 6-6c2.1 1.3 4.1 2.8 6.2 4.2l6-6 6 4.4 6.2-5.8c2 1.5 4 3 6 4.7 2-2 4.1-3.8 6.1-5.6l6.1 4.9 6-5.3 6.2 5.3 6-5 6 5.8 6.4-4.6 7.8 6.6 4.8 1zm-195.7-3l-1.3.8-1.6-1.1 3.4-1.4v-2l-3.4-2.4 3.4-1.3v-2l-3.4-2.5 3.4-1.3v-2l-3.4-2.4 3.4-1.4v-2l-3.4-2.4 3.4-1.3v-2l-3.4-2.4 3.4-1.4v-2l-3.4-2.4 3.4-1.3v-2l-3.4-2.5 3.4-1.3v-2l-3.4-2.4 3.4-1.3v-2l-3.4-2.5 3.4-1.3v-2l-3.4-2.5 3.4-1.3v-2l-3.4-2.4 3.4-1.4v-2l-3.4-2.4 3.4-1.4v-2L70.2 95l3.4-1.3v-2L70.2 89l1.9-.7 1.5 1.3v-.4h.6c1.8-1.2 3.6-2.5 5.3-3.9l5.4 5 1.5.1 5.3-4.3L97 91h1.5l5.3-4.6c1.8 1.4 3.6 3 5.4 4.3h1.5l5.3-5 5.3 4.2 1.5-.2a462 462 0 005.3-5.1l5.4 4 1.4-.3 5.4-5.3 5.3 3.8 1.5-.2 5.3-5.4 5.4 3.7 1.4-.2 5.4-5.4a545 545 0 015.3 3.7l1.5-.3 5.3-5.4 5.4 3.7 1.5-.2 5.3-5.3 5.3 3.8 1.5-.2 5.4-5.2 5.3 4 1.5-.2 5.3-5 5.4 4.2h1.4l5.4-4.8 5.3 4.4h1.5l5.3-4.4a421 421 0 015.4 4.8h1.4a259 259 0 015.4-4l5.4 5.1 1.2.2 1-.5 1.8 1.3-2.3 1V83l2.3 1.7c-.8.2-1.6.6-2.3.9v3.2l2.3 1.6-2.3 1v3.1l2.3 1.7-2.3.9v3.2l2.3 1.6-2.3 1v3.2l2.3 1.6-2.3 1v3.1l2.3 1.7-2.3.9v3.2l2.3 1.6-2.3 1v3.2l2.3 1.6-2.3 1v3.1l2.3 1.7-2.3 1v3l2.3 1.8-2.3.9v3.2l2.3 1.6-2.3 1v3.2l2.3 1.6-2.3 1v3.1l2.3 1.7-2.3 1v3.1l2.3 1.7-1.8.7a65 65 0 00-1.3-1l-.6-.1-5.6 4.1a489 489 0 00-5.7-5.3h-.8l-5.7 4.5-5.7-4.9h-.8l-5.7 5-5.6-4.6h-.9l-5.6 5.2c-1.9-1.5-3.8-3-5.7-4.3h-.8l-5.7 5.5-5.6-4.2-.9.1a1557 1557 0 00-5.6 5.6l-5.7-4-.8.2-5.7 5.7-5.6-4-.9.2-5.6 5.7-5.7-3.9-.8.1-5.7 5.8-5.7-4-.8.1a1579 1579 0 01-5.7 5.7l-5.6-4h-.9l-5.6 5.6-5.7-4.3-.8.1a766 766 0 01-5.7 5.3l-5.7-4.4h-.8l-5.7 5-5.6-4.7h-.9l-5.6 4.7-5.7-5-.8-.1-5.8 4.4-6.3-6z" fill="#DD8C83"/><path d="M61.1 75.2c4.3 1 8.5 1.7 12.7 2.3v104.6c-4.2-.6-8.4-1.3-12.7-2.3V75.2zM255.4 66.2c4.5.6 9 1.4 13.4 2.4v104.6c-4.5-1-9-1.8-13.4-2.4V66.2z" fill="#C42729"/></g><defs><clipPath id="clip0"><path fill="#fff" d="M0 0h330v250H0z"/></clipPath></defs></svg>