<svg width="330" height="250" viewBox="0 0 330 250" fill="none" xmlns="http://www.w3.org/2000/svg"><g clip-path="url(#clip0)"><path fill="#fff" d="M0 0h330v250H0z"/><path fill="#BFBFBF" d="M0-6h330v256H0z"/><path d="M184.6 118.5a9.2 9.2 0 00-11-6.3 9.4 9.4 0 00-9.2-8.5c-5 0-9 4-9.2 9.1a9.2 9.2 0 00-10.8 6.6c-1.4 4.9 1 10 5.5 11.7a9.8 9.8 0 002.8 12.5A9 9 0 00165 142a9 9 0 0012.3 1.2c3.9-3 4.9-8.6 2.3-12.8 4.2-2 6.4-7 5-11.8zm-20 12.6c-3.4 0-6-2.8-6-6.2 0-3.4 2.6-6.2 6-6.2 3.2 0 6 2.8 6 6.2 0 3.4-2.8 6.2-6 6.2z" fill="#C42729"/><path d="M170.5 124.9c0 3.4-2.7 6.2-6 6.2s-6-2.8-6-6.2c0-3.5 2.7-6.2 6-6.2s6 2.8 6 6.2z" fill="#DC9A95"/><path d="M182.2 75a42 42 0 00-5-18.3l-2.8 2.7c3.3-8-6.2-17.1-9.9-22.4-4.3 6.3-12.9 13.7-9.9 22.4l-2.9-2.7c-3.4 7.8-8.5 19.5-1 26.4l-3.2-.8c2 20.4 32 20.4 34 0l-3.1.8c2.2-2 3.6-4.9 3.8-8z" fill="#C42729"/><path d="M164.5 37v60.6c-8 0-16-5.1-17-15.3l3.2.8c-7.5-6.9-2.4-18.6 1-26.4l3 2.7c-3-8.6 5.5-16.1 9.8-22.4z" fill="#DD8C83"/><path d="M111.8 71c-.3-2.7-.4-5.1-.2-7.4 2-.3 4-1.8 4.8-4 1.2-3.3-.3-7-3.5-8.4a6.1 6.1 0 00-8 3.7c-1.2 2.8-.2 6 2.2 7.6a40.5 40.5 0 001 13.4c-4.5-3.7-9-7.8-13.8-12.3v-.2c1.3-3.3-.2-7-3.4-8.4a6.1 6.1 0 00-8 3.6c-1.3 3.3.2 7.1 3.4 8.4a6 6 0 004.8 0c4.8 4.5 9.3 8.5 13.7 12.2a46.6 46.6 0 00-10.5 4.4l-1-.7a6 6 0 00-8.5 2.6c-1.6 3.2-.5 7.1 2.5 8.8a6 6 0 008.4-2.6c.7-1.2 1-2.6.7-3.9a32.7 32.7 0 0113.1-4.7c4 3.2 8.3 6.2 12.7 9-4 1.3-7.9 3.2-11.3 5l-.3.2a6 6 0 00-9 1.6c-2 3-1 7 1.8 9a6 6 0 008.6-2c.9-1.4 1.1-3 .9-4.5a54 54 0 0115-6l1.4.7v.1h.1c4.7 2.5 9.9 5 15.8 7.4l1.7-4.4c-5-2.1-9.6-4.2-13.8-6.4-1.6-5.7-1.5-12-1.1-17.9a6.2 6.2 0 005-4c1.2-3.3-.3-7-3.5-8.4a6.2 6.2 0 00-8 3.6c-1.2 2.8-.2 6 2 7.6v.4a72 72 0 00.3 15.8c-4.7-2.7-9-5.6-13.1-8.7a31 31 0 01-2.9-10.2zM218.6 71c.3-2.7.4-5.1.2-7.4-2-.3-4-1.8-4.8-4-1.2-3.3.3-7 3.5-8.4 3.2-1.3 6.8.3 8 3.7 1.2 2.8.2 6-2.2 7.6a40.6 40.6 0 01-1 13.4c4.5-3.7 9-7.8 13.8-12.3v-.2c-1.3-3.3.2-7 3.4-8.4 3.2-1.3 6.8.3 8 3.6 1.3 3.3-.2 7.1-3.4 8.4a6 6 0 01-4.7 0c-4.9 4.5-9.3 8.5-13.7 12.2a46.5 46.5 0 0110.5 4.4l1-.7a6 6 0 018.4 2.6c1.7 3.2.5 7.1-2.5 8.8a6 6 0 01-8.4-2.6 6.6 6.6 0 01-.7-3.9 32.7 32.7 0 00-13-4.7 137 137 0 01-12.8 9 72 72 0 0111.4 5l.3.2.4-.4a6 6 0 018.6 2c1.9 3 1 7-1.9 9a6 6 0 01-8.6-2c-.8-1.4-1-3-.9-4.5a54 54 0 00-15-6l-1.4.7v.1c-4.8 2.5-10 5-15.8 7.4l-1.7-4.4c5-2.1 9.6-4.2 13.8-6.4 1.6-5.7 1.4-12 1-17.9a6.2 6.2 0 01-5-4c-1.2-3.3.4-7 3.6-8.4 3.2-1.3 6.8.3 8 3.6 1.1 2.8.2 6-2 7.6v.4a71 71 0 01-.3 15.8c4.7-2.7 9-5.6 13-8.7a32 32 0 002.9-10.2z" fill="#C42729"/><path d="M148.2 175.8c0 6.5 2.2 12.7 5 18.4l2.8-2.8c-3.3 8 6.2 17.2 9.9 22.4 4.3-6.2 12.9-13.7 9.8-22.4l3 2.8c3.4-7.8 8.5-19.6 1-26.5l3.2.8c-2-20.4-32-20.4-34 0l3.1-.8c-2.2 2-3.7 4.9-3.8 8.1z" fill="#DD8C83"/><path d="M165.9 213.8v-60.6c8 0 16 5.1 17 15.3l-3.2-.8c7.5 6.9 2.5 18.6-1 26.5l-3-2.8c3 8.7-5.5 16.2-9.8 22.4zM218.6 179.8c.3 2.7.4 5.1.2 7.4a6.6 6.6 0 00-1.3 12.4 6.1 6.1 0 008-3.6c1.2-2.9.2-6-2.2-7.7a40.6 40.6 0 00-1-13.3c4.5 3.6 9 7.7 13.8 12.2v.2c-1.3 3.3.2 7 3.4 8.4a6.1 6.1 0 008-3.6c1.3-3.3-.2-7-3.4-8.4a6 6 0 00-4.7 0c-4.9-4.5-9.3-8.5-13.7-12.2a46.8 46.8 0 0010.5-4.4l1 .7a6 6 0 008.4-2.6c1.7-3.1.5-7-2.5-8.8a6 6 0 00-8.4 2.6 6.6 6.6 0 00-.7 3.9 32.8 32.8 0 01-13 4.7 137 137 0 00-12.8-9c4-1.2 7.9-3.2 11.4-5l.3-.1.4.3a6 6 0 008.6-2c1.9-3 1-7-1.9-8.9a6 6 0 00-8.6 2c-.8 1.3-1 3-.9 4.4a54 54 0 01-15 6l-1.4-.7c-4.8-2.6-10-5-15.8-7.5l-1.7 4.5c5 2 9.6 4.1 13.8 6.3 1.6 5.7 1.4 12 1 17.9a6.2 6.2 0 00-5 4c-1.2 3.3.4 7 3.6 8.4a6.2 6.2 0 008-3.6c1.1-2.8.2-5.9-2-7.6v-.4a71 71 0 00-.3-15.8c4.7 2.8 9 5.6 13 8.8a32 32 0 012.9 10zM111.8 179.8c-.3 2.7-.4 5.1-.2 7.4a6.6 6.6 0 011.3 12.4 6.1 6.1 0 01-8-3.6c-1.2-2.9-.2-6 2.2-7.7a40.5 40.5 0 011-13.3c-4.5 3.6-9 7.7-13.8 12.2v.2c1.3 3.3-.2 7-3.4 8.4a6.1 6.1 0 01-8-3.6c-1.3-3.3.2-7 3.4-8.4a6 6 0 014.8 0c4.8-4.5 9.3-8.5 13.7-12.2a47 47 0 01-10.5-4.4l-1 .7a6 6 0 01-8.5-2.6c-1.6-3.1-.5-7 2.5-8.8a6 6 0 018.4 2.6c.7 1.2 1 2.6.7 3.9a32.8 32.8 0 0013.1 4.7c4-3.2 8.3-6.1 12.7-9-4-1.2-7.9-3.2-11.3-5l-.3-.1c-.2 0-.3.2-.5.3a6 6 0 01-8.6-2c-1.8-3-1-7 2-8.9a6 6 0 018.5 2c.9 1.3 1.1 3 .9 4.4a54 54 0 0015 6l1.4-.7h.1c4.7-2.6 9.9-5 15.8-7.5l1.7 4.5c-5 2-9.6 4.1-13.8 6.3-1.6 5.7-1.5 12-1.1 17.9 2.2.3 4.1 1.7 5 4 1.2 3.3-.3 7-3.5 8.4a6.2 6.2 0 01-8-3.6c-1.2-2.8-.2-5.9 2-7.6v-.4a72 72 0 01.3-15.8c-4.7 2.8-9 5.6-13.1 8.8a31 31 0 00-2.9 10z" fill="#C42729"/><path d="M87.2 115c9.4 0 14 5.9 14 10.4 0 4.6-4.6 10.4-14 10.4-9.5 0-20.2-10.4-20.2-10.4S77.7 115 87.2 115zM243.8 115c-9.5 0-14.1 5.9-14.1 10.4 0 4.6 4.6 10.4 14 10.4 9.5 0 20.2-10.4 20.2-10.4S253.2 115 243.8 115z" fill="#DD8C83"/></g><defs><clipPath id="clip0"><path fill="#fff" d="M0 0h330v250H0z"/></clipPath></defs></svg>