<svg width="330" height="250" viewBox="0 0 330 250" fill="none" xmlns="http://www.w3.org/2000/svg">
<rect width="330" height="250" fill="white"/>
<mask id="mask0" mask-type="alpha" maskUnits="userSpaceOnUse" x="0" y="0" width="330" height="250">
<rect width="330" height="249.757" fill="#C42729"/>
</mask>
<g mask="url(#mask0)">
<g clip-path="url(#clip0)">
<path d="M237.754 31.6425L236.18 32.0732L237.706 31.6094H237.73L237.754 31.6425Z" fill="#F19B96"/>
<path d="M347.575 88.8303V175.275L309.269 155.793L90.0082 44.1004L3.42383 0H173.553L235.289 31.819L235.914 32.1503L236.166 32.073H236.178L307.479 68.4533L347.575 88.8303Z" fill="#1BB16B"/>
<path d="M347.576 88.83L307.48 68.4531L236.18 32.0728L309.271 69.2925L347.576 88.83Z" fill="#F1F0EF"/>
<path d="M237.754 31.6425L236.18 32.0732L237.706 31.6094H237.73L237.754 31.6425Z" fill="#F1F0EF"/>
<path d="M90.0089 44.1004V130.037L-17.1582 75.4555V0H3.42452L90.0089 44.1004Z" fill="#F7C4BA"/>
<path d="M330.632 252.873H160.095L119.17 232.01V145.201L205.142 188.97L330.632 252.873Z" fill="#B2D793"/>
<path d="M160.096 252.873H-15.5241L-17.1582 252.056V162.596L119.171 232.01L160.096 252.873Z" fill="#E52226"/>
<path d="M347.575 0V1.08235L347.19 0.85042L309.269 11.5193L238.101 31.5097L237.728 31.6091H237.704L236.178 32.073H236.166L235.914 32.1503L235.289 31.819L173.553 0H347.575Z" fill="#1BB16B"/>
<path d="M347.576 1.08252L237.754 31.6424L236.18 32.0732L237.706 31.6093H237.73L238.102 31.5099L309.271 11.5195L347.192 0.850586L347.576 1.08252Z" fill="#FAD6CE"/>
<path d="M237.754 31.6425L236.18 32.0732L237.706 31.6094H237.73L237.754 31.6425Z" fill="#FCD2B2"/>
<path d="M347.575 175.275V252.873H330.633L205.142 188.97L119.171 145.201V232.01L-17.1582 162.596V75.4557L90.0089 130.037V44.1006L309.27 155.804L347.575 175.275Z" fill="#92CB7B"/>
<path d="M347.576 88.83L307.48 68.4531L236.18 32.0728L309.271 69.2925L347.576 88.83Z" fill="#FCD2B2"/>
<path d="M347.576 1.08252L237.754 31.6424L236.18 32.0732L237.706 31.6093H237.73L238.102 31.5099L309.271 11.5195L347.192 0.850586L347.576 1.08252Z" fill="#FCD2B2"/>
<path d="M347.552 0L347.576 88.8303L309.271 69.2927L236.18 32.073L237.754 31.6423L347.552 0Z" fill="#F48D83"/>
</g>
</g>
<defs>
<clipPath id="clip0">
<rect width="364.733" height="252.873" fill="white" transform="translate(-17.1582)"/>
</clipPath>
</defs>
</svg>
