<svg width="330" height="250" viewBox="0 0 330 250" fill="none" xmlns="http://www.w3.org/2000/svg"><g clip-path="url(#clip0)"><path fill="#fff" d="M0 0h330v250H0z"/><path fill="#97CF9B" d="M0-1h330v252.8H0z"/><path d="M97.7 96.7c0 20.6-10.7 37.4-23.8 37.4-13.1 0-23.7-16.8-23.7-37.4 0-20.7 10.6-37.5 23.7-37.5S97.7 76 97.7 96.7z" fill="#1BB16B"/><path d="M97.7 96.7c0 20.6-10.7 37.4-23.8 37.4-13.1 0-23.7-16.8-23.7-37.4 0-13 4-24.3 10.3-31L73 111l13.7-46c6.7 6.7 11 18.3 11 31.7z" fill="#E6F0CE"/><path d="M111.2 96.7c0-20.7 10.6-37.5 23.8-37.5 13 0 23.7 16.8 23.7 37.5 0 20.6-10.6 37.4-23.7 37.4-13.2 0-23.8-16.7-23.8-37.4z" fill="#1BB16B"/><path d="M111.2 96.7c0-20.7 10.6-37.5 23.7-37.5 13.2 0 23.8 16.8 23.8 37.5 0 12.8-4.1 24.2-10.4 31L136 82.2l-13.8 46a45.5 45.5 0 01-11-31.6z" fill="#E6F0CE"/><path d="M111.2 186c0-20.6 10.6-37.4 23.8-37.4 13 0 23.7 16.8 23.7 37.5 0 20.6-10.6 37.4-23.7 37.4-13.2 0-23.8-16.7-23.8-37.4z" fill="#1BB16B"/><path d="M111.2 186c0-20.6 10.6-37.4 23.7-37.4 13.2 0 23.8 16.8 23.8 37.5 0 12.8-4.1 24.2-10.4 31L136 171.6l-13.8 46a45.5 45.5 0 01-11-31.6z" fill="#E6F0CE"/><path d="M97.7 186c0 20.7-10.7 37.5-23.8 37.5-13.1 0-23.7-16.8-23.7-37.4 0-20.7 10.6-37.5 23.7-37.5s23.8 16.8 23.8 37.5z" fill="#1BB16B"/><path d="M97.7 186c0 20.7-10.7 37.5-23.8 37.5-13.1 0-23.7-16.8-23.7-37.4 0-13 4-24.3 10.3-31L73 200.4l13.7-46c6.7 6.7 11 18.3 11 31.7z" fill="#E6F0CE"/><path d="M220.8 96.7c0 20.6-10.6 37.4-23.7 37.4s-23.8-16.8-23.8-37.4c0-20.7 10.7-37.5 23.8-37.5 13.1 0 23.7 16.8 23.7 37.5z" fill="#1BB16B"/><path d="M220.8 96.7c0 20.6-10.6 37.4-23.7 37.4s-23.8-16.8-23.8-37.4c0-13 4.2-24.3 10.4-31l12.4 45.3 13.7-46c6.6 6.7 11 18.3 11 31.7z" fill="#E6F0CE"/><path d="M234.4 96.7c0-20.7 10.6-37.5 23.7-37.5 13.2 0 23.8 16.8 23.8 37.5 0 20.6-10.6 37.4-23.8 37.4-13 0-23.7-16.7-23.7-37.4z" fill="#1BB16B"/><path d="M234.4 96.7c0-20.7 10.6-37.5 23.7-37.5S282 76 282 96.7c0 12.8-4.1 24.2-10.4 31l-12.3-45.4-13.8 46a45.5 45.5 0 01-11-31.6z" fill="#E6F0CE"/><path d="M234.4 186c0-20.6 10.6-37.4 23.7-37.4 13.2 0 23.8 16.8 23.8 37.5 0 20.6-10.6 37.4-23.8 37.4-13 0-23.7-16.7-23.7-37.4z" fill="#1BB16B"/><path d="M234.4 186c0-20.6 10.6-37.4 23.7-37.4S282 165.4 282 186c0 12.8-4.1 24.2-10.4 31l-12.3-45.4-13.8 46a45.5 45.5 0 01-11-31.6z" fill="#E6F0CE"/><path d="M220.8 186c0 20.7-10.6 37.5-23.7 37.5s-23.8-16.8-23.8-37.4c0-20.7 10.7-37.5 23.8-37.5 13.1 0 23.7 16.8 23.7 37.5z" fill="#1BB16B"/><path d="M220.8 186c0 20.7-10.6 37.5-23.7 37.5s-23.8-16.8-23.8-37.4c0-13 4.2-24.3 10.4-31l12.4 45.3 13.7-46c6.6 6.7 11 18.3 11 31.7z" fill="#E6F0CE"/></g><defs><clipPath id="clip0"><path fill="#fff" d="M0 0h330v250H0z"/></clipPath></defs></svg>