<svg width="330" height="250" viewBox="0 0 330 250" fill="none" xmlns="http://www.w3.org/2000/svg"><g clip-path="url(#clip0)"><path fill="#fff" d="M0 0h330v250H0z"/><path fill="#F48D83" d="M0-4h330v257.5H0z"/><path d="M49.2 99.4l-7 5.3 21.5 30 4.8-9.3-19.3-26z" fill="#F7C4BA"/><path d="M92.7 68.7l-.3.9 5 15.3 4 3 8-17-1.1-3-15.6.8zM97 154.3H86.5v79.2H97v-79.2zM114.6 154.3h-10.4v79.2h10.4v-79.2z" fill="#fff"/><path d="M124.1 74v34H77.8V74h8c3-.1 5.5-2.1 6.6-5l8.2 17.6 8.1-17.5c1.2 2.7 3.7 4.8 6.6 4.9h8.8zM85.8 77h-.3-.2.5zM115.8 77h-.3-.2.5z" fill="#231F20"/><path d="M119.3 180.7h-.2c-6 1.4-12.2 2-18.3 2h-.2V108h7.7l11 72.7z" fill="#B2D793"/><path d="M159.6 176.2c-5.6 5-11.7 9-18 12.4h-.3c-6.3 3.3-13 5.8-19.7 7.4h-.2a89.8 89.8 0 01-20.6 2.5h-.2c-7 0-13.9-.9-20.7-2.5h-.2a89 89 0 01-19.7-7.3l-.2-.1a89.6 89.6 0 01-18-12.4l5.8-11c3.9 2.9 8 5.4 12.2 7.6l.2.1a81.6 81.6 0 0019.7 7.3h.2l2.1.5h.2c6 1.3 12.2 2 18.4 2h.2c6.1 0 12.3-.7 18.3-2h.2l2.1-.4h.2v-.1c5.3-1.3 10.4-3 15.4-5.2l.2-.1 4.1-2 .2-.1c4.3-2.2 8.4-4.7 12.3-7.6l5.8 11z" fill="#231F20"/><path d="M85.5 108l-21.2 67-.2-.1-4-2-.3-.1a85.2 85.2 0 01-12.2-7.6L77.8 108h7.7z" fill="#1BB16B"/><path d="M79.7 196h0z" fill="#9CCEA1"/><path d="M93 108c-3.5 24.3-7.2 48.5-10.8 72.8H82a64 64 0 01-2.3-.6 87 87 0 01-15.4-5.2l-.2-.1L85.4 108H93z" fill="#92CB7B"/><path d="M100.8 182.7h-.2c-6.2 0-12.3-.6-18.4-2H82L93 108h7.7v74.7z" fill="#E8F1CF"/><path d="M121.4 196h0z" fill="#F4B6B7"/><path d="M137.2 174.9h-.2c-5 2.3-10.2 4-15.4 5.3h-.2l-2.1.5h-.2L108.2 108h7.8l21.2 66.9z" fill="#92CB7B"/><path d="M153.7 165.2c-3.9 2.9-8 5.4-12.2 7.6l-.2.1a81.8 81.8 0 01-4.3 2L115.9 108h7.7l30.1 57.2z" fill="#1BB16B"/><path d="M111.2 61c0 3-1 6-2.6 8.2a10 10 0 01-8 4.4 10 10 0 01-8.1-4.5 14 14 0 01-2.3-11c1-5.3 4.8-9.3 9.4-9.8a7.2 7.2 0 012 0c4.6.5 8.4 4.5 9.3 9.9a15.6 15.6 0 01.3 2.7z" fill="#F7C4BA"/><path d="M102 51a8 8 0 01-11.8 7.2c1-5.3 4.8-9.4 9.4-9.9a7.2 7.2 0 012 0c.2.8.4 1.7.4 2.6z" fill="#231F20"/><path d="M111 58.2a8 8 0 01-11.3-9.9 7.2 7.2 0 011.8 0c4.7.5 8.5 4.5 9.4 9.9z" fill="#231F20"/><path d="M76.1 67.6a20 20 0 00-27 8.7l-8 16a20 20 0 0035.6 18.2l8.1-16a20 20 0 00-8.7-27z" fill="#fff"/><path d="M115 53a1 1 0 01-.4-1.3 1 1 0 00-1.1-1.4 1 1 0 01-1.3-.6 1 1 0 00-1.9 0 1 1 0 01-1.2.6 1 1 0 00-.8 0 1 1 0 00-.3-.3 1 1 0 01-.4-1.4 1 1 0 00-1.1-1.4 1 1 0 01-1.3-.6 1 1 0 00-1.9 0 1 1 0 01-1.2.6 1 1 0 00-1.2 1.4c.3.5.2 1-.3 1.4v-.1a1 1 0 01-.3-1.4 1 1 0 00-1.2-1.4 1 1 0 01-1.2-.6 1 1 0 00-2 0 1 1 0 01-1.2.6 1 1 0 00-1.2 1.4c.3.5.2 1.1-.3 1.4a1 1 0 00-.4.8 1 1 0 01-.8-1 1 1 0 00-1.8-.7 1 1 0 01-1.4.2 1 1 0 00-1.6 1c.1.4-.2 1-.8 1a1 1 0 00-.2 2c.4.2.6.8.4 1.2a1 1 0 001.3 1.4c.5-.2 1 0 1.3.5a1 1 0 001.8-.1 1 1 0 011.2-.7 1 1 0 001-1.6 1 1 0 01.3-1.4c.2-.2.3-.4.3-.7.5.2.7.5.7 1 0 1 1 1.5 1.7.8a1 1 0 011.4 0 1 1 0 001.7-.8c0-.5.3-1 .9-1l.3-.2.5.2c.5 0 1 .6.9 1.1 0 1 1 1.4 1.7.8a1 1 0 011.4 0 1 1 0 001.7-.8c0-.5.3-1 .8-1l.4-.2c.3.5.1 1-.3 1.4a1 1 0 00.4 1.8c.6 0 1 .6.9 1.1 0 1 1 1.4 1.7.8a1 1 0 011.4 0 1 1 0 001.7-.8c0-.5.3-1 .8-1a1 1 0 00.5-2z" fill="#E52226"/><path d="M152 99.4l7.1 5.3-21.5 30-4.8-9.3 19.3-26z" fill="#F7C4BA"/><path d="M160.4 92.4L152 76.3a20 20 0 10-35.6 18.2l8.2 16.2a20 20 0 1035.7-18.3z" fill="#fff"/><path d="M98.1 213.8l-1.7 28.5H77.8c0-1.9 1.5-3.3 3.3-3.3h2c2 0 3.4-1.6 3.4-3.5l-1-19.4 12.6-2.3zM103 213.8l1.7 28.5h18.7c0-1.9-1.5-3.3-3.3-3.3h-2a3.4 3.4 0 01-3.5-3.5l1.1-19.4-12.7-2.3z" fill="#231F20"/><path d="M102.8 68.3a2.1 2.1 0 01-4.3 0h.2c.3 0 .6-.5.7-.6.1-.3.3-.4.6-.4s.5.2.7.4c0-.2.3-.4.6-.4s.5.2.6.4c0 0 .5.6.7.6h.2z" fill="#E52226"/><path d="M210.3 73.4h-.3-.2.5zM240.3 73.4h-.3-.2.5z" fill="#231F20"/><path d="M237 65.2L236 76l-1.4 16.3h-19L214.3 76l-.8-10.7H237z" fill="#fff"/><path d="M235.7 57.3c0 3.2-1 6-2.6 8.3a10 10 0 01-8 4.4 10 10 0 01-8.1-4.5 14 14 0 01-2.3-11c1-5.2 4.8-9.3 9.4-9.8a7.2 7.2 0 012 0c4.6.5 8.4 4.6 9.3 9.9a15.4 15.4 0 01.3 2.7zM208.2 136.8l-19-8.7-17.3-7.8c-1-1-2-2.2-2.6-3.5l3.3-7.6 20.7 9 14.5 6.3.4 12.3zM280.8 117c-.6 1.2-1.4 2.2-2.4 3.1l-18.2 8.3-18.4 8.4.5-12.3 14.5-6.4 20.6-9 3.4 7.9z" fill="#F7C4BA"/><path d="M203 88.8l-9.7 29.4-3.4 10.3-.8-.4-14.3-6a10.7 10.7 0 01-5-15.5L184.6 82a10.7 10.7 0 0113.3-4.2 9 9 0 015 11zM280.8 117a10.7 10.7 0 01-5.4 5l-15.2 6.5-3.4-10.4-9.5-29.3a9 9 0 015-11 10.6 10.6 0 0113.3 4.2l14.8 24.5c2 3.4 2 7.3.4 10.5z" fill="#fff"/><path d="M251.6 242.3h-23V208l15 4.1-4.6 23c0 2 5 3.6 6.8 3.6h2.5c1.8 0 3.3 1.5 3.3 3.5zM221.8 208.1v34.2h-22.6c0-2 1.5-3.5 3.3-3.5h2c2 0 6.9-1.6 6.9-3.6l-4.6-23 15-4z" fill="#231F20"/><path d="M249.7 204.9a12 12 0 01-7.9 11.5 10.2 10.2 0 01-8.3-.8c-3.6-1.9-6-5.8-6.2-10.3l.1-.7V180c0-.7-.6-1.3-1.3-1.3h-1.7c-.7 0-1.3.6-1.3 1.3v24.9c0 4.8-2.6 9-6.4 10.9a10.4 10.4 0 01-8.4.5 12 12 0 01-7.6-11.4l1.7-47v-1H248v1l1.7 47z" fill="#fff"/><path d="M245.5 121.8l5.5 36.1h-52.1l5.8-36.1L192 74.5l22-4.5-.4-5.3 3.2.5 1.7 8.9 6.7 12.4 7.3-12 1.1-9.3 3.5-.5-.5 5.4 21.8 4.4-12.8 47.3z" fill="#231F20"/><path d="M246.9 117.2h-43.7v14.7h43.7v-14.7z" fill="#E52226"/><path d="M235.7 45.8h-21.2v11.4h21.2V45.8z" fill="#231F20"/><path d="M237.4 47L227 52.8c-.7.4-1.5.6-2.4.6h-11.8a4.9 4.9 0 01-4.8-3.6l-.2-1c-.6-2.1.4-4.4 2.3-5.5l10.4-5.8c.7-.4 1.5-.6 2.3-.6h12c2.1 0 4 1.5 4.6 3.6l.3 1c.6 2.1-.4 4.4-2.3 5.5z" fill="#E52226"/><path d="M208.3 216.3a10.3 10.3 0 008.4-.5v-57.9h-8.4v58.4zM233.5 158v57.6a10.5 10.5 0 008.3.8v-58.5h-8.3z" fill="#92CB7B"/><path d="M200.7 204.9a12 12 0 007.6 11.4v-58.4h-6l-1.6 47zM216.7 158v57.8c3.8-2 6.4-6.1 6.4-11V180c0-.7.6-1.3 1.4-1.3h1.6c.7 0 1.3.6 1.3 1.3v25.3c0 4.6 2.5 8.4 6 10.3V158H216.8zM248 158h-6.2v58.4a12 12 0 007.9-11.5l-1.7-47z" fill="#1BB16B"/><path d="M229.6 65.2l-4.5-1.1-4.6 1.1c0-1.8 1.5-3.4 3.4-3.4h2.3c2 0 3.4 1.6 3.4 3.4z" fill="#231F20"/></g><defs><clipPath id="clip0"><path fill="#fff" d="M0 0h330v250H0z"/></clipPath></defs></svg>