<svg width="330" height="250" viewBox="0 0 330 250" fill="none" xmlns="http://www.w3.org/2000/svg">
<g clip-path="url(#clip0)">
<rect width="330" height="250" fill="white"/>
<rect y="-5" width="330" height="237.822" fill="#E52226"/>
<mask id="mask0" mask-type="alpha" maskUnits="userSpaceOnUse" x="0" y="18" width="330" height="238">
<path d="M0 18.5933H330V255.472H0V18.5933Z" fill="#E52226"/>
</mask>
<g mask="url(#mask0)">
<path d="M377.076 255.289H117.949L155.428 110.17L246.98 29.9598L247.523 29.0166L377.076 255.289Z" fill="#F7C4BA"/>
<path d="M378.087 255.289H356.35H274.174C270.932 232.364 290.833 221.02 282.898 186.633C277.182 161.783 249.59 172.642 229.582 141.989C214.65 119.064 232.312 77.4857 242.199 57.9671C245.975 50.4609 247.98 41.3566 247.98 32.0557V29.9598L248.524 29.0166L356.35 217.326L378.087 255.289Z" fill="#F48D83"/>
<path d="M247.512 255.472H1.7064H-23.8906C-23.8906 255.472 -11.7259 232.423 1.7064 207.508C13.1569 186.27 25.5285 163.675 32.0709 152.849C49.7221 123.623 117.96 48.2603 117.96 48.2603L247.512 255.472Z" fill="#F7C4BA"/>
<path d="M247.511 255.472H143.598C140.366 234.473 160.268 224.085 152.322 192.593C146.606 169.839 119.014 179.782 99.0058 151.709C84.0742 130.71 101.736 92.6422 111.623 74.7611C115.399 67.8837 117.404 59.5522 117.404 51.0374V49.1248L117.948 48.2603L247.511 255.472Z" fill="#F48D83"/>
</g>
</g>
<defs>
<clipPath id="clip0">
<rect width="330" height="250" fill="white"/>
</clipPath>
</defs>
</svg>
