<svg width="330" height="250" viewBox="0 0 330 250" fill="none" xmlns="http://www.w3.org/2000/svg"><g clip-path="url(#clip0)"><path fill="#fff" d="M0 0h330v250H0z"/><path fill="#BFBFBF" d="M0-4h330v257.6H0z"/><g clip-path="url(#clip1)"><path d="M59.2 114a5 5 0 006.4 3.2L140 92.3l-14-4.4.1-1.6-63.6 21.4a5 5 0 00-3.2 6.3zM64.4 129.3a5 5 0 006.3 3.2l69.7-23.3-4.9-3.9 5.5-7L67.5 123a5 5 0 00-3.1 6.3z" fill="#91CA7B"/><path d="M242.6 167.3z" fill="#74C067"/><path d="M142.2 131.2l11-11.8-12.9-10.2-69.6 23.3a5 5 0 11-3.1-9.5L141 98.4l3.6-4.6-4.7-1.5-74.3 24.9a5 5 0 01-3.2-9.6L126 86.3l.9-10.2-81.2 27.2L67 166.8l86.6-29-11.4-6.6zm-17-6.4a5 5 0 01-3.1 6.4l-46.6 15.6a5 5 0 01-3.2-9.5l46.6-15.6a5 5 0 016.3 3.1z" fill="#EAF1D0"/><path d="M127.5 69.1l-4.7-5.9-81.4 27.3 4.3 12.8 81.2-27.2.6-7z" fill="#1BAF6B"/><path d="M118.9 121.7l-46.6 15.6a5 5 0 103.2 9.5l46.6-15.6a5 5 0 10-3.2-9.5z" fill="#91CA7B"/><path d="M233.7 120.9c-1 2-3.3 3-5.5 2.4a4.6 4.6 0 01-3.2-5l-54.6-16-6.4 7.8 7.6 12.4 3.3 5.3-3.2 1.2-10.2 3.8 1.1 3.8 4.7 15.6-15.5 3.3 5.4 11.8 49.2 14.3a4.6 4.6 0 018.8 2.6l53.2 15.6a14.4 14.4 0 0017.8-9.8l14.2-48.5.3-1-67-19.6zm-14.8 50.7a4.6 4.6 0 11-8.9-2.5 4.6 4.6 0 019 2.5zm3.8-12.9a4.6 4.6 0 11-8.9-2.6 4.6 4.6 0 018.9 2.6zm3.7-12.8a4.6 4.6 0 11-8.9-2.6 4.6 4.6 0 019 2.6zm3.8-12.9a4.6 4.6 0 11-8.9-2.6 4.6 4.6 0 018.9 2.6z" fill="#EAF1D0"/><path d="M174.8 97l-4.4 5.4 54.6 16 .1-.8a4.6 4.6 0 118.6 3.3l67 19.5a14.4 14.4 0 00-10-16.8l-53.3-15.5a4.6 4.6 0 01-8.7-2.6l-54.4-15.9.5 7.4z" fill="#1BAF6B"/><path d="M265.8 163.3l-.1 7.2 5-2.8-3-5.5-2 1zM260.6 149.3l-3-5.6-5 2.8 6 3.8 2-1z" fill="#E32328"/><path d="M242.2 164.8c1.3-1.4 2.5-2.6 3.7-3.6l-7.6-1.7-2.7 1.5 5 5.9 1.6-2zM244.6 169.2l-2.5.3 2 7.2 2.8-1.5 2.5-7c-1.6.6-3.2.8-4.8 1zM256.2 165l4.6 16.6 4.8-2.7v-8.4l.2-7.2v-3.7l-9.6 5.3zM258.7 150.3l-6.2-3.8-7.1-4.5-4.8 2.7 11.5 12.8 9.7-5.2-3.1-2z" fill="#F48D83"/><path d="M274.8 149.7a2.4 2.4 0 00-2.4-1.3h-.3c-2.9.4-5.4 1.2-7.5 2.3l-2.8 1.6-9.6 5.2-3.9 2.1-2.4 1.6c-1.2 1-2.4 2.2-3.6 3.6l-1.6 2 .7 1.3.2-.2 1-.5 32.3-17.7z" fill="#74C067"/><path d="M275 150l-.2-.3-32.2 17.7-1 .5-.3.2.8 1.4 2.5-.3c1.6-.2 3.2-.4 4.8-1l3-1.2 3.8-2 9.6-5.4 2.8-1.5a21 21 0 006.1-5.4c.7-.8.8-1.9.3-2.7zM241.8 168h-.1z" fill="#1BAF6B"/><path d="M195 140.8a4.9 4.9 0 01-6 3.3l-26.4-7.5-1.1-3.8 10.2-3.8 20 5.7c2.5.8 4 3.5 3.3 6zM199.4 125.4a4.9 4.9 0 01-6 3.3l-21.8-6.2-7.6-12.3 32 9.2c2.6.7 4.1 3.4 3.4 6z" fill="#91CA7B"/></g></g><defs><clipPath id="clip0"><path fill="#fff" d="M0 0h330v250H0z"/></clipPath><clipPath id="clip1"><path fill="#fff" transform="translate(41.4 63.2)" d="M0 0h259.6v137.1H0z"/></clipPath></defs></svg>