<svg width="64" height="64" viewBox="0 0 64 64" fill="none" xmlns="http://www.w3.org/2000/svg">
<path d="M56.9229 18.1935C53.4375 7.3088 43.4171 0 32.0025 0C20.5531 0 10.2713 7.64023 6.96023 18.5947C5.94948 21.9439 5.74036 25.6244 6.31544 29.3922C6.48971 30.5435 6.73368 31.7122 7.06479 32.8809C7.27391 33.6484 7.53532 34.4508 7.83157 35.2881C9.03402 34.1543 10.4804 32.7065 12.0489 31.0842C16.4753 26.4966 21.8427 20.5309 25.4675 16.5364L27.5413 14.2339C30.9221 10.501 34.4946 8.56473 38.1368 8.46007C44.9855 8.28564 49.9347 13.6931 51.8865 19.7983C52.9496 23.1126 52.9844 26.8804 52.0085 30.683C51.9388 30.9447 51.8691 31.2238 51.782 31.4854C49.9173 38.0442 44.9681 47.795 31.9677 57.4587C30.9918 56.7261 30.0682 56.0109 29.1794 55.2783C34.4771 50.2895 41.6047 42.5795 45.5257 36.544C48.2443 32.3576 49.6907 27.9095 49.621 24.0196C49.5513 20.2344 47.9306 16.7283 45.2643 14.6351C42.1101 12.1581 37.248 12.1755 33.449 14.6699C30.6084 16.5364 26.5654 21.2287 26.06 21.8218C22.5921 26.1652 17.364 31.4331 13.4604 35.2009C11.77 36.8231 10.3236 38.1837 9.38256 39.0559C10.0971 40.5909 10.951 42.1957 11.9792 43.8528C12.5368 43.347 14.0007 42.0038 15.9176 40.1723C19.9781 36.2824 26.1297 30.212 30.1379 25.1709C31.2358 23.8975 34.4771 20.3042 36.3592 19.0657C38.2065 17.8621 40.6811 17.7225 42.023 18.7691C43.1208 19.6413 44.3233 21.4903 44.3581 24.0894C44.4104 26.9327 43.2603 30.3167 41.1168 33.631C36.7949 40.2944 29.7545 47.4636 25.2061 51.7198C23.3588 53.4467 21.9124 54.7026 21.2502 55.2259C21.2676 55.2434 21.2851 55.2608 21.3025 55.2783C21.5116 55.4876 21.7207 55.6795 21.9299 55.8888C22.958 56.8482 24.0385 57.825 25.2061 58.7844C26.6874 60.0229 28.2732 61.2614 29.981 62.4999L32.0025 64L34.0241 62.4999C49.0634 51.7024 54.7619 40.4514 56.9054 32.8983C56.9926 32.5844 57.0797 32.2878 57.1494 31.9738C58.3519 27.2292 58.2822 22.4497 56.9229 18.1935ZM23.6377 10.6754L21.5465 12.9779C18.7582 16.0654 14.9069 20.3391 11.2995 24.1941C11.3866 22.7811 11.6132 21.4206 11.9966 20.1123C14.4538 11.9662 21.773 6.12265 30.1379 5.35514C27.8898 6.61107 25.7115 8.3903 23.6377 10.6754Z" fill="#1BB36C"/>
<path d="M40.2452 27.3163C41.0468 26.0953 40.7157 24.4556 39.4959 23.6532C38.2934 22.8508 36.6379 23.1822 35.8362 24.4033C30.6256 32.2528 23.9512 38.8464 18.4095 44.0271C17.4336 44.9342 16.4925 45.8064 15.6037 46.6088L14.5059 47.6205C15.4992 48.9636 16.6145 50.3417 17.8518 51.7197L19.1937 50.4812C19.9953 49.7311 20.8492 48.9462 21.738 48.1263C27.5411 42.7538 34.6338 35.7938 40.2452 27.3163Z" fill="#1BB36C"/>
</svg>
