<svg width="30" height="30" viewBox="0 0 30 30" fill="none" xmlns="http://www.w3.org/2000/svg">
<g clip-path="url(#clip0)">
<path d="M25.5406 0H4.3834C1.96659 0 0 1.96659 0 4.3834V25.5406C0 27.9574 1.96659 29.924 4.3834 29.924H25.5406C27.9574 29.924 29.924 27.9574 29.924 25.5406V4.3834C29.924 1.96659 27.9574 0 25.5406 0ZM15.0204 22.7937C10.6697 22.7937 7.13032 19.2543 7.13032 14.9035C7.13032 10.5528 10.6697 7.01343 15.0204 7.01343C19.3712 7.01343 22.9105 10.5528 22.9105 14.9035C22.9105 19.2543 19.3712 22.7937 15.0204 22.7937ZM23.7872 8.76679C22.3371 8.76679 21.1572 7.58693 21.1572 6.13675C21.1572 4.68658 22.3371 3.50672 23.7872 3.50672C25.2374 3.50672 26.4173 4.68658 26.4173 6.13675C26.4173 7.58693 25.2374 8.76679 23.7872 8.76679Z" fill="#000301"/>
<path d="M23.7868 5.26025C23.3031 5.26025 22.9102 5.65316 22.9102 6.13693C22.9102 6.6207 23.3031 7.01361 23.7868 7.01361C24.2706 7.01361 24.6635 6.6207 24.6635 6.13693C24.6635 5.65316 24.2706 5.26025 23.7868 5.26025Z" fill="#000301"/>
<path d="M15.0196 8.7666C11.6361 8.7666 8.88281 11.5199 8.88281 14.9034C8.88281 18.2868 11.6361 21.0401 15.0196 21.0401C18.403 21.0401 21.1563 18.2868 21.1563 14.9034C21.1563 11.5199 18.403 8.7666 15.0196 8.7666Z" fill="#000301"/>
</g>
<defs>
<clipPath id="clip0">
<rect width="29.924" height="29.924" fill="white"/>
</clipPath>
</defs>
</svg>
