<svg width="67" height="67" viewBox="0 0 67 67" fill="none" xmlns="http://www.w3.org/2000/svg">
<path d="M33.5 0C14.9981 0 0 14.9982 0 33.5C0 52.0019 14.9981 67 33.5 67C52.0018 67 66.9999 52.0019 66.9999 33.5C66.9999 14.9982 52.0018 0 33.5 0ZM33.5 44.3151C27.5114 44.3151 22.6849 39.4707 22.6849 33.5C22.6849 27.5294 27.5293 22.6849 33.5 22.6849C39.4706 22.6849 44.315 27.5294 44.315 33.5C44.315 39.4707 39.4706 44.3151 33.5 44.3151Z" fill="#C42729"/>
<path d="M28.74 11.4411L25.2144 14.9688L28.742 18.4944L32.2676 14.9668L28.74 11.4411Z" fill="black"/>
<path d="M44.3175 4.58963L40.7899 8.11523L44.3156 11.6429L47.8432 8.11727L44.3175 4.58963Z" fill="black"/>
<path d="M53.7825 15.6191L50.2559 19.1458L53.7825 22.6724L57.3091 19.1458L53.7825 15.6191Z" fill="black"/>
<path d="M54.6487 49.4142L51.122 52.9409L54.6487 56.4676L58.1754 52.9409L54.6487 49.4142Z" fill="black"/>
<path d="M40.7755 47.121L37.2488 50.6477L40.7754 54.1743L44.3021 50.6477L40.7755 47.121Z" fill="black"/>
<path d="M55.9636 31.5154L52.436 35.041L55.9616 38.5687L59.4892 35.043L55.9636 31.5154Z" fill="black"/>
<path d="M24.3478 54.131L20.8211 57.6577L24.3478 61.1844L27.8744 57.6577L24.3478 54.131Z" fill="black"/>
<path d="M15.5555 27.9111L12.0299 31.4387L15.5575 34.9643L19.0831 31.4367L15.5555 27.9111Z" fill="black"/>
<path d="M10.6928 43.5972L7.16615 47.1238L10.6928 50.6504L14.2194 47.1238L10.6928 43.5972Z" fill="black"/>
<path d="M10.6804 14.9499L7.15477 18.4775L10.6824 22.0031L14.208 18.4755L10.6804 14.9499Z" fill="black"/>
</svg>
