<svg width="229" height="370" viewBox="0 0 229 370" fill="none" xmlns="http://www.w3.org/2000/svg">
<path d="M74.1607 315.564C78.6082 315.672 82.581 315.417 86.2207 314.754C86.4218 311.264 88.4814 307.967 91.8965 306.239C97.061 303.628 103.442 305.54 106.108 310.535C108.773 315.53 106.743 321.706 101.549 324.32C97.1065 326.564 91.7988 325.454 88.6969 321.915C84.2082 322.84 79.3108 323.189 73.8981 323.061C71.4678 322.983 69.147 322.836 66.9301 322.56C73.6386 329.146 80.9367 335.789 89.0827 343.023C89.1924 342.953 89.3021 342.883 89.4147 342.842C94.5792 340.231 100.932 342.147 103.597 347.141C106.263 352.136 104.232 358.312 99.0675 360.923C93.903 363.534 87.5216 361.622 84.856 356.627C83.5247 354.144 83.3603 351.367 84.1876 348.871C76.0446 341.667 68.7494 335.052 62.0409 328.467C61.7153 330.441 61.3091 332.482 60.7902 334.564C59.6893 338.97 58.2753 342.877 56.5889 346.401C57.0724 346.852 57.5329 347.364 57.9126 347.943C61.1872 352.612 59.9312 358.945 55.0886 362.141C50.2749 365.334 43.7042 364.146 40.4615 359.504C37.1898 354.865 38.4428 348.503 43.2565 345.31C45.1439 344.06 47.3013 343.459 49.408 343.51L49.4369 343.507C50.9883 340.38 52.2354 336.842 53.259 332.827C54.2998 328.692 54.8818 324.927 54.9874 321.358C49.0831 315.22 43.5975 308.893 38.3506 302.042C36.8588 308.929 34.3982 315.472 31.9682 321.453C31.9252 321.604 31.8532 321.759 31.7843 321.942C32.013 322.184 32.2418 322.425 32.4417 322.67C36.0424 327.099 35.2315 333.505 30.6554 337.027C26.0764 340.52 19.4344 339.78 15.8366 335.38C12.2359 330.951 13.0438 324.516 17.6229 321.023C19.706 319.4 22.262 318.7 24.7272 318.833C24.7243 318.804 24.7531 318.801 24.7502 318.772C28.0369 310.587 31.2186 301.941 31.9063 293.166C31.4281 292.479 30.95 291.792 30.5007 291.102C30.4718 291.105 30.4429 291.108 30.4111 291.082L30.4341 291.021C25.5186 283.695 20.7057 275.653 15.8009 266.414L22.6888 262.952C26.9062 270.878 31.067 277.957 35.3103 284.409C44.8556 286.149 54.9121 284.866 64.471 283.281C64.5766 279.711 66.6504 276.266 70.1781 274.497C75.3715 271.883 81.724 273.799 84.3895 278.793C87.0551 283.788 85.0243 289.964 79.8338 292.607C75.5036 294.81 70.3233 293.806 67.2131 290.473C66.985 290.526 66.7539 290.549 66.5227 290.573C58.6018 291.904 49.7675 293.151 40.9298 292.634C46.0964 299.846 51.4813 306.331 57.2529 312.599C62.0476 314.408 67.6036 315.375 74.1607 315.564Z" fill="#C42729"/>
<path d="M81.0395 205.65C96.1635 188.54 104.307 166.512 110.103 144.879L95.8882 145.553C123.386 131.76 118.733 85.0093 121 62.4214C94.9331 69.2936 54.3804 69.3705 42.5841 99.7366C42.2221 96.2649 41.5184 89.0062 41.1153 85.5823C13.6368 98.4769 -27.1687 118.215 -22.8264 154.135C-24.1953 152.127 -28.1296 146.583 -29.5466 144.533C-71.2207 204.113 9.84188 273.788 62.4847 223.636L51.982 218.435C62.5592 218.294 73.1648 213.935 81.0395 205.65Z" fill="#C42729"/>
<path d="M121.007 62.5104L-18.8653 225.242C-40.5141 206.635 -50.3629 174.299 -29.5464 144.533C-28.0813 146.624 -24.1882 152.216 -22.8263 154.135C-27.1615 118.304 13.5958 98.5244 41.1155 85.582C41.5186 89.0059 42.2223 96.2646 42.5843 99.7363C54.3876 69.4593 94.9332 69.2934 121.007 62.5104Z" fill="#DD8C83"/>
<path d="M55.7926 298.284C73.5779 296.981 90.1486 289.122 105.193 280.202L96.8855 272.82C119.772 280.124 142.688 251.471 156.282 240.092C137.972 229.704 115.279 207.615 92.1173 218.138C93.8099 216.001 97.3784 211.563 99.0219 209.43C76.6362 201.636 43.0719 190.39 25.8931 212.823C26.2246 210.954 27.0529 205.71 27.3801 203.792C-28.4139 214.326 -21.1628 297.485 35.6124 298.203L32.5848 289.566C38.5696 295.26 46.872 298.614 55.7926 298.284Z" fill="#C42729"/>
<path d="M156.238 240.145L-10.7025 254.702C-12.639 232.493 -0.492053 209.057 27.3804 203.792C27.0575 205.759 26.1801 211.008 25.8934 212.823C43.0275 190.443 76.5875 201.64 99.0223 209.43C97.3788 211.562 93.8102 216.001 92.1177 218.137C115.235 207.668 137.972 229.704 156.238 240.145Z" fill="#DD8C83"/>
</svg>
