<svg width="233" height="325" viewBox="0 0 233 325" fill="none" xmlns="http://www.w3.org/2000/svg">
<path d="M149.84 217.568C143.16 215.646 137.357 213.406 132.241 210.716C133.569 205.431 132.036 199.564 127.752 195.395C121.271 189.094 110.867 188.948 104.564 195.126C98.2616 201.303 98.4083 211.437 104.93 217.757C110.506 223.174 118.936 224.011 125.21 220.203C131.469 223.681 138.607 226.494 146.735 228.838C150.394 229.862 153.922 230.73 157.355 231.359C144.284 238.007 130.307 244.466 114.791 251.405C114.66 251.25 114.529 251.095 114.38 250.981C107.9 244.679 97.5371 244.552 91.2344 250.729C84.9316 256.907 85.0783 267.041 91.5588 273.343C98.0392 279.644 108.443 279.79 114.746 273.612C117.889 270.545 119.429 266.492 119.36 262.394C134.858 255.497 148.817 249.08 161.888 242.431C161.452 245.519 161.106 248.744 160.909 252.083C160.495 259.149 160.78 265.621 161.651 271.65C160.72 272.094 159.794 272.64 158.958 273.324C151.9 278.731 150.818 288.735 156.546 295.756C162.232 302.758 172.58 304.071 179.579 298.688C186.62 293.323 187.719 283.276 182.033 276.273C179.802 273.531 176.867 271.627 173.703 270.717L173.661 270.699C172.807 265.322 172.598 259.477 172.945 253.027C173.322 246.392 174.21 240.522 175.717 235.165C187.381 228.806 198.508 221.969 209.525 214.241C208.537 225.178 209.153 236.059 209.986 246.091C209.979 246.336 210.014 246.599 210.032 246.904C209.578 247.156 209.124 247.408 208.712 247.678C201.279 252.577 199.501 262.481 204.679 269.861C209.876 277.2 220.121 279.213 227.536 274.355C234.969 269.456 236.766 259.511 231.569 252.172C229.221 248.784 225.737 246.545 222.001 245.588C222.019 245.546 221.977 245.528 221.995 245.486C220.913 231.776 220.203 217.431 223.271 204.061C224.304 203.264 225.337 202.467 226.328 201.652C226.37 201.67 226.411 201.688 226.471 201.663L226.465 201.562C237.209 192.972 248.134 183.27 259.754 171.832L251.101 163.457C241.118 173.266 231.615 181.842 222.28 189.448C207.241 187.562 192.849 180.944 179.34 174.108C180.847 168.752 179.363 162.658 174.929 158.375C168.407 152.055 158.044 151.928 151.742 158.105C145.439 164.283 145.586 174.417 152.09 180.779C157.517 186.083 165.707 187.015 171.898 183.518C172.213 183.703 172.547 183.846 172.88 183.989C184.066 189.679 196.653 195.673 210.068 199.044C199.003 207.347 187.952 214.465 176.425 221.081C168.435 221.524 159.702 220.359 149.84 217.568Z" fill="#C42729"/>
<path d="M199.065 82.2894C176.764 68.0686 150.785 61.5705 125.803 57.4835L129.969 72.2417C108.296 44.8209 58.457 53.8982 33.2869 53.5771C47.0702 80.1313 56.9425 122.402 92.8919 131.955C89.1947 132.646 81.4519 134.036 77.8168 134.766C98.5059 162.248 129.872 203.005 167.98 195.231C166.121 196.84 161.027 201.442 159.135 203.105C234.142 241.166 290.528 150.356 223.151 100.008L220.016 111.427C217.309 100.413 209.998 89.7501 199.065 82.2894Z" fill="#C42729"/>
<path d="M33.3815 53.5612L244.537 184.673C229.479 208.925 196.606 222.116 159.134 203.104C161.06 201.388 166.216 196.824 167.979 195.23C129.966 202.989 98.567 162.286 77.8158 134.765C81.4509 134.036 89.1938 132.646 92.8909 131.955C57.037 122.386 47.0693 80.1307 33.3815 53.5612Z" fill="#DD8C83"/>
</svg>
