<svg width="240" height="460" fill="none" xmlns="http://www.w3.org/2000/svg"><g clip-path="url(#clip0)"><path fill="#fff" d="M0 0h240v460H0z"/><path d="M122.123 0H-1v114.059h123.123V0z" fill="#E52226"/><path d="M241 171H122v289h119V171z" fill="#E8F1CF"/><path d="M241 0h-87v171h87V0z" fill="#000"/><path d="M122 114H-1v224h123V114z" fill="#1BB16B"/><path d="M122 338H0v122h122V338z" fill="#97CF9B"/><path d="M178.529 118.733s14.743 17.987 26.67 20.835c11.927 2.852 14.963-27.086 14.963-27.086l-1.52-1.974s-11.819 18.201-40.113 8.225z" fill="#000"/><path d="M223.525 95.113c0 7.949-2.384 15.187-6.419 20.758-4.808 6.813-11.963 11.105-19.995 11.105-8.103 0-15.367-4.401-20.206-11.352-3.892-5.534-6.208-12.703-6.208-20.511 0-.886.036-1.772.104-2.662.104-1.457.28-2.84.528-4.224 2.42-13.379 11.823-23.598 23.398-24.84.772-.105 1.58-.142 2.388-.142.772 0 1.544.037 2.316.105 11.575 1.206 21.046 11.462 23.434 24.873a38.52 38.52 0 01.528 3.973c.096.967.132 1.925.132 2.917z" fill="#F7C4BA"/><path d="M202.53 113.701c-.208 2.731-2.492 4.883-5.244 4.883-2.799 0-5.035-2.152-5.239-4.883h.36c.676 0 1.604-1.282 1.712-1.521.284-.615.88-.947 1.556-.947s1.296.369 1.659.947c.26-.578.88-.947 1.556-.947s1.244.365 1.608.947c.12.186 1.088 1.521 1.712 1.521h.32z" fill="#E52226"/><path d="M217.671 94.451v6.307c0 5.199-4.311 9.394-9.523 9.123-3.616-.186-6.727-2.601-7.975-5.906a8.162 8.162 0 01-.256-.785 3.096 3.096 0 00-1.176-1.335 3.047 3.047 0 00-1.636-.474 3.119 3.119 0 00-2.784 1.752 6.13 6.13 0 01-.276.842c-1.24 3.301-4.351 5.72-7.967 5.906-5.22.271-9.519-3.924-9.519-9.123v-6.307h11.587a6.494 6.494 0 016.367 5.243h5.204a6.494 6.494 0 016.367-5.243h11.587z" fill="#000"/><path d="M239.996 142.705s-.177-.057-.514-.162c-1.669-.499-7.23-2.124-13.261-3.372 1.733-12.62 3.748-31.456 4.129-41.41.201-5.118-1.332-11.594-3.876-17.397-2.034-4.669-4.727-8.904-7.688-11.66-8.956-8.331-27.205-7.732-33.689-4.453-7.287 3.68-11.977 9.483-14.919 16.113-8.799 19.813-1.998 47.002-1.998 47.002L154 139.714V171h86v-.413l-.004-27.882zm-41.313-60.68s23.032 6.21 23.766 12.616c.377 3.331-1.316 9.832-3.623 16.713a203.073 203.073 0 01-1.408 4.04c0 .009 0 .009-.008.013v.008c-3.439 9.58-7.496 18.844-8.286 20.417-4.859-.928-5.854-1.099-6.011-1.123-8.811-2.318-15.544-7.011-20.456-12.478l-.008-.008a44.966 44.966 0 01-2.022-2.419c-8.623-11.108-10.372-24.291-7.275-27.319 4.117-4.036 17.447-9.953 22.394-10.638a7.388 7.388 0 012.937.178z" fill="#1BB16B"/><path d="M169.169 150.552a15.45 15.45 0 00-.392-1.513 14.011 14.011 0 00-3.539-5.717 9.903 9.903 0 00-1.148.834 12.65 12.65 0 013.32 5.19c.42 1.267.652 2.614.652 4.018 0 .724-.064 1.436-.184 2.124.216.089.444.161.667.226.224.065.452.101.684.134.076-.397.128-.797.164-1.202.036-.425.056-.854.056-1.282 0-.963-.104-1.906-.28-2.812zM176.062 143.217a14.123 14.123 0 00-3.56 5.595v.008a13.93 13.93 0 00-.476 1.76v.008a13.786 13.786 0 00-.208 4.155v.008c.036.372.084.744.152 1.104.14-.012.272-.04.404-.064.208-.037.412-.097.616-.162.108-.041.224-.077.328-.122a12.953 12.953 0 01-.176-2.136c0-1.399.228-2.739.64-3.997v-.008a12.566 12.566 0 013.444-5.312 9.52 9.52 0 00-1.164-.837zM195.763 150.552a15.45 15.45 0 00-.392-1.513 14.032 14.032 0 00-3.539-5.717 9.903 9.903 0 00-1.148.834 12.659 12.659 0 013.319 5.19 12.62 12.62 0 01.468 6.142c.216.089.444.161.668.226.224.065.452.101.684.134.076-.397.128-.797.164-1.202a14.44 14.44 0 00-.224-4.094zM202.655 143.217a14.12 14.12 0 00-3.559 5.595v.008a13.93 13.93 0 00-.476 1.76v.008a13.787 13.787 0 00-.272 2.779c0 .462.02.923.064 1.376v.008c.036.372.088.744.152 1.104.14-.012.272-.04.404-.064.208-.037.412-.097.616-.162.108-.041.224-.077.332-.122a12.953 12.953 0 01-.176-2.136c0-1.399.228-2.739.639-3.997v-.008a12.566 12.566 0 013.444-5.312 9.563 9.563 0 00-1.168-.837zM222.355 150.552a15.45 15.45 0 00-.392-1.513 14.024 14.024 0 00-3.54-5.717c-.4.251-.788.534-1.148.834a12.65 12.65 0 013.32 5.19v.008a12.57 12.57 0 01.652 4.01c0 .724-.056 1.436-.184 2.124.216.089.436.161.668.226.224.065.452.101.684.134h.008c.072-.397.12-.797.16-1.202a14.44 14.44 0 00-.228-4.094zM229.251 143.217a14.018 14.018 0 00-3.552 5.595l-.008.008v.008a13.633 13.633 0 00-.476 1.752v.008a13.787 13.787 0 00-.272 2.779c0 .462.02.923.064 1.376v.008c.036.372.088.744.152 1.104.128-.012.252-.032.38-.056.036-.008.076-.012.116-.02.032-.009.064-.013.096-.025.088-.02.172-.04.256-.068.172-.045.344-.102.508-.174a12.974 12.974 0 01-.176-2.137c0-1.399.228-2.738.64-3.997v-.008a12.72 12.72 0 013.444-5.312 9.223 9.223 0 00-1.172-.841z" fill="#F48D83"/><path d="M171.293 170.36v-2.298c0-5.429 2.815-9.022 8.179-11.834.424-.218 1.776-.95 1.776-.95s-1.08-.534-1.776-.539c-3.776-.02-6.548 3.807-8.179 7.202v-6.044c.22 0 .452-.013.671-.045.14-.012.272-.04.404-.065a5.372 5.372 0 00.944-.283 5.51 5.51 0 002.176-1.61 5.53 5.53 0 001.04-4.928 5.428 5.428 0 00-3.656.894 4.723 4.723 0 00-.38-1.031v-.008a5.51 5.51 0 00-1.775-2.08 5.511 5.511 0 00-1.948 2.302c-.14.287-.248.591-.324.898a5.453 5.453 0 00-1.048-.59 5.41 5.41 0 00-2.72-.385 5.515 5.515 0 001.036 4.928 5.477 5.477 0 002.156 1.606c.216.089.444.162.668.219.224.064.452.101.684.133.22.024.444.045.672.045v6.044c-1.632-3.391-4.404-7.222-8.18-7.193-.696 0-1.772.538-1.772.538l1.772.95c5.368 2.804 8.18 6.397 8.18 11.826v2.298h1.4zM207.847 155.278s-1.352.732-1.776.95c-5.363 2.812-8.179 6.405-8.179 11.834v2.298h-1.388v-2.011c-.008-.097-.008-.194-.008-.287 0-.057 0-.122.008-.178v-.085c-.008-.008 0-.012 0-.02-.1-5.276-2.908-8.792-8.179-11.547l-1.776-.95s1.072-.538 1.776-.538c3.767-.025 6.539 3.806 8.179 7.193v-6.045c-.228 0-.456-.02-.68-.044a4.573 4.573 0 01-.684-.134 5.052 5.052 0 01-.668-.218 5.466 5.466 0 01-2.156-1.602 5.529 5.529 0 01-1.036-4.928 5.412 5.412 0 012.724.385c.368.161.724.352 1.048.59.076-.307.184-.611.324-.898a5.425 5.425 0 011.956-2.302 5.575 5.575 0 011.772 2.08v.008a4.8 4.8 0 01.38 1.031c.292-.194.588-.36.9-.489a5.416 5.416 0 012.756-.405c.452 1.663.12 3.5-1.04 4.928a5.444 5.444 0 01-2.508 1.731 5.372 5.372 0 01-.616.162c-.132.025-.268.053-.408.065a4.781 4.781 0 01-.672.045v6.044c1.632-3.395 4.404-7.222 8.179-7.202.692.005 1.772.539 1.772.539zM234.441 155.278s-1.352.732-1.776.95c-5.364 2.812-8.179 6.405-8.179 11.834v2.298h-1.388v-2.011c-.008-.097-.008-.194-.008-.287 0-.057 0-.122.008-.178v-.085c-.008-.008 0-.012 0-.02-.1-5.276-2.908-8.792-8.18-11.547l-1.775-.95s1.071-.538 1.775-.538c3.768-.025 6.54 3.806 8.18 7.193v-6.045c-.228 0-.452-.02-.672-.044h-.008a4.573 4.573 0 01-.684-.134 5.052 5.052 0 01-.668-.218 5.494 5.494 0 01-2.156-1.602 5.529 5.529 0 01-1.036-4.928 5.412 5.412 0 012.724.385c.368.161.724.352 1.048.59a5.12 5.12 0 01.324-.898 5.425 5.425 0 011.956-2.302 5.575 5.575 0 011.772 2.08v.016c.164.328.292.659.38 1.027.292-.194.588-.36.9-.489a5.42 5.42 0 012.759-.405 5.52 5.52 0 01-1.048 4.928 5.394 5.394 0 01-2.683 1.784 1.383 1.383 0 01-.252.069c-.068.02-.14.032-.208.044a3.83 3.83 0 01-.38.057 4.781 4.781 0 01-.672.045v6.044c1.636-3.395 4.403-7.222 8.179-7.202.688.005 1.768.539 1.768.539z" fill="#97CF9B"/><path d="M110.997 211.595v8.375H11.08v-8.375c0-.441.005-.877.015-1.318.407-18.293 9.327-35.333 24.065-45.833l.904-.647 16.487-11.753 2.476-1.764 6.006-4.28 6.017 4.29 2.47 1.759 16.488 11.748.898.642c14.749 10.5 23.668 27.54 24.076 45.833.01.441.015.882.015 1.323z" fill="#F7C4BA"/><path d="M101.774 208.442a26.847 26.847 0 00-3.856-2.752 26.491 26.491 0 00-13.486-3.694 27.879 27.879 0 003.605-13.767 28.52 28.52 0 00-.403-4.791c6.478-.006 12.583 2.375 17.342 6.445v.01c1.08 6.245.044 12.825-3.202 18.549z" fill="#92CB7B"/><path d="M101.775 208.44a27.603 27.603 0 01-2.702 3.935c-2.8 3.403-6.232 5.944-9.984 7.593h-2.176c-4.695-3.754-10.54-5.854-16.59-5.869 5.976-2.236 10.966-6.556 14.11-12.104 4.582 0 9.228 1.193 13.486 3.699a27.169 27.169 0 013.856 2.746z" fill="#1CB16B"/><path d="M109.724 219.969H89.092a26.986 26.986 0 009.985-7.593 27.543 27.543 0 002.701-3.935 27.432 27.432 0 017.946 11.528zM33.002 219.972H12.359c1.592-4.39 4.283-8.39 7.957-11.517a27.143 27.143 0 002.691 3.924c2.8 3.403 6.242 5.949 9.995 7.593z" fill="#92CB7B"/><path d="M51.755 214.099c-6.046.015-11.89 2.115-16.586 5.869H33c-3.753-1.644-7.196-4.19-9.995-7.593a27.663 27.663 0 01-2.692-3.925 26.536 26.536 0 013.856-2.756c4.263-2.511 8.904-3.699 13.486-3.699 3.139 5.548 8.129 9.868 14.101 12.104z" fill="#1CB16B"/><path d="M37.646 201.996a26.466 26.466 0 00-13.487 3.693 26.467 26.467 0 00-3.855 2.757c-3.246-5.719-4.283-12.309-3.212-18.559 4.759-4.08 10.869-6.46 17.347-6.455a28.52 28.52 0 00-.403 4.791 27.998 27.998 0 003.61 13.773z" fill="#92CB7B"/><path d="M35.17 219.968c4.695-3.754 10.535-5.854 16.586-5.869-5.973-2.235-10.963-6.555-14.106-12.103 6.297 0 12.465 2.26 17.347 6.43-3.187-5.639-4.283-12.229-3.192-18.544 4.798 4.115 8.108 9.863 9.238 16.243 1.125-6.375 4.43-12.123 9.228-16.243 1.09 6.315-.014 12.915-3.197 18.544a26.742 26.742 0 0117.357-6.43c-3.144 5.548-8.133 9.873-14.11 12.103 6.055.015 11.895 2.115 16.59 5.869H35.17z" fill="#F48D83"/><path d="M55.005 208.427a26.727 26.727 0 00-17.347-6.431 27.879 27.879 0 01-3.605-13.767c0-1.634.137-3.233.403-4.791 1.551 0 3.113.135 4.695.42a26.597 26.597 0 0112.661 6.025c-1.09 6.32 0 12.91 3.193 18.544z" fill="#1CB16B"/><path d="M61.034 173.557a27.383 27.383 0 00-3.325 3.403 27.626 27.626 0 00-5.903 12.921 26.608 26.608 0 00-12.661-6.024 26.299 26.299 0 00-4.696-.421 27.63 27.63 0 019.239-16.319c6.212 0 12.386 2.19 17.346 6.44zM87.632 183.436c-1.552 0-3.114.135-4.695.421a26.608 26.608 0 00-12.662 6.024 27.693 27.693 0 00-5.913-12.921 27.748 27.748 0 00-3.325-3.403 26.689 26.689 0 0117.347-6.44 27.658 27.658 0 019.248 16.319z" fill="#92CB7B"/><path d="M70.276 189.88c-4.803 4.115-8.108 9.864-9.233 16.244-1.13-6.38-4.435-12.129-9.238-16.244a27.618 27.618 0 015.903-12.92 27.607 27.607 0 013.325-3.403 27.253 27.253 0 013.325 3.403 27.668 27.668 0 015.918 12.92zM88.034 188.229c0 5.017-1.316 9.713-3.605 13.767-6.296 0-12.47 2.256-17.357 6.431 3.188-5.629 4.288-12.224 3.203-18.544a26.619 26.619 0 0117.356-6.445 28.52 28.52 0 01.403 4.791z" fill="#1CB16B"/><path d="M41.938 293.769H18.403v-66.327h23.535v66.327zm7.328-73.799H11.08v81.277h38.186V219.97z" fill="#B1D794"/><path d="M72.807 293.769H49.272v-66.327h23.535v66.327zm7.328-73.799H41.949v81.277h38.186V219.97z" fill="#B1D794"/><path d="M103.672 293.769H80.136v-66.327h23.536v66.327zm7.322-73.799H72.809v81.277h38.185V219.97z" fill="#B1D794"/><path d="M111 301.247H11v5.232h100v-5.232z" fill="#F7C4BA"/><path d="M41.885 240.656c-5.57-2.445-9.911-7.262-11.792-13.201-1.881 5.939-6.223 10.761-11.792 13.201 8.536 3.684 8.536 16.244 0 19.928l.137.06c8.472 3.789 8.472 16.293 0 20.082l-.137.06c5.57 2.446 9.91 7.263 11.792 13.202 1.881-5.939 6.223-10.761 11.792-13.202l-.137-.06c-8.472-3.789-8.472-16.293 0-20.082.044-.02.088-.04.137-.06a2.6 2.6 0 00-.137-.061c-8.36-3.738-8.36-16.068 0-19.807.049-.02.093-.04.137-.06zM72.784 240.656c-5.57-2.445-9.912-7.262-11.793-13.201-1.88 5.939-6.222 10.761-11.792 13.201 8.536 3.684 8.536 16.244 0 19.928l.138.06c8.472 3.789 8.472 16.293 0 20.082l-.138.06c5.57 2.446 9.911 7.263 11.792 13.202 1.881-5.939 6.223-10.761 11.793-13.202l-.138-.06c-8.472-3.789-8.472-16.293 0-20.082.044-.02.088-.04.138-.06a2.6 2.6 0 00-.138-.061c-8.36-3.738-8.36-16.068 0-19.807.05-.02.093-.04.138-.06zM103.684 260.584a2.27 2.27 0 00-.138-.061c-8.359-3.738-8.359-16.073 0-19.807.045-.02.089-.04.138-.06-5.57-2.445-9.911-7.262-11.792-13.201-1.881 5.939-6.223 10.761-11.792 13.201.044.02.088.04.137.06 8.36 3.739 8.36 16.074 0 19.807l-.137.061.137.06c8.472 3.789 8.472 16.293 0 20.082l-.137.06c5.57 2.446 9.91 7.263 11.792 13.202 1.88-5.939 6.222-10.761 11.792-13.202l-.138-.06c-8.472-3.789-8.472-16.293 0-20.082.05-.02.094-.04.138-.06z" fill="#F48D83"/><path d="M81.884 48L49.619 73.07 37 114h75l-.906-17-29.21-46.72V48z" fill="#F7C4BA"/><path d="M122 114H89.665c-1.007-6.686 5.187-9.997 2.717-20.027-1.779-7.245-10.363-4.079-16.59-13.022-4.645-6.686.852-18.811 3.926-24.509 1.175-2.19 1.8-4.842 1.8-7.556l.168-.612.168-.274L122 114z" fill="#F48D83"/><path d="M83 114H0s12.768-22.137 17.113-28.725C22.512 77.094 43.379 56 43.379 56L83 114z" fill="#F7C4BA"/><path d="M83 114H51.339c-.986-5.877 5.079-8.784 2.66-17.6-1.742-6.37-10.147-3.586-16.244-11.444-4.548-5.876.834-16.532 3.844-21.536 1.15-1.926 1.762-4.257 1.762-6.643v-.536l.165-.241L83 114z" fill="#F48D83"/><path d="M128 143.071v3.324c0 5.125 4.072 9.28 9.094 9.28v-3.324c0-5.125-4.072-9.28-9.094-9.28zM137.906 152.351v3.324c5.023 0 9.094-4.155 9.094-9.28v-3.324c-5.022 0-9.094 4.155-9.094 9.28zM128 129.912v3.324c0 5.125 4.072 9.28 9.094 9.28v-3.324c0-5.125-4.072-9.28-9.094-9.28zM137.906 139.192v3.324c5.023 0 9.094-4.155 9.094-9.28v-3.324c-5.022 0-9.094 4.155-9.094 9.28zM128 116.395v3.323c0 5.126 4.072 9.281 9.094 9.281v-3.324c0-5.126-4.072-9.28-9.094-9.28zM147 116.395c-5.022 0-9.094 4.154-9.094 9.28v3.324c5.023 0 9.094-4.155 9.094-9.281v-3.323zM129.471 32h-1.282v83.103h1.282V32zM132.393 32h-1.282v83.103h1.282V32zM135.313 32h-1.282v83.103h1.282V32zM138.219 32h-1.281v83.103h1.281V32zM141.135 32h-1.281v83.103h1.281V32zM144.046 32h-1.282v83.103h1.282V32zM146.962 32h-1.282v83.103h1.282V32z" fill="#231F20"/><path d="M92.185 338.786c0 13.847-8.225 25.65-19.752 30.133a28.283 28.283 0 01-10.286 1.93c-3.613 0-7.08-.682-10.286-1.93-11.522-4.488-19.744-16.286-19.744-30.133 0-.264 0-.524.012-.784h60.044c.012.26.012.52.012.784z" fill="#F7C4BA"/><path d="M80.894 343.619l-12.98-2.277 10.682 8.186.36 7.209-6.755-.383-7.667-11.4 2.136 13.851-4.525 5.364-4.521-5.364 2.127-13.851-7.666 11.4-6.748.383.352-7.209 10.683-8.186-12.973 2.277-5.028-4.829.82-.79h45.903l.82.79-5.02 4.829z" fill="#97CF9B"/><path d="M92.185 399.043c0 17.708-13.448 32.063-30.034 32.063s-30.034-14.355-30.034-32.063c0-17.707 13.448-32.063 30.034-32.063 16.586.006 30.034 14.356 30.034 32.063z" fill="#F7C4BA"/><path d="M85.918 399.045l-5.024-4.824-12.976 2.272 10.682-8.181.357-7.208-6.752.377-7.671 11.405 2.136-13.851-4.525-5.369-4.525 5.369 2.136 13.851-7.672-11.405-6.751-.377.356 7.208 10.683 8.181-12.977-2.272-5.024 4.824 5.024 4.83 12.977-2.277-10.683 8.186-.356 7.208 6.752-.377 7.67-11.406-2.135 13.852 4.525 5.364 4.525-5.364-2.136-13.852 7.671 11.406 6.752.377-.357-7.208-10.682-8.186 12.976 2.277 5.024-4.83z" fill="#97CF9B"/><path d="M121.997 338v62.929c-3.614 0-7.081-.678-10.286-1.926-11.522-4.488-19.744-16.286-19.744-30.132 0-14.687 9.256-27.076 21.872-30.871h8.158z" fill="#F7C4BA"/><path d="M122 343.489v50.759l-4.521-5.364 2.128-13.851-7.667 11.4-6.748.377.353-7.203 10.682-8.186-12.976 2.272-5.024-4.824 5.024-4.83 12.976 2.277-10.682-8.186-.353-7.213 6.748.387 7.667 11.401-2.128-13.852 4.521-5.364z" fill="#97CF9B"/><path d="M121.997 397.071V460h-8.158c-12.616-3.795-21.872-16.174-21.872-30.871 0-13.846 8.225-25.644 19.744-30.127a28.176 28.176 0 0110.286-1.931z" fill="#F7C4BA"/><path d="M122 403.748v50.759l-4.521-5.364 2.128-13.857-7.667 11.411-6.748.377.353-7.208 10.682-8.186-12.976 2.277-5.024-4.83 5.024-4.824 12.976 2.272-10.682-8.186-.353-7.203 6.748.377 7.667 11.4-2.128-13.846 4.521-5.369z" fill="#97CF9B"/><path d="M32.123 369.262c0 13.938-8.55 25.82-20.53 30.333a30.246 30.246 0 01-10.691 1.938c-.305 0-.605-.005-.902-.021v-63.325h9.382c13.125 3.82 22.74 16.291 22.74 31.075z" fill="#F7C4BA"/><path d="M20.012 373.831l-13.24-2.284 10.904 8.23.36 7.242-6.887-.379-7.823-11.462 2.178 13.925-4.615 5.393L0 393.461v-48.96l.889-1.034 4.615 5.393-2.178 13.924 7.823-11.461 6.886-.384-.36 7.247-10.902 8.23 13.239-2.29 5.128 4.855-5.128 4.85z" fill="#97CF9B"/><path d="M32.123 428.529c0 14.788-9.62 27.253-22.741 31.073H0v-63.326c.3-.015.597-.02.902-.02 3.756 0 7.36.682 10.691 1.943 11.984 4.513 20.53 16.393 20.53 30.33z" fill="#F7C4BA"/><path d="M20.012 433.663l-13.24-2.29 10.904 8.23.36 7.247-6.887-.379-7.823-11.472 2.178 13.93-4.615 5.393-.889-1.04v-48.955l.889-1.034 4.615 5.398-2.178 13.92 7.823-11.462 6.886-.379-.36 7.242-10.902 8.23 13.239-2.284 5.128 4.85-5.128 4.855z" fill="#97CF9B"/><path d="M92.171 459.996h-60.04c.257-14.315 9.307-26.332 21.626-30.153a28.147 28.147 0 018.392-1.274c2.912 0 5.73.444 8.392 1.274 12.323 3.821 21.373 15.838 21.63 30.153z" fill="#F7C4BA"/><path d="M85.255 459.993H39.039l4.362-4.187 12.973 2.277-10.682-8.186-.353-7.204 6.748.377 7.667 11.401-2.128-13.851 4.521-5.364 4.525 5.364-2.136 13.851 7.667-11.401 6.756-.377-.36 7.204-10.683 8.186 12.98-2.277 4.359 4.187z" fill="#97CF9B"/><path d="M149.638 426.844h-11.042l1.862-165.347 7.581-.439 1.599 165.786z" fill="#E52226"/><path d="M154.249 260.516c-2.789-1.062-5.637-1.107-7.956-.33l15.362-8.65c-2.562-2.969-7.729-3.421-12.266-.865-3.019 1.699-5.07 4.346-5.787 7.043-.717-2.697-2.768-5.344-5.787-7.046-4.54-2.556-9.704-2.101-12.27.865l15.585 8.776c-2.326-.792-5.188-.749-7.991.319-4.861 1.852-7.88 6.142-7.333 10.057l18.033-6.871 17.74 6.759c.55-3.915-2.469-8.205-7.33-10.057z" fill="#1BB16B"/><path d="M232.961 451.963h-10.039l1.691-151.72h6.896l1.452 151.72z" fill="#E52226"/><path d="M236.995 299.171c-2.343-.92-4.736-.959-6.684-.286l12.905-7.496c-2.156-2.574-6.493-2.966-10.304-.75-2.536 1.472-4.259 3.767-4.861 6.104-.603-2.337-2.326-4.632-4.861-6.107-3.814-2.216-8.152-1.821-10.307.75l13.094 7.606c-1.954-.686-4.358-.65-6.712.276-4.08 1.605-6.619 5.323-6.16 8.716l15.147-5.954 14.902 5.857c.456-3.393-2.079-7.111-6.159-8.716z" fill="#1BB16B"/><path d="M225.281 402.224v23.798h-.049v33.696H206.57v-29.75c0-6.052-5.835-11.936-10.457-15.645-3.033-2.44-5.553-3.938-5.553-3.938s-14.727 9.626-14.727 18.838v30.495h-18.694v-57.494h68.142z" fill="#92CB7B"/><path d="M220.701 429.266h-9.351v-12.515c0-2.804 4.478-5.014 4.478-5.014s4.873 2.189 4.873 5.24v12.289zM171.054 429.266h-9.351v-12.515c0-2.804 4.479-5.014 4.479-5.014s4.872 2.189 4.872 5.24v12.289zM220.705 447.964v11.753h-9.351v-11.975c0-2.804 4.478-5.01 4.478-5.01s4.873 2.194 4.873 5.232zM171.054 447.964v11.753h-9.351v-11.975c0-2.804 4.479-5.01 4.479-5.01s4.872 2.194 4.872 5.232z" fill="#1BB16B"/><path d="M171.636 381.438v20.927h-2.869v-13.518c0-.658-.233-1.252-.614-1.683-.377-.427-.898-.695-1.476-.695-1.163 0-2.098 1.059-2.098 2.378v13.518h-2.868v-20.927h9.925z" fill="#92CB7B"/><path d="M161.879 381.443h-2.418v20.923h2.418v-20.923zM173.935 381.443h-2.417v20.923h2.417v-20.923z" fill="#1BB16B"/><path d="M170.314 379.334l-2.5-1.461v-1.59c.529-.406.877-1.093.877-1.871 0-.925-1.09-2.503-1.659-3.261V366.2h-.672v4.951c-.57.758-1.66 2.336-1.66 3.261 0 .778.348 1.465.877 1.871v1.594l-2.5 1.461-3.618 2.114H173.932l-3.618-2.118z" fill="#1BB16B"/><path d="M220.21 381.438v20.927h-2.869v-13.518c0-.658-.233-1.252-.614-1.683-.377-.427-.898-.695-1.475-.695-1.16 0-2.099 1.059-2.099 2.378v13.518h-2.864v-20.927h9.921z" fill="#92CB7B"/><path d="M210.457 381.443h-2.418v20.923h2.418v-20.923zM222.506 381.443h-2.418v20.923h2.418v-20.923z" fill="#1BB16B"/><path d="M218.894 379.334l-2.5-1.461v-1.59c.529-.406.877-1.093.877-1.871 0-.925-1.09-2.503-1.659-3.261V366.2h-.672v4.951c-.57.758-1.66 2.332-1.66 3.257 0 .778.348 1.465.877 1.871v1.594l-2.5 1.461-3.618 2.113H222.512l-3.618-2.113zM206.567 429.973v29.75h-30.733v-30.499c0-9.212 14.727-18.838 14.727-18.838s2.516 1.502 5.553 3.938c4.618 3.713 10.453 9.597 10.453 15.649z" fill="#1BB16B"/><path d="M240.48 426.18h-15.888v33.251h15.888V426.18z" fill="#92CB7B"/><path d="M240.483 444.458v14.972h-14.444v-14.594c0-5.084 7.521-8.537 7.521-8.537s6.923 3.486 6.923 8.159z" fill="#1BB16B"/><path d="M157.2 425.952H122v33.763h35.2v-33.763z" fill="#92CB7B"/><path d="M136.148 447.887v11.832h-9.343v-12.054c0-2.804 4.479-5.019 4.479-5.019s1.831.825 3.245 2.168c.893.842 1.619 1.896 1.619 3.073zM156.978 444.63v15.089h-16.042v-15.478c0-4.813 7.683-8.404 7.683-8.404s8.359 3.562 8.359 8.793z" fill="#1BB16B"/></g><defs><clipPath id="clip0"><path fill="#fff" d="M0 0h240v460H0z"/></clipPath></defs></svg>