<svg width="240" height="460" viewBox="0 0 240 460" fill="none" xmlns="http://www.w3.org/2000/svg">
<g clip-path="url(#clip0)">
<rect width="240" height="460" fill="white"/>
<path d="M122.123 0H-1V114.059H122.123V0Z" fill="#E52226"/>
<path d="M241 171H122V460H241V171Z" fill="#E8F1CF"/>
<path d="M241 0H154V171H241V0Z" fill="black"/>
<path d="M122 114H-1V338H122V114Z" fill="#1BB16B"/>
<path d="M122 338H0V460H122V338Z" fill="#97CF9B"/>
<path d="M178.529 118.733C178.529 118.733 193.272 136.72 205.199 139.568C217.126 142.42 220.162 112.482 220.162 112.482L218.642 110.508C218.642 110.508 206.823 128.709 178.529 118.733Z" fill="black"/>
<path d="M223.525 95.1127C223.525 103.062 221.141 110.3 217.106 115.871C212.298 122.684 205.143 126.976 197.111 126.976C189.008 126.976 181.744 122.575 176.905 115.624C173.013 110.09 170.697 102.921 170.697 95.1127C170.697 94.2267 170.733 93.3407 170.801 92.4507C170.905 90.9943 171.081 89.6106 171.329 88.227C173.749 74.8481 183.152 64.6287 194.727 63.3867C195.499 63.2815 196.307 63.2451 197.115 63.2451C197.887 63.2451 198.659 63.2815 199.431 63.3503C211.006 64.5559 220.477 74.8116 222.865 88.223C223.109 89.5378 223.285 90.8486 223.393 92.1958C223.489 93.1627 223.525 94.1215 223.525 95.1127Z" fill="#F7C4BA"/>
<path d="M202.53 113.701C202.322 116.432 200.038 118.584 197.286 118.584C194.487 118.584 192.251 116.432 192.047 113.701H192.407C193.083 113.701 194.011 112.419 194.119 112.18C194.403 111.565 194.999 111.233 195.675 111.233C196.351 111.233 196.971 111.602 197.334 112.18C197.594 111.602 198.214 111.233 198.89 111.233C199.566 111.233 200.134 111.598 200.498 112.18C200.618 112.366 201.586 113.701 202.21 113.701H202.53Z" fill="#E52226"/>
<path d="M217.671 94.4512V100.758C217.671 105.957 213.36 110.152 208.148 109.881C204.532 109.695 201.421 107.28 200.173 103.975C200.073 103.716 199.989 103.453 199.917 103.19C199.661 102.631 199.253 102.178 198.741 101.855C198.269 101.555 197.705 101.381 197.105 101.381C196.505 101.381 195.941 101.555 195.469 101.855C194.977 102.162 194.581 102.603 194.321 103.133C194.249 103.416 194.161 103.695 194.045 103.975C192.805 107.276 189.694 109.695 186.078 109.881C180.858 110.152 176.559 105.957 176.559 100.758V94.4512H188.146C191.289 94.4512 193.937 96.7046 194.513 99.6943H199.717C200.293 96.7046 202.941 94.4512 206.084 94.4512H217.671Z" fill="black"/>
<path d="M239.996 142.705C239.996 142.705 239.819 142.648 239.482 142.543C237.813 142.044 232.252 140.419 226.221 139.171C227.954 126.551 229.969 107.715 230.35 97.7617C230.551 92.6433 229.018 86.1672 226.474 80.3639C224.44 75.6954 221.747 71.4604 218.786 68.7047C209.83 60.3725 191.581 60.9723 185.097 64.2509C177.81 67.9306 173.12 73.7339 170.178 80.3639C161.379 100.177 168.18 127.366 168.18 127.366L154 139.714V171H240V170.587L239.996 142.705ZM198.683 82.0255C198.683 82.0255 221.715 88.2341 222.449 94.6412C222.826 97.9724 221.133 104.473 218.826 111.354C218.377 112.691 217.903 114.045 217.418 115.394C217.418 115.403 217.418 115.403 217.41 115.407V115.415C213.971 124.995 209.914 134.259 209.124 135.832C204.265 134.904 203.27 134.733 203.113 134.709C194.302 132.391 187.569 127.698 182.657 122.231L182.649 122.223C181.935 121.429 181.265 120.622 180.627 119.804C172.004 108.696 170.255 95.5125 173.352 92.4852C177.469 88.4489 190.799 82.5321 195.746 81.8472C196.737 81.7135 197.728 81.7661 198.683 82.0255Z" fill="#1BB16B"/>
<path d="M169.169 150.552C169.061 150.034 168.933 149.532 168.777 149.039C168.066 146.842 166.842 144.888 165.238 143.322C164.83 143.573 164.45 143.856 164.09 144.156C165.586 145.568 166.742 147.344 167.41 149.346C167.83 150.613 168.062 151.96 168.062 153.364C168.062 154.088 167.998 154.8 167.878 155.488C168.094 155.577 168.322 155.649 168.545 155.714C168.769 155.779 168.997 155.815 169.229 155.848C169.305 155.451 169.357 155.051 169.393 154.646C169.429 154.221 169.449 153.792 169.449 153.364C169.449 152.401 169.345 151.458 169.169 150.552Z" fill="#F48D83"/>
<path d="M176.062 143.217C174.47 144.758 173.23 146.668 172.502 148.812V148.82C172.306 149.399 172.146 149.977 172.026 150.58V150.588C171.842 151.486 171.746 152.409 171.746 153.367C171.746 153.829 171.77 154.29 171.818 154.743V154.751C171.854 155.123 171.902 155.495 171.97 155.855C172.11 155.843 172.242 155.815 172.374 155.791C172.582 155.754 172.786 155.694 172.99 155.629C173.098 155.588 173.214 155.552 173.318 155.507C173.202 154.816 173.142 154.096 173.142 153.371C173.142 151.972 173.37 150.632 173.782 149.374V149.366C174.466 147.307 175.666 145.478 177.226 144.054C176.862 143.743 176.466 143.468 176.062 143.217Z" fill="#F48D83"/>
<path d="M195.763 150.552C195.655 150.034 195.527 149.532 195.371 149.039C194.659 146.842 193.435 144.888 191.832 143.322C191.424 143.573 191.044 143.856 190.684 144.156C192.179 145.568 193.335 147.344 194.003 149.346C194.427 150.613 194.655 151.96 194.655 153.364C194.655 154.088 194.591 154.8 194.471 155.488C194.687 155.577 194.915 155.649 195.139 155.714C195.363 155.779 195.591 155.815 195.823 155.848C195.899 155.451 195.951 155.051 195.987 154.646C196.023 154.221 196.043 153.792 196.043 153.364C196.039 152.401 195.947 151.458 195.763 150.552Z" fill="#F48D83"/>
<path d="M202.655 143.217C201.063 144.758 199.824 146.668 199.096 148.812V148.82C198.9 149.399 198.74 149.977 198.62 150.58V150.588C198.436 151.486 198.348 152.409 198.348 153.367C198.348 153.829 198.368 154.29 198.412 154.743V154.751C198.448 155.123 198.5 155.495 198.564 155.855C198.704 155.843 198.836 155.815 198.968 155.791C199.176 155.754 199.38 155.694 199.584 155.629C199.692 155.588 199.808 155.552 199.916 155.507C199.8 154.816 199.74 154.096 199.74 153.371C199.74 151.972 199.968 150.632 200.379 149.374V149.366C201.063 147.307 202.263 145.478 203.823 144.054C203.455 143.743 203.063 143.468 202.655 143.217Z" fill="#F48D83"/>
<path d="M222.355 150.552C222.247 150.034 222.119 149.532 221.963 149.039C221.251 146.842 220.027 144.888 218.423 143.322C218.023 143.573 217.635 143.856 217.275 144.156C218.771 145.568 219.927 147.344 220.595 149.346V149.354C221.019 150.621 221.247 151.96 221.247 153.364C221.247 154.088 221.191 154.8 221.063 155.488C221.279 155.577 221.499 155.649 221.731 155.714C221.955 155.779 222.183 155.815 222.415 155.848H222.423C222.495 155.451 222.543 155.051 222.583 154.646C222.619 154.221 222.639 153.792 222.639 153.364C222.635 152.401 222.539 151.458 222.355 150.552Z" fill="#F48D83"/>
<path d="M229.251 143.217C227.659 144.758 226.419 146.668 225.699 148.812L225.691 148.82V148.828C225.495 149.399 225.335 149.981 225.215 150.58V150.588C225.031 151.486 224.943 152.409 224.943 153.367C224.943 153.829 224.963 154.29 225.007 154.743V154.751C225.043 155.123 225.095 155.495 225.159 155.855C225.287 155.843 225.411 155.823 225.539 155.799C225.575 155.791 225.615 155.787 225.655 155.779C225.687 155.77 225.719 155.766 225.751 155.754C225.839 155.734 225.923 155.714 226.007 155.686C226.179 155.641 226.351 155.584 226.515 155.512C226.399 154.82 226.339 154.1 226.339 153.375C226.339 151.976 226.567 150.637 226.979 149.378V149.37C227.671 147.311 228.871 145.482 230.423 144.058C230.051 143.743 229.663 143.468 229.251 143.217Z" fill="#F48D83"/>
<path d="M171.293 170.36V170.335V168.062C171.293 162.633 174.108 159.04 179.472 156.228C179.896 156.01 181.248 155.278 181.248 155.278C181.248 155.278 180.168 154.744 179.472 154.739C175.696 154.719 172.924 158.546 171.293 161.941V155.897C171.513 155.897 171.745 155.884 171.964 155.852C172.104 155.84 172.236 155.812 172.368 155.787C172.576 155.747 172.78 155.69 172.984 155.625C173.092 155.589 173.204 155.549 173.312 155.504C174.132 155.168 174.884 154.63 175.488 153.894C176.648 152.462 176.972 150.629 176.528 148.966C175.596 148.857 174.644 148.999 173.772 149.371C173.46 149.5 173.164 149.666 172.872 149.86C172.784 149.496 172.656 149.152 172.492 148.829V148.821C172.084 147.987 171.473 147.275 170.717 146.741C169.873 147.308 169.189 148.109 168.769 149.043C168.629 149.33 168.521 149.634 168.445 149.941C168.121 149.703 167.765 149.512 167.397 149.351C166.533 148.991 165.601 148.857 164.677 148.966C164.225 150.629 164.557 152.466 165.713 153.894C166.309 154.626 167.057 155.164 167.869 155.5C168.085 155.589 168.313 155.662 168.537 155.719C168.761 155.783 168.989 155.82 169.221 155.852C169.441 155.876 169.665 155.897 169.893 155.897V161.941C168.261 158.55 165.489 154.719 161.713 154.748C161.017 154.748 159.941 155.286 159.941 155.286C159.941 155.286 161.293 156.01 161.713 156.236C167.081 159.04 169.893 162.633 169.893 168.062V170.335V170.36H171.293V170.36Z" fill="#97CF9B"/>
<path d="M207.847 155.278C207.847 155.278 206.495 156.01 206.071 156.228C200.708 159.04 197.892 162.633 197.892 168.062V170.36H196.504V168.349C196.496 168.252 196.496 168.155 196.496 168.062C196.496 168.005 196.496 167.94 196.504 167.884V167.799C196.496 167.791 196.504 167.787 196.504 167.779C196.404 162.503 193.596 158.987 188.325 156.232C187.901 156.006 186.549 155.282 186.549 155.282C186.549 155.282 187.621 154.744 188.325 154.744C192.092 154.719 194.864 158.55 196.504 161.937V155.892C196.276 155.892 196.048 155.872 195.824 155.848C195.588 155.816 195.36 155.779 195.14 155.714C194.92 155.658 194.688 155.585 194.472 155.496C193.66 155.164 192.912 154.622 192.316 153.894C191.16 152.462 190.832 150.629 191.28 148.966C192.208 148.857 193.144 148.991 194.004 149.351C194.372 149.512 194.728 149.703 195.052 149.941C195.128 149.634 195.236 149.33 195.376 149.043C195.796 148.105 196.48 147.304 197.332 146.741C198.08 147.275 198.696 147.987 199.104 148.821V148.829C199.268 149.156 199.396 149.496 199.484 149.86C199.776 149.666 200.072 149.5 200.384 149.371C201.252 148.999 202.204 148.857 203.14 148.966C203.592 150.629 203.26 152.466 202.1 153.894C201.496 154.63 200.748 155.172 199.924 155.504C199.816 155.549 199.7 155.589 199.592 155.625C199.388 155.69 199.184 155.747 198.976 155.787C198.844 155.812 198.708 155.84 198.568 155.852C198.344 155.884 198.116 155.897 197.896 155.897V161.941C199.528 158.546 202.3 154.719 206.075 154.739C206.767 154.744 207.847 155.278 207.847 155.278Z" fill="#97CF9B"/>
<path d="M234.441 155.278C234.441 155.278 233.089 156.01 232.665 156.228C227.301 159.04 224.486 162.633 224.486 168.062V170.36H223.098V168.349C223.09 168.252 223.09 168.155 223.09 168.062C223.09 168.005 223.09 167.94 223.098 167.884V167.799C223.09 167.791 223.098 167.787 223.098 167.779C222.998 162.503 220.19 158.987 214.918 156.232C214.494 156.006 213.143 155.282 213.143 155.282C213.143 155.282 214.214 154.744 214.918 154.744C218.686 154.719 221.458 158.55 223.098 161.937V155.892C222.87 155.892 222.646 155.872 222.426 155.848H222.418C222.182 155.816 221.954 155.779 221.734 155.714C221.514 155.658 221.282 155.585 221.066 155.496C220.254 155.164 219.51 154.622 218.91 153.894C217.754 152.462 217.426 150.629 217.874 148.966C218.802 148.857 219.738 148.991 220.598 149.351C220.966 149.512 221.322 149.703 221.646 149.941C221.73 149.634 221.83 149.33 221.97 149.043C222.39 148.105 223.074 147.304 223.926 146.741C224.674 147.275 225.29 147.987 225.698 148.821V148.829V148.837C225.862 149.165 225.99 149.496 226.078 149.864C226.37 149.67 226.666 149.504 226.978 149.375C227.845 149.003 228.797 148.861 229.737 148.97C230.181 150.633 229.853 152.47 228.689 153.898C228.093 154.634 227.337 155.176 226.514 155.508C226.35 155.577 226.178 155.638 226.006 155.682C225.922 155.714 225.842 155.735 225.754 155.751C225.686 155.771 225.614 155.783 225.546 155.795C225.418 155.82 225.294 155.84 225.166 155.852C224.942 155.884 224.714 155.897 224.494 155.897V161.941C226.13 158.546 228.897 154.719 232.673 154.739C233.361 154.744 234.441 155.278 234.441 155.278Z" fill="#97CF9B"/>
<path d="M110.997 211.595V219.97H11.0801V211.595C11.0801 211.154 11.085 210.718 11.0948 210.277C11.5025 191.984 20.4215 174.944 35.1604 164.444L36.0641 163.797L52.5515 152.044L55.0268 150.28L61.0334 146L67.0498 150.29L69.5202 152.049L86.0076 163.797L86.9064 164.439C101.655 174.939 110.574 191.979 110.982 210.272C110.992 210.713 110.997 211.154 110.997 211.595Z" fill="#F7C4BA"/>
<path d="M101.774 208.442C100.59 207.429 99.3081 206.507 97.9182 205.69C93.665 203.184 89.0139 201.996 84.4316 201.996C86.7252 197.942 88.0366 193.241 88.0366 188.229C88.0366 186.595 87.899 184.996 87.6338 183.438C94.1119 183.432 100.217 185.813 104.976 189.883V189.893C106.056 196.138 105.02 202.718 101.774 208.442Z" fill="#92CB7B"/>
<path d="M101.775 208.44C101.003 209.809 100.1 211.122 99.0733 212.375C96.2738 215.778 92.8408 218.319 89.0885 219.968H86.9128C82.2176 216.214 76.373 214.114 70.3223 214.099C76.2994 211.863 81.2893 207.543 84.4326 201.995C89.0149 201.995 93.661 203.188 97.9191 205.694C99.3041 206.506 100.591 207.433 101.775 208.44Z" fill="#1CB16B"/>
<path d="M109.724 219.969H89.0918C92.8392 218.32 96.2771 215.779 99.0766 212.376C100.103 211.123 101.007 209.81 101.778 208.441C105.442 211.579 108.138 215.578 109.724 219.969Z" fill="#92CB7B"/>
<path d="M33.0018 219.972H12.3594C13.9507 215.582 16.6421 211.582 20.3158 208.455C21.0868 209.823 21.9807 211.131 23.0072 212.379C25.8067 215.782 29.2495 218.328 33.0018 219.972Z" fill="#92CB7B"/>
<path d="M51.755 214.099C45.7091 214.114 39.8646 216.214 35.1693 219.968H32.9985C29.2462 218.324 25.8034 215.778 23.0039 212.375C21.9774 211.122 21.0836 209.814 20.3125 208.45C21.4912 207.433 22.7829 206.511 24.1679 205.694C28.431 203.183 33.0722 201.995 37.6545 201.995C40.7928 207.543 45.7828 211.863 51.755 214.099Z" fill="#1CB16B"/>
<path d="M37.6459 201.996C33.0636 201.996 28.4224 203.178 24.1594 205.689C22.7694 206.506 21.4876 207.428 20.3039 208.446C17.0575 202.727 16.0213 196.137 17.0919 189.887C21.851 185.807 27.9607 183.427 34.4388 183.432C34.1736 184.99 34.0361 186.589 34.0361 188.223C34.041 193.24 35.3572 197.941 37.6459 201.996Z" fill="#92CB7B"/>
<path d="M35.1699 219.968C39.8652 216.214 45.7048 214.114 51.7556 214.099C45.7834 211.864 40.7934 207.544 37.6502 201.996C43.9465 201.996 50.1152 204.256 54.997 208.426C51.8096 202.787 50.7143 196.197 51.8047 189.882C56.6031 193.997 59.9133 199.745 61.0429 206.125C62.1676 199.75 65.473 194.002 70.2713 189.882C71.3617 196.197 70.2566 202.797 67.0741 208.426C71.9559 204.251 78.1344 201.996 84.4308 201.996C81.2875 207.544 76.2976 211.869 70.3205 214.099C76.3761 214.114 82.2157 216.214 86.911 219.968H35.1699V219.968Z" fill="#F48D83"/>
<path d="M55.0045 208.427C50.1227 204.252 43.9491 201.996 37.6577 201.996C35.3641 197.942 34.0527 193.241 34.0527 188.229C34.0527 186.595 34.1902 184.996 34.4555 183.438C36.0074 183.438 37.5693 183.573 39.1507 183.858C43.9933 184.726 48.3006 186.871 51.8122 189.883C50.7218 196.203 51.8122 202.793 55.0045 208.427Z" fill="#1CB16B"/>
<path d="M61.0344 173.557C59.8507 174.575 58.7358 175.708 57.7094 176.96C54.5514 180.805 52.5917 185.27 51.8059 189.881C48.2943 186.869 43.9821 184.724 39.1445 183.857C37.563 183.571 36.0012 183.436 34.4492 183.436C35.5641 176.92 38.9284 171.197 43.6875 167.117C49.9003 167.117 56.0739 169.307 61.0344 173.557Z" fill="#92CB7B"/>
<path d="M87.6321 183.436C86.0801 183.436 84.5183 183.571 82.9368 183.857C78.0991 184.724 73.787 186.869 70.2754 189.881C69.4846 185.27 67.5201 180.805 64.3621 176.96C63.3356 175.708 62.2158 174.575 61.0371 173.557C65.9927 169.307 72.1711 167.127 78.384 167.117C83.1529 171.197 86.5074 176.925 87.6321 183.436Z" fill="#92CB7B"/>
<path d="M70.2763 189.88C65.473 193.995 62.1676 199.744 61.0429 206.124C59.9133 199.744 56.608 193.995 51.8047 189.88C52.5905 185.269 54.5501 180.804 57.7081 176.96C58.7346 175.707 59.8544 174.574 61.0331 173.557C62.2168 174.574 63.3316 175.707 64.3581 176.96C67.521 180.804 69.4855 185.274 70.2763 189.88Z" fill="#1CB16B"/>
<path d="M88.0339 188.229C88.0339 193.246 86.7177 197.942 84.429 201.996C78.1326 201.996 71.9591 204.252 67.0723 208.427C70.2597 202.798 71.3599 196.203 70.2745 189.883C73.7861 186.871 78.0982 184.726 82.9359 183.858C84.5174 183.573 86.0792 183.438 87.6312 183.438C87.8964 184.996 88.0339 186.595 88.0339 188.229Z" fill="#1CB16B"/>
<path d="M41.9381 293.769H18.4029V227.442H41.9381V293.769ZM49.2658 219.97H11.0801V301.247H49.2658V219.97Z" fill="#B1D794"/>
<path d="M72.8072 293.769H49.272V227.442H72.8072V293.769ZM80.135 219.97H41.9492V301.247H80.135V219.97Z" fill="#B1D794"/>
<path d="M103.672 293.769H80.1363V227.442H103.672V293.769ZM110.994 219.97H72.8086V301.247H110.994V219.97Z" fill="#B1D794"/>
<path d="M111 301.247H11V306.479H111V301.247Z" fill="#F7C4BA"/>
<path d="M41.8851 240.656C36.3156 238.211 31.974 233.394 30.0929 227.455C28.2119 233.394 23.8703 238.216 18.3008 240.656C26.8367 244.34 26.8367 256.9 18.3008 260.584C18.345 260.604 18.3941 260.624 18.4383 260.644C26.9104 264.433 26.9104 276.937 18.4383 280.726C18.3941 280.746 18.345 280.766 18.3008 280.786C23.8703 283.232 28.2119 288.049 30.0929 293.988C31.974 288.049 36.3156 283.227 41.8851 280.786C41.8409 280.766 41.7918 280.746 41.7476 280.726C33.2755 276.937 33.2755 264.433 41.7476 260.644C41.7918 260.624 41.836 260.604 41.8851 260.584C41.8409 260.563 41.7967 260.543 41.7476 260.523C33.3885 256.785 33.3885 244.455 41.7476 240.716C41.7967 240.696 41.8409 240.676 41.8851 240.656Z" fill="#F48D83"/>
<path d="M72.7835 240.656C67.2141 238.211 62.8724 233.394 60.9914 227.455C59.1103 233.394 54.7687 238.216 49.1992 240.656C57.7351 244.34 57.7351 256.9 49.1992 260.584C49.2434 260.604 49.2925 260.624 49.3367 260.644C57.8088 264.433 57.8088 276.937 49.3367 280.726C49.2925 280.746 49.2434 280.766 49.1992 280.786C54.7687 283.232 59.1103 288.049 60.9914 293.988C62.8724 288.049 67.2141 283.227 72.7835 280.786C72.7393 280.766 72.6902 280.746 72.646 280.726C64.1739 276.937 64.1739 264.433 72.646 260.644C72.6902 260.624 72.7344 260.604 72.7835 260.584C72.7393 260.563 72.6951 260.543 72.646 260.523C64.2869 256.785 64.2869 244.455 72.646 240.716C72.6951 240.696 72.7393 240.676 72.7835 240.656Z" fill="#F48D83"/>
<path d="M103.684 260.584C103.64 260.563 103.596 260.543 103.546 260.523C95.1873 256.785 95.1873 244.45 103.546 240.716C103.591 240.696 103.635 240.676 103.684 240.656C98.1144 238.211 93.7728 233.394 91.8918 227.455C90.0107 233.394 85.6691 238.216 80.0996 240.656C80.1438 240.676 80.188 240.696 80.2371 240.716C88.5963 244.455 88.5963 256.79 80.2371 260.523C80.1929 260.543 80.1487 260.563 80.0996 260.584C80.1438 260.604 80.1929 260.624 80.2371 260.644C88.7092 264.433 88.7092 276.937 80.2371 280.726C80.1929 280.746 80.1438 280.766 80.0996 280.786C85.6691 283.232 90.0107 288.049 91.8918 293.988C93.7728 288.049 98.1144 283.227 103.684 280.786C103.64 280.766 103.591 280.746 103.546 280.726C95.0743 276.937 95.0743 264.433 103.546 260.644C103.596 260.624 103.64 260.604 103.684 260.584Z" fill="#F48D83"/>
<path d="M81.8836 48L49.6191 73.0702L37 114H112L111.094 97.0007L81.8836 50.2791V48Z" fill="#F7C4BA"/>
<path d="M122 114H89.6654C88.6585 107.314 94.852 104.003 92.3825 93.9727C90.603 86.7281 82.0192 89.8943 75.7926 80.9506C71.1475 74.2647 76.6444 62.1396 79.7181 56.442C80.8934 54.2526 81.5174 51.5996 81.5174 48.8857L81.6857 48.2737L81.8541 48L122 114Z" fill="#F48D83"/>
<path d="M83 114H0C0 114 12.768 91.8629 17.1127 85.2754C22.5119 77.0939 43.3787 56 43.3787 56L83 114Z" fill="#F7C4BA"/>
<path d="M83 114H51.339C50.3531 108.123 56.4176 105.216 53.9995 96.3994C52.2571 90.0303 43.8521 92.8136 37.7553 84.9562C33.2069 79.0796 38.5893 68.4244 41.5989 63.4196C42.7498 61.4936 43.3608 59.1626 43.3608 56.777V56.2408L43.5256 56L83 114Z" fill="#F48D83"/>
<path d="M128 143.071V146.395C128 151.52 132.072 155.675 137.094 155.675V152.351C137.094 147.226 133.022 143.071 128 143.071Z" fill="#231F20"/>
<path d="M137.906 152.351V155.675C142.929 155.675 147 151.52 147 146.395V143.071C141.978 143.071 137.906 147.226 137.906 152.351Z" fill="#231F20"/>
<path d="M128 129.912V133.236C128 138.361 132.072 142.516 137.094 142.516V139.192C137.094 134.067 133.022 129.912 128 129.912Z" fill="#231F20"/>
<path d="M137.906 139.192V142.516C142.929 142.516 147 138.361 147 133.236V129.912C141.978 129.912 137.906 134.067 137.906 139.192Z" fill="#231F20"/>
<path d="M128 116.395V119.718C128 124.844 132.072 128.999 137.094 128.999V125.675C137.094 120.549 133.022 116.395 128 116.395Z" fill="#231F20"/>
<path d="M147 116.395C141.978 116.395 137.906 120.549 137.906 125.675V128.999C142.929 128.999 147 124.844 147 119.718V116.395Z" fill="#231F20"/>
<path d="M129.471 32H128.189V115.103H129.471V32Z" fill="#231F20"/>
<path d="M132.393 32H131.111V115.103H132.393V32Z" fill="#231F20"/>
<path d="M135.313 32H134.031V115.103H135.313V32Z" fill="#231F20"/>
<path d="M138.219 32H136.938V115.103H138.219V32Z" fill="#231F20"/>
<path d="M141.135 32H139.854V115.103H141.135V32Z" fill="#231F20"/>
<path d="M144.046 32H142.764V115.103H144.046V32Z" fill="#231F20"/>
<path d="M146.962 32H145.68V115.103H146.962V32Z" fill="#231F20"/>
<path d="M92.1853 338.786C92.1853 352.633 83.9596 364.436 72.4333 368.919C69.2279 370.167 65.7609 370.849 62.1473 370.849C58.5337 370.849 55.0667 370.167 51.8612 368.919C40.3389 364.431 32.1172 352.633 32.1172 338.786C32.1172 338.522 32.1172 338.262 32.1291 338.002H92.1734C92.1853 338.262 92.1853 338.522 92.1853 338.786Z" fill="#F7C4BA"/>
<path d="M80.8942 343.619L67.9138 341.342L78.5961 349.528L78.9567 356.737L72.201 356.354L64.534 344.954L66.6697 358.805L62.1447 364.169L57.6238 358.805L59.7515 344.954L52.0845 356.354L45.3368 356.737L45.6894 349.528L56.3717 341.342L43.3992 343.619L38.3711 338.79L39.1913 338H85.0942L85.9144 338.79L80.8942 343.619Z" fill="#97CF9B"/>
<path d="M92.1853 399.043C92.1853 416.751 78.7373 431.106 62.1512 431.106C45.5652 431.106 32.1172 416.751 32.1172 399.043C32.1172 381.336 45.5652 366.98 62.1512 366.98C78.7373 366.986 92.1853 381.336 92.1853 399.043Z" fill="#F7C4BA"/>
<path d="M85.9184 399.045L80.8942 394.221L67.9178 396.493L78.6001 388.312L78.9567 381.104L72.205 381.481L64.534 392.886L66.6697 379.035L62.1448 373.666L57.6198 379.035L59.7555 392.886L52.0845 381.481L45.3328 381.104L45.6894 388.312L56.3717 396.493L43.3953 394.221L38.3711 399.045L43.3953 403.875L56.3717 401.598L45.6894 409.784L45.3328 416.992L52.0845 416.615L59.7555 405.209L57.6198 419.061L62.1448 424.425L66.6697 419.061L64.534 405.209L72.205 416.615L78.9567 416.992L78.6001 409.784L67.9178 401.598L80.8942 403.875L85.9184 399.045Z" fill="#97CF9B"/>
<path d="M121.997 338V400.929C118.383 400.929 114.916 400.251 111.711 399.003C100.189 394.515 91.9668 382.717 91.9668 368.871C91.9668 354.184 101.223 341.795 113.839 338H121.997Z" fill="#F7C4BA"/>
<path d="M122 343.489V394.248L117.479 388.884L119.607 375.033L111.94 386.433L105.192 386.81L105.545 379.607L116.227 371.421L103.251 373.693L98.2266 368.869L103.251 364.039L116.227 366.316L105.545 358.13L105.192 350.917L111.94 351.304L119.607 362.705L117.479 348.853L122 343.489Z" fill="#97CF9B"/>
<path d="M121.997 397.071V460H113.839C101.223 456.205 91.9668 443.826 91.9668 429.129C91.9668 415.283 100.192 403.485 111.711 399.002C114.916 397.749 118.383 397.071 121.997 397.071Z" fill="#F7C4BA"/>
<path d="M122 403.748V454.507L117.479 449.143L119.607 435.286L111.94 446.697L105.192 447.074L105.545 439.866L116.227 431.68L103.251 433.957L98.2266 429.127L103.251 424.303L116.227 426.575L105.545 418.389L105.192 411.186L111.94 411.563L119.607 422.963L117.479 409.117L122 403.748Z" fill="#97CF9B"/>
<path d="M32.1229 369.262C32.1229 383.2 23.5732 395.082 11.5931 399.595C8.26134 400.851 4.65782 401.533 0.901912 401.533C0.597157 401.533 0.296519 401.528 0 401.512V338.187H9.38152C22.5066 342.007 32.1229 354.478 32.1229 369.262Z" fill="#F7C4BA"/>
<path d="M20.0115 373.831L6.77287 371.547L17.6757 379.777L18.0354 387.019L11.1494 386.64L3.32582 375.178L5.50397 389.103L0.889041 394.496L0 393.461V344.501L0.889041 343.467L5.50397 348.86L3.32582 362.784L11.1494 351.323L18.0354 350.939L17.6757 358.186L6.77287 366.416L20.0115 364.126L25.1396 368.981L20.0115 373.831Z" fill="#97CF9B"/>
<path d="M32.1229 428.529C32.1229 443.317 22.5025 455.782 9.38152 459.602H0V396.276C0.300637 396.261 0.597157 396.256 0.901912 396.256C4.65782 396.256 8.26134 396.938 11.5931 398.199C23.5774 402.712 32.1229 414.592 32.1229 428.529Z" fill="#F7C4BA"/>
<path d="M20.0115 433.663L6.77287 431.373L17.6757 439.603L18.0354 446.85L11.1494 446.471L3.32582 434.999L5.50397 448.929L0.889041 454.322L0 453.282V404.327L0.889041 403.293L5.50397 408.691L3.32582 422.611L11.1494 411.149L18.0354 410.77L17.6757 418.012L6.77287 426.242L20.0115 423.958L25.1396 428.808L20.0115 433.663Z" fill="#97CF9B"/>
<path d="M92.1712 459.996H32.1309C32.3884 445.681 41.4382 433.664 53.757 429.843C56.4196 429.013 59.2368 428.569 62.1491 428.569C65.0613 428.569 67.8785 429.013 70.5412 429.843C82.8638 433.664 91.9137 445.681 92.1712 459.996Z" fill="#F7C4BA"/>
<path d="M85.255 459.993H39.0391L43.4015 455.806L56.374 458.083L45.6917 449.897L45.3391 442.693L52.0868 443.07L59.7538 454.471L57.6261 440.62L62.1471 435.256L66.672 440.62L64.5363 454.471L72.2033 443.07L78.959 442.693L78.5984 449.897L67.9161 458.083L80.8965 455.806L85.255 459.993Z" fill="#97CF9B"/>
<path d="M149.638 426.844H138.596L140.458 261.497L148.039 261.058L149.638 426.844Z" fill="#E52226"/>
<path d="M154.249 260.516C151.46 259.454 148.612 259.409 146.293 260.186L161.655 251.536C159.093 248.567 153.926 248.115 149.389 250.671C146.37 252.37 144.319 255.017 143.602 257.714C142.885 255.017 140.834 252.37 137.815 250.668C133.275 248.112 128.111 248.567 125.545 251.533L141.13 260.309C138.804 259.517 135.942 259.56 133.139 260.628C128.278 262.48 125.259 266.77 125.806 270.685L143.839 263.814L161.579 270.573C162.129 266.658 159.11 262.368 154.249 260.516Z" fill="#1BB16B"/>
<path d="M232.961 451.963H222.922L224.613 300.243H231.509L232.961 451.963Z" fill="#E52226"/>
<path d="M236.995 299.171C234.652 298.251 232.259 298.212 230.311 298.885L243.216 291.389C241.06 288.815 236.723 288.423 232.912 290.639C230.376 292.111 228.653 294.406 228.051 296.743C227.448 294.406 225.725 292.111 223.19 290.636C219.376 288.42 215.038 288.815 212.883 291.386L225.977 298.992C224.023 298.306 221.619 298.342 219.265 299.268C215.185 300.873 212.646 304.591 213.105 307.984L228.252 302.03L243.154 307.887C243.61 304.494 241.075 300.776 236.995 299.171Z" fill="#1BB16B"/>
<path d="M225.281 402.224V426.022H225.232V459.718H206.57V429.968C206.57 423.916 200.735 418.032 196.113 414.323C193.08 411.883 190.56 410.385 190.56 410.385C190.56 410.385 175.833 420.011 175.833 429.223V459.718H157.139V402.224H225.281Z" fill="#92CB7B"/>
<path d="M220.701 429.266H211.35V416.751C211.35 413.947 215.828 411.737 215.828 411.737C215.828 411.737 220.701 413.926 220.701 416.977V429.266V429.266Z" fill="#1BB16B"/>
<path d="M171.054 429.266H161.703V416.751C161.703 413.947 166.182 411.737 166.182 411.737C166.182 411.737 171.054 413.926 171.054 416.977V429.266Z" fill="#1BB16B"/>
<path d="M220.705 447.964V459.717H211.354V447.742C211.354 444.938 215.832 442.732 215.832 442.732C215.832 442.732 220.705 444.926 220.705 447.964Z" fill="#1BB16B"/>
<path d="M171.054 447.964V459.717H161.703V447.742C161.703 444.938 166.182 442.732 166.182 442.732C166.182 442.732 171.054 444.926 171.054 447.964Z" fill="#1BB16B"/>
<path d="M171.636 381.438V402.365H168.767V388.847C168.767 388.189 168.534 387.595 168.153 387.164C167.776 386.737 167.255 386.469 166.677 386.469C165.514 386.469 164.579 387.528 164.579 388.847V402.365H161.711V381.438H171.636Z" fill="#92CB7B"/>
<path d="M161.879 381.443H159.461V402.366H161.879V381.443Z" fill="#1BB16B"/>
<path d="M173.935 381.443H171.518V402.366H173.935V381.443Z" fill="#1BB16B"/>
<path d="M170.314 379.334L167.814 377.873V376.283C168.343 375.877 168.691 375.19 168.691 374.412C168.691 373.487 167.601 371.909 167.032 371.151V366.2H166.36V371.151C165.79 371.909 164.7 373.487 164.7 374.412C164.7 375.19 165.048 375.877 165.577 376.283V377.877L163.077 379.338L159.459 381.452H166.696H173.932L170.314 379.334Z" fill="#1BB16B"/>
<path d="M220.21 381.438V402.365H217.341V388.847C217.341 388.189 217.108 387.595 216.727 387.164C216.35 386.737 215.829 386.469 215.252 386.469C214.092 386.469 213.153 387.528 213.153 388.847V402.365H210.289V381.438H220.21Z" fill="#92CB7B"/>
<path d="M210.457 381.443H208.039V402.366H210.457V381.443Z" fill="#1BB16B"/>
<path d="M222.506 381.443H220.088V402.366H222.506V381.443Z" fill="#1BB16B"/>
<path d="M218.894 379.334L216.394 377.873V376.283C216.923 375.877 217.271 375.19 217.271 374.412C217.271 373.487 216.181 371.909 215.612 371.151V366.2H214.94V371.151C214.37 371.909 213.28 373.483 213.28 374.408C213.28 375.186 213.628 375.873 214.157 376.279V377.873L211.657 379.334L208.039 381.447H215.276H222.512L218.894 379.334Z" fill="#1BB16B"/>
<path d="M206.567 429.973V459.723H175.834V429.224C175.834 420.012 190.561 410.386 190.561 410.386C190.561 410.386 193.077 411.888 196.114 414.324C200.732 418.037 206.567 423.921 206.567 429.973Z" fill="#1BB16B"/>
<path d="M240.48 426.18H224.592V459.431H240.48V426.18Z" fill="#92CB7B"/>
<path d="M240.483 444.458V459.43H226.039V444.836C226.039 439.752 233.56 436.299 233.56 436.299C233.56 436.299 240.483 439.785 240.483 444.458Z" fill="#1BB16B"/>
<path d="M157.2 425.952H122V459.715H157.2V425.952Z" fill="#92CB7B"/>
<path d="M136.148 447.887V459.719H126.805V447.665C126.805 444.861 131.284 442.646 131.284 442.646C131.284 442.646 133.115 443.471 134.529 444.814C135.422 445.656 136.148 446.71 136.148 447.887Z" fill="#1BB16B"/>
<path d="M156.978 444.63V459.719H140.936V444.241C140.936 439.428 148.619 435.837 148.619 435.837C148.619 435.837 156.978 439.399 156.978 444.63Z" fill="#1BB16B"/>
</g>
<defs>
<clipPath id="clip0">
<rect width="240" height="460" fill="white"/>
</clipPath>
</defs>
</svg>
