<svg width="966" height="853" viewBox="0 0 966 853" fill="none" xmlns="http://www.w3.org/2000/svg">
<g clip-path="url(#clip0)">
<path d="M305 -3H0V196H305V-3Z" fill="#E52226"/>
<path d="M207.948 53.793L126.716 109.572L94.9453 200.638H283.772L281.492 162.816L207.948 58.8638V53.793Z" fill="#F7C4BA"/>
<path d="M305.686 196.075H227.042C224.593 181.662 239.657 174.525 233.651 152.901C229.323 137.283 208.446 144.108 193.301 124.828C182.004 110.414 195.373 84.275 202.849 71.9921C205.707 67.2723 207.225 61.5528 207.225 55.7022V54.3829L207.635 53.793L305.686 196.075Z" fill="#F48D83"/>
<path d="M207.628 196.181H2.22656C2.22656 196.181 33.8237 146.451 44.5755 131.653C57.9371 113.273 109.576 65.8867 109.576 65.8867L207.628 196.181Z" fill="#F7C4BA"/>
<path d="M207.627 196.181H128.984C126.535 182.98 141.599 176.449 135.592 156.644C131.264 142.337 110.387 148.589 95.2428 130.939C83.9449 117.739 97.3145 93.8036 104.79 82.5613C107.649 78.2348 109.166 72.9988 109.166 67.6399V66.4353L109.576 65.8945L207.627 196.181Z" fill="#F48D83"/>
<path d="M965.999 -2.20898H641.555V309.241H965.999V-2.20898Z" fill="#E8F1CF"/>
<path d="M641.555 305.874H305.006V856.11H641.555V305.874Z" fill="#E8F1CF"/>
<path d="M965.552 635.407H640.104V856.11H965.552V635.407Z" fill="#E1DFDE"/>
<path d="M916.179 804.428C840.797 786.285 765.415 829.985 690.023 812.146V692.424C765.405 710.253 840.787 666.563 916.179 684.706V804.428V804.428Z" fill="#F7C4BA"/>
<path d="M690.054 812.146C685.492 811.071 680.94 809.763 676.389 808.211V803.668C680.94 805.22 685.502 806.518 690.054 807.603V812.146Z" fill="#E52226"/>
<path d="M690.054 795.696C685.492 794.621 680.94 793.313 676.389 791.761V787.218C680.94 788.769 685.502 790.068 690.054 791.153V795.696Z" fill="#E52226"/>
<path d="M690.054 779.246C685.492 778.171 680.94 776.863 676.389 775.311V770.768C680.94 772.319 685.502 773.617 690.054 774.703V779.246Z" fill="#E52226"/>
<path d="M690.054 762.807C685.492 761.732 680.94 760.423 676.389 758.872V754.328C680.94 755.88 685.502 757.178 690.054 758.263V762.807Z" fill="#E52226"/>
<path d="M690.054 746.357C685.492 745.282 680.94 743.974 676.389 742.422V737.879C680.94 739.431 685.502 740.739 690.054 741.814V746.357Z" fill="#E52226"/>
<path d="M690.054 729.907C685.492 728.832 680.94 727.524 676.389 725.972V721.429C680.94 722.98 685.502 724.279 690.054 725.364V729.907Z" fill="#E52226"/>
<path d="M690.054 713.457C685.492 712.382 680.94 711.074 676.389 709.522V704.969C680.94 706.52 685.502 707.819 690.054 708.904V713.457Z" fill="#E52226"/>
<path d="M690.054 697.008C685.492 695.933 680.94 694.624 676.389 693.073V688.529C680.94 690.081 685.502 691.379 690.054 692.464V697.008Z" fill="#E52226"/>
<path d="M929.269 808.211C924.707 806.659 920.155 805.361 915.604 804.276V799.732C920.155 800.807 924.717 802.116 929.269 803.667C929.269 805.178 929.269 806.7 929.269 808.211Z" fill="#E52226"/>
<path d="M929.269 791.761C924.707 790.209 920.155 788.911 915.604 787.826V783.282C920.155 784.357 924.717 785.655 929.269 787.217C929.269 788.728 929.269 790.25 929.269 791.761Z" fill="#E52226"/>
<path d="M929.269 775.321C924.707 773.77 920.155 772.471 915.604 771.386V766.843C920.155 767.918 924.717 769.226 929.269 770.778C929.269 772.289 929.269 773.8 929.269 775.321Z" fill="#E52226"/>
<path d="M929.269 758.872C924.707 757.32 920.155 756.022 915.604 754.937V750.394C920.155 751.469 924.717 752.767 929.269 754.329C929.269 755.84 929.269 757.351 929.269 758.872Z" fill="#E52226"/>
<path d="M929.269 742.423C924.707 740.871 920.155 739.573 915.604 738.488V733.944C920.155 735.019 924.717 736.328 929.269 737.879C929.269 739.39 929.269 740.901 929.269 742.423Z" fill="#E52226"/>
<path d="M929.269 725.972C924.707 724.42 920.155 723.122 915.604 722.037V717.493C920.155 718.568 924.717 719.876 929.269 721.428C929.269 722.939 929.269 724.46 929.269 725.972Z" fill="#E52226"/>
<path d="M929.269 709.523C924.707 707.971 920.155 706.673 915.604 705.588V701.034C920.155 702.109 924.717 703.407 929.269 704.969C929.269 706.49 929.269 708.012 929.269 709.523Z" fill="#E52226"/>
<path d="M929.269 693.083C924.707 691.531 920.155 690.233 915.604 689.148V684.604C920.155 685.68 924.717 686.988 929.269 688.539C929.269 690.051 929.269 691.562 929.269 693.083Z" fill="#E52226"/>
<path d="M738.344 722.179C749.554 733.193 760.765 743.436 771.965 753.303C760.755 766.315 749.544 778.942 738.344 790.807C727.134 779.793 715.923 767.989 704.713 755.017C715.923 745.119 727.134 734.034 738.344 722.179Z" fill="#E52226"/>
<path d="M736.892 748.791C739.426 751.296 741.96 753.76 744.495 756.194C741.96 758.933 739.426 761.641 736.892 764.308C734.358 761.803 731.823 759.257 729.289 756.661C731.823 754.075 734.358 751.448 736.892 748.791Z" fill="#F48D83"/>
<path d="M803.102 713.995C814.312 723.518 825.522 733.051 836.723 742.99C825.512 755.931 814.302 769.267 803.102 782.624C791.891 773.101 780.681 763.578 769.48 753.649C780.691 740.698 791.901 727.342 803.102 713.995Z" fill="#E52226"/>
<path d="M867.869 705.892C879.08 716.936 890.29 728.761 901.49 741.783C890.28 751.641 879.07 762.685 867.869 774.52C856.659 763.476 845.448 753.213 834.248 743.335C845.458 730.333 856.669 717.717 867.869 705.892Z" fill="#E52226"/>
<path d="M866.121 709.431C876.795 719.187 887.469 729.623 898.152 741.114C887.479 750.038 876.805 759.997 866.121 770.656C855.607 761.052 845.092 752.127 834.587 743.527C824.073 755.028 813.558 766.863 803.053 778.709C792.538 770.453 782.024 762.198 771.509 753.618C760.994 765.129 750.49 776.305 739.975 786.812C729.301 777.076 718.628 766.66 707.944 755.2C718.618 746.255 729.291 736.266 739.975 725.587C750.49 735.171 761.004 744.085 771.509 752.675C782.024 741.164 792.538 729.319 803.053 717.484C813.568 725.739 824.082 733.994 834.587 742.594C845.102 731.084 855.617 719.928 866.121 709.431ZM866.121 693.722C863.557 696.277 861.003 698.874 858.439 701.5C850.488 709.674 842.538 718.173 834.577 726.875C826.627 720.374 818.666 714.066 810.716 707.808C808.161 705.79 805.597 703.782 803.043 701.774C800.479 704.654 797.925 707.535 795.361 710.415C787.41 719.36 779.45 728.254 771.499 736.966C763.548 730.475 755.588 723.782 747.637 716.764C745.073 714.502 742.519 712.21 739.955 709.877C737.401 712.433 734.837 714.958 732.283 717.433C721.609 727.757 710.925 737.311 700.252 745.738C697.33 748.04 694.418 750.261 691.496 752.391C694.418 755.839 697.33 759.196 700.252 762.472C710.925 774.449 721.609 785.301 732.283 795.382C734.847 797.795 737.401 800.169 739.955 802.501C742.519 799.945 745.073 797.339 747.637 794.712C755.588 786.528 763.539 778.009 771.499 769.307C779.45 775.798 787.41 782.106 795.361 788.364C797.925 790.382 800.479 792.39 803.043 794.398C805.597 791.518 808.161 788.637 810.716 785.757C818.666 776.812 826.627 767.928 834.577 759.227C842.528 765.727 850.488 772.421 858.439 779.459C861.003 781.721 863.557 784.023 866.121 786.356C868.675 783.8 871.239 781.285 873.804 778.81C884.477 768.506 895.151 758.983 905.835 750.586C908.756 748.294 911.668 746.073 914.59 743.953C911.668 740.495 908.756 737.128 905.835 733.852C895.161 721.845 884.487 710.963 873.804 700.861C871.239 698.438 868.685 696.064 866.121 693.722Z" fill="#F48D83"/>
<path d="M803.101 740.556C805.635 742.706 808.169 744.866 810.704 747.016C808.169 750.028 805.635 753.04 803.101 756.062C800.567 753.912 798.032 751.752 795.498 749.602C798.042 746.59 800.576 743.568 803.101 740.556Z" fill="#F48D83"/>
<path d="M867.273 732.474C869.807 734.958 872.341 737.494 874.875 740.07C872.341 742.666 869.807 745.303 867.273 747.99C864.738 745.496 862.204 743.051 859.67 740.638C862.204 737.869 864.738 735.151 867.273 732.474Z" fill="#F48D83"/>
<path d="M903.11 788.546C836.434 778.455 769.768 811.162 703.092 801.314V708.255C769.758 718.102 836.434 685.405 903.11 695.486V788.546ZM916.179 684.696C840.797 666.552 765.415 710.253 690.023 692.413V812.146C765.405 829.985 840.787 786.285 916.179 804.428V684.696V684.696Z" fill="#FAD6CE"/>
<path d="M916.179 684.736C840.797 666.592 765.405 710.293 690.023 692.453V812.176C765.405 830.015 840.787 786.314 916.179 804.458V684.736V684.736ZM703.092 708.284C769.768 718.132 836.434 685.435 903.11 695.516V788.566C836.434 778.475 769.768 811.182 703.092 801.334V708.284Z" fill="#EB4B29"/>
<path d="M916.177 804.459V804.013C914.13 800.595 912.083 797.228 910.035 793.901C912.083 793.141 914.13 792.421 916.177 791.751V790.19C914.696 788.993 913.215 787.816 911.735 786.66C913.215 786.123 914.696 785.616 916.177 785.129V783.557C914.696 782.36 913.225 781.194 911.745 780.038C913.225 779.51 914.696 779.003 916.177 778.517V776.945C914.696 775.748 913.225 774.582 911.745 773.425C913.225 772.898 914.696 772.391 916.177 771.904V770.332C914.696 769.136 913.225 767.969 911.745 766.813C913.225 766.286 914.696 765.779 916.177 765.292V763.72C914.696 762.523 913.225 761.357 911.745 760.201C913.225 759.673 914.696 759.176 916.177 758.69V757.118C914.696 755.921 913.225 754.755 911.745 753.609C913.225 753.081 914.696 752.574 916.177 752.087V750.526C914.696 749.329 913.225 748.163 911.745 747.017C913.225 746.489 914.696 745.982 916.177 745.495V743.923C914.696 742.727 913.225 741.56 911.745 740.404C913.225 739.877 914.696 739.38 916.177 738.893V737.321C914.696 736.124 913.225 734.958 911.745 733.812C913.225 733.285 914.696 732.778 916.177 732.301V730.719C914.706 729.532 913.235 728.366 911.765 727.22C913.235 726.693 914.706 726.186 916.177 725.709V724.137C914.696 722.94 913.225 721.774 911.745 720.618C913.225 720.09 914.696 719.583 916.177 719.097V717.525C914.696 716.328 913.225 715.162 911.745 714.005C913.225 713.478 914.696 712.981 916.177 712.494V710.922C914.696 709.726 913.225 708.559 911.745 707.413C913.225 706.886 914.696 706.369 916.177 705.892V704.32C914.696 703.123 913.225 701.957 911.745 700.811C913.225 700.284 914.696 699.777 916.177 699.3V697.728C914.13 696.075 912.092 694.462 910.055 692.891C912.092 690.375 914.14 687.901 916.177 685.477V684.737C914.547 684.341 912.917 683.976 911.287 683.641C908.286 685.152 905.275 686.765 902.273 688.459C899.998 686.085 897.712 683.773 895.436 681.501C893.22 683.246 891.003 685.041 888.787 686.866C886.571 684.747 884.355 682.668 882.139 680.619C879.932 682.526 877.716 684.473 875.5 686.451C873.284 684.483 871.077 682.546 868.861 680.629C866.645 682.678 864.429 684.747 862.212 686.856C859.996 685.01 857.79 683.185 855.574 681.39C853.357 683.55 851.151 685.731 848.935 687.931C846.728 686.187 844.512 684.453 842.296 682.749C840.09 684.99 837.874 687.252 835.657 689.534C833.441 687.86 831.235 686.197 829.019 684.554C826.802 686.856 824.596 689.179 822.38 691.501C820.164 689.878 817.947 688.266 815.731 686.653C813.525 688.996 811.309 691.339 809.092 693.692C806.876 692.089 804.67 690.497 802.454 688.895C800.237 691.248 798.031 693.6 795.815 695.953C793.609 694.351 791.392 692.749 789.186 691.136C786.97 693.479 784.754 695.811 782.537 698.134C780.331 696.511 778.115 694.868 775.899 693.215C773.682 695.517 771.476 697.809 769.26 700.081C767.053 698.397 764.837 696.704 762.621 695C760.405 697.241 758.198 699.462 755.982 701.653C753.776 699.898 751.56 698.124 749.344 696.318C747.137 698.468 744.921 700.598 742.705 702.687C740.489 700.831 738.282 698.955 736.066 697.038C733.85 699.077 731.643 701.085 729.427 703.052C727.221 701.075 725.005 699.057 722.788 697.008C720.582 698.905 718.376 700.771 716.17 702.596C713.953 700.466 711.737 698.296 709.521 696.085C707.245 697.87 704.969 699.614 702.693 701.308C699.692 698.722 696.691 696.055 693.689 693.286C692.457 693.022 691.225 692.749 689.992 692.465V694.909C691.642 697.657 693.292 700.385 694.941 703.073C693.292 703.681 691.642 704.269 689.992 704.817V707.718C691.075 708.59 692.159 709.452 693.242 710.304C692.159 710.689 691.075 711.064 689.992 711.419V714.33C691.075 715.202 692.159 716.064 693.242 716.906C692.159 717.291 691.075 717.667 689.992 718.032V720.932C691.075 721.804 692.159 722.666 693.242 723.518C692.159 723.904 691.075 724.279 689.992 724.644V727.545C691.075 728.417 692.159 729.279 693.242 730.131C692.159 730.516 691.075 730.891 689.992 731.246V734.147C691.075 735.019 692.159 735.881 693.242 736.733C692.159 737.118 691.075 737.494 689.992 737.849V740.749C691.075 741.621 692.159 742.483 693.242 743.335C692.159 743.721 691.075 744.096 689.992 744.451V747.351C691.075 748.223 692.159 749.075 693.242 749.917C692.159 750.302 691.075 750.678 689.992 751.033V753.953C691.075 754.826 692.149 755.678 693.232 756.519C692.149 756.905 691.075 757.28 689.992 757.645V760.546C691.075 761.418 692.149 762.27 693.232 763.111C692.149 763.497 691.075 763.862 689.992 764.217V767.138C691.075 768.01 692.149 768.862 693.232 769.703C692.149 770.089 691.075 770.454 689.992 770.809V773.73C691.075 774.602 692.159 775.454 693.242 776.296C692.159 776.681 691.075 777.056 689.992 777.411V780.322C691.075 781.194 692.159 782.056 693.242 782.908C692.159 783.293 691.075 783.669 689.992 784.034V786.934C691.075 787.806 692.149 788.668 693.232 789.51C692.149 789.896 691.075 790.261 689.992 790.616V793.516C691.075 794.388 692.159 795.25 693.242 796.102C692.159 796.488 691.075 796.863 689.992 797.218V800.118C691.642 801.447 693.292 802.745 694.941 804.013C693.292 806.041 691.642 808.029 689.992 809.996V812.126C691.413 812.461 692.835 812.775 694.256 813.069C696.949 811.599 699.642 810.057 702.326 808.445C704.76 810.818 707.195 813.13 709.63 815.392C711.827 813.678 714.013 811.913 716.209 810.118C718.426 812.248 720.632 814.337 722.848 816.386C725.064 814.489 727.271 812.542 729.487 810.574C731.703 812.552 733.919 814.499 736.136 816.406C738.342 814.367 740.558 812.298 742.774 810.199C744.991 812.055 747.207 813.881 749.423 815.676C751.639 813.526 753.846 811.345 756.062 809.155C758.278 810.909 760.484 812.643 762.701 814.347C764.907 812.106 767.123 809.844 769.339 807.572C771.556 809.246 773.762 810.909 775.978 812.562C778.184 810.26 780.401 807.948 782.617 805.625C784.833 807.248 787.039 808.871 789.256 810.483C791.472 808.14 793.688 805.798 795.904 803.445C798.111 805.047 800.327 806.649 802.543 808.242C804.759 805.889 806.966 803.536 809.182 801.183C811.398 802.786 813.604 804.388 815.821 806C818.037 803.658 820.243 801.325 822.459 799.003C824.676 800.625 826.882 802.268 829.098 803.911C831.314 801.609 833.521 799.317 835.737 797.035C837.943 798.709 840.159 800.402 842.376 802.106C844.592 799.865 846.808 797.644 849.024 795.443C851.231 797.197 853.437 798.962 855.643 800.757C857.859 798.597 860.066 796.467 862.282 794.368C864.488 796.214 866.704 798.09 868.921 800.007C871.137 797.958 873.343 795.95 875.559 793.972C877.776 795.94 879.982 797.948 882.198 799.997C884.414 798.09 886.621 796.224 888.837 794.388C891.053 796.508 893.259 798.668 895.476 800.879C897.752 799.084 900.037 797.329 902.313 795.626C905.175 798.08 908.038 800.605 910.9 803.222C912.649 803.648 914.408 804.033 916.177 804.459ZM702.514 801.082C702.047 801.366 701.58 801.65 701.123 801.934C700.517 801.498 699.921 801.051 699.324 800.615C700.586 800.118 701.839 799.601 703.101 799.074V796.761C701.839 795.859 700.586 794.946 699.324 794.013C700.586 793.516 701.839 793.009 703.101 792.482V790.169C701.839 789.267 700.586 788.354 699.324 787.421C700.586 786.924 701.839 786.407 703.101 785.879V783.567C701.839 782.665 700.586 781.752 699.324 780.819C700.586 780.322 701.839 779.805 703.101 779.277V776.965C701.839 776.072 700.586 775.16 699.324 774.227C700.586 773.73 701.839 773.212 703.101 772.685V770.373C701.849 769.48 700.596 768.568 699.344 767.635C700.596 767.138 701.849 766.631 703.101 766.103V763.791C701.839 762.888 700.586 761.976 699.324 761.042C700.586 760.546 701.839 760.028 703.101 759.501V757.189C701.839 756.286 700.586 755.373 699.324 754.44C700.586 753.943 701.839 753.436 703.101 752.909V750.597C701.839 749.694 700.586 748.781 699.324 747.848C700.586 747.351 701.839 746.834 703.101 746.307V743.994C701.839 743.092 700.586 742.179 699.324 741.246C700.586 740.749 701.839 740.232 703.101 739.704V737.341C701.839 736.439 700.586 735.526 699.324 734.593C700.586 734.096 701.839 733.579 703.101 733.052V730.739C701.839 729.837 700.586 728.924 699.324 727.991C700.586 727.494 701.839 726.977 703.101 726.449V724.137C701.839 723.234 700.586 722.322 699.324 721.389C700.586 720.892 701.839 720.374 703.101 719.847V717.535C701.839 716.632 700.586 715.719 699.324 714.786C700.586 714.289 701.839 713.772 703.101 713.245V710.933C701.839 710.02 700.576 709.097 699.314 708.164C700.01 707.89 700.696 707.616 701.391 707.342C701.968 707.839 702.534 708.326 703.111 708.823V708.316C703.319 708.346 703.538 708.377 703.747 708.407C705.695 706.947 707.643 705.456 709.581 703.925C711.528 705.872 713.476 707.789 715.424 709.675C715.951 709.716 716.488 709.756 717.014 709.787C718.952 708.174 720.9 706.531 722.838 704.858C724.786 706.663 726.734 708.438 728.682 710.192C729.218 710.192 729.745 710.192 730.282 710.192C732.23 708.448 734.178 706.683 736.126 704.888C738.074 706.572 740.011 708.235 741.959 709.868C742.496 709.837 743.023 709.807 743.559 709.776C745.507 707.92 747.455 706.054 749.393 704.158C751.341 705.74 753.289 707.312 755.227 708.853C755.764 708.803 756.29 708.752 756.827 708.691C758.775 706.754 760.723 704.797 762.661 702.829C764.609 704.34 766.547 705.831 768.495 707.312C769.031 707.241 769.558 707.17 770.095 707.099C772.043 705.091 773.99 703.083 775.928 701.055C777.876 702.505 779.824 703.945 781.762 705.385C782.299 705.304 782.825 705.213 783.362 705.132C785.31 703.083 787.268 701.034 789.216 698.976C791.164 700.395 793.112 701.805 795.05 703.215C795.576 703.123 796.113 703.032 796.64 702.941C798.588 700.872 800.535 698.803 802.483 696.734C804.431 698.144 806.369 699.543 808.317 700.953C808.854 700.862 809.381 700.771 809.917 700.679C811.865 698.61 813.813 696.552 815.751 694.493C817.699 695.913 819.647 697.333 821.605 698.763C822.141 698.681 822.668 698.59 823.205 698.509C825.153 696.46 827.091 694.432 829.038 692.404C830.976 693.854 832.924 695.314 834.862 696.785C835.399 696.714 835.926 696.643 836.462 696.572C838.41 694.574 840.358 692.586 842.316 690.609C844.264 692.11 846.212 693.631 848.15 695.162C848.686 695.101 849.213 695.051 849.75 695C851.698 693.063 853.636 691.146 855.583 689.25C857.531 690.832 859.479 692.434 861.417 694.047C861.954 694.016 862.481 693.986 863.017 693.955C864.965 692.11 866.923 690.284 868.871 688.489C870.819 690.162 872.767 691.866 874.705 693.6C875.231 693.6 875.768 693.6 876.305 693.6C878.253 691.866 880.201 690.162 882.139 688.479C884.086 690.274 886.044 692.11 887.992 693.966C888.529 693.996 889.056 694.037 889.592 694.067C891.54 692.465 893.498 690.893 895.446 689.361C897.394 691.298 899.352 693.276 901.299 695.284C901.747 695.345 902.204 695.416 902.651 695.477C902.989 695.284 903.327 695.091 903.665 694.909C904.351 695.406 905.026 695.903 905.712 696.41C904.847 696.755 903.993 697.109 903.128 697.464V701.126C903.993 701.744 904.847 702.373 905.712 703.002C904.847 703.347 903.993 703.691 903.128 704.056V707.728C903.993 708.346 904.847 708.975 905.712 709.604C904.847 709.949 903.993 710.304 903.128 710.659V714.32C903.993 714.938 904.847 715.567 905.712 716.196C904.847 716.541 903.993 716.896 903.128 717.251V720.922C903.993 721.541 904.847 722.169 905.712 722.798C904.847 723.143 903.993 723.498 903.128 723.853V727.514C903.993 728.133 904.847 728.762 905.712 729.39C904.847 729.735 903.993 730.09 903.128 730.445V734.106C903.993 734.725 904.847 735.354 905.712 735.982C904.847 736.327 903.993 736.682 903.128 737.037V740.698C903.993 741.317 904.847 741.946 905.712 742.574C904.847 742.919 903.993 743.274 903.128 743.629V747.301C903.993 747.919 904.847 748.548 905.712 749.177C904.847 749.522 903.993 749.877 903.128 750.232V753.872C903.993 754.501 904.857 755.13 905.732 755.769C904.867 756.114 904.003 756.469 903.128 756.834V760.475C903.993 761.103 904.857 761.732 905.732 762.371C904.867 762.716 904.003 763.071 903.128 763.436V767.077C903.993 767.706 904.857 768.334 905.732 768.973C904.867 769.318 904.003 769.673 903.128 770.038V773.699C903.993 774.318 904.847 774.947 905.712 775.575C904.847 775.92 903.993 776.275 903.128 776.63V780.291C903.993 780.92 904.857 781.549 905.732 782.188C904.867 782.533 904.003 782.888 903.128 783.253V786.914C903.993 787.543 904.857 788.171 905.732 788.81C905.046 789.084 904.36 789.378 903.665 789.662C903.188 789.246 902.721 788.841 902.244 788.425C902.045 788.395 901.846 788.364 901.647 788.344C899.59 789.885 897.533 791.478 895.476 793.1C893.418 791.052 891.361 789.033 889.304 787.056C888.996 787.036 888.688 787.015 888.38 786.995C886.323 788.699 884.265 790.443 882.208 792.218C880.151 790.321 878.094 788.445 876.036 786.61C875.728 786.61 875.42 786.61 875.112 786.61C873.055 788.455 870.998 790.332 868.941 792.228C866.883 790.453 864.826 788.709 862.769 786.985C862.461 787.005 862.153 787.015 861.845 787.036C859.787 788.993 857.73 790.981 855.673 792.979C853.626 791.305 851.568 789.662 849.511 788.029C849.203 788.06 848.895 788.09 848.577 788.121C846.52 790.169 844.453 792.238 842.395 794.327C840.338 792.735 838.281 791.163 836.224 789.601C835.916 789.642 835.608 789.683 835.3 789.723C833.242 791.843 831.185 793.972 829.128 796.112C827.071 794.581 825.013 793.06 822.956 791.549C822.648 791.599 822.34 791.65 822.032 791.691C819.975 793.851 817.918 796.021 815.86 798.202C813.803 796.701 811.746 795.21 809.689 793.719C809.381 793.77 809.072 793.82 808.764 793.881C806.707 796.072 804.65 798.252 802.593 800.443C800.536 798.952 798.478 797.471 796.421 795.981C796.113 796.031 795.805 796.082 795.497 796.133C793.44 798.323 791.372 800.504 789.315 802.674C787.258 801.173 785.201 799.672 783.144 798.161C782.835 798.212 782.527 798.262 782.209 798.313C780.152 800.473 778.095 802.623 776.038 804.763C773.98 803.232 771.923 801.68 769.866 800.128C769.558 800.169 769.25 800.21 768.932 800.25C766.875 802.36 764.817 804.459 762.76 806.548C760.703 804.956 758.646 803.343 756.588 801.721C756.28 801.751 755.972 801.782 755.654 801.812C753.597 803.85 751.54 805.879 749.483 807.877C747.416 806.203 745.358 804.51 743.301 802.786C742.993 802.806 742.685 802.816 742.367 802.836C740.31 804.783 738.252 806.7 736.195 808.597C734.138 806.822 732.071 805.017 730.014 803.181C729.705 803.181 729.397 803.181 729.079 803.181C727.022 805.007 724.965 806.812 722.908 808.576C720.85 806.67 718.793 804.733 716.736 802.755C716.428 802.735 716.12 802.715 715.802 802.694C713.715 804.408 711.628 806.082 709.541 807.714C707.185 805.575 704.85 803.353 702.514 801.082Z" fill="#F48D83"/>
<path d="M689.428 692.271C694.039 693.387 698.65 694.259 703.262 694.939V814.671C698.65 813.992 694.039 813.119 689.428 812.004V692.271Z" fill="#E52226"/>
<path d="M901.549 681.928C906.429 682.617 911.298 683.53 916.178 684.707V804.469C911.298 803.293 906.429 802.38 901.549 801.691V681.928Z" fill="#E52226"/>
<path d="M965.8 305.874H641.555V635.417H965.8V305.874Z" fill="#F7C4BA"/>
<path d="M640.66 563.543V635.417H655.826V627.222C655.826 615.347 676.766 605.753 676.766 605.753L677.213 605.519L677.68 605.753C677.68 605.753 698.62 615.347 698.62 627.222V635.417H718.954V627.222C718.954 615.347 739.894 605.753 739.894 605.753L740.341 605.519L740.808 605.753C740.808 605.753 761.748 615.347 761.748 627.222V635.417H782.728V627.293C782.728 615.418 803.667 605.824 803.667 605.824L804.115 605.59L804.582 605.824C804.582 605.824 825.522 615.418 825.522 627.293V635.417H846.551V627.202C846.551 615.326 867.491 605.732 867.491 605.732L867.938 605.499L868.385 605.732C868.385 605.732 889.325 615.326 889.325 627.202V635.417H910.057V627.222C910.057 615.347 930.996 605.753 930.996 605.753L931.444 605.519L931.911 605.753C931.911 605.753 952.831 615.347 952.831 627.222V635.417H965.969V563.543H640.66ZM671.578 601.148H650.241V583.34C650.241 577.417 660.686 572.63 660.686 572.63H661.133C661.133 572.63 671.578 577.417 671.578 583.34V601.148ZM703.43 601.148H682.093V583.34C682.093 577.417 692.538 572.63 692.538 572.63H692.985C692.985 572.63 703.43 577.417 703.43 583.34V601.148ZM735.282 601.148H713.925V583.34C713.925 577.417 724.37 572.63 724.37 572.63H724.837C724.837 572.63 735.282 577.417 735.282 583.34V601.148ZM767.134 601.148H745.777V583.34C745.777 577.417 756.222 572.63 756.222 572.63H756.689C756.689 572.63 767.134 577.417 767.134 583.34V601.148ZM798.957 601.148H777.619V583.34C777.619 577.417 788.064 572.63 788.064 572.63H788.512C788.512 572.63 798.957 577.417 798.957 583.34V601.148ZM830.809 601.148H809.471V583.34C809.471 577.417 819.917 572.63 819.917 572.63H820.364C820.364 572.63 830.809 577.417 830.809 583.34V601.148ZM862.661 601.148H841.324V583.34C841.324 577.417 851.769 572.63 851.769 572.63H852.216C852.216 572.63 862.661 577.417 862.661 583.34V601.148ZM894.513 601.148H873.156V583.34C873.156 577.417 883.601 572.63 883.601 572.63H884.068C884.068 572.63 894.513 577.417 894.513 583.34V601.148ZM926.345 601.148H905.008V583.34C905.008 577.417 915.453 572.63 915.453 572.63H915.9C915.9 572.63 926.345 577.417 926.345 583.34V601.148ZM958.197 601.148H936.86V583.34C936.86 577.417 947.305 572.63 947.305 572.63H947.752C947.752 572.63 958.197 577.417 958.197 583.34V601.148Z" fill="#E52226"/>
<path d="M964.934 109.38V197.166C959.687 198.89 954.221 199.58 948.785 199.286L940.367 257.712C932.188 256.809 924.237 255.004 916.674 252.256L933.013 195.483C926.741 192.684 920.987 188.424 916.336 182.674C915.67 181.873 915.094 180.99 914.498 180.169L863.922 209.529C859.529 202.612 855.882 195.168 853.139 187.177L907.511 165.169C905.434 157.158 905.484 148.74 907.65 140.819L852.801 117.808C855.474 109.796 858.982 102.18 863.375 95.121L914.835 125.871C916.962 122.919 919.437 120.171 922.329 117.717C926.006 114.603 930.031 112.21 934.255 110.465L917.986 51.1062C924.018 49.017 930.299 47.3842 936.859 46.4309C938.667 46.1672 940.466 46.0861 942.275 45.9238L950.315 107.149C955.274 107.068 960.204 107.829 964.934 109.38Z" fill="#E52226"/>
<path d="M403.046 774.916H369.227L374.931 385.334L398.147 384.3L403.046 774.916Z" fill="#E52226"/>
<path d="M415.312 385.517C407.351 382.444 399.222 382.312 392.603 384.563L436.451 359.514C429.136 350.913 414.388 349.605 401.438 357.009C392.822 361.927 386.968 369.594 384.921 377.403C382.873 369.594 377.02 361.927 368.403 356.998C355.444 349.595 340.705 350.913 333.381 359.503L377.865 384.918C371.226 382.626 363.057 382.748 355.056 385.841C341.182 391.206 332.566 403.63 334.126 414.968L385.596 395.07L436.232 414.644C437.802 403.305 429.186 390.882 415.312 385.517Z" fill="#1BB16B"/>
<path d="M594.009 838.2H560.199L565.894 447.584H589.12L594.009 838.2Z" fill="#E52226"/>
<path d="M606.283 448.801C598.322 445.728 590.193 445.596 583.574 447.848L627.421 422.798C620.097 414.198 605.358 412.889 592.409 420.293C583.792 425.211 577.939 432.878 575.891 440.688C573.844 432.878 567.99 425.211 559.374 420.283C546.414 412.879 531.676 414.198 524.352 422.788L568.845 448.203C562.206 445.911 554.037 446.032 546.037 449.125C532.173 454.49 523.547 466.914 525.107 478.252L576.577 458.354L627.213 477.928C628.763 466.589 620.146 454.166 606.283 448.801Z" fill="#1BB16B"/>
<path d="M766.25 333.551C766.25 348.611 778.255 360.873 793.024 360.873C793.948 360.873 794.852 360.822 795.747 360.731C802.713 381.075 821.626 395.699 843.947 395.699C872.162 395.699 895.04 372.353 895.04 343.561V306.3H794.425C793.958 306.28 793.491 306.229 793.024 306.229C778.255 306.229 766.25 318.481 766.25 333.551ZM778.176 333.551C778.176 325.255 784.745 318.511 792.855 318.42V343.561C792.855 345.295 792.944 346.999 793.113 348.693C793.083 348.693 793.053 348.703 793.024 348.703C784.835 348.693 778.176 341.898 778.176 333.551Z" fill="#92CB7B"/>
<path d="M793.531 307.669C793.531 308.329 793.641 308.978 793.859 309.617C796.731 318.125 818.288 324.748 844.445 324.748C870.593 324.748 892.109 318.136 895.031 309.647C895.259 308.998 895.379 308.339 895.379 307.669C895.379 298.248 872.58 290.591 844.455 290.591C816.33 290.591 793.531 298.238 793.531 307.669Z" fill="#92CB7B"/>
<path d="M793.859 306.301V309.617C796.732 318.126 818.278 324.748 844.445 324.748C870.593 324.748 892.109 318.136 895.031 309.648V306.311H793.859V306.301Z" fill="black"/>
<path d="M782.28 180.908C781.803 180.908 781.346 180.959 780.879 180.979H680.264V218.24C680.264 247.032 703.142 270.378 731.356 270.378C753.668 270.378 772.59 255.754 779.557 235.409C780.451 235.501 781.366 235.551 782.28 235.551C797.038 235.551 809.054 223.3 809.054 208.23C809.044 193.159 797.038 180.908 782.28 180.908ZM782.28 223.371C782.25 223.371 782.22 223.361 782.19 223.361C782.349 221.678 782.449 219.964 782.449 218.23V193.088C790.558 193.18 797.128 199.924 797.128 208.22C797.118 216.576 790.459 223.371 782.28 223.371Z" fill="#92CB7B"/>
<path d="M781.763 182.349C781.763 183.008 781.654 183.657 781.435 184.296C778.563 192.805 757.017 199.428 730.85 199.428C704.702 199.428 683.186 192.815 680.264 184.327C680.035 183.678 679.916 183.018 679.916 182.349C679.916 172.927 702.704 165.271 730.84 165.271C758.975 165.271 781.763 172.917 781.763 182.349Z" fill="#92CB7B"/>
<path d="M781.435 180.98V184.297C778.563 192.806 757.017 199.428 730.849 199.428C704.702 199.428 683.186 192.816 680.264 184.317V180.98H781.435Z" fill="black"/>
<path d="M715.146 502.045L715.037 503.85L712.075 554.711C711.956 556.668 711.061 558.483 709.6 559.731L709.571 559.761C708.994 560.238 708.348 560.704 707.643 561.12C707.414 561.242 707.185 561.384 706.947 561.506C705.893 562.043 704.701 562.52 703.399 562.895C697.853 564.426 692.755 563.189 691.97 560.147C691.682 558.99 692.079 557.733 692.984 556.526C694.673 554.275 695.369 550.299 695.309 547.459L686.901 504.489V504.459L686.842 501.7L702.067 501.883L715.146 502.045Z" fill="white"/>
<path d="M865.118 540.644C860.874 535.391 851.075 523.85 837.221 523.85C827.998 523.85 819.789 526.994 814.631 531.852C809.106 537.064 801.821 539.853 794.327 540.208V511.142H794.417V501.69C794.417 500.565 794.387 499.439 794.327 498.333C793.94 491.031 792.26 484.064 789.537 477.685C782.521 461.225 768.498 448.589 751.315 443.7C750.788 443.548 749.724 443.193 748.721 442.848C744.855 441.571 741.665 438.518 740.591 434.522C740.303 433.457 740.154 432.352 740.154 431.196V430.77C740.164 428.143 741.178 425.668 742.867 423.691C743.404 423.062 743.911 422.413 744.378 421.754C745.083 420.75 745.709 419.715 746.226 418.64C747.548 415.943 748.273 413.032 748.273 410.01C748.273 407.809 747.906 405.71 747.319 403.61C747.001 402.474 746.216 398.986 746.216 398.986L744.497 391.511L742.022 380.832L736.755 358.024L723.825 377.384L719.254 384.23C716.491 383.773 713.589 383.52 710.617 383.52C707.795 383.52 705.032 383.733 702.388 384.169H702.369L697.638 377.09L684.708 357.729L679.441 380.528L676.897 391.511L675.754 396.471L675.535 397.414C674.452 402.109 671.987 407.839 672.375 412.647C673.051 420.912 676.171 424.482 676.231 429.015L676.539 436.479C676.638 438.893 676.599 441.297 676.43 443.71C676.43 443.71 674.373 461.945 674.512 470.2C674.631 477.675 675.655 483.912 677.215 489.094C678.318 492.766 679.749 495.889 681.498 498.536C683.059 500.879 684.867 502.857 686.905 504.469C687.869 505.24 688.882 505.93 689.956 506.548V506.487C692.808 508.333 696.525 509.449 700.58 509.449C701.424 509.449 702.269 509.408 703.084 509.297L710.558 547.439C710.617 550.289 709.912 554.265 708.212 556.506C707.308 557.703 706.91 558.97 707.218 560.127C707.308 560.482 707.447 560.806 707.656 561.1C709.166 563.412 713.738 564.234 718.638 562.875C719.929 562.5 721.132 562.023 722.185 561.486C723.199 560.958 724.074 560.38 724.819 559.741L724.859 559.711C726.33 558.463 727.214 556.638 727.333 554.68L727.363 554.234C729.768 560.279 735.582 563.443 742.36 563.443H779.39H794.327H881.307C881.307 563.463 869.779 546.456 865.118 540.644Z" fill="white"/>
<path d="M718.476 417.463C716.677 418.568 715.196 418.903 714.083 418.457C712.603 417.858 711.708 415.83 711.201 414.116C712.95 412.717 714.143 409.208 714.143 409.208C714.143 409.208 712.225 409.187 709.83 409.187L709.82 409.167L709.81 409.187H709.641C707.156 409.187 705.139 409.208 705.139 409.208C705.139 409.208 706.421 412.443 708.14 413.934C707.266 416.368 706.252 417.869 705.119 418.345C703.887 418.862 702.366 418.234 700.786 417.473L699.504 420.262C701.074 421.012 703.708 422.28 706.282 421.185C707.544 420.647 708.627 419.623 709.561 418.082C710.456 419.674 711.599 420.759 712.96 421.307C713.636 421.58 714.362 421.722 715.107 421.722C716.608 421.722 718.247 421.175 720.016 420.09L718.476 417.463Z" fill="#E52226"/>
<path d="M701.692 404.684C701.692 406.844 699.982 408.588 697.865 408.588C695.748 408.588 694.039 406.834 694.039 404.684C694.039 402.524 695.748 400.779 697.865 400.779C699.982 400.779 701.692 402.524 701.692 404.684Z" fill="#E52226"/>
<path d="M725.443 404.684C725.443 406.844 723.734 408.588 721.617 408.588C719.5 408.588 717.791 406.834 717.791 404.684C717.791 402.524 719.5 400.779 721.617 400.779C723.734 400.779 725.443 402.524 725.443 404.684Z" fill="#E52226"/>
<path d="M732.083 414.462L731.02 411.582C743.194 406.916 755.875 403.428 768.695 401.217L769.202 404.259C756.561 406.43 744.078 409.857 732.083 414.462Z" fill="#E52226"/>
<path d="M734.647 419.786L734.598 416.703C744.337 416.551 754.186 416.51 763.866 416.611L763.836 419.695C754.186 419.603 744.357 419.634 734.647 419.786Z" fill="#E52226"/>
<path d="M689.109 414.46C677.114 409.866 664.622 406.428 652 404.248L652.507 401.205C665.327 403.416 677.998 406.905 690.183 411.57L689.109 414.46Z" fill="#E52226"/>
<path d="M686.545 419.785C676.835 419.633 667.006 419.603 657.346 419.694L657.316 416.611C667.006 416.52 676.855 416.55 686.595 416.702L686.545 419.785Z" fill="#E52226"/>
<path d="M641.555 0.833984H428.559V304.84H641.555V0.833984Z" fill="black"/>
<path d="M489.5 175.321C489.5 175.321 526.132 220.411 555.768 227.551C585.404 234.701 592.947 159.652 592.947 159.652L589.171 154.703C589.171 154.703 559.803 200.33 489.5 175.321Z" fill="black"/>
<path d="M601.306 116.113C601.306 136.042 595.382 154.185 585.355 168.15C573.409 185.229 555.629 195.989 535.673 195.989C515.538 195.989 497.49 184.955 485.465 167.532C475.795 153.658 470.041 135.687 470.041 116.113C470.041 113.892 470.13 111.671 470.299 109.44C470.558 105.789 470.995 102.321 471.611 98.8523C477.624 65.3138 500.989 39.696 529.75 36.5825C531.668 36.3188 533.676 36.2275 535.683 36.2275C537.601 36.2275 539.519 36.3188 541.437 36.4912C570.199 39.5134 593.733 65.2225 599.666 98.8421C600.272 102.138 600.709 105.424 600.978 108.801C601.216 111.225 601.306 113.629 601.306 116.113Z" fill="#F7C4BA"/>
<path d="M549.138 162.705C548.621 169.551 542.947 174.946 536.109 174.946C529.152 174.946 523.597 169.551 523.09 162.705H523.984C525.664 162.705 527.97 159.49 528.238 158.892C528.944 157.35 530.424 156.519 532.104 156.519C533.783 156.519 535.324 157.441 536.228 158.892C536.874 157.441 538.415 156.519 540.094 156.519C541.774 156.519 543.185 157.431 544.089 158.892C544.388 159.358 546.793 162.705 548.343 162.705H549.138Z" fill="#E52226"/>
<path d="M586.755 114.45V130.261C586.755 143.293 576.042 153.81 563.092 153.13C554.108 152.664 546.376 146.609 543.275 138.324C543.027 137.675 542.818 137.015 542.639 136.356C542.003 134.957 540.989 133.821 539.717 133.009C538.545 132.259 537.143 131.823 535.652 131.823C534.162 131.823 532.76 132.259 531.588 133.009C530.365 133.78 529.381 134.886 528.735 136.214C528.557 136.924 528.338 137.624 528.05 138.324C524.969 146.599 517.237 152.664 508.253 153.13C495.283 153.81 484.6 143.293 484.6 130.261V114.45H513.391C521.202 114.45 527.781 120.099 529.212 127.594H542.142C543.573 120.099 550.152 114.45 557.964 114.45H586.755Z" fill="black"/>
<path d="M641.546 235.065C641.546 235.065 641.108 234.923 640.274 234.659C636.139 233.412 622.365 229.345 607.428 226.221C611.721 194.64 616.71 147.502 617.654 122.594C618.151 109.785 614.355 93.5785 608.054 79.0557C603.015 67.3725 596.346 56.7745 589.012 49.8781C566.83 29.0269 521.631 30.5278 505.57 38.7324C487.522 47.9411 475.905 62.4639 468.62 79.0557C446.825 128.638 463.671 196.679 463.671 196.679L428.549 227.58V305.874H641.556V304.839L641.546 235.065ZM539.221 83.2138C539.221 83.2138 596.267 98.7508 598.086 114.785C599.02 123.121 594.826 139.388 589.111 156.609C587.998 159.956 586.826 163.343 585.623 166.72C585.623 166.74 585.623 166.74 585.603 166.751V166.771C577.086 190.746 567.038 213.93 565.081 217.865C553.045 215.542 550.581 215.116 550.193 215.055C528.369 209.254 511.692 197.51 499.528 183.829L499.508 183.809C497.739 181.821 496.079 179.803 494.499 177.754C473.142 149.956 468.809 116.965 476.481 109.389C486.678 99.2883 519.693 84.4815 531.947 82.7675C534.401 82.4329 536.856 82.5647 539.221 83.2138Z" fill="#1BB16B"/>
<path d="M466.233 255.085C465.965 253.787 465.647 252.529 465.259 251.292C463.49 245.785 460.449 240.887 456.464 236.962C455.45 237.591 454.506 238.301 453.611 239.051C457.328 242.591 460.2 247.043 461.86 252.063C462.904 255.237 463.48 258.614 463.48 262.134C463.48 263.949 463.321 265.734 463.023 267.458C463.56 267.681 464.126 267.864 464.683 268.026C465.239 268.188 465.806 268.279 466.382 268.36C466.571 267.367 466.7 266.363 466.789 265.348C466.879 264.284 466.929 263.209 466.929 262.134C466.929 259.72 466.67 257.357 466.233 255.085Z" fill="#F48D83"/>
<path d="M483.358 236.697C479.403 240.561 476.322 245.348 474.513 250.723V250.743C474.026 252.194 473.629 253.644 473.33 255.155V255.175C472.873 257.427 472.635 259.739 472.635 262.143C472.635 263.299 472.694 264.455 472.814 265.591V265.611C472.903 266.544 473.022 267.477 473.191 268.38C473.539 268.349 473.867 268.278 474.195 268.218C474.712 268.126 475.219 267.974 475.726 267.812C475.994 267.71 476.282 267.619 476.54 267.508C476.252 265.773 476.103 263.968 476.103 262.153C476.103 258.644 476.67 255.287 477.693 252.133V252.113C479.393 246.95 482.374 242.366 486.25 238.797C485.346 238.016 484.362 237.326 483.358 236.697Z" fill="#F48D83"/>
<path d="M532.323 255.085C532.054 253.787 531.736 252.529 531.349 251.292C529.58 245.785 526.539 240.887 522.553 236.962C521.54 237.591 520.596 238.301 519.701 239.051C523.418 242.591 526.29 247.043 527.95 252.063C529.003 255.237 529.57 258.614 529.57 262.134C529.57 263.949 529.411 265.734 529.113 267.458C529.649 267.681 530.216 267.864 530.772 268.026C531.329 268.188 531.895 268.279 532.472 268.36C532.661 267.367 532.79 266.363 532.879 265.348C532.969 264.284 533.018 263.209 533.018 262.134C533.009 259.72 532.78 257.357 532.323 255.085Z" fill="#F48D83"/>
<path d="M549.436 236.697C545.48 240.561 542.4 245.348 540.591 250.723V250.743C540.104 252.194 539.706 253.644 539.408 255.155V255.175C538.951 257.427 538.732 259.739 538.732 262.143C538.732 263.299 538.782 264.455 538.891 265.591V265.611C538.981 266.544 539.11 267.477 539.269 268.38C539.617 268.349 539.945 268.278 540.273 268.218C540.79 268.126 541.296 267.974 541.803 267.812C542.072 267.71 542.36 267.619 542.628 267.508C542.34 265.773 542.191 263.968 542.191 262.153C542.191 258.644 542.757 255.287 543.781 252.133V252.113C545.48 246.95 548.462 242.366 552.338 238.797C551.424 238.016 550.45 237.326 549.436 236.697Z" fill="#F48D83"/>
<path d="M598.403 255.085C598.135 253.787 597.817 252.529 597.429 251.292C595.66 245.785 592.619 240.887 588.634 236.962C587.64 237.591 586.676 238.301 585.781 239.051C589.498 242.591 592.37 247.043 594.03 252.063V252.083C595.083 255.257 595.65 258.614 595.65 262.134C595.65 263.949 595.511 265.734 595.193 267.458C595.729 267.681 596.276 267.864 596.852 268.026C597.409 268.188 597.976 268.279 598.552 268.36H598.572C598.751 267.367 598.87 266.363 598.969 265.348C599.059 264.284 599.108 263.209 599.108 262.134C599.099 259.72 598.86 257.357 598.403 255.085Z" fill="#F48D83"/>
<path d="M615.526 236.697C611.57 240.561 608.489 245.348 606.701 250.723L606.681 250.743V250.764C606.194 252.194 605.796 253.654 605.498 255.155V255.175C605.041 257.427 604.822 259.739 604.822 262.143C604.822 263.299 604.872 264.455 604.981 265.591V265.611C605.071 266.544 605.2 267.477 605.359 268.38C605.677 268.349 605.985 268.299 606.303 268.238C606.393 268.218 606.492 268.207 606.591 268.187C606.671 268.167 606.75 268.157 606.83 268.126C607.048 268.076 607.257 268.025 607.466 267.954C607.893 267.842 608.321 267.7 608.728 267.518C608.44 265.784 608.291 263.978 608.291 262.163C608.291 258.654 608.857 255.297 609.881 252.143V252.123C611.6 246.961 614.582 242.377 618.438 238.807C617.513 238.016 616.549 237.326 615.526 236.697Z" fill="#F48D83"/>
<path d="M471.511 304.738V304.677V298.978C471.511 285.368 478.508 276.362 491.835 269.313C492.889 268.766 496.248 266.93 496.248 266.93C496.248 266.93 493.564 265.591 491.835 265.581C482.453 265.531 475.566 275.125 471.511 283.633V268.482C472.058 268.482 472.634 268.451 473.181 268.37C473.529 268.34 473.857 268.269 474.185 268.208C474.702 268.107 475.208 267.965 475.715 267.802C475.984 267.711 476.262 267.61 476.53 267.498C478.568 266.656 480.436 265.307 481.937 263.462C484.819 259.872 485.624 255.277 484.521 251.109C482.205 250.835 479.84 251.19 477.673 252.123C476.898 252.448 476.163 252.864 475.437 253.35C475.218 252.438 474.9 251.576 474.493 250.764V250.744C473.479 248.655 471.959 246.87 470.08 245.531C467.983 246.951 466.284 248.959 465.24 251.302C464.893 252.022 464.624 252.783 464.435 253.553C463.63 252.955 462.746 252.478 461.832 252.073C459.685 251.17 457.369 250.835 455.074 251.109C453.951 255.277 454.775 259.882 457.648 263.462C459.128 265.297 460.987 266.646 463.004 267.488C463.541 267.711 464.107 267.894 464.664 268.036C465.22 268.198 465.787 268.289 466.363 268.37C466.91 268.431 467.467 268.482 468.033 268.482V283.633C463.978 275.135 457.091 265.531 447.709 265.602C445.98 265.602 443.307 266.95 443.307 266.95C443.307 266.95 446.666 268.766 447.709 269.334C461.046 276.362 468.033 285.368 468.033 298.978V304.677V304.738H471.511V304.738Z" fill="#97CF9B"/>
<path d="M562.337 266.93C562.337 266.93 558.978 268.766 557.925 269.313C544.597 276.362 537.601 285.368 537.601 298.978V304.738H534.152V299.698C534.132 299.454 534.132 299.211 534.132 298.978C534.132 298.836 534.132 298.674 534.152 298.532V298.319C534.132 298.298 534.152 298.288 534.152 298.268C533.904 285.043 526.927 276.23 513.829 269.324C512.775 268.756 509.416 266.94 509.416 266.94C509.416 266.94 512.079 265.591 513.829 265.591C523.19 265.531 530.078 275.135 534.152 283.623V268.472C533.586 268.472 533.019 268.421 532.463 268.36C531.876 268.279 531.31 268.188 530.763 268.025C530.217 267.883 529.64 267.701 529.104 267.478C527.086 266.646 525.228 265.287 523.747 263.462C520.875 259.872 520.06 255.277 521.173 251.109C523.479 250.835 525.804 251.17 527.941 252.073C528.855 252.478 529.74 252.955 530.545 253.553C530.734 252.783 531.002 252.022 531.35 251.302C532.393 248.949 534.093 246.941 536.21 245.531C538.068 246.87 539.598 248.655 540.612 250.744V250.764C541.02 251.586 541.338 252.438 541.556 253.35C542.282 252.864 543.017 252.448 543.792 252.123C545.949 251.19 548.314 250.835 550.64 251.109C551.763 255.277 550.938 259.882 548.056 263.462C546.555 265.307 544.697 266.666 542.65 267.498C542.381 267.61 542.093 267.711 541.825 267.802C541.318 267.965 540.811 268.107 540.294 268.208C539.966 268.269 539.628 268.34 539.28 268.37C538.724 268.451 538.157 268.482 537.611 268.482V283.633C541.666 275.125 548.553 265.531 557.935 265.581C559.654 265.591 562.337 266.93 562.337 266.93Z" fill="#97CF9B"/>
<path d="M628.425 266.93C628.425 266.93 625.066 268.766 624.013 269.313C610.685 276.362 603.689 285.368 603.689 298.978V304.738H600.24V299.698C600.22 299.454 600.22 299.211 600.22 298.978C600.22 298.836 600.22 298.674 600.24 298.532V298.319C600.22 298.298 600.24 298.288 600.24 298.268C599.992 285.043 593.015 276.23 579.916 269.324C578.863 268.756 575.504 266.94 575.504 266.94C575.504 266.94 578.167 265.591 579.916 265.591C589.278 265.531 596.166 275.135 600.24 283.623V268.472C599.674 268.472 599.117 268.421 598.571 268.36H598.551C597.964 268.279 597.398 268.188 596.851 268.025C596.305 267.883 595.728 267.701 595.192 267.478C593.174 266.646 591.326 265.287 589.835 263.462C586.963 259.872 586.148 255.277 587.261 251.109C589.567 250.835 591.892 251.17 594.029 252.073C594.943 252.478 595.828 252.955 596.633 253.553C596.841 252.783 597.09 252.022 597.438 251.302C598.481 248.949 600.181 246.941 602.297 245.531C604.156 246.87 605.686 248.655 606.7 250.744V250.764V250.785C607.108 251.606 607.426 252.438 607.644 253.361C608.37 252.874 609.105 252.458 609.88 252.133C612.037 251.2 614.402 250.845 616.738 251.119C617.841 255.288 617.026 259.892 614.134 263.472C612.653 265.318 610.775 266.677 608.728 267.508C608.32 267.681 607.893 267.833 607.465 267.944C607.257 268.025 607.058 268.076 606.839 268.117C606.67 268.167 606.491 268.198 606.322 268.228C606.004 268.289 605.696 268.34 605.378 268.37C604.822 268.451 604.255 268.482 603.709 268.482V283.633C607.773 275.125 614.651 265.531 624.032 265.581C625.742 265.591 628.425 266.93 628.425 266.93Z" fill="#97CF9B"/>
<path d="M305.343 195.808H0V614.384H305.343V195.808Z" fill="#1BB16B"/>
<path d="M242.505 395.912H58.5879V544.041H242.505V395.912Z" fill="#1CB16B"/>
<path d="M253.854 371.572V388.519H51.6699V371.572C51.6699 370.679 51.6799 369.797 51.6997 368.905C52.5246 331.888 70.5725 297.406 100.397 276.159L102.226 274.851L135.589 251.069L140.597 247.499L152.752 238.838L164.926 247.519L169.925 251.079L203.288 274.851L205.107 276.149C234.951 297.396 252.999 331.877 253.824 368.895C253.844 369.787 253.854 370.679 253.854 371.572Z" fill="#F7C4BA"/>
<path d="M235.19 365.193C232.795 363.145 230.201 361.279 227.388 359.626C218.782 354.555 209.37 352.151 200.098 352.151C204.739 343.947 207.392 334.434 207.392 324.292C207.392 320.986 207.114 317.751 206.577 314.597C219.686 314.587 232.039 319.404 241.669 327.639V327.659C243.856 340.296 241.759 353.612 235.19 365.193Z" fill="#92CB7B"/>
<path d="M235.188 365.194C233.627 367.962 231.799 370.619 229.722 373.155C224.057 380.041 217.11 385.183 209.517 388.519H205.114C195.613 380.923 183.787 376.674 171.543 376.643C183.638 372.12 193.735 363.378 200.096 352.151C209.368 352.151 218.77 354.565 227.386 359.636C230.189 361.279 232.792 363.155 235.188 365.194Z" fill="#1CB16B"/>
<path d="M251.27 388.518H209.52C217.102 385.182 224.059 380.04 229.724 373.154C231.801 370.618 233.63 367.961 235.19 365.192C242.604 371.541 248.06 379.634 251.27 388.518Z" fill="#92CB7B"/>
<path d="M96.0225 388.519H54.252C57.4719 379.635 62.9181 371.542 70.3519 365.214C71.9122 367.983 73.721 370.629 75.7981 373.155C81.4629 380.041 88.4296 385.193 96.0225 388.519Z" fill="#92CB7B"/>
<path d="M133.978 376.643C121.744 376.674 109.918 380.923 100.417 388.519H96.024C88.4312 385.193 81.4645 380.041 75.7997 373.155C73.7226 370.619 71.9138 367.972 70.3535 365.214C72.7387 363.155 75.3525 361.289 78.155 359.636C86.7815 354.555 96.1731 352.151 105.446 352.151C111.796 363.378 121.893 372.12 133.978 376.643Z" fill="#1CB16B"/>
<path d="M105.435 352.151C96.163 352.151 86.7714 354.544 78.145 359.625C75.3324 361.278 72.7385 363.144 70.3434 365.203C63.7742 353.631 61.6773 340.295 63.8438 327.648C73.474 319.393 85.8372 314.576 98.9457 314.586C98.4091 317.74 98.1308 320.975 98.1308 324.281C98.1407 334.433 100.804 343.946 105.435 352.151Z" fill="#92CB7B"/>
<path d="M100.418 388.518C109.919 380.922 121.736 376.673 133.979 376.642C121.895 372.119 111.797 363.377 105.437 352.15C118.178 352.15 130.66 356.724 140.539 365.162C134.089 353.752 131.873 340.416 134.079 327.638C143.789 335.964 150.487 347.596 152.773 360.507C155.049 347.607 161.737 335.974 171.447 327.638C173.653 340.416 171.417 353.773 164.977 365.162C174.856 356.714 187.358 352.15 200.099 352.15C193.738 363.377 183.641 372.129 171.546 376.642C183.8 376.673 195.617 380.922 205.118 388.518H100.418V388.518Z" fill="#F48D83"/>
<path d="M140.547 365.163C130.668 356.715 118.176 352.151 105.445 352.151C100.804 343.947 98.1504 334.434 98.1504 324.292C98.1504 320.986 98.4287 317.751 98.9653 314.597C102.106 314.597 105.266 314.871 108.466 315.449C118.265 317.203 126.981 321.544 134.087 327.639C131.881 340.427 134.087 353.764 140.547 365.163Z" fill="#1CB16B"/>
<path d="M152.761 294.606C150.366 296.665 148.11 298.957 146.032 301.492C139.642 309.271 135.677 318.307 134.087 327.638C126.981 321.542 118.255 317.202 108.466 315.447C105.266 314.869 102.105 314.595 98.9648 314.595C101.221 301.411 108.029 289.83 117.659 281.574C130.231 281.574 142.723 286.006 152.761 294.606Z" fill="#92CB7B"/>
<path d="M206.577 314.595C203.437 314.595 200.277 314.869 197.076 315.447C187.287 317.202 178.561 321.542 171.456 327.638C169.856 318.307 165.88 309.271 159.49 301.492C157.413 298.957 155.147 296.665 152.762 294.606C162.789 286.006 175.292 281.595 187.864 281.574C197.514 289.83 204.302 301.421 206.577 314.595Z" fill="#92CB7B"/>
<path d="M171.456 327.639C161.736 335.965 155.048 347.598 152.772 360.508C150.486 347.598 143.798 335.965 134.078 327.639C135.668 318.308 139.634 309.272 146.024 301.494C148.101 298.958 150.367 296.666 152.752 294.607C155.147 296.666 157.403 298.958 159.48 301.494C165.881 309.272 169.856 318.319 171.456 327.639Z" fill="#1CB16B"/>
<path d="M207.391 324.292C207.391 334.444 204.728 343.947 200.096 352.151C187.356 352.151 174.863 356.715 164.975 365.163C171.425 353.774 173.651 340.427 171.454 327.639C178.56 321.544 187.286 317.203 197.075 315.449C200.275 314.871 203.436 314.597 206.576 314.597C207.113 317.751 207.391 320.986 207.391 324.292Z" fill="#1CB16B"/>
<path d="M114.112 537.854H66.4879V403.64H114.112V537.854ZM128.94 388.519H51.6699V552.986H128.94V388.519Z" fill="#B1D794"/>
<path d="M176.573 537.854H128.949V403.64H176.573V537.854ZM191.401 388.519H114.131V552.986H191.401V388.519Z" fill="#B1D794"/>
<path d="M239.034 537.854H191.41V403.64H239.034V537.854ZM253.852 388.519H176.582V552.986H253.852V388.519Z" fill="#B1D794"/>
<path d="M253.853 552.985H51.5V563.573H253.853V552.985Z" fill="#F7C4BA"/>
<path d="M114.001 430.384C102.731 425.435 93.9455 415.689 90.1391 403.671C86.3328 415.689 77.5473 425.445 66.2773 430.384C83.55 437.838 83.55 463.253 66.2773 470.707C66.3668 470.748 66.4662 470.788 66.5556 470.829C83.6991 478.496 83.6991 503.799 66.5556 511.467C66.4662 511.507 66.3668 511.548 66.2773 511.588C77.5473 516.537 86.3328 526.284 90.1391 538.301C93.9455 526.284 102.731 516.527 114.001 511.588C113.911 511.548 113.812 511.507 113.723 511.467C96.5791 503.799 96.5791 478.496 113.723 470.829C113.812 470.788 113.901 470.748 114.001 470.707C113.911 470.667 113.822 470.626 113.723 470.586C96.8077 463.02 96.8077 438.071 113.723 430.506C113.822 430.465 113.911 430.425 114.001 430.384Z" fill="#F48D83"/>
<path d="M176.532 430.384C165.262 425.435 156.477 415.689 152.67 403.671C148.864 415.689 140.079 425.445 128.809 430.384C146.081 437.838 146.081 463.253 128.809 470.707C128.898 470.748 128.997 470.788 129.087 470.829C146.23 478.496 146.23 503.799 129.087 511.467C128.997 511.507 128.898 511.548 128.809 511.588C140.079 516.537 148.864 526.284 152.67 538.301C156.477 526.284 165.262 516.527 176.532 511.588C176.443 511.548 176.343 511.507 176.254 511.467C159.11 503.799 159.11 478.496 176.254 470.829C176.343 470.788 176.433 470.748 176.532 470.707C176.443 470.667 176.353 470.626 176.254 470.586C159.339 463.02 159.339 438.071 176.254 430.506C176.353 430.465 176.443 430.425 176.532 430.384Z" fill="#F48D83"/>
<path d="M239.063 470.707C238.974 470.667 238.884 470.626 238.785 470.586C221.87 463.02 221.87 438.061 238.785 430.506C238.875 430.465 238.964 430.425 239.063 430.384C227.793 425.435 219.008 415.689 215.202 403.671C211.395 415.689 202.61 425.445 191.34 430.384C191.429 430.425 191.519 430.465 191.618 430.506C208.533 438.071 208.533 463.03 191.618 470.586C191.529 470.626 191.439 470.667 191.34 470.707C191.429 470.748 191.529 470.788 191.618 470.829C208.762 478.496 208.762 503.799 191.618 511.467C191.529 511.507 191.429 511.548 191.34 511.588C202.61 516.537 211.395 526.284 215.202 538.301C219.008 526.284 227.793 516.527 239.063 511.588C238.974 511.548 238.875 511.507 238.785 511.467C221.642 503.799 221.642 478.496 238.785 470.829C238.884 470.788 238.974 470.748 239.063 470.707Z" fill="#F48D83"/>
<path d="M555.152 716.642V774.307H555.033V855.958H509.774V783.871C509.774 769.206 495.622 754.947 484.411 745.961C477.057 740.049 470.945 736.418 470.945 736.418C470.945 736.418 435.227 759.744 435.227 782.065V855.958H389.889V716.642H555.152Z" fill="#92CB7B"/>
<path d="M544.05 782.168H521.371V751.844C521.371 745.049 532.234 739.694 532.234 739.694C532.234 739.694 544.05 744.998 544.05 752.392V782.168V782.168Z" fill="#1BB16B"/>
<path d="M423.64 782.168H400.961V751.844C400.961 745.049 411.823 739.694 411.823 739.694C411.823 739.694 423.64 744.998 423.64 752.392V782.168Z" fill="#1BB16B"/>
<path d="M544.062 827.48V855.958H521.383V826.942C521.383 820.147 532.245 814.803 532.245 814.803C532.245 814.803 544.062 820.117 544.062 827.48Z" fill="#1BB16B"/>
<path d="M423.64 827.48V855.958H400.961V826.942C400.961 820.147 411.823 814.803 411.823 814.803C411.823 814.803 423.64 820.117 423.64 827.48Z" fill="#1BB16B"/>
<path d="M425.051 666.278V716.987H418.094V684.229C418.094 682.637 417.528 681.197 416.603 680.152C415.689 679.118 414.427 678.469 413.026 678.469C410.203 678.469 407.937 681.034 407.937 684.229V716.987H400.98V666.278H425.051Z" fill="#92CB7B"/>
<path d="M401.397 666.289H395.533V716.987H401.397V666.289Z" fill="#1BB16B"/>
<path d="M430.625 666.289H424.762V716.987H430.625V666.289Z" fill="#1BB16B"/>
<path d="M421.85 661.177L415.788 657.638V653.784C417.07 652.8 417.914 651.137 417.914 649.25C417.914 647.009 415.271 643.186 413.889 641.35V629.353H412.259V641.35C410.878 643.186 408.234 647.009 408.234 649.25C408.234 651.137 409.079 652.8 410.361 653.784V657.648L404.299 661.187L395.523 666.309H413.074H430.625L421.85 661.177Z" fill="#1BB16B"/>
<path d="M542.867 666.278V716.987H535.91V684.229C535.91 682.637 535.344 681.197 534.42 680.152C533.505 679.118 532.243 678.469 530.842 678.469C528.029 678.469 525.754 681.034 525.754 684.229V716.987H518.807V666.278H542.867Z" fill="#92CB7B"/>
<path d="M519.203 666.289H513.34V716.987H519.203V666.289Z" fill="#1BB16B"/>
<path d="M548.432 666.289H542.568V716.987H548.432V666.289Z" fill="#1BB16B"/>
<path d="M539.666 661.177L533.604 657.638V653.784C534.886 652.8 535.731 651.137 535.731 649.25C535.731 647.009 533.087 643.186 531.706 641.35V629.353H530.076V641.35C528.694 643.186 526.051 646.999 526.051 649.24C526.051 651.127 526.896 652.79 528.178 653.774V657.638L522.115 661.177L513.34 666.299H530.891H548.442L539.666 661.177Z" fill="#1BB16B"/>
<path d="M509.773 783.881V855.968H435.236V782.066C435.236 759.744 470.954 736.418 470.954 736.418C470.954 736.418 477.057 740.059 484.421 745.961C495.621 754.957 509.773 769.216 509.773 783.881Z" fill="#1BB16B"/>
<path d="M555.152 774.317H555.033V855.968H555.152V774.317Z" fill="white"/>
<path d="M640.104 774.317H554.873V855.968H640.104V774.317Z" fill="#92CB7B"/>
<path d="M628.476 826.923V855.958H605.797V827.481C605.797 820.087 617.613 814.783 617.613 814.783C617.613 814.783 628.476 820.128 628.476 826.923Z" fill="#1BB16B"/>
<path d="M594.189 818.626V855.958H555.291V819.57C555.291 806.892 575.545 798.282 575.545 798.282C575.545 798.282 594.189 806.974 594.189 818.626Z" fill="#1BB16B"/>
<path d="M390.047 774.135H304.678V855.948H390.047V774.135Z" fill="#92CB7B"/>
<path d="M338.985 827.287V855.958H316.326V826.75C316.326 819.955 327.189 814.59 327.189 814.59C327.189 814.59 331.631 816.588 335.06 819.843C337.226 821.882 338.985 824.437 338.985 827.287Z" fill="#1BB16B"/>
<path d="M389.51 819.397V855.958H350.602V818.454C350.602 806.791 369.236 798.09 369.236 798.09C369.236 798.09 389.51 806.72 389.51 819.397Z" fill="#1BB16B"/>
<path d="M348.982 249.649V255.937C348.982 265.633 356.685 273.492 366.186 273.492V267.205C366.186 257.509 358.483 249.649 348.982 249.649Z" fill="#231F20"/>
<path d="M367.715 267.205V273.492C377.216 273.492 384.918 265.633 384.918 255.937V249.649C375.417 249.649 367.715 257.509 367.715 267.205Z" fill="#231F20"/>
<path d="M348.982 224.752V231.04C348.982 240.735 356.685 248.595 366.186 248.595V242.307C366.186 232.612 358.483 224.752 348.982 224.752Z" fill="#231F20"/>
<path d="M367.715 242.307V248.595C377.216 248.595 384.918 240.735 384.918 231.04V224.752C375.417 224.752 367.715 232.612 367.715 242.307Z" fill="#231F20"/>
<path d="M348.982 199.185V205.472C348.982 215.168 356.685 223.028 366.186 223.028V216.74C366.186 207.044 358.483 199.185 348.982 199.185Z" fill="#231F20"/>
<path d="M384.918 199.185C375.417 199.185 367.715 207.044 367.715 216.74V223.028C377.216 223.028 384.918 215.168 384.918 205.472V199.185Z" fill="#231F20"/>
<path d="M351.775 39.5342H349.35V196.74H351.775V39.5342Z" fill="#231F20"/>
<path d="M357.29 39.5342H354.865V196.74H357.29V39.5342Z" fill="#231F20"/>
<path d="M362.808 39.5342H360.383V196.74H362.808V39.5342Z" fill="#231F20"/>
<path d="M368.312 39.5342H365.887V196.74H368.312V39.5342Z" fill="#231F20"/>
<path d="M373.829 39.5342H371.404V196.74H373.829V39.5342Z" fill="#231F20"/>
<path d="M379.333 39.5342H376.908V196.74H379.333V39.5342Z" fill="#231F20"/>
<path d="M384.851 39.5342H382.426V196.74H384.851V39.5342Z" fill="#231F20"/>
<path d="M306 613.096H1.53125V855.968H306V613.096Z" fill="#97CF9B"/>
<path d="M231.215 614.658C231.215 642.223 210.583 665.721 181.673 674.645C173.633 677.13 164.937 678.489 155.873 678.489C146.809 678.489 138.113 677.13 130.073 674.645C101.173 665.711 80.5508 642.223 80.5508 614.658C80.5508 614.13 80.5508 613.613 80.5806 613.096H231.185C231.215 613.613 231.215 614.13 231.215 614.658Z" fill="#F7C4BA"/>
<path d="M202.909 624.272L170.352 619.739L197.145 636.037L198.05 650.387L181.105 649.626L161.874 626.929L167.231 654.504L155.882 665.184L144.542 654.504L149.879 626.929L130.648 649.626L113.723 650.387L114.608 636.037L141.401 619.739L108.864 624.272L96.252 614.658L98.3092 613.086H213.444L215.501 614.658L202.909 624.272Z" fill="#97CF9B"/>
<path d="M231.215 734.623C231.215 769.875 197.484 798.454 155.883 798.454C114.281 798.454 80.5508 769.875 80.5508 734.623C80.5508 699.37 114.281 670.791 155.883 670.791C197.484 670.801 231.215 699.37 231.215 734.623Z" fill="#F7C4BA"/>
<path d="M215.511 734.623L202.909 725.019L170.362 729.542L197.155 713.255L198.05 698.904L181.115 699.655L161.874 722.362L167.231 694.787L155.882 684.098L144.532 694.787L149.889 722.362L130.648 699.655L113.713 698.904L114.608 713.255L141.401 729.542L108.854 725.019L96.252 734.623L108.854 744.238L141.401 739.704L114.608 756.002L113.713 770.352L130.648 769.602L149.889 746.895L144.532 774.47L155.882 785.149L167.231 774.47L161.874 746.895L181.115 769.602L198.05 770.352L197.155 756.002L170.362 739.704L202.909 744.238L215.511 734.623Z" fill="#97CF9B"/>
<path d="M305.998 613.086V738.366C296.934 738.366 288.238 737.017 280.198 734.532C251.298 725.597 230.676 702.109 230.676 674.544C230.676 645.306 253.892 620.641 285.535 613.086H305.998Z" fill="#F7C4BA"/>
<path d="M305.999 624.018V725.069L294.659 714.39L299.996 686.815L280.765 709.512L263.841 710.262L264.725 695.922L291.519 679.624L258.971 684.147L246.369 674.543L258.971 664.929L291.519 669.462L264.725 653.165L263.841 638.804L280.765 639.575L299.996 662.272L294.659 634.697L305.999 624.018Z" fill="#97CF9B"/>
<path d="M305.998 730.688V855.968H285.535C253.892 848.413 230.676 823.769 230.676 794.51C230.676 766.945 251.308 743.457 280.198 734.532C288.238 732.037 296.934 730.688 305.998 730.688Z" fill="#F7C4BA"/>
<path d="M305.999 743.983V845.035L294.659 834.356L299.996 806.77L280.765 829.488L263.841 830.238L264.725 815.888L291.519 799.59L258.971 804.123L246.369 794.509L258.971 784.905L291.519 789.428L264.725 773.131L263.841 758.79L280.765 759.541L299.996 782.238L294.659 754.673L305.999 743.983Z" fill="#97CF9B"/>
<path d="M79.0497 674.544C79.0497 702.109 58.4178 725.608 29.5075 734.532C21.4674 737.017 12.7714 738.366 3.70773 738.366C2.9723 738.366 2.2468 738.356 1.53125 738.325V613.086H24.1706C55.8438 620.641 79.0497 645.306 79.0497 674.544Z" fill="#F7C4BA"/>
<path d="M50.7455 684.147L18.1878 679.624L45.0012 695.922L45.8857 710.262L28.9509 709.512L9.71044 686.815L15.0672 714.39L3.71767 725.069L1.53125 723.02V626.066L3.71767 624.018L15.0672 634.697L9.71044 662.272L28.9509 639.575L45.8857 638.814L45.0012 653.165L18.1878 669.462L50.7455 664.929L63.3572 674.543L50.7455 684.147Z" fill="#97CF9B"/>
<path d="M79.0497 794.509C79.0497 823.758 55.8339 848.412 24.1706 855.968H1.53125V730.718C2.25674 730.688 2.9723 730.678 3.70773 730.678C12.7714 730.678 21.4674 732.027 29.5075 734.521C58.4278 743.446 79.0497 766.944 79.0497 794.509Z" fill="#F7C4BA"/>
<path d="M50.7455 804.123L18.1878 799.59L45.0012 815.888L45.8857 830.238L28.9509 829.488L9.71044 806.77L15.0672 834.356L3.71767 845.035L1.53125 842.976V746.032L3.71767 743.983L15.0672 754.673L9.71044 782.238L28.9509 759.541L45.8857 758.79L45.0012 773.131L18.1878 789.428L50.7455 784.905L63.3572 794.509L50.7455 804.123Z" fill="#97CF9B"/>
<path d="M231.184 855.957H80.5898C81.2358 827.459 103.935 803.535 134.833 795.929C141.511 794.276 148.577 793.394 155.882 793.394C163.187 793.394 170.253 794.276 176.931 795.929C207.839 803.535 230.538 827.459 231.184 855.957Z" fill="#F7C4BA"/>
<path d="M213.842 855.958H97.9219L108.864 847.621L141.402 852.155L114.608 835.857L113.724 821.517L130.649 822.267L149.879 844.964L144.542 817.389L155.882 806.71L167.231 817.389L161.875 844.964L181.105 822.267L198.05 821.517L197.145 835.857L170.352 852.155L202.91 847.621L213.842 855.958Z" fill="#97CF9B"/>
</g>
<defs>
<clipPath id="clip0">
<rect width="966" height="853" fill="white"/>
</clipPath>
</defs>
</svg>
