<svg width="966" height="853" fill="none" xmlns="http://www.w3.org/2000/svg"><g clip-path="url(#clip0)"><path d="M305-3H0v199h305V-3z" fill="#E52226"/><path d="M207.948 53.793l-81.232 55.779-31.77 91.066h188.826l-2.28-37.822-73.544-103.952v-5.071z" fill="#F7C4BA"/><path d="M305.686 196.075h-78.644c-2.449-14.413 12.615-21.55 6.609-43.174-4.328-15.618-25.205-8.793-40.35-28.073-11.297-14.414 2.072-40.553 9.548-52.836 2.858-4.72 4.376-10.44 4.376-16.29v-1.32l.41-.589 98.051 142.282z" fill="#F48D83"/><path d="M207.628 196.181H2.227s31.597-49.73 42.349-64.528c13.361-18.38 65-65.766 65-65.766l98.052 130.294z" fill="#F7C4BA"/><path d="M207.627 196.181h-78.643c-2.449-13.201 12.615-19.732 6.608-39.537-4.328-14.307-25.205-8.055-40.35-25.705-11.297-13.2 2.072-37.135 9.548-48.378 2.859-4.326 4.376-9.562 4.376-14.921v-1.205l.41-.54 98.051 130.286z" fill="#F48D83"/><path d="M965.999-2.209H641.555v311.45h324.444V-2.209zM641.555 305.874H305.006V856.11h336.549V305.874z" fill="#E8F1CF"/><path d="M965.552 635.407H640.104V856.11h325.448V635.407z" fill="#E1DFDE"/><path d="M916.179 804.428c-75.382-18.143-150.764 25.557-226.156 7.718V692.424c75.382 17.829 150.764-25.861 226.156-7.718v119.722z" fill="#F7C4BA"/><path d="M690.054 812.146a146.164 146.164 0 01-13.665-3.935v-4.543a150.187 150.187 0 0013.665 3.935v4.543zM690.054 795.696a146.164 146.164 0 01-13.665-3.935v-4.543a150.509 150.509 0 0013.665 3.935v4.543zM690.054 779.246a146.164 146.164 0 01-13.665-3.935v-4.543a150.832 150.832 0 0013.665 3.935v4.543zM690.054 762.807a146.469 146.469 0 01-13.665-3.935v-4.544a150.187 150.187 0 0013.665 3.935v4.544zM690.054 746.357a146.164 146.164 0 01-13.665-3.935v-4.543a147.044 147.044 0 0013.665 3.935v4.543zM690.054 729.907a146.164 146.164 0 01-13.665-3.935v-4.543a150.509 150.509 0 0013.665 3.935v4.543zM690.054 713.457a146.164 146.164 0 01-13.665-3.935v-4.553a150.509 150.509 0 0013.665 3.935v4.553zM690.054 697.008a146.469 146.469 0 01-13.665-3.935v-4.544a150.187 150.187 0 0013.665 3.935v4.544zM929.269 808.211a151.304 151.304 0 00-13.665-3.935v-4.544a147.53 147.53 0 0113.665 3.935v4.544zM929.269 791.761a151.304 151.304 0 00-13.665-3.935v-4.544a144.2 144.2 0 0113.665 3.935v4.544zM929.269 775.321a151.63 151.63 0 00-13.665-3.935v-4.543a147.221 147.221 0 0113.665 3.935v4.543zM929.269 758.872a151.304 151.304 0 00-13.665-3.935v-4.543a144.2 144.2 0 0113.665 3.935v4.543zM929.269 742.423a151.304 151.304 0 00-13.665-3.935v-4.544a147.53 147.53 0 0113.665 3.935v4.544zM929.269 725.972a151.304 151.304 0 00-13.665-3.935v-4.544a147.221 147.221 0 0113.665 3.935v4.544zM929.269 709.523a151.304 151.304 0 00-13.665-3.935v-4.554a144.2 144.2 0 0113.665 3.935v4.554zM929.269 693.083a151.304 151.304 0 00-13.665-3.935v-4.544a147.84 147.84 0 0113.665 3.935v4.544zM738.344 722.179c11.21 11.014 22.421 21.257 33.621 31.124-11.21 13.012-22.421 25.639-33.621 37.504-11.21-11.014-22.421-22.818-33.631-35.79 11.21-9.898 22.421-20.983 33.631-32.838z" fill="#E52226"/><path d="M736.892 748.791a727.924 727.924 0 007.603 7.403 849.763 849.763 0 01-7.603 8.114 604.119 604.119 0 01-7.603-7.647 809.11 809.11 0 007.603-7.87z" fill="#F48D83"/><path d="M803.102 713.995c11.21 9.523 22.42 19.056 33.621 28.995-11.211 12.941-22.421 26.277-33.621 39.634-11.211-9.523-22.421-19.046-33.622-28.975 11.211-12.951 22.421-26.307 33.622-39.654z" fill="#E52226"/><path d="M867.869 705.892c11.211 11.044 22.421 22.869 33.621 35.891-11.21 9.858-22.42 20.902-33.621 32.737-11.21-11.044-22.421-21.307-33.621-31.185 11.21-13.002 22.421-25.618 33.621-37.443z" fill="#E52226"/><path d="M866.121 709.431c10.674 9.756 21.348 20.192 32.031 31.683-10.673 8.924-21.347 18.883-32.031 29.542-10.514-9.604-21.029-18.529-31.534-27.129-10.514 11.501-21.029 23.336-31.534 35.182-10.515-8.256-21.029-16.511-31.544-25.091-10.515 11.511-21.019 22.687-31.534 33.194-10.674-9.736-21.347-20.152-32.031-31.612 10.674-8.945 21.347-18.934 32.031-29.613 10.515 9.584 21.029 18.498 31.534 27.088 10.515-11.511 21.029-23.356 31.544-35.191 10.515 8.255 21.029 16.51 31.534 25.11 10.515-11.51 21.03-22.666 31.534-33.163zm0-15.709a798.463 798.463 0 00-7.682 7.778c-7.951 8.174-15.901 16.673-23.862 25.375-7.95-6.501-15.911-12.809-23.861-19.067-2.555-2.018-5.119-4.026-7.673-6.034-2.564 2.88-5.118 5.761-7.682 8.641-7.951 8.945-15.911 17.839-23.862 26.551-7.951-6.491-15.911-13.184-23.862-20.202a671.164 671.164 0 01-7.682-6.887 669.74 669.74 0 01-7.672 7.556c-10.674 10.324-21.358 19.878-32.031 28.305a294.348 294.348 0 01-8.756 6.653 526.92 526.92 0 008.756 10.081c10.673 11.977 21.357 22.829 32.031 32.91a694.513 694.513 0 007.672 7.119 800.18 800.18 0 007.682-7.789c7.951-8.184 15.902-16.703 23.862-25.405 7.951 6.491 15.911 12.799 23.862 19.057 2.564 2.018 5.118 4.026 7.682 6.034 2.554-2.88 5.118-5.761 7.673-8.641 7.95-8.945 15.911-17.829 23.861-26.53 7.951 6.5 15.911 13.194 23.862 20.232a672.468 672.468 0 017.682 6.897 590.219 590.219 0 017.683-7.546c10.673-10.304 21.347-19.827 32.031-28.224a292.062 292.062 0 018.755-6.633 502.83 502.83 0 00-8.755-10.101c-10.674-12.007-21.348-22.889-32.031-32.991a625.067 625.067 0 00-7.683-7.139z" fill="#F48D83"/><path d="M803.101 740.556c2.534 2.15 5.068 4.31 7.603 6.46a6464.97 6464.97 0 00-7.603 9.046c-2.534-2.15-5.069-4.31-7.603-6.46a3200.1 3200.1 0 007.603-9.046zM867.273 732.474a591.531 591.531 0 017.602 7.596 637.5 637.5 0 00-7.602 7.92 648.07 648.07 0 00-7.603-7.352 654.021 654.021 0 017.603-8.164z" fill="#F48D83"/><path d="M903.11 788.546c-66.676-10.091-133.342 22.616-200.018 12.768v-93.059c66.666 9.847 133.342-22.85 200.018-12.769v93.06zm13.069-103.85c-75.382-18.144-150.764 25.557-226.156 7.717v119.733c75.382 17.839 150.764-25.861 226.156-7.718V684.696z" fill="#FAD6CE"/><path d="M916.179 684.736c-75.382-18.144-150.774 25.557-226.156 7.717v119.723c75.382 17.839 150.764-25.862 226.156-7.718V684.736zm-213.087 23.548c66.676 9.848 133.342-22.849 200.018-12.768v93.05c-66.676-10.091-133.342 22.616-200.018 12.768v-93.05z" fill="#EB4B29"/><path d="M916.177 804.459v-.446a970.103 970.103 0 00-6.142-10.112c2.048-.76 4.095-1.48 6.142-2.15v-1.561a340.915 340.915 0 00-4.442-3.53c1.48-.537 2.961-1.044 4.442-1.531v-1.572a339.035 339.035 0 00-4.432-3.519c1.48-.528 2.951-1.035 4.432-1.521v-1.572a347.799 347.799 0 00-4.432-3.52c1.48-.527 2.951-1.034 4.432-1.521v-1.572a347.682 347.682 0 00-4.432-3.519c1.48-.527 2.951-1.034 4.432-1.521v-1.572a339.035 339.035 0 00-4.432-3.519c1.48-.528 2.951-1.025 4.432-1.511v-1.572a270.602 270.602 0 00-4.432-3.509c1.48-.528 2.951-1.035 4.432-1.522v-1.561a270.602 270.602 0 00-4.432-3.509c1.48-.528 2.951-1.035 4.432-1.522v-1.572a347.682 347.682 0 00-4.432-3.519c1.48-.527 2.951-1.024 4.432-1.511v-1.572a270.602 270.602 0 00-4.432-3.509c1.48-.527 2.951-1.034 4.432-1.511v-1.582a335.516 335.516 0 00-4.412-3.499c1.47-.527 2.941-1.034 4.412-1.511v-1.572a339.035 339.035 0 00-4.432-3.519c1.48-.528 2.951-1.035 4.432-1.521v-1.572a347.799 347.799 0 00-4.432-3.52c1.48-.527 2.951-1.024 4.432-1.511v-1.572a276.1 276.1 0 00-4.432-3.509c1.48-.527 2.951-1.044 4.432-1.521v-1.572a270.602 270.602 0 00-4.432-3.509c1.48-.527 2.951-1.034 4.432-1.511v-1.572a349.009 349.009 0 00-6.122-4.837 526.05 526.05 0 016.122-7.414v-.74c-1.63-.396-3.26-.761-4.89-1.096a216.412 216.412 0 00-9.014 4.818 439.31 439.31 0 00-6.837-6.958 390.8 390.8 0 00-6.649 5.365 543.8 543.8 0 00-6.648-6.247 549.12 549.12 0 00-6.639 5.832 677.821 677.821 0 00-6.639-5.822 641.654 641.654 0 00-6.649 6.227 626.028 626.028 0 00-6.638-5.466 991.713 991.713 0 00-6.639 6.541 637.811 637.811 0 00-6.639-5.182 1443.266 1443.266 0 00-6.639 6.785 925.686 925.686 0 00-6.638-4.98c-2.217 2.302-4.423 4.625-6.639 6.947-2.216-1.623-4.433-3.235-6.649-4.848-2.206 2.343-4.422 4.686-6.639 7.039-2.216-1.603-4.422-3.195-6.638-4.797-2.217 2.353-4.423 4.705-6.639 7.058-2.206-1.602-4.423-3.204-6.629-4.817a2141.96 2141.96 0 01-6.649 6.998 1253.651 1253.651 0 01-6.638-4.919c-2.217 2.302-4.423 4.594-6.639 6.866a2237.45 2237.45 0 01-6.639-5.081 833.744 833.744 0 01-6.639 6.653 721.905 721.905 0 01-6.638-5.335 561.469 561.469 0 01-6.639 6.369 545.207 545.207 0 01-6.639-5.649 501.266 501.266 0 01-6.639 6.014 586.183 586.183 0 01-6.639-6.044 454.59 454.59 0 01-6.618 5.588c-2.217-2.13-4.433-4.3-6.649-6.511a340.823 340.823 0 01-6.828 5.223 356.512 356.512 0 01-9.004-8.022 247.607 247.607 0 01-3.697-.821v2.444c1.65 2.748 3.3 5.476 4.949 8.164a161.25 161.25 0 01-4.949 1.744v2.901c1.083.872 2.167 1.734 3.25 2.586-1.083.385-2.167.76-3.25 1.115v2.911a243.84 243.84 0 003.25 2.576c-1.083.385-2.167.761-3.25 1.126v2.9c1.083.872 2.167 1.734 3.25 2.586-1.083.386-2.167.761-3.25 1.126v2.901c1.083.872 2.167 1.734 3.25 2.586-1.083.385-2.167.76-3.25 1.115v2.901c1.083.872 2.167 1.734 3.25 2.586-1.083.385-2.167.761-3.25 1.116v2.9c1.083.872 2.167 1.734 3.25 2.586a134.25 134.25 0 01-3.25 1.116v2.9c1.083.872 2.167 1.724 3.25 2.566-1.083.385-2.167.761-3.25 1.116v2.92c1.083.873 2.157 1.725 3.24 2.566-1.083.386-2.157.761-3.24 1.126v2.901a234.2 234.2 0 003.24 2.565c-1.083.386-2.157.751-3.24 1.106v2.921a234.2 234.2 0 003.24 2.565c-1.083.386-2.157.751-3.24 1.106v2.921c1.083.872 2.167 1.724 3.25 2.566-1.083.385-2.167.76-3.25 1.115v2.911c1.083.872 2.167 1.734 3.25 2.586-1.083.385-2.167.761-3.25 1.126v2.9a243.21 243.21 0 003.24 2.576c-1.083.386-2.157.751-3.24 1.106v2.9c1.083.872 2.167 1.734 3.25 2.586a134.25 134.25 0 01-3.25 1.116v2.9c1.65 1.329 3.3 2.627 4.949 3.895a506.83 506.83 0 01-4.949 5.983v2.13c1.421.335 2.843.649 4.264.943a225.856 225.856 0 008.07-4.624 417.533 417.533 0 007.304 6.947 371.323 371.323 0 006.579-5.274 477.367 477.367 0 006.639 6.268 485.797 485.797 0 006.639-5.812 482.528 482.528 0 006.649 5.832 744.142 744.142 0 006.638-6.207 532.555 532.555 0 006.649 5.477c2.216-2.15 4.423-4.331 6.639-6.521a591.916 591.916 0 006.639 5.192 2060.68 2060.68 0 006.638-6.775c2.217 1.674 4.423 3.337 6.639 4.99 2.206-2.302 4.423-4.614 6.639-6.937 2.216 1.623 4.422 3.246 6.639 4.858 2.216-2.343 4.432-4.685 6.648-7.038 2.207 1.602 4.423 3.204 6.639 4.797 2.216-2.353 4.423-4.706 6.639-7.059a3348.61 3348.61 0 016.639 4.817c2.216-2.342 4.422-4.675 6.638-6.997 2.217 1.622 4.423 3.265 6.639 4.908 2.216-2.302 4.423-4.594 6.639-6.876 2.206 1.674 4.422 3.367 6.639 5.071 2.216-2.241 4.432-4.462 6.648-6.663a736.768 736.768 0 016.619 5.314c2.216-2.16 4.423-4.29 6.639-6.389a538.192 538.192 0 016.639 5.639 510.683 510.683 0 016.638-6.035 441.725 441.725 0 016.639 6.025 464.26 464.26 0 016.639-5.609c2.216 2.12 4.422 4.28 6.639 6.491a339.667 339.667 0 016.837-5.253 358.86 358.86 0 018.587 7.596c1.749.426 3.508.811 5.277 1.237zm-213.663-3.377c-.467.284-.934.568-1.391.852-.606-.436-1.202-.883-1.799-1.319a199.694 199.694 0 003.777-1.541v-2.313a290.117 290.117 0 01-3.777-2.748 199.142 199.142 0 003.777-1.531v-2.313a290.117 290.117 0 01-3.777-2.748 193.307 193.307 0 003.777-1.542v-2.312a290.117 290.117 0 01-3.777-2.748 193.307 193.307 0 003.777-1.542v-2.312a223.994 223.994 0 01-3.777-2.738 199.75 199.75 0 003.777-1.542v-2.312a222.852 222.852 0 01-3.757-2.738 191.167 191.167 0 003.757-1.532v-2.312a290.226 290.226 0 01-3.777-2.749 193.253 193.253 0 003.777-1.541v-2.312a299.9 299.9 0 01-3.777-2.749 199.142 199.142 0 003.777-1.531v-2.312a299.9 299.9 0 01-3.777-2.749 199.694 199.694 0 003.777-1.541v-2.313a290.117 290.117 0 01-3.777-2.748 193.307 193.307 0 003.777-1.542v-2.363a290.117 290.117 0 01-3.777-2.748 199.694 199.694 0 003.777-1.541v-2.313a290.117 290.117 0 01-3.777-2.748 193.307 193.307 0 003.777-1.542v-2.312a299.787 299.787 0 01-3.777-2.748 199.75 199.75 0 003.777-1.542v-2.312a299.9 299.9 0 01-3.777-2.749 199.694 199.694 0 003.777-1.541v-2.312a454.41 454.41 0 01-3.787-2.769c.696-.274 1.382-.548 2.077-.822l1.72 1.481v-.507l.636.091a289.154 289.154 0 005.834-4.482 507.046 507.046 0 005.843 5.75c.527.041 1.064.081 1.59.112a423.692 423.692 0 005.824-4.929 553.99 553.99 0 005.844 5.334h1.6a549.759 549.759 0 005.844-5.304 505.537 505.537 0 005.833 4.98l1.6-.092a611.652 611.652 0 005.834-5.618 728.148 728.148 0 005.834 4.695c.537-.05 1.063-.101 1.6-.162a787.396 787.396 0 005.834-5.862 758.549 758.549 0 005.834 4.483l1.6-.213a1115.43 1115.43 0 005.833-6.044c1.948 1.45 3.896 2.89 5.834 4.33.537-.081 1.063-.172 1.6-.253 1.948-2.049 3.906-4.098 5.854-6.156 1.948 1.419 3.896 2.829 5.834 4.239.526-.092 1.063-.183 1.59-.274l5.843-6.207c1.948 1.41 3.886 2.809 5.834 4.219l1.6-.274c1.948-2.069 3.896-4.127 5.834-6.186 1.948 1.42 3.896 2.84 5.854 4.27.536-.082 1.063-.173 1.6-.254 1.948-2.049 3.886-4.077 5.833-6.105 1.938 1.45 3.886 2.91 5.824 4.381l1.6-.213c1.948-1.998 3.896-3.986 5.854-5.963a612.54 612.54 0 015.834 4.553c.536-.061 1.063-.111 1.6-.162a784.736 784.736 0 015.833-5.75 627.664 627.664 0 015.834 4.797l1.6-.092a585.08 585.08 0 015.854-5.466 382.162 382.162 0 015.834 5.111h1.6a633.017 633.017 0 015.834-5.121 489.632 489.632 0 015.853 5.487c.537.03 1.064.071 1.6.101a344.694 344.694 0 015.854-4.706 456.633 456.633 0 015.853 5.923c.448.061.905.132 1.352.193.338-.193.676-.386 1.014-.568.686.497 1.361.994 2.047 1.501-.865.345-1.719.699-2.584 1.054v3.662c.865.618 1.719 1.247 2.584 1.876-.865.345-1.719.689-2.584 1.054v3.672c.865.618 1.719 1.247 2.584 1.876-.865.345-1.719.7-2.584 1.055v3.661c.865.618 1.719 1.247 2.584 1.876-.865.345-1.719.7-2.584 1.055v3.671c.865.619 1.719 1.247 2.584 1.876-.865.345-1.719.7-2.584 1.055v3.661c.865.619 1.719 1.248 2.584 1.876-.865.345-1.719.7-2.584 1.055v3.661c.865.619 1.719 1.248 2.584 1.876-.865.345-1.719.7-2.584 1.055v3.661c.865.619 1.719 1.248 2.584 1.876-.865.345-1.719.7-2.584 1.055v3.672c.865.618 1.719 1.247 2.584 1.876-.865.345-1.719.7-2.584 1.055v3.64c.865.629 1.729 1.258 2.604 1.897-.865.345-1.729.7-2.604 1.065v3.641c.865.628 1.729 1.257 2.604 1.896-.865.345-1.729.7-2.604 1.065v3.641c.865.629 1.729 1.257 2.604 1.896-.865.345-1.729.7-2.604 1.065v3.661c.865.619 1.719 1.248 2.584 1.876-.865.345-1.719.7-2.584 1.055v3.661c.865.629 1.729 1.258 2.604 1.897-.865.345-1.729.7-2.604 1.065v3.661c.865.629 1.729 1.257 2.604 1.896-.686.274-1.372.568-2.067.852l-1.421-1.237c-.199-.03-.398-.061-.597-.081a315.382 315.382 0 00-6.171 4.756 497.21 497.21 0 00-6.172-6.044l-.924-.061a402.067 402.067 0 00-6.172 5.223 497.882 497.882 0 00-6.172-5.608h-.924a615.562 615.562 0 00-6.171 5.618 571.955 571.955 0 00-6.172-5.243c-.308.02-.616.03-.924.051a809.554 809.554 0 00-6.172 5.943 544.763 544.763 0 00-6.162-4.95l-.934.092a906.135 906.135 0 00-6.182 6.206 845.54 845.54 0 00-6.171-4.726l-.924.122a1799.82 1799.82 0 00-6.172 6.389 1221.117 1221.117 0 00-6.172-4.563c-.308.05-.616.101-.924.142-2.057 2.16-4.114 4.33-6.172 6.511-2.057-1.501-4.114-2.992-6.171-4.483-.308.051-.617.101-.925.162-2.057 2.191-4.114 4.371-6.171 6.562-2.057-1.491-4.115-2.972-6.172-4.462l-.924.152c-2.057 2.19-4.125 4.371-6.182 6.541-2.057-1.501-4.114-3.002-6.171-4.513l-.935.152a1921.09 1921.09 0 01-6.171 6.45c-2.058-1.531-4.115-3.083-6.172-4.635-.308.041-.616.082-.934.122-2.057 2.11-4.115 4.209-6.172 6.298a889.176 889.176 0 01-6.172-4.827l-.934.091a874.753 874.753 0 01-6.171 6.065 475.572 475.572 0 01-6.182-5.091c-.308.02-.616.03-.934.05a650.07 650.07 0 01-6.172 5.761 490.696 490.696 0 01-6.181-5.416h-.935a479.804 479.804 0 01-6.171 5.395 452.133 452.133 0 01-6.172-5.821l-.934-.061a335.553 335.553 0 01-6.261 5.02 283.636 283.636 0 01-7.027-6.632z" fill="#F48D83"/><path d="M689.428 692.271a154.562 154.562 0 0013.834 2.668v119.732a154.556 154.556 0 01-13.834-2.667V692.271zM901.549 681.928a154.25 154.25 0 0114.629 2.779v119.762a154.561 154.561 0 00-14.629-2.778V681.928z" fill="#E52226"/><path d="M965.8 305.874H641.555v329.543H965.8V305.874z" fill="#F7C4BA"/><path d="M640.66 563.543v71.874h15.166v-8.195c0-11.875 20.94-21.469 20.94-21.469l.447-.234.467.234s20.94 9.594 20.94 21.469v8.195h20.334v-8.195c0-11.875 20.94-21.469 20.94-21.469l.447-.234.467.234s20.94 9.594 20.94 21.469v8.195h20.98v-8.124c0-11.875 20.939-21.469 20.939-21.469l.448-.234.467.234s20.94 9.594 20.94 21.469v8.124h21.029v-8.215c0-11.876 20.94-21.47 20.94-21.47l.447-.233.447.233s20.94 9.594 20.94 21.47v8.215h20.732v-8.195c0-11.875 20.939-21.469 20.939-21.469l.448-.234.467.234s20.92 9.594 20.92 21.469v8.195h13.138v-71.874H640.66zm30.918 37.605h-21.337V583.34c0-5.923 10.445-10.71 10.445-10.71h.447s10.445 4.787 10.445 10.71v17.808zm31.852 0h-21.337V583.34c0-5.923 10.445-10.71 10.445-10.71h.447s10.445 4.787 10.445 10.71v17.808zm31.852 0h-21.357V583.34c0-5.923 10.445-10.71 10.445-10.71h.467s10.445 4.787 10.445 10.71v17.808zm31.852 0h-21.357V583.34c0-5.923 10.445-10.71 10.445-10.71h.467s10.445 4.787 10.445 10.71v17.808zm31.823 0h-21.338V583.34c0-5.923 10.445-10.71 10.445-10.71h.448s10.445 4.787 10.445 10.71v17.808zm31.852 0h-21.338V583.34c0-5.923 10.446-10.71 10.446-10.71h.447s10.445 4.787 10.445 10.71v17.808zm31.852 0h-21.337V583.34c0-5.923 10.445-10.71 10.445-10.71h.447s10.445 4.787 10.445 10.71v17.808zm31.852 0h-21.357V583.34c0-5.923 10.445-10.71 10.445-10.71h.467s10.445 4.787 10.445 10.71v17.808zm31.832 0h-21.337V583.34c0-5.923 10.445-10.71 10.445-10.71h.447s10.445 4.787 10.445 10.71v17.808zm31.852 0H936.86V583.34c0-5.923 10.445-10.71 10.445-10.71h.447s10.445 4.787 10.445 10.71v17.808zM964.934 109.38v87.786a44.038 44.038 0 01-16.149 2.12l-8.418 58.426c-8.179-.903-16.13-2.708-23.693-5.456l16.339-56.773a44.903 44.903 0 01-16.677-12.809c-.666-.801-1.242-1.684-1.838-2.505l-50.576 29.36c-4.393-6.917-8.04-14.361-10.783-22.352l54.372-22.008c-2.077-8.011-2.027-16.429.139-24.35l-54.849-23.011c2.673-8.012 6.181-15.628 10.574-22.687l51.46 30.75c2.127-2.952 4.602-5.7 7.494-8.154a44.93 44.93 0 0111.926-7.252l-16.269-59.359c6.032-2.089 12.313-3.722 18.873-4.675 1.808-.264 3.607-.345 5.416-.507l8.04 61.225c4.959-.081 9.889.68 14.619 2.231zM403.046 774.916h-33.819l5.704-389.582 23.216-1.034 4.899 390.616z" fill="#E52226"/><path d="M415.312 385.517c-7.961-3.073-16.09-3.205-22.709-.954l43.848-25.049c-7.315-8.601-22.063-9.909-35.013-2.505-8.616 4.918-14.47 12.585-16.517 20.394-2.048-7.809-7.901-15.476-16.518-20.405-12.959-7.403-27.698-6.085-35.022 2.505l44.484 25.415c-6.639-2.292-14.808-2.17-22.809.923-13.874 5.365-22.49 17.789-20.93 29.127l51.47-19.898 50.636 19.574c1.57-11.339-7.046-23.762-20.92-29.127z" fill="#1BB16B"/><path d="M594.009 838.2h-33.81l5.695-390.616h23.226l4.889 390.616z" fill="#E52226"/><path d="M606.283 448.801c-7.961-3.073-16.09-3.205-22.709-.953l43.847-25.05c-7.324-8.6-22.063-9.909-35.012-2.505-8.617 4.918-14.47 12.585-16.518 20.395-2.047-7.81-7.901-15.477-16.517-20.405-12.96-7.404-27.698-6.085-35.022 2.505l44.493 25.415c-6.639-2.292-14.808-2.171-22.808.922-13.864 5.365-22.49 17.789-20.93 29.127l51.47-19.898 50.636 19.574c1.55-11.339-7.067-23.762-20.93-29.127z" fill="#1BB16B"/><path d="M766.25 333.551c0 15.06 12.005 27.322 26.774 27.322.924 0 1.828-.051 2.723-.142 6.966 20.344 25.879 34.968 48.2 34.968 28.215 0 51.093-23.346 51.093-52.138V306.3H794.425c-.467-.02-.934-.071-1.401-.071-14.769 0-26.774 12.252-26.774 27.322zm11.926 0c0-8.296 6.569-15.04 14.679-15.131v25.141c0 1.734.089 3.438.258 5.132-.03 0-.06.01-.089.01-8.189-.01-14.848-6.805-14.848-15.152z" fill="#92CB7B"/><path d="M793.531 307.669c0 .66.11 1.309.328 1.948 2.872 8.508 24.429 15.131 50.586 15.131 26.148 0 47.664-6.612 50.586-15.101a5.935 5.935 0 00.348-1.978c0-9.421-22.799-17.078-50.924-17.078s-50.924 7.647-50.924 17.078z" fill="#92CB7B"/><path d="M793.859 306.301v3.316c2.873 8.509 24.419 15.131 50.586 15.131 26.148 0 47.664-6.612 50.586-15.1v-3.337H793.859v-.01z" fill="#000"/><path d="M782.28 180.908c-.477 0-.934.051-1.401.071H680.264v37.261c0 28.792 22.878 52.138 51.092 52.138 22.312 0 41.234-14.624 48.201-34.969a26.69 26.69 0 002.723.142c14.758 0 26.774-12.251 26.774-27.321-.01-15.071-12.016-27.322-26.774-27.322zm0 42.463c-.03 0-.06-.01-.09-.01a54.55 54.55 0 00.259-5.131v-25.142c8.109.092 14.679 6.836 14.679 15.132-.01 8.356-6.669 15.151-14.848 15.151z" fill="#92CB7B"/><path d="M781.763 182.349c0 .659-.109 1.308-.328 1.947-2.872 8.509-24.418 15.132-50.585 15.132-26.148 0-47.664-6.613-50.586-15.101a5.914 5.914 0 01-.348-1.978c0-9.422 22.788-17.078 50.924-17.078 28.135 0 50.923 7.646 50.923 17.078z" fill="#92CB7B"/><path d="M781.435 180.98v3.317c-2.872 8.509-24.418 15.131-50.586 15.131-26.147 0-47.663-6.612-50.585-15.111v-3.337h101.171z" fill="#000"/><path d="M715.146 502.045l-.109 1.805-2.962 50.861a7.167 7.167 0 01-2.475 5.02l-.029.03c-.577.477-1.223.943-1.928 1.359-.229.122-.458.264-.696.386a20.08 20.08 0 01-3.548 1.389c-5.546 1.531-10.644.294-11.429-2.748-.288-1.157.109-2.414 1.014-3.621 1.689-2.251 2.385-6.227 2.325-9.067l-8.408-42.97v-.03l-.059-2.759 15.225.183 13.079.162z" fill="#fff"/><path d="M865.118 540.644c-4.244-5.253-14.043-16.794-27.897-16.794-9.223 0-17.432 3.144-22.59 8.002-5.525 5.212-12.81 8.001-20.304 8.356v-29.066h.09v-9.452c0-1.125-.03-2.251-.09-3.357a60.742 60.742 0 00-4.79-20.648c-7.016-16.46-21.039-29.096-38.222-33.985a69.943 69.943 0 01-2.594-.852c-3.866-1.277-7.056-4.33-8.13-8.326a12.667 12.667 0 01-.437-3.326v-.426c.01-2.627 1.024-5.102 2.713-7.079a27.329 27.329 0 001.511-1.937 22.12 22.12 0 001.848-3.114c1.322-2.697 2.047-5.608 2.047-8.63 0-2.201-.367-4.3-.954-6.4-.318-1.136-1.103-4.624-1.103-4.624l-1.719-7.475-2.475-10.679-5.267-22.808-12.93 19.36-4.571 6.846a53.05 53.05 0 00-8.637-.71 50.7 50.7 0 00-8.229.649h-.019l-4.731-7.079-12.93-19.361-5.267 22.799-2.544 10.983-1.143 4.96-.219.943c-1.083 4.695-3.548 10.425-3.16 15.233.676 8.265 3.796 11.835 3.856 16.368l.308 7.464c.099 2.414.06 4.818-.109 7.231 0 0-2.057 18.235-1.918 26.49.119 7.475 1.143 13.712 2.703 18.894 1.103 3.672 2.534 6.795 4.283 9.442 1.561 2.343 3.369 4.321 5.407 5.933a24.155 24.155 0 003.051 2.079v-.061c2.852 1.846 6.569 2.962 10.624 2.962.844 0 1.689-.041 2.504-.152l7.474 38.142c.059 2.85-.646 6.826-2.346 9.067-.904 1.197-1.302 2.464-.994 3.621.09.355.229.679.438.973 1.51 2.312 6.082 3.134 10.982 1.775a20.378 20.378 0 003.547-1.389c1.014-.528 1.889-1.106 2.634-1.745l.04-.03c1.471-1.248 2.355-3.073 2.474-5.031l.03-.446c2.405 6.045 8.219 9.209 14.997 9.209h138.947c0 .02-11.528-16.987-16.189-22.799z" fill="#fff"/><path d="M718.476 417.463c-1.799 1.105-3.28 1.44-4.393.994-1.48-.599-2.375-2.627-2.882-4.341 1.749-1.399 2.942-4.908 2.942-4.908s-1.918-.021-4.313-.021l-.01-.02-.01.02h-.169c-2.485 0-4.502.021-4.502.021s1.282 3.235 3.001 4.726c-.874 2.434-1.888 3.935-3.021 4.411-1.232.517-2.753-.111-4.333-.872l-1.282 2.789c1.57.75 4.204 2.018 6.778.923 1.262-.538 2.345-1.562 3.279-3.103.895 1.592 2.038 2.677 3.399 3.225a5.722 5.722 0 002.147.415c1.501 0 3.14-.547 4.909-1.632l-1.54-2.627zM701.692 404.684c0 2.16-1.71 3.904-3.827 3.904s-3.826-1.754-3.826-3.904c0-2.16 1.709-3.905 3.826-3.905s3.827 1.745 3.827 3.905zM725.443 404.684c0 2.16-1.709 3.904-3.826 3.904s-3.826-1.754-3.826-3.904c0-2.16 1.709-3.905 3.826-3.905s3.826 1.745 3.826 3.905zM732.083 414.462l-1.063-2.88a200.974 200.974 0 0137.675-10.365l.507 3.042a196.636 196.636 0 00-37.119 10.203zM734.647 419.786l-.049-3.083a1129.5 1129.5 0 0129.268-.092l-.03 3.084c-9.65-.092-19.479-.061-29.189.091zM689.109 414.46A198.47 198.47 0 00652 404.248l.507-3.043a201.29 201.29 0 0137.676 10.365l-1.074 2.89zM686.545 419.785c-9.71-.152-19.539-.182-29.199-.091l-.03-3.083c9.69-.091 19.539-.061 29.279.091l-.05 3.083z" fill="#E52226"/><path d="M641.555.834H428.559V304.84h212.996V.834z" fill="#000"/><path d="M489.5 175.321s36.632 45.09 66.268 52.23c29.636 7.15 37.179-67.899 37.179-67.899l-3.776-4.949s-29.368 45.627-99.671 20.618z" fill="#000"/><path d="M601.306 116.113c0 19.929-5.924 38.072-15.951 52.037-11.946 17.079-29.726 27.839-49.682 27.839-20.135 0-38.183-11.034-50.208-28.457-9.67-13.874-15.424-31.845-15.424-51.419 0-2.221.089-4.442.258-6.673.259-3.651.696-7.119 1.312-10.588 6.013-33.538 29.378-59.156 58.139-62.27 1.918-.263 3.926-.355 5.933-.355 1.918 0 3.836.092 5.754.264 28.762 3.022 52.296 28.731 58.229 62.351a97.636 97.636 0 011.312 9.959c.238 2.424.328 4.828.328 7.312z" fill="#F7C4BA"/><path d="M549.138 162.705c-.517 6.846-6.191 12.241-13.029 12.241-6.957 0-12.512-5.395-13.019-12.241h.894c1.68 0 3.986-3.215 4.254-3.813.706-1.542 2.186-2.373 3.866-2.373 1.679 0 3.22.922 4.124 2.373.646-1.451 2.187-2.373 3.866-2.373 1.68 0 3.091.912 3.995 2.373.299.466 2.704 3.813 4.254 3.813h.795z" fill="#E52226"/><path d="M586.755 114.45v15.811c0 13.032-10.713 23.549-23.663 22.869-8.984-.466-16.716-6.521-19.817-14.806a20.758 20.758 0 01-.636-1.968 7.768 7.768 0 00-2.922-3.347 7.535 7.535 0 00-4.065-1.186c-1.49 0-2.892.436-4.064 1.186a7.809 7.809 0 00-2.853 3.205c-.178.71-.397 1.41-.685 2.11-3.081 8.275-10.813 14.34-19.797 14.806-12.97.68-23.653-9.837-23.653-22.869V114.45h28.791c7.811 0 14.39 5.649 15.821 13.144h12.93c1.431-7.495 8.01-13.144 15.822-13.144h28.791z" fill="#000"/><path d="M641.546 235.065s-.438-.142-1.272-.406c-4.135-1.247-17.909-5.314-32.846-8.438 4.293-31.581 9.282-78.719 10.226-103.627.497-12.809-3.299-29.015-9.6-43.538-5.039-11.683-11.708-22.281-19.042-29.178-22.182-20.851-67.381-19.35-83.442-11.146-18.048 9.21-29.665 23.732-36.95 40.324-21.795 49.582-4.949 117.623-4.949 117.623l-35.122 30.901v78.294h213.007v-1.035l-.01-69.774zM539.221 83.214s57.046 15.537 58.865 31.571c.934 8.336-3.26 24.603-8.975 41.824a506.442 506.442 0 01-3.488 10.111c0 .02 0 .02-.02.031v.02c-8.517 23.975-18.565 47.159-20.522 51.094-12.036-2.323-14.5-2.749-14.888-2.81-21.824-5.801-38.501-17.545-50.665-31.226l-.02-.02a111.591 111.591 0 01-5.009-6.055c-21.357-27.798-25.69-60.789-18.018-68.365 10.197-10.1 43.212-24.907 55.466-26.621 2.454-.335 4.909-.203 7.274.446z" fill="#1BB16B"/><path d="M466.233 255.085a38.926 38.926 0 00-.974-3.793 35.2 35.2 0 00-8.795-14.33 24.85 24.85 0 00-2.853 2.089 31.748 31.748 0 018.249 13.012 32.144 32.144 0 011.62 10.071c0 1.815-.159 3.6-.457 5.324.537.223 1.103.406 1.66.568.556.162 1.123.253 1.699.334.189-.993.318-1.997.407-3.012.09-1.064.14-2.139.14-3.214 0-2.414-.259-4.777-.696-7.049zM483.358 236.697c-3.955 3.864-7.036 8.651-8.845 14.026v.02a35.32 35.32 0 00-1.183 4.412v.02a34.874 34.874 0 00-.695 6.968c0 1.156.059 2.312.179 3.448v.02c.089.933.208 1.866.377 2.769.348-.031.676-.102 1.004-.162a11.921 11.921 0 001.531-.406c.268-.102.556-.193.814-.304a32.832 32.832 0 01-.437-5.355c0-3.509.567-6.866 1.59-10.02v-.02a31.522 31.522 0 018.557-13.316c-.904-.781-1.888-1.471-2.892-2.1zM532.323 255.085a39.508 39.508 0 00-.974-3.793 35.192 35.192 0 00-8.796-14.33 24.925 24.925 0 00-2.852 2.089 31.748 31.748 0 018.249 13.012 31.886 31.886 0 011.62 10.071c0 1.815-.159 3.6-.457 5.324a15.98 15.98 0 001.659.568c.557.162 1.123.253 1.7.334.189-.993.318-1.997.407-3.012a36.457 36.457 0 00-.556-10.263zM549.436 236.697c-3.956 3.864-7.036 8.651-8.845 14.026v.02a35.148 35.148 0 00-1.183 4.412v.02a34.876 34.876 0 00-.676 6.968c0 1.156.05 2.312.159 3.448v.02c.09.933.219 1.866.378 2.769.348-.031.676-.102 1.004-.162a11.907 11.907 0 001.53-.406c.269-.102.557-.193.825-.304a32.832 32.832 0 01-.437-5.355c0-3.509.566-6.866 1.59-10.02v-.02a31.512 31.512 0 018.557-13.316 23.566 23.566 0 00-2.902-2.1zM598.403 255.085a38.926 38.926 0 00-.974-3.793 35.2 35.2 0 00-8.795-14.33 26.727 26.727 0 00-2.853 2.089 31.748 31.748 0 018.249 13.012v.02a31.762 31.762 0 011.62 10.051c0 1.815-.139 3.6-.457 5.324.536.223 1.083.406 1.659.568.557.162 1.124.253 1.7.334h.02c.179-.993.298-1.997.397-3.012.09-1.064.139-2.139.139-3.214a36.456 36.456 0 00-.705-7.049zM615.526 236.697c-3.956 3.864-7.037 8.651-8.825 14.026l-.02.02v.021a34.34 34.34 0 00-1.183 4.391v.02a34.876 34.876 0 00-.676 6.968c0 1.156.05 2.312.159 3.448v.02c.09.933.219 1.866.378 2.769.318-.031.626-.081.944-.142.09-.02.189-.031.288-.051.08-.02.159-.03.239-.061a6.4 6.4 0 00.636-.172 8.188 8.188 0 001.262-.436 32.823 32.823 0 01-.437-5.355c0-3.509.566-6.866 1.59-10.02v-.02c1.719-5.162 4.701-9.746 8.557-13.316a22.88 22.88 0 00-2.912-2.11z" fill="#F48D83"/><path d="M471.511 304.738v-5.76c0-13.61 6.997-22.616 20.324-29.665a416.536 416.536 0 004.413-2.383s-2.684-1.339-4.413-1.349c-9.382-.05-16.269 9.544-20.324 18.052v-15.151c.547 0 1.123-.031 1.67-.112.348-.03.676-.101 1.004-.162a12.598 12.598 0 002.345-.71 13.695 13.695 0 005.407-4.036c2.882-3.59 3.687-8.185 2.584-12.353a13.367 13.367 0 00-6.848 1.014c-.775.325-1.51.741-2.236 1.227a12.017 12.017 0 00-.944-2.586v-.02a13.798 13.798 0 00-4.413-5.213 13.77 13.77 0 00-4.84 5.771c-.347.72-.616 1.481-.805 2.251-.805-.598-1.689-1.075-2.603-1.48a13.318 13.318 0 00-6.758-.964c-1.123 4.168-.299 8.773 2.574 12.353a13.61 13.61 0 005.356 4.026 12.26 12.26 0 001.66.548c.556.162 1.123.253 1.699.334a15.04 15.04 0 001.67.112v15.151c-4.055-8.498-10.942-18.102-20.324-18.031-1.729 0-4.402 1.348-4.402 1.348s3.359 1.816 4.402 2.384c13.337 7.028 20.324 16.034 20.324 29.644v5.76h3.478zM562.337 266.93s-3.359 1.836-4.412 2.383c-13.328 7.049-20.324 16.055-20.324 29.665v5.76h-3.449v-5.04c-.02-.244-.02-.487-.02-.72 0-.142 0-.304.02-.446v-.213c-.02-.021 0-.031 0-.051-.248-13.225-7.225-22.038-20.323-28.944-1.054-.568-4.413-2.384-4.413-2.384s2.663-1.349 4.413-1.349c9.361-.06 16.249 9.544 20.323 18.032v-15.151c-.566 0-1.133-.051-1.689-.112-.587-.081-1.153-.172-1.7-.335a12.72 12.72 0 01-1.659-.547 13.586 13.586 0 01-5.357-4.016c-2.872-3.59-3.687-8.185-2.574-12.353a13.324 13.324 0 016.768.964c.914.405 1.799.882 2.604 1.48.189-.77.457-1.531.805-2.251a13.547 13.547 0 014.86-5.771 13.96 13.96 0 014.402 5.213v.02c.408.822.726 1.674.944 2.586a13.194 13.194 0 012.236-1.227 13.336 13.336 0 016.848-1.014c1.123 4.168.298 8.773-2.584 12.353-1.501 1.845-3.359 3.204-5.406 4.036a13.314 13.314 0 01-2.356.71c-.328.061-.666.132-1.014.162-.556.081-1.123.112-1.669.112v15.151c4.055-8.508 10.942-18.102 20.324-18.052 1.719.01 4.402 1.349 4.402 1.349zM628.425 266.93s-3.359 1.836-4.412 2.383c-13.328 7.049-20.324 16.055-20.324 29.665v5.76h-3.449v-5.04c-.02-.244-.02-.487-.02-.72 0-.142 0-.304.02-.446v-.213c-.02-.021 0-.031 0-.051-.248-13.225-7.225-22.038-20.324-28.944l-4.412-2.384s2.663-1.349 4.412-1.349c9.362-.06 16.25 9.544 20.324 18.032v-15.151c-.566 0-1.123-.051-1.669-.112h-.02c-.587-.081-1.153-.172-1.7-.335a12.72 12.72 0 01-1.659-.547c-2.018-.832-3.866-2.191-5.357-4.016-2.872-3.59-3.687-8.185-2.574-12.353a13.324 13.324 0 016.768.964c.914.405 1.799.882 2.604 1.48.208-.77.457-1.531.805-2.251a13.551 13.551 0 014.859-5.771 13.953 13.953 0 014.403 5.213v.041c.408.821.726 1.653.944 2.576a13.13 13.13 0 012.236-1.228 13.358 13.358 0 016.858-1.014c1.103 4.169.288 8.773-2.604 12.353a13.383 13.383 0 01-5.406 4.036 9.149 9.149 0 01-1.263.436 3.397 3.397 0 01-.626.173c-.169.05-.348.081-.517.111a9.915 9.915 0 01-.944.142c-.556.081-1.123.112-1.669.112v15.151c4.064-8.508 10.942-18.102 20.323-18.052 1.71.01 4.393 1.349 4.393 1.349z" fill="#97CF9B"/><path d="M305.343 195.808H0v418.576h305.343V195.808z" fill="#1BB16B"/><path d="M242.505 395.912H58.588v148.129h183.917V395.912z" fill="#1CB16B"/><path d="M253.854 371.572v16.947H51.67v-16.947c0-.893.01-1.775.03-2.667.825-37.017 18.873-71.499 48.697-92.746l1.829-1.308 33.363-23.782 5.008-3.57 12.155-8.661 12.174 8.681 4.999 3.56 33.363 23.772 1.819 1.298c29.844 21.247 47.892 55.728 48.717 92.746.02.892.03 1.784.03 2.677z" fill="#F7C4BA"/><path d="M235.19 365.193a54.363 54.363 0 00-7.802-5.567c-8.606-5.071-18.018-7.475-27.29-7.475 4.641-8.204 7.294-17.717 7.294-27.859 0-3.306-.278-6.541-.815-9.695 13.109-.01 25.462 4.807 35.092 13.042v.02c2.187 12.637.09 25.953-6.479 37.534z" fill="#92CB7B"/><path d="M235.188 365.194a55.939 55.939 0 01-5.466 7.961c-5.665 6.886-12.612 12.028-20.205 15.364h-4.403c-9.501-7.596-21.327-11.845-33.571-11.876 12.095-4.523 22.192-13.265 28.553-24.492 9.272 0 18.674 2.414 27.29 7.485a54.851 54.851 0 017.802 5.558z" fill="#1CB16B"/><path d="M251.27 388.518h-41.75c7.582-3.336 14.539-8.478 20.204-15.364a55.809 55.809 0 005.466-7.962c7.414 6.349 12.87 14.442 16.08 23.326zM96.022 388.519h-41.77c3.22-8.884 8.666-16.977 16.1-23.305a54.938 54.938 0 005.446 7.941c5.665 6.886 12.632 12.038 20.224 15.364z" fill="#92CB7B"/><path d="M133.978 376.643c-12.234.031-24.06 4.28-33.561 11.876h-4.393c-7.593-3.326-14.56-8.478-20.224-15.364a56.115 56.115 0 01-5.447-7.941 53.613 53.613 0 017.802-5.578c8.626-5.081 18.018-7.485 27.291-7.485 6.35 11.227 16.447 19.969 28.532 24.492z" fill="#1CB16B"/><path d="M105.435 352.151c-9.272 0-18.664 2.393-27.29 7.474a53.603 53.603 0 00-7.802 5.578c-6.569-11.572-8.666-24.908-6.5-37.555 9.631-8.255 21.994-13.072 35.103-13.062a57.734 57.734 0 00-.815 9.695c.01 10.152 2.673 19.665 7.304 27.87z" fill="#92CB7B"/><path d="M100.418 388.518c9.501-7.596 21.318-11.845 33.561-11.876-12.084-4.523-22.182-13.265-28.542-24.492 12.741 0 25.223 4.574 35.102 13.012-6.45-11.41-8.666-24.746-6.46-37.524 9.71 8.326 16.408 19.958 18.694 32.869 2.276-12.9 8.964-24.533 18.674-32.869 2.206 12.778-.03 26.135-6.47 37.524 9.879-8.448 22.381-13.012 35.122-13.012-6.361 11.227-16.458 19.979-28.553 24.492 12.254.031 24.071 4.28 33.572 11.876h-104.7z" fill="#F48D83"/><path d="M140.547 365.163c-9.879-8.448-22.371-13.012-35.102-13.012-4.641-8.204-7.295-17.717-7.295-27.859 0-3.306.279-6.541.815-9.695 3.141 0 6.301.274 9.501.852 9.799 1.754 18.515 6.095 25.621 12.19-2.206 12.788 0 26.125 6.46 37.524z" fill="#1CB16B"/><path d="M152.761 294.606a55.336 55.336 0 00-6.729 6.886 55.894 55.894 0 00-11.945 26.146c-7.106-6.096-15.832-10.436-25.621-12.191a53.286 53.286 0 00-9.501-.852 55.914 55.914 0 0118.694-33.021c12.572 0 25.064 4.432 35.102 13.032zM206.577 314.595c-3.14 0-6.3.274-9.501.852-9.789 1.755-18.515 6.095-25.62 12.191a56.03 56.03 0 00-11.966-26.146 55.97 55.97 0 00-6.728-6.886 54.009 54.009 0 0135.102-13.032c9.65 8.256 16.438 19.847 18.713 33.021z" fill="#92CB7B"/><path d="M171.456 327.639c-9.72 8.326-16.408 19.959-18.684 32.869-2.286-12.91-8.974-24.543-18.694-32.869a55.888 55.888 0 0111.946-26.145 55.908 55.908 0 016.728-6.887 55.198 55.198 0 016.728 6.887 55.98 55.98 0 0111.976 26.145z" fill="#1CB16B"/><path d="M207.391 324.292c0 10.152-2.663 19.655-7.295 27.859-12.74 0-25.233 4.564-35.121 13.012 6.45-11.389 8.676-24.736 6.479-37.524 7.106-6.095 15.832-10.436 25.621-12.19 3.2-.578 6.361-.852 9.501-.852.537 3.154.815 6.389.815 9.695z" fill="#1CB16B"/><path d="M114.112 537.854H66.488V403.64h47.624v134.214zm14.828-149.335H51.67v164.467h77.27V388.519z" fill="#B1D794"/><path d="M176.573 537.854h-47.624V403.64h47.624v134.214zm14.828-149.335h-77.27v164.467h77.27V388.519z" fill="#B1D794"/><path d="M239.034 537.854H191.41V403.64h47.624v134.214zm14.818-149.335h-77.27v164.467h77.27V388.519z" fill="#B1D794"/><path d="M253.853 552.985H51.5v10.588h202.353v-10.588z" fill="#F7C4BA"/><path d="M114.001 430.384c-11.27-4.949-20.056-14.695-23.862-26.713-3.806 12.018-12.592 21.774-23.862 26.713 17.273 7.454 17.273 32.869 0 40.323.09.041.19.081.279.122 17.143 7.667 17.143 32.97 0 40.638-.09.04-.19.081-.279.121 11.27 4.949 20.056 14.696 23.862 26.713 3.806-12.017 12.592-21.774 23.862-26.713-.09-.04-.189-.081-.278-.121-17.144-7.668-17.144-32.971 0-40.638.089-.041.178-.081.278-.122-.09-.04-.179-.081-.278-.121-16.915-7.566-16.915-32.515 0-40.08.099-.041.188-.081.278-.122zM176.532 430.384c-11.27-4.949-20.055-14.695-23.862-26.713-3.806 12.018-12.591 21.774-23.861 26.713 17.272 7.454 17.272 32.869 0 40.323.089.041.188.081.278.122 17.143 7.667 17.143 32.97 0 40.638-.09.04-.189.081-.278.121 11.27 4.949 20.055 14.696 23.861 26.713 3.807-12.017 12.592-21.774 23.862-26.713-.089-.04-.189-.081-.278-.121-17.144-7.668-17.144-32.971 0-40.638.089-.041.179-.081.278-.122-.089-.04-.179-.081-.278-.121-16.915-7.566-16.915-32.515 0-40.08.099-.041.189-.081.278-.122zM239.063 470.707c-.089-.04-.179-.081-.278-.121-16.915-7.566-16.915-32.525 0-40.08.09-.041.179-.081.278-.122-11.27-4.949-20.055-14.695-23.861-26.713-3.807 12.018-12.592 21.774-23.862 26.713.089.041.179.081.278.122 16.915 7.565 16.915 32.524 0 40.08-.089.04-.179.081-.278.121.089.041.189.081.278.122 17.144 7.667 17.144 32.97 0 40.638-.089.04-.189.081-.278.121 11.27 4.949 20.055 14.696 23.862 26.713 3.806-12.017 12.591-21.774 23.861-26.713-.089-.04-.188-.081-.278-.121-17.143-7.668-17.143-32.971 0-40.638.099-.041.189-.081.278-.122z" fill="#F48D83"/><path d="M555.152 716.642v57.665h-.119v81.651h-45.259v-72.087c0-14.665-14.152-28.924-25.363-37.91-7.354-5.912-13.466-9.543-13.466-9.543s-35.718 23.326-35.718 45.647v73.893h-45.338V716.642h165.263z" fill="#92CB7B"/><path d="M544.05 782.168h-22.679v-30.324c0-6.795 10.863-12.15 10.863-12.15s11.816 5.304 11.816 12.698v29.776zM423.64 782.168h-22.679v-30.324c0-6.795 10.862-12.15 10.862-12.15s11.817 5.304 11.817 12.698v29.776zM544.062 827.48v28.478h-22.679v-29.016c0-6.795 10.862-12.139 10.862-12.139s11.817 5.314 11.817 12.677zM423.64 827.48v28.478h-22.679v-29.016c0-6.795 10.862-12.139 10.862-12.139s11.817 5.314 11.817 12.677z" fill="#1BB16B"/><path d="M425.051 666.278v50.709h-6.957v-32.758c0-1.592-.566-3.032-1.491-4.077-.914-1.034-2.176-1.683-3.577-1.683-2.823 0-5.089 2.565-5.089 5.76v32.758h-6.957v-50.709h24.071z" fill="#92CB7B"/><path d="M401.397 666.289h-5.864v50.698h5.864v-50.698zM430.625 666.289h-5.863v50.698h5.863v-50.698z" fill="#1BB16B"/><path d="M421.85 661.177l-6.062-3.539v-3.854c1.282-.984 2.126-2.647 2.126-4.534 0-2.241-2.643-6.064-4.025-7.9v-11.997h-1.63v11.997c-1.381 1.836-4.025 5.659-4.025 7.9 0 1.887.845 3.55 2.127 4.534v3.864l-6.062 3.539-8.776 5.122h35.102l-8.775-5.132z" fill="#1BB16B"/><path d="M542.867 666.278v50.709h-6.957v-32.758c0-1.592-.566-3.032-1.49-4.077-.915-1.034-2.177-1.683-3.578-1.683-2.813 0-5.088 2.565-5.088 5.76v32.758h-6.947v-50.709h24.06z" fill="#92CB7B"/><path d="M519.203 666.289h-5.863v50.698h5.863v-50.698zM548.432 666.289h-5.864v50.698h5.864v-50.698z" fill="#1BB16B"/><path d="M539.666 661.177l-6.062-3.539v-3.854c1.282-.984 2.127-2.647 2.127-4.534 0-2.241-2.644-6.064-4.025-7.9v-11.997h-1.63v11.997c-1.382 1.836-4.025 5.649-4.025 7.89 0 1.887.845 3.55 2.127 4.534v3.864l-6.063 3.539-8.775 5.122h35.102l-8.776-5.122zM509.773 783.881v72.087h-74.537v-73.902c0-22.322 35.718-45.648 35.718-45.648s6.103 3.641 13.467 9.543c11.2 8.996 25.352 23.255 25.352 37.92z" fill="#1BB16B"/><path d="M555.152 774.317h-.119v81.651h.119v-81.651z" fill="#fff"/><path d="M640.104 774.317h-85.231v81.651h85.231v-81.651z" fill="#92CB7B"/><path d="M628.476 826.923v29.035h-22.679v-28.477c0-7.394 11.816-12.698 11.816-12.698s10.863 5.345 10.863 12.14zM594.189 818.626v37.332h-38.898V819.57c0-12.678 20.254-21.288 20.254-21.288s18.644 8.692 18.644 20.344z" fill="#1BB16B"/><path d="M390.047 774.135h-85.369v81.813h85.369v-81.813z" fill="#92CB7B"/><path d="M338.985 827.287v28.671h-22.659V826.75c0-6.795 10.863-12.16 10.863-12.16s4.442 1.998 7.871 5.253c2.166 2.039 3.925 4.594 3.925 7.444zM389.51 819.397v36.561h-38.908v-37.504c0-11.663 18.634-20.364 18.634-20.364s20.274 8.63 20.274 21.307z" fill="#1BB16B"/><path d="M348.982 249.649v6.288c0 9.696 7.703 17.555 17.204 17.555v-6.287c0-9.696-7.703-17.556-17.204-17.556zM367.715 267.205v6.287c9.501 0 17.203-7.859 17.203-17.555v-6.288c-9.501 0-17.203 7.86-17.203 17.556zM348.982 224.752v6.288c0 9.695 7.703 17.555 17.204 17.555v-6.288c0-9.695-7.703-17.555-17.204-17.555zM367.715 242.307v6.288c9.501 0 17.203-7.86 17.203-17.555v-6.288c-9.501 0-17.203 7.86-17.203 17.555zM348.982 199.185v6.287c0 9.696 7.703 17.556 17.204 17.556v-6.288c0-9.696-7.703-17.555-17.204-17.555zM384.918 199.185c-9.501 0-17.203 7.859-17.203 17.555v6.288c9.501 0 17.203-7.86 17.203-17.556v-6.287zM351.775 39.534h-2.425V196.74h2.425V39.534zM357.29 39.534h-2.425V196.74h2.425V39.534zM362.808 39.534h-2.425V196.74h2.425V39.534zM368.312 39.534h-2.425V196.74h2.425V39.534zM373.829 39.534h-2.425V196.74h2.425V39.534zM379.333 39.534h-2.425V196.74h2.425V39.534zM384.851 39.534h-2.425V196.74h2.425V39.534z" fill="#231F20"/><path d="M306 613.096H1.531v242.872H306V613.096z" fill="#97CF9B"/><path d="M231.215 614.658c0 27.565-20.632 51.063-49.542 59.987-8.04 2.485-16.736 3.844-25.8 3.844s-17.76-1.359-25.8-3.844c-28.9-8.934-49.522-32.422-49.522-59.987 0-.528 0-1.045.03-1.562h150.604c.03.517.03 1.034.03 1.562z" fill="#F7C4BA"/><path d="M202.909 624.272l-32.557-4.533 26.793 16.298.905 14.35-16.945-.761-19.231-22.697 5.357 27.575-11.349 10.68-11.34-10.68 5.337-27.575-19.231 22.697-16.925.761.885-14.35 26.793-16.298-32.537 4.533-12.612-9.614 2.057-1.572h115.135l2.057 1.572-12.592 9.614z" fill="#97CF9B"/><path d="M231.215 734.623c0 35.252-33.731 63.831-75.332 63.831-41.602 0-75.332-28.579-75.332-63.831 0-35.253 33.73-63.832 75.332-63.832 41.601.01 75.332 28.579 75.332 63.832z" fill="#F7C4BA"/><path d="M215.511 734.623l-12.602-9.604-32.547 4.523 26.793-16.287.895-14.351-16.935.751-19.241 22.707 5.357-27.575-11.349-10.689-11.35 10.689 5.357 27.575-19.241-22.707-16.935-.751.895 14.351 26.793 16.287-32.547-4.523-12.602 9.604 12.602 9.615 32.547-4.534-26.793 16.298-.895 14.35 16.935-.75 19.241-22.707-5.357 27.575 11.35 10.679 11.349-10.679-5.357-27.575 19.241 22.707 16.935.75-.895-14.35-26.793-16.298 32.547 4.534 12.602-9.615z" fill="#97CF9B"/><path d="M305.998 613.086v125.28c-9.064 0-17.76-1.349-25.8-3.834-28.9-8.935-49.522-32.423-49.522-59.988 0-29.238 23.216-53.903 54.859-61.458h20.463z" fill="#F7C4BA"/><path d="M305.999 624.018v101.051l-11.34-10.679 5.337-27.575-19.231 22.697-16.924.75.884-14.34 26.794-16.298-32.548 4.523-12.602-9.604 12.602-9.614 32.548 4.533-26.794-16.297-.884-14.361 16.924.771 19.231 22.697-5.337-27.575 11.34-10.679z" fill="#97CF9B"/><path d="M305.998 730.688v125.28h-20.463c-31.643-7.555-54.859-32.199-54.859-61.458 0-27.565 20.632-51.053 49.522-59.978 8.04-2.495 16.736-3.844 25.8-3.844z" fill="#F7C4BA"/><path d="M305.999 743.983v101.052l-11.34-10.679 5.337-27.586-19.231 22.718-16.924.75.884-14.35 26.794-16.298-32.548 4.533-12.602-9.614 12.602-9.604 32.548 4.523-26.794-16.297-.884-14.341 16.924.751 19.231 22.697-5.337-27.565 11.34-10.69z" fill="#97CF9B"/><path d="M79.05 674.544c0 27.565-20.632 51.064-49.542 59.988-8.04 2.485-16.737 3.834-25.8 3.834-.736 0-1.461-.01-2.177-.041V613.086h22.64c31.673 7.555 54.879 32.22 54.879 61.458z" fill="#F7C4BA"/><path d="M50.745 684.147l-32.557-4.523L45 695.922l.885 14.34-16.935-.75-19.24-22.697 5.356 27.575-11.35 10.679-2.186-2.049v-96.954l2.187-2.048 11.35 10.679-5.358 27.575 19.24-22.697 16.936-.761L45 653.165l-26.813 16.297 32.557-4.533 12.612 9.614-12.611 9.604z" fill="#97CF9B"/><path d="M79.05 794.509c0 29.249-23.216 53.903-54.88 61.459H1.532v-125.25c.726-.03 1.441-.04 2.177-.04 9.063 0 17.76 1.349 25.8 3.843 28.92 8.925 49.542 32.423 49.542 59.988z" fill="#F7C4BA"/><path d="M50.745 804.123l-32.557-4.533L45 815.888l.885 14.35-16.935-.75L9.71 806.77l5.356 27.586-11.35 10.679-2.186-2.059v-96.944l2.187-2.049 11.35 10.69-5.358 27.565 19.24-22.697 16.936-.751L45 773.131l-26.813 16.297 32.557-4.523 12.612 9.604-12.611 9.614z" fill="#97CF9B"/><path d="M231.184 855.957H80.59c.646-28.498 23.345-52.422 54.243-60.028 6.678-1.653 13.744-2.535 21.049-2.535s14.371.882 21.049 2.535c30.908 7.606 53.607 31.53 54.253 60.028z" fill="#F7C4BA"/><path d="M213.842 855.958H97.922l10.942-8.337 32.538 4.534-26.794-16.298-.884-14.34 16.925.75 19.23 22.697-5.337-27.575 11.34-10.679 11.349 10.679-5.356 27.575 19.23-22.697 16.945-.75-.905 14.34-26.793 16.298 32.558-4.534 10.932 8.337z" fill="#97CF9B"/></g><defs><clipPath id="clip0"><path fill="#fff" d="M0 0h966v853H0z"/></clipPath></defs></svg>