<svg width="240" height="460" fill="none" xmlns="http://www.w3.org/2000/svg"><path d="M131.483 0H0v258.305h131.483V0z" fill="#E8F1CF"/><path d="M131.166 254.208v36.115l-13.713-8.143-78.464-46.665L8.009 217l60.88.098 22.14 13.222.211.071.051.107h.004l25.517 15.194 14.354 8.516z" fill="#1BB16B"/><path d="M38.35 235.122v36.935L0 248.943V217h8.007l30.342 18.122z" fill="#F7C4BA"/><path d="M125.162 323.562H63.646l-14.761-8.781v-36.508l31.008 18.402 45.269 26.887z" fill="#B2D793"/><path d="M63.635 323.562H0v-37.296l48.943 28.672 14.692 8.624z" fill="#1BB16B"/><path d="M131.064 217v.449l-.14-.097-13.594 4.423-25.508 8.281-.131.044h-.009l-.548.194h-.005l-.088.026-.224-.132L68.693 217h62.371zM131.062 290.26v33.3h-6.089l-45.095-26.917-30.89-18.423v36.741L0 286.264v-37.423l38.35 22.771v-36.409l79.226 47.065 13.486 7.992z" fill="#92CB7B"/><path d="M131.048 217l.012 37.296-13.626-8.201-26.409-15.775 1.054-.444L131.048 217z" fill="#F48D83"/><path d="M240 322.648H131v137.353h109V322.648z" fill="#F7C4BA"/><path d="M240 0H131v67.38h109V0z" fill="#1BB16B"/><path d="M240 67.38H131v241.014h109V67.38z" fill="#97CF9B"/><path d="M162 282.939V324h-31v-41.061h9.347l5.342-4.459 5.401-4.48 5.389 4.48 1.29 1.082 4.063 3.377H162zM131 322.648H0v137.353h131V322.648zM208 282.131v41.865h32v-41.865h-9.649l-5.518-4.546-5.571-4.568-5.563 4.568-1.332 1.103-4.194 3.443H208z" fill="#E52226"/><path d="M199.506 128.816h-5.298v-25.568h-19.061v25.568h-5.303v42.573h29.662v-42.573z" fill="#fff"/><path d="M188.152 117.595c-.275 1.686-1.724 2.981-3.474 2.981-1.74 0-3.184-1.295-3.474-2.981a2.317 2.317 0 01-.063-.616c0-1.98 1.592-3.581 3.542-3.581 1.95 0 3.527 1.606 3.527 3.581a3.338 3.338 0 01-.058.616z" fill="#F7C4BA"/><path d="M209.627 162.038v9.11l.137.241h-.137 3.527v-9.351h-3.527zM159.599 171.287l.121-.209v-9.04h-3.527v9.351h3.348l.058-.102z" fill="#E52226"/><path d="M169.841 171.357l-.042-.07-2.519-4.421-2.583-4.55-2.589 4.55-2.388 4.212h-.005v.311h-.179l-.011.026h10.343l-.016-.026-.011-.032zM207.248 166.964l-2.588-4.55-2.599 4.55-2.514 4.426h10.079v-.241l-2.378-4.185z" fill="#E52226"/><path d="M212.937 171.643v152.542h-56.931V171.643h3.361l-.021.032h10.337l-.021-.032h43.275z" fill="#fff"/><path d="M206.914 178.251h-3.779v19.611h3.779v-19.611zM196.88 178.251h-3.79v19.611h3.79v-19.611zM186.829 178.251h-3.79v19.611h3.79v-19.611zM176.8 178.251h-3.79v19.611h3.79v-19.611zM166.763 178.251h-3.806v19.611h3.806v-19.611zM172.759 301.49h-5.646v10.759h5.646V301.49zM172.759 283.565h-5.646v10.759h5.646v-10.759zM172.759 265.638h-5.646v10.758h5.646v-10.758zM172.759 247.713h-5.646v10.758h5.646v-10.758zM172.759 229.789h-5.646v10.758h5.646v-10.758zM172.759 211.863h-5.646v10.759h5.646v-10.759zM182.726 301.49h-5.646v10.759h5.646V301.49zM182.726 283.565h-5.646v10.759h5.646v-10.759zM182.726 265.638h-5.646v10.758h5.646v-10.758zM182.726 247.713h-5.646v10.758h5.646v-10.758zM182.726 229.789h-5.646v10.758h5.646v-10.758zM182.726 211.863h-5.646v10.759h5.646v-10.759zM192.702 301.49h-5.645v10.759h5.645V301.49zM192.702 283.565h-5.645v10.759h5.645v-10.759zM192.702 265.638h-5.645v10.758h5.645v-10.758zM192.702 247.713h-5.645v10.758h5.645v-10.758zM192.702 229.789h-5.645v10.758h5.645v-10.758zM192.702 211.863h-5.645v10.759h5.645v-10.759zM202.685 301.49h-5.646v10.759h5.646V301.49zM202.685 283.565h-5.646v10.759h5.646v-10.759zM202.685 265.638h-5.646v10.758h5.646v-10.758zM202.685 247.713h-5.646v10.758h5.646v-10.758zM202.685 229.789h-5.646v10.758h5.646v-10.758zM202.685 211.863h-5.646v10.759h5.646v-10.759zM215.882 203.256h-61.923v3.591h61.923v-3.591z" fill="#F7C4BA"/><path d="M192.8 97.863c-3.453 0-6.247-2.783-6.347-6.262a3.847 3.847 0 001.924-3.335 3.886 3.886 0 00-1.692-3.211V12.803c-.622-.498-1.286-.803-1.987-.803-.712 0-1.387.31-2.014.824v72.118a3.852 3.852 0 00-1.903 3.324 3.84 3.84 0 001.782 3.254c-.064 3.517-2.879 6.338-6.352 6.338a5.77 5.77 0 01-1.055-.091v5.48h19.062v-5.534c-.475.096-.933.15-1.418.15z" fill="#E52226"/><path d="M184.913 17.561c-12.04 0-21.792 9.902-21.792 22.127 0 11.454 8.571 20.875 19.552 22.01v-14.34c-3.258-.963-5.646-4.04-5.646-7.664 0-4.416 3.537-8.008 7.886-8.008 4.359 0 7.886 3.592 7.886 8.008 0 3.805-2.609 6.995-6.12 7.793v14.248c11.212-.894 20.036-10.421 20.036-22.041 0-12.23-9.762-22.133-21.802-22.133z" fill="#fff"/><path d="M189.886 49.222l-1.99 2.62 2.581 2.02 1.989-2.62-2.58-2.02zM182.675 56.912v.546l-1.74 2.28-2.578-2.023 1.998-2.613 2.32 1.81zM173.293 48.618l-1.99 2.62 2.579 2.02 1.99-2.62-2.579-2.02zM168.118 26.477l-1.989 2.62 2.58 2.02 1.989-2.62-2.58-2.02zM177.288 26.818l-1.989 2.62 2.58 2.02 1.989-2.62-2.58-2.02zM168.772 38.376l-1.989 2.62 2.58 2.02 1.989-2.62-2.58-2.02zM187.378 20.816l-1.989 2.619 2.579 2.02 1.99-2.62-2.58-2.02zM195.215 37.266l-1.988 2.62 2.58 2.02 1.989-2.62-2.581-2.02zM197.105 26.581l-1.99 2.62 2.58 2.02 1.99-2.62-2.58-2.02zM199.461 45.373l-1.988 2.62 2.58 2.02 1.989-2.62-2.581-2.02z" fill="#000"/><path d="M15.493 72.33l-7.198 5.327 21.89 30.367 4.958-9.352-19.65-26.342z" fill="#F7C4BA"/><path d="M57.815 41.2l-.313.864 5.2 15.578 4.059 2.968 8.114-17.231-1.18-2.938-15.88.759z" fill="#fff"/><path d="M59.949 127.998H49.316v80.332H59.95v-80.332zM77.916 127.998H67.283v80.332h10.633v-80.332z" fill="#F7C4BA"/><path d="M89.837 46.548V81.08H42.719V46.548h7.55c.089.018.172.018.26.018.088 0 .172 0 .26-.018 3.06-.092 5.644-2.135 6.824-5.007l8.33 17.77 8.242-17.67c1.206 2.702 3.733 4.815 6.661 4.907.088.018.172.018.26.018.088 0 .172 0 .26-.018h8.47z" fill="#000"/><path d="M84.952 154.789l-.203.035a90.132 90.132 0 01-18.667 1.951h-.225c.022-25.246.036-50.487.062-75.733h7.846l11.187 73.747z" fill="#B2D793"/><path d="M125.95 150.212a90.72 90.72 0 01-18.377 12.509 1.518 1.518 0 01-.216.118 90.58 90.58 0 01-20.054 7.414c-.07.022-.154.035-.225.049a91.658 91.658 0 01-20.992 2.481h-.238a91.658 91.658 0 01-20.992-2.481c-.07-.014-.154-.022-.224-.049a90.527 90.527 0 01-20.068-7.414l-.212-.105v-.013a91.246 91.246 0 01-18.368-12.509c1.982-3.736 3.967-7.484 5.948-11.22a87.258 87.258 0 0012.42 7.734c.071.049.141.084.212.119v-.013a80.89 80.89 0 004.218 2.008c.061.048.132.07.189.096a89.342 89.342 0 0015.66 5.31v.013c.07.022.155.035.225.048.7.175 1.413.329 2.127.482.07.014.132.022.202.035a90.055 90.055 0 0018.663 1.952h.238c6.256 0 12.513-.649 18.668-1.952l.202-.035a65.083 65.083 0 002.127-.482c.07-.013.154-.022.224-.048v-.013a89.563 89.563 0 0015.647-5.31c.058-.022.133-.048.19-.096a91.572 91.572 0 004.218-2.008v.013c.07-.035.14-.07.215-.119a87.847 87.847 0 0012.429-7.734c1.981 3.736 3.963 7.484 5.944 11.22z" fill="#000"/><path d="M50.49 81.042l-21.516 67.893c-.057-.022-.132-.048-.19-.096a90.007 90.007 0 01-4.217-2.008v.013c-.07-.035-.14-.07-.211-.118a87.308 87.308 0 01-12.42-7.735c10.236-19.322 20.468-38.627 30.704-57.949h7.85z" fill="#1BB16B"/><path d="M58.251 81.042c-3.694 24.592-7.388 49.189-11.064 73.782l-.202-.035c-.714-.154-1.427-.307-2.127-.483-.07-.013-.154-.022-.229-.048v-.009a89.382 89.382 0 01-15.66-5.309.604.604 0 01-.19-.097c7.208-22.597 14.415-45.203 21.622-67.797h7.85v-.004z" fill="#92CB7B"/><path d="M66.073 156.775h-.225a90.122 90.122 0 01-18.663-1.951l-.203-.035 11.183-73.747h7.837c.027 25.246.049 50.487.07 75.733z" fill="#E9F2E1"/><path d="M103.142 148.842c-.057.048-.132.07-.19.092a89.065 89.065 0 01-15.647 5.309v.014c-.07.022-.154.035-.224.048-.7.18-1.414.333-2.127.487-.07.013-.128.021-.202.035-3.681-24.597-7.37-49.19-11.064-73.782h7.85c7.202 22.589 14.397 45.199 21.604 67.797z" fill="#92CB7B"/><path d="M120.002 138.991a87.801 87.801 0 01-12.433 7.735 1.518 1.518 0 01-.216.118v-.013c-1.387.71-2.8 1.385-4.213 2.008-.058.048-.133.07-.19.096-7.159-22.632-14.344-45.26-21.503-67.893h7.837c10.236 19.322 20.486 38.631 30.718 57.949z" fill="#1BB16B"/><path d="M76.689 33.285c0 3.206-.978 6.121-2.629 8.366-1.968 2.745-4.896 4.476-8.184 4.476-3.316 0-6.292-1.77-8.273-4.577-1.594-2.231-2.54-5.12-2.54-8.269a16.18 16.18 0 01.26-2.771c.99-5.393 4.838-9.51 9.58-10.01.317-.044.647-.057.977-.057.317 0 .634.013.947.044 4.737.487 8.616 4.621 9.593 10.028.101.53.172 1.06.216 1.6.04.386.053.771.053 1.17z" fill="#F7C4BA"/><path d="M65.816 23.175c0 1.715-.52 3.302-1.422 4.622a8.255 8.255 0 01-6.838 3.604 8.105 8.105 0 01-3.703-.886c.991-5.393 4.84-9.51 9.58-10.01.318-.044.648-.057.978-.057.317 0 .63.013.947.044.3.837.458 1.736.458 2.683z" fill="#231F20"/><path d="M74.948 30.512a8.149 8.149 0 01-3.733.885 8.224 8.224 0 01-6.82-3.604 8.123 8.123 0 01-1.422-4.621c0-.943.158-1.846.458-2.675.317-.043.647-.057.977-.057.313 0 .63.014.947.044 4.741.491 8.62 4.621 9.593 10.027z" fill="#231F20"/><path d="M40.987 40.047c-10.03-5.108-22.317-1.153-27.446 8.834l-8.3 16.157c-5.129 9.988-1.157 22.225 8.872 27.333 10.03 5.108 22.318 1.153 27.447-8.835l8.299-16.157c5.129-9.987 1.158-22.224-8.872-27.332z" fill="#fff"/><path d="M79.046 25.346a1.03 1.03 0 01-.313-1.363c.467-.811-.303-1.772-1.202-1.5a1.033 1.033 0 01-1.263-.605c-.344-.868-1.58-.868-1.924 0-.198.5-.749.763-1.264.605a.997.997 0 00-.836.11.984.984 0 00-.335-.395 1.029 1.029 0 01-.313-1.363c.467-.812-.303-1.772-1.201-1.5a1.033 1.033 0 01-1.264-.605c-.343-.868-1.58-.868-1.924 0-.198.5-.744.763-1.264.605-.898-.272-1.668.688-1.201 1.5a1.026 1.026 0 01-.291 1.341c-.022-.017-.04-.044-.062-.057a1.029 1.029 0 01-.312-1.363c.466-.811-.304-1.772-1.198-1.5a1.033 1.033 0 01-1.264-.605c-.343-.868-1.58-.868-1.924 0-.198.5-.748.763-1.263.605-.898-.272-1.669.689-1.198 1.5a1.029 1.029 0 01-.312 1.363c-.3.206-.44.509-.45.816a1.02 1.02 0 01-.845-.987c-.008-.934-1.162-1.377-1.791-.688a1.042 1.042 0 01-1.4.114c-.74-.579-1.806.044-1.66.969.083.53-.26 1.035-.784 1.162-.911.215-1.087 1.433-.273 1.898.467.268.651.846.423 1.333-.401.846.444 1.74 1.316 1.394a1.04 1.04 0 011.312.505c.414.837 1.642.736 1.92-.154.154-.513.682-.82 1.21-.706.916.202 1.603-.82 1.07-1.591a1.029 1.029 0 01.203-1.386 1 1 0 00.374-.736c.423.153.713.556.682 1.025-.066.93 1.044 1.465 1.735.834a1.04 1.04 0 011.405 0c.69.63 1.8.1 1.734-.834-.04-.539.344-1.012.876-1.091.15-.022.278-.084.392-.154.137.114.304.202.507.233.532.083.91.556.876 1.096-.066.93 1.043 1.464 1.734.828a1.04 1.04 0 011.405 0c.691.636 1.8.101 1.735-.828a1.03 1.03 0 01.876-1.096c.145-.022.264-.075.378-.14.01.017.013.039.022.056a1.03 1.03 0 01-.312 1.364c-.775.526-.502 1.727.427 1.868.532.079.915.556.876 1.091-.066.934 1.043 1.465 1.735.834a1.04 1.04 0 011.404 0c.691.635 1.8.1 1.735-.834a1.026 1.026 0 01.876-1.091c.902-.154 1.18-1.35.405-1.877z" fill="#E52226"/><path d="M118.29 72.33l7.203 5.327-21.895 30.367-4.957-9.352L118.29 72.33z" fill="#F7C4BA"/><path d="M126.756 65.215l-8.392-16.337c-5.129-9.987-17.417-13.942-27.446-8.834-10.03 5.108-14 17.345-8.872 27.332l8.392 16.337c5.129 9.988 17.417 13.943 27.446 8.835 10.034-5.104 14.006-17.345 8.872-27.333z" fill="#fff"/><path d="M87.277 217.402H67.293v-3.354h-.018v-25.504h10.642v22.041a3.465 3.465 0 003.474 3.459h2.518c1.862.009 3.368 1.508 3.368 3.358zM59.909 188.549v28.854H40.348a3.358 3.358 0 013.368-3.354h2.073a3.465 3.465 0 003.474-3.459v-22.041H59.91z" fill="#000"/><path d="M66.627 40.78a2.15 2.15 0 01-2.144 1.968c-1.15 0-2.061-.868-2.149-1.968h.15c.277 0 .656-.518.7-.614.114-.246.36-.382.638-.382s.533.15.682.382c.106-.233.362-.382.639-.382s.51.145.66.382c.049.074.445.614.7.614h.124zM195.002 387.684c-.725-2.27-3.013-3.55-5.217-2.992-.236-2.279-2.103-4.058-4.37-4.058-2.356 0-4.273 1.922-4.383 4.339-2.225-.512-4.488.827-5.158 3.123-.666 2.291.489 4.704 2.608 5.556-1.074 2.01-.539 4.579 1.315 5.934 1.888 1.381 4.459.991 5.909-.822 1.504 1.687 4.02 1.968 5.836.566 1.863-1.427 2.314-4.075 1.104-6.068 2.023-.953 3.064-3.345 2.356-5.578zm-9.545 5.972c-1.576 0-2.857-1.326-2.857-2.958 0-1.637 1.277-2.959 2.857-2.959 1.576 0 2.857 1.326 2.857 2.959-.004 1.636-1.281 2.958-2.857 2.958z" fill="#E52226"/><path d="M188.308 390.698c0 1.637-1.277 2.963-2.857 2.963-1.576 0-2.857-1.326-2.857-2.963s1.277-2.959 2.857-2.959c1.58-.004 2.857 1.322 2.857 2.959z" fill="#F19B96"/><path d="M193.883 367.028c.042-3.055-1.054-6.006-2.343-8.708l-1.382 1.313c1.584-3.802-2.963-8.146-4.699-10.63-2.048 2.971-6.149 6.517-4.699 10.63-.337-.323-1.045-.999-1.382-1.313-1.665 3.71-4.08 9.274-.51 12.539l-1.521-.39c.965 9.686 15.263 9.686 16.228 0l-1.521.39a5.459 5.459 0 001.829-3.831z" fill="#E52226"/><path d="M185.46 349v28.735c-3.818 0-7.628-2.422-8.117-7.265l1.522.391c-3.566-3.261-1.151-8.826.514-12.54l1.382 1.313c-1.45-4.108 2.647-7.659 4.699-10.634z" fill="#F48D83"/><path d="M160.346 365.14c-.164-1.28-.206-2.442-.118-3.512.999-.16 1.888-.852 2.289-1.893.602-1.574-.14-3.357-1.657-3.983-1.521-.625-3.24.147-3.843 1.721-.518 1.351-.042 2.858 1.07 3.651-.13 1.322-.097 2.753.102 4.323.092.7.206 1.368.345 1.997-2.099-1.746-4.223-3.663-6.549-5.812a.65.65 0 00.042-.101c.603-1.569-.139-3.353-1.656-3.983-1.517-.625-3.24.147-3.843 1.717-.603 1.574.139 3.361 1.656 3.987.754.31 1.559.277 2.255-.034 2.317 2.145 4.437 4.058 6.532 5.808-.561.147-1.134.328-1.72.542-1.235.453-2.322.969-3.287 1.565a2.757 2.757 0 00-.48-.34c-1.441-.81-3.233-.26-4.016 1.23-.78 1.49-.249 3.349 1.184 4.159 1.437.81 3.232.26 4.012-1.23a3.138 3.138 0 00.341-1.834v-.004c.856-.541 1.842-1.007 2.971-1.423 1.159-.424 2.234-.701 3.253-.835a65.825 65.825 0 006.061 4.251c-1.935.634-3.76 1.541-5.412 2.414-.042.021-.088.046-.134.071a2.232 2.232 0 00-.228-.168c-1.378-.911-3.207-.491-4.088.936-.872 1.431-.467 3.328.906 4.239 1.378.906 3.212.486 4.084-.945.404-.65.535-1.41.426-2.119.008-.004.012-.004.016-.008 2.268-1.192 4.666-2.367 7.177-2.825.215.118.426.235.641.349a.045.045 0 01.004.021l.017-.009c2.254 1.209 4.72 2.367 7.522 3.509l.797-2.099a79.517 79.517 0 01-6.558-3.021c-.779-2.716-.699-5.658-.522-8.474a2.968 2.968 0 002.368-1.909c.603-1.574-.135-3.357-1.656-3.987-1.521-.625-3.241.147-3.848 1.721-.505 1.317-.067 2.786.987 3.592-.005.071-.005.139-.013.202-.152 2.333-.249 4.926.152 7.465a60.133 60.133 0 01-6.237-4.142c-.658-1.313-1.1-2.887-1.345-4.78zM211.221 365.14c.164-1.28.206-2.442.118-3.512-.999-.16-1.888-.852-2.289-1.893-.602-1.574.139-3.357 1.656-3.983 1.518-.625 3.241.147 3.848 1.721.518 1.351.042 2.858-1.07 3.651.13 1.322.097 2.753-.106 4.323a23.44 23.44 0 01-.345 1.997c2.098-1.746 4.222-3.663 6.549-5.812a.766.766 0 01-.043-.101c-.602-1.569.135-3.353 1.657-3.983 1.521-.625 3.24.147 3.843 1.717.603 1.574-.139 3.361-1.66 3.987-.755.31-1.56.277-2.255-.034-2.318 2.145-4.438 4.058-6.532 5.808.556.147 1.134.328 1.719.542 1.235.453 2.322.969 3.287 1.565.148-.13.308-.243.481-.34 1.441-.81 3.232-.26 4.016 1.23.78 1.49.249 3.349-1.184 4.159-1.433.81-3.233.26-4.012-1.23a3.139 3.139 0 01-.342-1.834v-.004c-.859-.541-1.841-1.007-2.971-1.423-1.158-.424-2.233-.701-3.253-.835a65.81 65.81 0 01-6.06 4.251c1.939.634 3.759 1.541 5.411 2.414l.135.071c.072-.059.147-.118.228-.168 1.378-.911 3.207-.491 4.087.936.877 1.431.472 3.328-.906 4.239-1.378.906-3.211.486-4.083-.945a3.086 3.086 0 01-.422-2.119c-.004-.004-.012-.004-.017-.008-2.267-1.192-4.665-2.367-7.181-2.825-.215.118-.425.235-.64.349-.004.008-.004.016-.004.021l-.017-.009c-2.255 1.209-4.72 2.367-7.523 3.509l-.796-2.099a79.642 79.642 0 006.557-3.021c.78-2.716.7-5.658.523-8.474-1.033-.138-1.96-.835-2.369-1.909-.602-1.574.135-3.357 1.657-3.987 1.521-.625 3.24.147 3.847 1.721.506 1.317.068 2.786-.986 3.592l.013.202c.151 2.333.253 4.926-.152 7.465a60.133 60.133 0 006.237-4.142c.657-1.313 1.104-2.887 1.349-4.78z" fill="#E52226"/><path d="M177.679 414.854c-.042 3.055 1.053 6.005 2.343 8.708l1.382-1.314c-1.584 3.803 2.959 8.146 4.699 10.631 2.048-2.972 6.149-6.518 4.699-10.631.337.323 1.045.995 1.382 1.314 1.665-3.71 4.08-9.275.51-12.54l1.521.39c-.965-9.686-15.259-9.681-16.228 0l1.521-.39a5.463 5.463 0 00-1.829 3.832z" fill="#F48D83"/><path d="M186.102 432.879v-28.734c3.818 0 7.627 2.425 8.112 7.264l-1.521-.39c3.565 3.261 1.15 8.83-.515 12.54-.333-.315-1.041-.991-1.382-1.314 1.458 4.113-2.642 7.663-4.694 10.634zM211.221 416.738c.164 1.28.206 2.442.118 3.512a2.98 2.98 0 00-2.289 1.893c-.602 1.574.139 3.362 1.656 3.983 1.518.625 3.241-.143 3.848-1.721.518-1.347.042-2.858-1.07-3.651.13-1.322.097-2.753-.106-4.318a23.773 23.773 0 00-.345-2.002c2.098 1.746 4.222 3.664 6.549 5.812a.766.766 0 00-.043.101c-.602 1.57.135 3.353 1.657 3.978 1.521.626 3.24-.146 3.843-1.716.603-1.574-.139-3.362-1.66-3.987a2.842 2.842 0 00-2.255.034c-2.318-2.145-4.438-4.059-6.532-5.809a22.756 22.756 0 001.719-.541c1.235-.453 2.322-.969 3.287-1.57.148.131.308.244.481.34 1.441.81 3.232.261 4.016-1.229.78-1.49.249-3.349-1.184-4.159-1.433-.81-3.233-.26-4.012 1.229a3.142 3.142 0 00-.342 1.834v.005c-.859.541-1.841 1.007-2.971 1.422-1.158.424-2.233.701-3.253.84a65.819 65.819 0 00-6.06-4.252c1.939-.633 3.759-1.544 5.411-2.413l.135-.071c.072.059.147.113.228.168 1.378.91 3.207.491 4.087-.936.877-1.431.472-3.328-.906-4.239-1.378-.906-3.211-.491-4.083.94a3.093 3.093 0 00-.422 2.12c-.004.004-.012.004-.017.008-2.267 1.192-4.665 2.367-7.181 2.82-.215-.117-.425-.235-.64-.348-.004-.008-.004-.017-.004-.021l-.017.008a78.484 78.484 0 00-7.523-3.508l-.796 2.098a78.013 78.013 0 016.557 3.022c.78 2.711.7 5.657.523 8.473-1.033.139-1.96.839-2.369 1.91-.602 1.573.135 3.357 1.657 3.986 1.521.626 3.24-.146 3.847-1.72.506-1.322.068-2.787-.986-3.593l.013-.201c.151-2.333.253-4.927-.152-7.466a60.133 60.133 0 016.237 4.142c.657 1.326 1.104 2.904 1.349 4.793zM160.346 416.738c-.164 1.28-.206 2.442-.118 3.512a2.98 2.98 0 012.289 1.893c.602 1.574-.14 3.362-1.657 3.983-1.521.625-3.24-.143-3.843-1.721-.518-1.347-.042-2.858 1.07-3.651-.13-1.322-.097-2.753.102-4.318.092-.701.206-1.369.345-2.002-2.099 1.746-4.223 3.664-6.549 5.812a.65.65 0 01.042.101c.603 1.57-.139 3.353-1.656 3.978-1.517.626-3.24-.146-3.843-1.716-.603-1.574.139-3.362 1.656-3.987a2.843 2.843 0 012.255.034c2.317-2.145 4.437-4.059 6.532-5.809a22.218 22.218 0 01-1.72-.541c-1.235-.453-2.322-.969-3.287-1.57a2.654 2.654 0 01-.48.34c-1.441.81-3.233.261-4.016-1.229-.78-1.49-.249-3.349 1.184-4.159 1.437-.81 3.232-.26 4.012 1.229a3.14 3.14 0 01.341 1.834v.005c.856.541 1.842 1.007 2.971 1.422 1.159.424 2.234.701 3.253.84a65.834 65.834 0 016.061-4.252c-1.935-.633-3.76-1.544-5.412-2.413a4.61 4.61 0 01-.134-.071 3.357 3.357 0 01-.228.168c-1.378.91-3.207.491-4.088-.936-.872-1.431-.467-3.328.906-4.239 1.378-.906 3.212-.491 4.084.94a3.13 3.13 0 01.426 2.12c.008.004.012.004.016.008 2.268 1.192 4.666 2.367 7.177 2.82.215-.117.426-.235.641-.348.004-.008.004-.017.004-.021l.017.008c2.254-1.208 4.72-2.367 7.522-3.508l.797 2.098a77.893 77.893 0 00-6.558 3.022c-.779 2.711-.699 5.657-.522 8.473a2.977 2.977 0 012.368 1.91c.603 1.573-.135 3.357-1.656 3.986-1.521.626-3.241-.146-3.848-1.72-.505-1.322-.067-2.787.987-3.593-.005-.071-.005-.138-.013-.201-.152-2.333-.249-4.927.152-7.466a60.133 60.133 0 00-6.237 4.142c-.658 1.326-1.1 2.904-1.345 4.793z" fill="#E52226"/><path d="M148.6 385.993c4.501 0 6.696 2.787 6.696 4.948 0 2.161-2.195 4.944-6.696 4.944-4.501 0-9.6-4.944-9.6-4.944s5.099-4.948 9.6-4.948zM223.204 385.993c-4.501 0-6.696 2.787-6.696 4.948 0 2.161 2.195 4.944 6.696 4.944 4.501 0 9.6-4.944 9.6-4.944s-5.099-4.948-9.6-4.948z" fill="#F48D83"/><path d="M49.93 375.137a12.655 12.655 0 01-10.965 6.307c-4.69 0-8.78-2.539-10.965-6.307a12.655 12.655 0 0110.965-6.307c4.69.005 8.781 2.544 10.965 6.307zM103.001 375.137a12.657 12.657 0 01-10.966 6.307c-4.69 0-8.78-2.539-10.965-6.307a12.655 12.655 0 0110.965-6.307c4.69.005 8.781 2.544 10.966 6.307z" fill="#F7C4BA"/><path d="M94.434 402.158c.41 10.293-6.377 19.431-6.377 19.431l-1.004-4.477-.234.728c-2.765 8.531-19.298 22.417-19.298 22.417.22.287-1.453-2.918-4.666-5.253-4.436-3.224-7.65-4.671-11.438-10.056l.58 5.57s-8.112-5.851-10.155-11.765c-1.473-4.263-1.814-12.92-1.814-12.92l-2.301 8.215S35.542 408.47 36 402.162c1.243-17.153 13.08-31.151 29.214-31.151 16.143-.005 28.541 13.959 29.22 31.147z" fill="#F48D83"/><path d="M50.376 364.059s-18.522-5.04-6.538-20.873c.23-.306-.151-.69-.453-.462-5.807 4.438-20.024 17.159.37 28.122l5.173 2.69 1.448-9.477zM81.07 364.058s18.298-4.982 6.758-20.582c-.263-.354.18-.796.526-.529 5.973 4.622 19.41 17.115-.653 27.899l-5.173 2.69-1.458-9.478z" fill="#F7C4BA"/><path d="M70.73 421.321H60.68c-7.864 0-11.292-9.157-11.292-16.988l-6.211-23.602 3.266-18.358h38.532l3.047 18.421-6.104 23.335c-.005 7.831-3.325 17.192-11.19 17.192z" fill="#F7C4BA"/><path d="M57.493 384.121a2.945 2.945 0 01-2.95 2.938 2.945 2.945 0 01-2.95-2.938 2.944 2.944 0 012.95-2.937 2.944 2.944 0 012.95 2.937zM81.071 384.121a2.945 2.945 0 01-2.95 2.938 2.945 2.945 0 01-2.95-2.938 2.944 2.944 0 012.95-2.937 2.94 2.94 0 012.95 2.937z" fill="#E52226"/><path d="M43.082 352.249c4.451-10.356 34.329-16.62 45.001 0 .936 1.461 2.14 5.409.936 10.162-.185.728-.716 2.219-.716 2.219l-2.038-1.534s-7.348 13.629-17.742 16.702c-.117 0-16.372-11.08-16.372-11.08l.16 4.258s-3.676-2.117-4.475-2.845c-4.661-4.239-8.026-10.264-4.754-17.882z" fill="#F48D83"/><path d="M81.914 404.128v7.443c0 5.38-4.378 9.75-9.79 9.75H59.19c-5.412 0-9.795-4.365-9.795-9.75v-7.244a10.757 10.757 0 011.764-.534 12.117 12.117 0 012.74-.306c.946 0 1.863.102 2.74.306a12.492 12.492 0 016.904 4.234 3.073 3.073 0 004.778 0 12.488 12.488 0 016.91-4.234 12.085 12.085 0 012.74-.306c.945 0 1.862.102 2.74.306.409.088.808.199 1.203.335z" fill="#E52226"/><path d="M62.666 416.457c-1.028.874-2.866.403-4.115-1.048-1.243-1.452-1.423-3.336-.395-4.21 1.03-.874 2.867-.403 4.115 1.049 1.248 1.452 1.424 3.335.395 4.209zM69.899 416.457c1.028.874 2.866.403 4.114-1.048 1.244-1.452 1.424-3.336.395-4.21-1.028-.874-2.866-.403-4.115 1.049-1.243 1.452-1.418 3.335-.394 4.209z" fill="#F3B5B5"/></svg>