<svg width="240" height="460" viewBox="0 0 240 460" fill="none" xmlns="http://www.w3.org/2000/svg">
<path d="M131.483 0H0V258.305H131.483V0Z" fill="#E8F1CF"/>
<path d="M131.166 254.208V290.323L117.453 282.18L38.9886 235.515L8.00977 217L68.8884 217.098L91.0296 230.32L91.2403 230.391L91.291 230.498H91.2953L116.812 245.692L131.166 254.208Z" fill="#1BB16B"/>
<path d="M38.3492 235.122V272.057L0 248.943V217H8.00699L38.3492 235.122Z" fill="#F7C4BA"/>
<path d="M125.162 323.562H63.6457L48.8848 314.781V278.273L79.8934 296.675L125.162 323.562Z" fill="#B2D793"/>
<path d="M63.6345 323.562H0.583417H0V286.266L48.9434 314.938L63.6345 323.562Z" fill="#1BB16B"/>
<path d="M131.064 217V217.449L130.924 217.352L117.33 221.775L91.8216 230.056L91.6907 230.1H91.6823L91.1336 230.294H91.1294L91.0408 230.32L90.8171 230.188L68.6934 217H131.064Z" fill="#92CB7B"/>
<path d="M131.062 290.26V323.56H124.973L79.8777 296.643L48.9879 278.22V314.961L0 286.264V248.841L38.3492 271.612V235.203L117.576 282.268L131.062 290.26Z" fill="#92CB7B"/>
<path d="M131.048 217L131.06 254.296L117.434 246.095L91.0254 230.32L92.0789 229.876L131.048 217Z" fill="#F48D83"/>
<path d="M240 322.648H131V460.001H240V322.648Z" fill="#F7C4BA"/>
<path d="M240 0H131V67.3803H240V0Z" fill="#1BB16B"/>
<path d="M240 67.3799H131V308.394H240V67.3799Z" fill="#97CF9B"/>
<path d="M162 282.939V324H131V282.939H140.347L145.689 278.48L151.09 274L156.479 278.48L157.769 279.562L161.832 282.939H162Z" fill="#E52226"/>
<path d="M131 322.648H0V460.001H131V322.648Z" fill="#E52226"/>
<path d="M208 282.131V323.996H240V282.131H230.351L224.833 277.585L219.262 273.017L213.699 277.585L212.367 278.688L208.173 282.131H208Z" fill="#E52226"/>
<path d="M199.506 128.816H194.208V103.248H175.147V128.816H169.844V171.389H199.506V128.816Z" fill="white"/>
<path d="M188.152 117.595C187.877 119.281 186.428 120.576 184.678 120.576C182.938 120.576 181.494 119.281 181.204 117.595C181.151 117.407 181.141 117.193 181.141 116.979C181.141 114.999 182.733 113.398 184.683 113.398C186.633 113.398 188.21 115.004 188.21 116.979C188.204 117.193 188.194 117.407 188.152 117.595Z" fill="#F7C4BA"/>
<path d="M209.627 162.038V171.148L209.764 171.389H209.627H213.154V162.038H209.627Z" fill="#E52226"/>
<path d="M159.599 171.287L159.72 171.078V162.038H156.193V171.389H159.541L159.599 171.287Z" fill="#E52226"/>
<path d="M169.841 171.357L169.799 171.287L167.28 166.866L164.697 162.316L162.108 166.866L159.72 171.078H159.715V171.389H159.536L159.525 171.415H169.868L169.852 171.389L169.841 171.357Z" fill="#E52226"/>
<path d="M207.248 166.964L204.66 162.414L202.061 166.964L199.547 171.39H209.626V171.149L207.248 166.964Z" fill="#E52226"/>
<path d="M212.937 171.643V324.185H156.006V171.643H159.367L159.346 171.675H169.683L169.662 171.643H212.937Z" fill="white"/>
<path d="M206.914 178.251H203.135V197.862H206.914V178.251Z" fill="#F7C4BA"/>
<path d="M196.88 178.251H193.09V197.862H196.88V178.251Z" fill="#F7C4BA"/>
<path d="M186.829 178.251H183.039V197.862H186.829V178.251Z" fill="#F7C4BA"/>
<path d="M176.8 178.251H173.01V197.862H176.8V178.251Z" fill="#F7C4BA"/>
<path d="M166.763 178.251H162.957V197.862H166.763V178.251Z" fill="#F7C4BA"/>
<path d="M172.759 301.49H167.113V312.249H172.759V301.49Z" fill="#F7C4BA"/>
<path d="M172.759 283.565H167.113V294.324H172.759V283.565Z" fill="#F7C4BA"/>
<path d="M172.759 265.638H167.113V276.396H172.759V265.638Z" fill="#F7C4BA"/>
<path d="M172.759 247.713H167.113V258.471H172.759V247.713Z" fill="#F7C4BA"/>
<path d="M172.759 229.789H167.113V240.547H172.759V229.789Z" fill="#F7C4BA"/>
<path d="M172.759 211.863H167.113V222.622H172.759V211.863Z" fill="#F7C4BA"/>
<path d="M182.726 301.49H177.08V312.249H182.726V301.49Z" fill="#F7C4BA"/>
<path d="M182.726 283.565H177.08V294.324H182.726V283.565Z" fill="#F7C4BA"/>
<path d="M182.726 265.638H177.08V276.396H182.726V265.638Z" fill="#F7C4BA"/>
<path d="M182.726 247.713H177.08V258.471H182.726V247.713Z" fill="#F7C4BA"/>
<path d="M182.726 229.789H177.08V240.547H182.726V229.789Z" fill="#F7C4BA"/>
<path d="M182.726 211.863H177.08V222.622H182.726V211.863Z" fill="#F7C4BA"/>
<path d="M192.702 301.49H187.057V312.249H192.702V301.49Z" fill="#F7C4BA"/>
<path d="M192.702 283.565H187.057V294.324H192.702V283.565Z" fill="#F7C4BA"/>
<path d="M192.702 265.638H187.057V276.396H192.702V265.638Z" fill="#F7C4BA"/>
<path d="M192.702 247.713H187.057V258.471H192.702V247.713Z" fill="#F7C4BA"/>
<path d="M192.702 229.789H187.057V240.547H192.702V229.789Z" fill="#F7C4BA"/>
<path d="M192.702 211.863H187.057V222.622H192.702V211.863Z" fill="#F7C4BA"/>
<path d="M202.685 301.49H197.039V312.249H202.685V301.49Z" fill="#F7C4BA"/>
<path d="M202.685 283.565H197.039V294.324H202.685V283.565Z" fill="#F7C4BA"/>
<path d="M202.685 265.638H197.039V276.396H202.685V265.638Z" fill="#F7C4BA"/>
<path d="M202.685 247.713H197.039V258.471H202.685V247.713Z" fill="#F7C4BA"/>
<path d="M202.685 229.789H197.039V240.547H202.685V229.789Z" fill="#F7C4BA"/>
<path d="M202.685 211.863H197.039V222.622H202.685V211.863Z" fill="#F7C4BA"/>
<path d="M215.882 203.256H153.959V206.847H215.882V203.256Z" fill="#F7C4BA"/>
<path d="M192.8 97.863C189.347 97.863 186.553 95.0797 186.453 91.6007C187.597 90.937 188.377 89.7006 188.377 88.2661C188.377 86.928 187.702 85.7505 186.685 85.0547V73.8629V73.5952V57.506V57.4953V12.8029C186.063 12.3051 185.399 12 184.698 12C183.986 12 183.311 12.3104 182.684 12.8243V57.4846V73.5899V73.7665V84.9423C181.55 85.6114 180.781 86.8424 180.781 88.2661C180.781 89.6417 181.492 90.8406 182.563 91.5204C182.499 95.0369 179.684 97.8576 176.211 97.8576C175.857 97.8576 175.499 97.8308 175.156 97.7666V103.247H194.218V97.7131C193.743 97.8094 193.285 97.863 192.8 97.863Z" fill="#E52226"/>
<path d="M184.913 17.5615C172.873 17.5615 163.121 27.4634 163.121 39.6883C163.121 51.1424 171.692 60.5626 182.673 61.6973V47.3582C179.415 46.3948 177.027 43.3172 177.027 39.6936C177.027 35.2779 180.564 31.6865 184.913 31.6865C189.272 31.6865 192.799 35.2779 192.799 39.6936C192.799 43.4992 190.19 46.6892 186.679 47.4867V61.7347C197.891 60.8409 206.715 51.3137 206.715 39.6936C206.715 27.4634 196.953 17.5615 184.913 17.5615Z" fill="white"/>
<path d="M189.886 49.2221L187.896 51.8418L190.477 53.8615L192.466 51.2418L189.886 49.2221Z" fill="black"/>
<path d="M182.675 56.9116V57.4576L180.935 59.7377L178.357 57.7145L180.355 55.1025L182.675 56.9116Z" fill="black"/>
<path d="M173.293 48.6182L171.303 51.2373L173.882 53.2577L175.872 50.6386L173.293 48.6182Z" fill="black"/>
<path d="M168.118 26.4769L166.129 29.0967L168.709 31.1161L170.698 28.4963L168.118 26.4769Z" fill="black"/>
<path d="M177.288 26.8181L175.299 29.4375L177.879 31.4572L179.868 28.8378L177.288 26.8181Z" fill="black"/>
<path d="M168.772 38.3763L166.783 40.9961L169.363 43.0155L171.352 40.3957L168.772 38.3763Z" fill="black"/>
<path d="M187.378 20.8155L185.389 23.4346L187.968 25.455L189.958 22.8359L187.378 20.8155Z" fill="black"/>
<path d="M195.215 37.266L193.227 39.8857L195.807 41.9051L197.796 39.2854L195.215 37.266Z" fill="black"/>
<path d="M197.105 26.5811L195.115 29.2002L197.695 31.2206L199.685 28.6015L197.105 26.5811Z" fill="black"/>
<path d="M199.461 45.3734L197.473 47.9932L200.053 50.0126L202.042 47.3928L199.461 45.3734Z" fill="black"/>
<path d="M15.4934 72.3301L8.29492 77.6572L30.1853 108.024L35.1427 98.6719L15.4934 72.3301Z" fill="#F7C4BA"/>
<path d="M57.8146 41.1999L57.502 42.0637L62.7016 57.6416L66.7609 60.6099L74.8751 43.379L73.6952 40.4414L57.8146 41.1999Z" fill="white"/>
<path d="M59.949 127.998H49.3164V208.33H59.949V127.998Z" fill="#F7C4BA"/>
<path d="M77.9158 127.998H67.2832V208.33H77.9158V127.998Z" fill="#F7C4BA"/>
<path d="M89.8367 46.5481V81.0801H42.7188V46.5481H50.2694C50.3575 46.5656 50.4411 46.5656 50.5292 46.5656C50.6172 46.5656 50.7009 46.5656 50.7889 46.5481C53.8488 46.456 56.4332 44.4128 57.6132 41.541L65.9431 59.3112L74.185 41.6419C75.3914 44.3427 77.9185 46.456 80.8463 46.5481C80.9344 46.5656 81.0181 46.5656 81.1061 46.5656C81.1942 46.5656 81.2778 46.5656 81.3659 46.5481H89.8367Z" fill="black"/>
<path d="M84.952 154.789C84.8816 154.802 84.8244 154.811 84.7495 154.824C78.5989 156.126 72.3426 156.775 66.082 156.775H65.8574C65.8794 131.529 65.8927 106.288 65.9191 81.042H73.7647L84.952 154.789Z" fill="#B2D793"/>
<path d="M125.95 150.212C120.24 155.215 114.067 159.389 107.573 162.721C107.502 162.769 107.432 162.804 107.357 162.839C100.925 166.128 94.1886 168.596 87.3027 170.253C87.2323 170.275 87.1486 170.288 87.0782 170.302C80.1923 171.946 73.1391 172.761 66.086 172.783H65.8482C58.7951 172.761 51.7419 171.946 44.856 170.302C44.7856 170.288 44.7019 170.28 44.6315 170.253C37.7324 168.596 31.0006 166.128 24.5639 162.839C24.4934 162.804 24.423 162.769 24.3525 162.734V162.721C17.8717 159.389 11.6947 155.21 5.98438 150.212C7.9656 146.476 9.95121 142.728 11.9324 138.992C15.8949 141.947 20.0511 144.525 24.3525 146.726C24.423 146.775 24.4934 146.81 24.5639 146.845V146.832C25.9551 147.542 27.364 148.217 28.7817 148.84C28.8433 148.888 28.9138 148.91 28.971 148.936C34.0517 151.207 39.2866 152.965 44.6315 154.246V154.259C44.7019 154.281 44.7856 154.294 44.856 154.307C45.5561 154.482 46.2693 154.636 46.9826 154.789C47.053 154.803 47.1146 154.811 47.1851 154.824C53.3357 156.127 59.592 156.776 65.8482 156.776H66.086C72.3422 156.776 78.5985 156.127 84.7535 154.824C84.824 154.811 84.8812 154.803 84.9561 154.789C85.6693 154.636 86.3825 154.482 87.0826 154.307C87.153 154.294 87.2367 154.285 87.3071 154.259V154.246C92.6388 152.965 97.8737 151.207 102.954 148.936C103.012 148.914 103.087 148.888 103.144 148.84C104.557 148.213 105.97 147.537 107.362 146.832V146.845C107.432 146.81 107.502 146.775 107.577 146.726C111.874 144.525 116.039 141.947 120.006 138.992C121.987 142.728 123.969 146.476 125.95 150.212Z" fill="black"/>
<path d="M50.4902 81.042C43.3182 103.675 36.1461 126.303 28.9741 148.935C28.9169 148.913 28.842 148.887 28.7848 148.839C27.3715 148.212 25.9582 147.537 24.567 146.831V146.844C24.4965 146.809 24.4261 146.774 24.3556 146.726C20.0586 144.525 15.9024 141.951 11.9355 138.991C22.1719 119.669 32.4038 100.364 42.6402 81.042H50.4902Z" fill="#1BB16B"/>
<path d="M58.2511 81.042C54.5573 105.634 50.8634 130.231 47.1871 154.824C47.1166 154.811 47.055 154.802 46.9846 154.789C46.2713 154.635 45.5581 154.482 44.8581 154.306C44.7876 154.293 44.704 154.284 44.6291 154.258V154.249C39.2886 152.969 34.0494 151.211 28.9686 148.94C28.907 148.918 28.8365 148.891 28.7793 148.843C35.9866 126.246 43.1938 103.64 50.4011 81.0464H58.2511V81.042Z" fill="#92CB7B"/>
<path d="M66.0726 156.775H65.8481C59.5918 156.775 53.3355 156.126 47.1849 154.824C47.1145 154.811 47.0529 154.802 46.9824 154.789L58.1653 81.042H66.0022C66.0286 106.288 66.0506 131.529 66.0726 156.775Z" fill="#E9F2E1"/>
<path d="M103.142 148.842C103.085 148.89 103.01 148.912 102.952 148.934C97.8717 151.205 92.6368 152.968 87.3051 154.243V154.257C87.2347 154.279 87.151 154.292 87.0806 154.305C86.3806 154.485 85.6673 154.638 84.9541 154.792C84.8836 154.805 84.8264 154.813 84.7516 154.827C81.0709 130.23 77.3814 105.637 73.6875 81.0449H81.5376C88.7404 103.634 95.9345 126.244 103.142 148.842Z" fill="#92CB7B"/>
<path d="M120.002 138.991C116.035 141.947 111.866 144.525 107.569 146.726C107.498 146.774 107.428 146.809 107.353 146.844V146.831C105.966 147.541 104.553 148.216 103.14 148.839C103.082 148.887 103.007 148.909 102.95 148.935C95.7914 126.303 88.6061 103.675 81.4473 81.042H89.2841C99.5205 100.364 109.77 119.673 120.002 138.991Z" fill="#1BB16B"/>
<path d="M76.6887 33.2854C76.6887 36.4905 75.7113 39.4061 74.0603 41.651C72.0923 44.3957 69.1644 46.1275 65.8756 46.1275C62.5603 46.1275 59.5841 44.3562 57.6029 41.5501C56.0091 39.3185 55.0625 36.4291 55.0625 33.2811C55.0625 32.9259 55.0757 32.5664 55.1065 32.2113C55.1505 31.6237 55.221 31.0669 55.3222 30.5101C56.3129 25.1172 60.1608 21.0002 64.9026 20.5004C65.2196 20.4565 65.5498 20.4434 65.88 20.4434C66.197 20.4434 66.514 20.4565 66.8266 20.4872C71.5639 20.9739 75.4427 25.1084 76.4201 30.5145C76.5214 31.045 76.5918 31.5755 76.6359 32.1148C76.6755 32.5006 76.6887 32.8865 76.6887 33.2854Z" fill="#F7C4BA"/>
<path d="M65.8157 23.1754C65.8157 24.8897 65.2962 26.4769 64.3936 27.7966C62.9143 29.9713 60.4004 31.4006 57.5562 31.4006C56.2222 31.4006 54.9718 31.0849 53.8535 30.515C54.8441 25.1221 58.6921 21.0051 63.4339 20.5052C63.7508 20.4614 64.0811 20.4482 64.4113 20.4482C64.7283 20.4482 65.0408 20.4614 65.3578 20.4921C65.6572 21.3295 65.8157 22.2283 65.8157 23.1754Z" fill="#231F20"/>
<path d="M74.9481 30.5115C73.8254 31.0859 72.5618 31.3972 71.2146 31.3972C68.3704 31.3972 65.874 29.9679 64.3947 27.7932C63.4922 26.4778 62.9727 24.8907 62.9727 23.1719C62.9727 22.2293 63.1311 21.3261 63.4305 20.4974C63.7475 20.4536 64.0777 20.4404 64.4079 20.4404C64.7205 20.4404 65.0376 20.4536 65.3545 20.4843C70.0963 20.9753 73.9751 25.1055 74.9481 30.5115Z" fill="#231F20"/>
<path d="M40.9873 40.0467C30.9579 34.9388 18.6699 38.8936 13.5407 48.8814L5.24159 65.0382C0.112411 75.026 4.08365 87.263 14.1131 92.3709C24.1425 97.4788 36.4305 93.524 41.5597 83.5362L49.8588 67.3795C54.988 57.3917 51.0167 45.1546 40.9873 40.0467Z" fill="white"/>
<path d="M79.0459 25.3462C78.6012 25.0436 78.4648 24.4473 78.7333 23.9826C79.2 23.1715 78.4295 22.2113 77.5314 22.4831C77.0163 22.641 76.4659 22.3779 76.2678 21.8781C75.9244 21.0099 74.6872 21.0099 74.3438 21.8781C74.1457 22.3779 73.5954 22.641 73.0802 22.4831C72.7676 22.3867 72.4771 22.448 72.2437 22.5927C72.1689 22.4437 72.0676 22.3033 71.9091 22.1981C71.4644 21.8956 71.328 21.2993 71.5965 20.8346C72.0632 20.0234 71.2927 19.0632 70.3946 19.3351C69.8794 19.4929 69.3291 19.2298 69.131 18.73C68.7876 17.8619 67.5504 17.8619 67.207 18.73C67.0089 19.2298 66.4629 19.4929 65.9434 19.3351C65.0452 19.0632 64.2748 20.0234 64.7415 20.8346C65.0056 21.2905 64.8735 21.8693 64.4509 22.1762C64.4289 22.1587 64.4112 22.1324 64.3892 22.1192C63.9446 21.8167 63.8081 21.2204 64.0767 20.7556C64.5433 19.9445 63.7729 18.9843 62.8791 19.2561C62.364 19.414 61.8136 19.1509 61.6155 18.6511C61.2721 17.783 60.0349 17.783 59.6915 18.6511C59.4934 19.1509 58.9431 19.414 58.4279 19.2561C57.5298 18.9843 56.7593 19.9445 57.2304 20.7556C57.499 21.2204 57.3625 21.8167 56.9178 22.1192C56.6184 22.3253 56.4775 22.6278 56.4687 22.9347C55.9888 22.8426 55.6278 22.4437 55.6234 21.9482C55.6146 21.0143 54.4611 20.5715 53.8315 21.2598C53.4661 21.6544 52.8585 21.7027 52.4314 21.3738C51.6918 20.7951 50.6263 21.4177 50.7716 22.3428C50.8553 22.8733 50.5119 23.3775 49.9879 23.5047C49.0766 23.7195 48.9005 24.9384 49.715 25.4032C50.1817 25.6706 50.3665 26.2494 50.1376 26.736C49.737 27.5822 50.5823 28.4767 51.454 28.1303C51.956 27.933 52.5283 28.1522 52.766 28.6345C53.1799 29.4719 54.4083 29.3711 54.6856 28.481C54.8397 27.9681 55.3681 27.6612 55.8964 27.7752C56.8121 27.9768 57.499 26.9553 56.9662 26.1836C56.658 25.7408 56.7505 25.1401 57.1688 24.7981C57.4153 24.5964 57.5298 24.329 57.543 24.0615C57.9657 24.215 58.2562 24.6183 58.2254 25.0875C58.1594 26.017 59.2689 26.5519 59.9601 25.9205C60.3563 25.5566 60.9683 25.5566 61.3646 25.9205C62.0558 26.5519 63.1653 26.0214 63.0992 25.0875C63.0596 24.5482 63.4426 24.0747 63.9754 23.9957C64.1251 23.9738 64.2528 23.9124 64.3672 23.8423C64.5037 23.9563 64.671 24.044 64.8735 24.0747C65.4063 24.158 65.7849 24.6315 65.7497 25.1708C65.6836 26.1003 66.7931 26.6352 67.4844 25.9994C67.8806 25.6355 68.4926 25.6355 68.8888 25.9994C69.5801 26.6352 70.6895 26.1003 70.6235 25.1708C70.5839 24.6315 70.9625 24.158 71.4996 24.0747C71.6449 24.0527 71.7638 24.0001 71.8783 23.9344C71.8871 23.9519 71.8915 23.9738 71.9003 23.9914C72.1688 24.4561 72.0324 25.048 71.5877 25.3549C70.8128 25.8811 71.0858 27.0824 72.0148 27.2227C72.5475 27.3016 72.9305 27.7795 72.8909 28.3144C72.8249 29.2483 73.9343 29.7789 74.6256 29.1475C75.0218 28.7836 75.6338 28.7836 76.03 29.1475C76.7213 29.7832 77.8308 29.2483 77.7647 28.3144C77.7251 27.7795 78.1037 27.3016 78.6409 27.2227C79.5434 27.0693 79.8208 25.8723 79.0459 25.3462Z" fill="#E52226"/>
<path d="M118.29 72.3301L125.493 77.6572L103.598 108.024L98.6406 98.6719L118.29 72.3301Z" fill="#F7C4BA"/>
<path d="M126.756 65.215L118.364 48.8785C113.235 38.8907 100.947 34.9359 90.9178 40.0438C80.8884 45.1517 76.9171 57.3887 82.0463 67.3765L90.4379 83.713C95.567 93.7008 107.855 97.6556 117.884 92.5477C127.918 87.4442 131.89 75.2028 126.756 65.215Z" fill="white"/>
<path d="M87.277 217.402H67.293V214.048H67.2754V188.544H77.9168V210.585C77.9168 212.496 79.4709 214.044 81.3905 214.044H83.9089C85.7713 214.053 87.277 215.552 87.277 217.402Z" fill="black"/>
<path d="M59.909 188.549V217.403H40.3477C40.3477 215.548 41.8534 214.049 43.7157 214.049H45.7894C47.709 214.049 49.2632 212.501 49.2632 210.59V188.549H59.909V188.549Z" fill="black"/>
<path d="M66.6266 40.7795C66.543 41.88 65.6052 42.7481 64.4825 42.7481C63.3334 42.7481 62.422 41.88 62.334 40.7795H62.4837C62.7611 40.7795 63.1397 40.2621 63.1837 40.1656C63.2982 39.9201 63.5447 39.7842 63.8221 39.7842C64.0995 39.7842 64.3548 39.9333 64.5045 40.1656C64.6102 39.9333 64.8656 39.7842 65.1429 39.7842C65.4203 39.7842 65.6536 39.9289 65.8033 40.1656C65.8518 40.2402 66.248 40.7795 66.5034 40.7795H66.6266Z" fill="#E52226"/>
<path d="M195.002 387.684C194.277 385.414 191.989 384.134 189.785 384.692C189.549 382.413 187.682 380.634 185.415 380.634C183.059 380.634 181.142 382.556 181.032 384.973C178.807 384.461 176.544 385.8 175.874 388.096C175.208 390.387 176.363 392.8 178.482 393.652C177.408 395.662 177.943 398.231 179.797 399.586C181.685 400.967 184.256 400.577 185.706 398.764C187.21 400.451 189.726 400.732 191.542 399.33C193.405 397.903 193.856 395.255 192.646 393.262C194.669 392.309 195.71 389.917 195.002 387.684ZM185.457 393.656C183.881 393.656 182.6 392.33 182.6 390.698C182.6 389.061 183.877 387.739 185.457 387.739C187.033 387.739 188.314 389.065 188.314 390.698C188.31 392.334 187.033 393.656 185.457 393.656Z" fill="#E52226"/>
<path d="M188.308 390.698C188.308 392.335 187.031 393.661 185.451 393.661C183.875 393.661 182.594 392.335 182.594 390.698C182.594 389.061 183.871 387.739 185.451 387.739C187.031 387.735 188.308 389.061 188.308 390.698Z" fill="#F19B96"/>
<path d="M193.883 367.028C193.925 363.973 192.829 361.022 191.54 358.32L190.158 359.633C191.742 355.831 187.195 351.487 185.459 349.003C183.411 351.974 179.31 355.52 180.76 359.633C180.423 359.31 179.715 358.634 179.378 358.32C177.713 362.03 175.298 367.594 178.868 370.859C178.556 370.78 177.675 370.553 177.347 370.469C178.312 380.155 192.61 380.155 193.575 370.469L192.054 370.859C193.112 369.928 193.807 368.56 193.883 367.028Z" fill="#E52226"/>
<path d="M185.46 349V377.735C181.642 377.735 177.832 375.313 177.343 370.47C177.672 370.554 178.553 370.781 178.865 370.861C175.299 367.6 177.714 362.035 179.379 358.321C179.712 358.636 180.42 359.311 180.761 359.634C179.311 355.526 183.408 351.975 185.46 349Z" fill="#F48D83"/>
<path d="M160.346 365.14C160.182 363.86 160.14 362.698 160.228 361.628C161.227 361.468 162.116 360.776 162.517 359.735C163.119 358.161 162.377 356.378 160.86 355.752C159.339 355.127 157.62 355.899 157.017 357.473C156.499 358.824 156.975 360.331 158.087 361.124C157.957 362.446 157.99 363.877 158.189 365.447C158.281 366.147 158.395 366.815 158.534 367.444C156.435 365.698 154.311 363.781 151.985 361.632C152.002 361.598 152.015 361.569 152.027 361.531C152.63 359.962 151.888 358.178 150.371 357.548C148.854 356.923 147.131 357.695 146.528 359.265C145.925 360.839 146.667 362.626 148.184 363.252C148.938 363.562 149.743 363.529 150.439 363.218C152.756 365.363 154.876 367.276 156.971 369.026C156.41 369.173 155.837 369.354 155.251 369.568C154.016 370.021 152.929 370.537 151.964 371.133C151.817 371.003 151.657 370.89 151.484 370.793C150.043 369.983 148.251 370.533 147.468 372.023C146.688 373.513 147.219 375.372 148.652 376.182C150.089 376.992 151.884 376.442 152.664 374.952C152.971 374.369 153.077 373.731 153.005 373.118V373.114C153.861 372.573 154.847 372.107 155.976 371.691C157.135 371.267 158.21 370.99 159.229 370.856C161.176 372.384 163.153 373.785 165.29 375.107C163.355 375.741 161.53 376.648 159.878 377.521C159.836 377.542 159.79 377.567 159.744 377.592C159.672 377.533 159.596 377.474 159.516 377.424C158.138 376.513 156.309 376.933 155.428 378.36C154.556 379.791 154.961 381.688 156.334 382.599C157.712 383.505 159.546 383.085 160.418 381.654C160.822 381.004 160.953 380.244 160.844 379.535C160.852 379.531 160.856 379.531 160.86 379.527C163.128 378.335 165.526 377.16 168.037 376.702C168.252 376.82 168.463 376.937 168.678 377.051C168.682 377.059 168.682 377.067 168.682 377.072L168.699 377.063C170.953 378.272 173.419 379.43 176.221 380.572L177.018 378.473C174.607 377.483 172.449 376.488 170.46 375.452C169.681 372.736 169.761 369.794 169.938 366.978C170.966 366.84 171.897 366.143 172.306 365.069C172.909 363.495 172.171 361.712 170.65 361.082C169.129 360.457 167.409 361.229 166.802 362.803C166.297 364.12 166.735 365.589 167.789 366.395C167.784 366.466 167.784 366.534 167.776 366.597C167.624 368.93 167.527 371.523 167.928 374.062C165.694 372.774 163.667 371.41 161.691 369.92C161.033 368.607 160.591 367.033 160.346 365.14Z" fill="#E52226"/>
<path d="M211.221 365.14C211.385 363.86 211.427 362.698 211.339 361.628C210.34 361.468 209.451 360.776 209.05 359.735C208.448 358.161 209.189 356.378 210.706 355.752C212.224 355.127 213.947 355.899 214.554 357.473C215.072 358.824 214.596 360.331 213.484 361.124C213.614 362.446 213.581 363.877 213.378 365.447C213.286 366.147 213.172 366.815 213.033 367.444C215.131 365.698 217.255 363.781 219.582 361.632C219.565 361.598 219.552 361.569 219.539 361.531C218.937 359.962 219.674 358.178 221.196 357.548C222.717 356.923 224.436 357.695 225.039 359.265C225.642 360.839 224.9 362.626 223.379 363.252C222.624 363.562 221.819 363.529 221.124 363.218C218.806 365.363 216.686 367.276 214.592 369.026C215.148 369.173 215.726 369.354 216.311 369.568C217.546 370.021 218.633 370.537 219.598 371.133C219.746 371.003 219.906 370.89 220.079 370.793C221.52 369.983 223.311 370.533 224.095 372.023C224.875 373.513 224.344 375.372 222.911 376.182C221.478 376.992 219.678 376.442 218.899 374.952C218.591 374.369 218.486 373.731 218.557 373.118V373.114C217.698 372.573 216.716 372.107 215.586 371.691C214.428 371.267 213.353 370.99 212.333 370.856C210.386 372.384 208.41 373.785 206.273 375.107C208.212 375.741 210.032 376.648 211.684 377.521C211.726 377.542 211.773 377.567 211.819 377.592C211.891 377.533 211.966 377.474 212.047 377.424C213.425 376.513 215.254 376.933 216.134 378.36C217.011 379.791 216.606 381.688 215.228 382.599C213.85 383.505 212.017 383.085 211.145 381.654C210.74 381.004 210.609 380.244 210.723 379.535C210.719 379.531 210.711 379.531 210.706 379.527C208.439 378.335 206.041 377.16 203.525 376.702C203.31 376.82 203.1 376.937 202.885 377.051C202.881 377.059 202.881 377.067 202.881 377.072L202.864 377.063C200.609 378.272 198.144 379.43 195.341 380.572L194.545 378.473C196.955 377.483 199.113 376.488 201.102 375.452C201.882 372.736 201.802 369.794 201.625 366.978C200.592 366.84 199.665 366.143 199.256 365.069C198.654 363.495 199.391 361.712 200.913 361.082C202.434 360.457 204.153 361.229 204.76 362.803C205.266 364.12 204.828 365.589 203.774 366.395C203.778 366.466 203.782 366.534 203.787 366.597C203.938 368.93 204.04 371.523 203.635 374.062C205.869 372.774 207.896 371.41 209.872 369.92C210.529 368.607 210.976 367.033 211.221 365.14Z" fill="#E52226"/>
<path d="M177.679 414.854C177.637 417.909 178.732 420.859 180.022 423.562L181.404 422.248C179.82 426.051 184.363 430.394 186.103 432.879C188.151 429.907 192.252 426.361 190.802 422.248C191.139 422.571 191.847 423.243 192.184 423.562C193.849 419.852 196.264 414.287 192.694 411.022C193.006 411.102 193.887 411.328 194.215 411.412C193.25 401.726 178.956 401.731 177.987 411.412L179.508 411.022C178.45 411.954 177.755 413.322 177.679 414.854Z" fill="#F48D83"/>
<path d="M186.102 432.879V404.145C189.92 404.145 193.729 406.57 194.214 411.409C193.885 411.325 193.004 411.098 192.693 411.019C196.258 414.28 193.843 419.849 192.178 423.559C191.845 423.244 191.137 422.568 190.796 422.245C192.254 426.358 188.154 429.908 186.102 432.879Z" fill="#E52226"/>
<path d="M211.221 416.738C211.385 418.018 211.427 419.18 211.339 420.25C210.34 420.414 209.451 421.102 209.05 422.143C208.448 423.717 209.189 425.505 210.706 426.126C212.224 426.751 213.947 425.983 214.554 424.405C215.072 423.058 214.596 421.547 213.484 420.754C213.614 419.432 213.581 418.001 213.378 416.436C213.286 415.735 213.172 415.067 213.033 414.434C215.131 416.18 217.255 418.098 219.582 420.246C219.565 420.28 219.552 420.309 219.539 420.347C218.937 421.917 219.674 423.7 221.196 424.325C222.717 424.951 224.436 424.179 225.039 422.609C225.642 421.035 224.9 419.247 223.379 418.622C222.624 418.312 221.819 418.345 221.124 418.656C218.806 416.511 216.686 414.597 214.592 412.847C215.148 412.696 215.726 412.516 216.311 412.306C217.546 411.853 218.633 411.337 219.598 410.736C219.746 410.867 219.906 410.98 220.079 411.076C221.52 411.886 223.311 411.337 224.095 409.847C224.875 408.357 224.344 406.498 222.911 405.688C221.478 404.878 219.678 405.428 218.899 406.917C218.591 407.501 218.486 408.139 218.557 408.751V408.756C217.698 409.297 216.716 409.763 215.586 410.178C214.428 410.602 213.353 410.879 212.333 411.018C210.386 409.49 208.41 408.088 206.273 406.766C208.212 406.133 210.032 405.222 211.684 404.353C211.726 404.332 211.773 404.307 211.819 404.282C211.891 404.341 211.966 404.395 212.047 404.45C213.425 405.36 215.254 404.941 216.134 403.514C217.011 402.083 216.606 400.186 215.228 399.275C213.85 398.369 212.017 398.784 211.145 400.215C210.74 400.87 210.609 401.625 210.723 402.335C210.719 402.339 210.711 402.339 210.706 402.343C208.439 403.535 206.041 404.71 203.525 405.163C203.31 405.046 203.1 404.928 202.885 404.815C202.881 404.807 202.881 404.798 202.881 404.794L202.864 404.802C200.609 403.594 198.144 402.435 195.341 401.294L194.545 403.392C196.955 404.378 199.113 405.377 201.102 406.414C201.882 409.125 201.802 412.071 201.625 414.887C200.592 415.026 199.665 415.726 199.256 416.797C198.654 418.37 199.391 420.154 200.913 420.783C202.434 421.409 204.153 420.637 204.76 419.063C205.266 417.741 204.828 416.276 203.774 415.47C203.778 415.399 203.782 415.332 203.787 415.269C203.938 412.936 204.04 410.342 203.635 407.803C205.869 409.091 207.896 410.455 209.872 411.945C210.529 413.271 210.976 414.849 211.221 416.738Z" fill="#E52226"/>
<path d="M160.346 416.738C160.182 418.018 160.14 419.18 160.228 420.25C161.227 420.414 162.116 421.102 162.517 422.143C163.119 423.717 162.377 425.505 160.86 426.126C159.339 426.751 157.62 425.983 157.017 424.405C156.499 423.058 156.975 421.547 158.087 420.754C157.957 419.432 157.99 418.001 158.189 416.436C158.281 415.735 158.395 415.067 158.534 414.434C156.435 416.18 154.311 418.098 151.985 420.246C152.002 420.28 152.015 420.309 152.027 420.347C152.63 421.917 151.888 423.7 150.371 424.325C148.854 424.951 147.131 424.179 146.528 422.609C145.925 421.035 146.667 419.247 148.184 418.622C148.938 418.312 149.743 418.345 150.439 418.656C152.756 416.511 154.876 414.597 156.971 412.847C156.41 412.696 155.837 412.516 155.251 412.306C154.016 411.853 152.929 411.337 151.964 410.736C151.817 410.867 151.657 410.98 151.484 411.076C150.043 411.886 148.251 411.337 147.468 409.847C146.688 408.357 147.219 406.498 148.652 405.688C150.089 404.878 151.884 405.428 152.664 406.917C152.971 407.501 153.077 408.139 153.005 408.751V408.756C153.861 409.297 154.847 409.763 155.976 410.178C157.135 410.602 158.21 410.879 159.229 411.018C161.176 409.49 163.153 408.088 165.29 406.766C163.355 406.133 161.53 405.222 159.878 404.353C159.836 404.332 159.79 404.307 159.744 404.282C159.672 404.341 159.596 404.395 159.516 404.45C158.138 405.36 156.309 404.941 155.428 403.514C154.556 402.083 154.961 400.186 156.334 399.275C157.712 398.369 159.546 398.784 160.418 400.215C160.822 400.87 160.953 401.625 160.844 402.335C160.852 402.339 160.856 402.339 160.86 402.343C163.128 403.535 165.526 404.71 168.037 405.163C168.252 405.046 168.463 404.928 168.678 404.815C168.682 404.807 168.682 404.798 168.682 404.794L168.699 404.802C170.953 403.594 173.419 402.435 176.221 401.294L177.018 403.392C174.607 404.378 172.449 405.377 170.46 406.414C169.681 409.125 169.761 412.071 169.938 414.887C170.966 415.026 171.897 415.726 172.306 416.797C172.909 418.37 172.171 420.154 170.65 420.783C169.129 421.409 167.409 420.637 166.802 419.063C166.297 417.741 166.735 416.276 167.789 415.47C167.784 415.399 167.784 415.332 167.776 415.269C167.624 412.936 167.527 410.342 167.928 407.803C165.694 409.091 163.667 410.455 161.691 411.945C161.033 413.271 160.591 414.849 160.346 416.738Z" fill="#E52226"/>
<path d="M148.6 385.993C153.101 385.993 155.296 388.78 155.296 390.941C155.296 393.102 153.101 395.885 148.6 395.885C144.099 395.885 139 390.941 139 390.941C139 390.941 144.099 385.993 148.6 385.993Z" fill="#F48D83"/>
<path d="M223.204 385.993C218.703 385.993 216.508 388.78 216.508 390.941C216.508 393.102 218.703 395.885 223.204 395.885C227.705 395.885 232.804 390.941 232.804 390.941C232.804 390.941 227.705 385.993 223.204 385.993Z" fill="#F48D83"/>
<path d="M49.9302 375.137C47.746 378.905 43.6554 381.444 38.9651 381.444C34.2748 381.444 30.1842 378.905 28 375.137C30.1842 371.369 34.2748 368.83 38.9651 368.83C43.6554 368.835 47.746 371.374 49.9302 375.137Z" fill="#F7C4BA"/>
<path d="M103.001 375.137C100.816 378.905 96.7257 381.444 92.0354 381.444C87.3452 381.444 83.2546 378.905 81.0703 375.137C83.2546 371.369 87.3452 368.83 92.0354 368.83C96.7257 368.835 100.816 371.374 103.001 375.137Z" fill="#F7C4BA"/>
<path d="M94.4342 402.158C94.8437 412.451 88.0569 421.589 88.0569 421.589L87.0526 417.112L86.8186 417.84C84.0541 426.371 67.5211 440.257 67.5211 440.257C67.7405 440.544 66.0682 437.339 62.8552 435.004C58.4185 431.78 55.2055 430.333 51.4172 424.948L51.9974 430.518C51.9974 430.518 43.8845 424.667 41.8416 418.753C40.3692 414.49 40.0279 405.833 40.0279 405.833L37.7267 414.048C37.7267 414.048 35.5424 408.47 36.0007 402.162C37.244 385.009 49.0818 371.011 65.215 371.011C81.3579 371.006 93.7565 384.97 94.4342 402.158Z" fill="#F48D83"/>
<path d="M50.3762 364.059C50.3762 364.059 31.8539 359.019 43.838 343.186C44.0672 342.88 43.6869 342.496 43.3846 342.724C37.5778 347.162 23.3607 359.883 43.7552 370.846L48.9281 373.536L50.3762 364.059Z" fill="#F7C4BA"/>
<path d="M81.0703 364.058C81.0703 364.058 99.3683 359.076 87.8278 343.476C87.5646 343.122 88.0082 342.68 88.3544 342.947C94.3269 347.569 107.764 360.062 87.7011 370.846L82.5281 373.536L81.0703 364.058Z" fill="#F7C4BA"/>
<path d="M70.7295 421.321H60.681C52.8167 421.321 49.3892 412.164 49.3892 404.333L43.1777 380.731L46.4444 362.373H84.9758L88.023 380.794L81.9189 404.129C81.914 411.96 78.5937 421.321 70.7295 421.321Z" fill="#F7C4BA"/>
<path d="M57.4932 384.121C57.4932 385.743 56.1719 387.059 54.5435 387.059C52.915 387.059 51.5938 385.743 51.5938 384.121C51.5938 382.499 52.915 381.184 54.5435 381.184C56.1719 381.184 57.4932 382.499 57.4932 384.121Z" fill="#E52226"/>
<path d="M81.0713 384.121C81.0713 385.743 79.75 387.059 78.1216 387.059C76.4931 387.059 75.1719 385.743 75.1719 384.121C75.1719 382.499 76.4931 381.184 78.1216 381.184C79.7549 381.184 81.0713 382.499 81.0713 384.121Z" fill="#E52226"/>
<path d="M43.082 352.249C47.5334 341.893 77.4107 335.629 88.0833 352.249C89.0194 353.71 90.2237 357.658 89.0194 362.411C88.8342 363.139 88.3027 364.63 88.3027 364.63L86.2647 363.096C86.2647 363.096 78.9173 376.725 68.5226 379.798C68.4056 379.798 52.1505 368.718 52.1505 368.718L52.3114 372.976C52.3114 372.976 48.6352 370.859 47.8357 370.131C43.1746 365.892 39.8105 359.867 43.082 352.249Z" fill="#F48D83"/>
<path d="M81.9144 404.128V411.571C81.9144 416.951 77.5362 421.321 72.1243 421.321H66.7222H65.1523H59.1895C53.7777 421.321 49.3945 416.956 49.3945 411.571V404.327C49.9601 404.104 50.55 403.919 51.1595 403.793C52.042 403.589 52.9537 403.487 53.8995 403.487C54.8454 403.487 55.762 403.589 56.6396 403.793C59.3943 404.405 61.8077 405.93 63.5434 408.027C64.7964 409.547 67.0684 409.547 68.3214 408.027C70.0571 405.93 72.4705 404.405 75.2301 403.793C76.1077 403.589 77.0243 403.487 77.9701 403.487C78.916 403.487 79.8326 403.589 80.7102 403.793C81.1197 403.881 81.5195 403.992 81.9144 404.128Z" fill="#E52226"/>
<path d="M62.6663 416.457C61.6376 417.331 59.7995 416.86 58.5514 415.409C57.3081 413.957 57.1277 412.073 58.1564 411.199C59.1852 410.325 61.0233 410.796 62.2714 412.248C63.5195 413.7 63.6951 415.583 62.6663 416.457Z" fill="#F3B5B5"/>
<path d="M69.8986 416.457C70.9273 417.331 72.7654 416.86 74.0135 415.409C75.2568 413.957 75.4372 412.073 74.4084 411.199C73.3797 410.325 71.5416 410.796 70.2935 412.248C69.0502 413.7 68.8747 415.583 69.8986 416.457Z" fill="#F3B5B5"/>
</svg>
