<svg width="966" height="853" fill="none" xmlns="http://www.w3.org/2000/svg"><g clip-path="url(#clip0)"><path d="M966.25 1.11H565.811v597.08H966.25V1.11z" fill="#E1DFDE"/><path d="M966.45 0H565.811v208.051H966.45V0z" fill="#F7C4BA"/><path d="M312 0H0v479.497h312V0z" fill="#E8F1CF"/><path d="M44 145.343l-16.35 12.265 49.72 69.916 11.26-21.532L44 145.343z" fill="#F7C4BA"/><path d="M140.13 73.671l-.71 1.989 11.81 35.866 9.22 6.834 18.43-39.672-2.68-6.763-36.07 1.746z" fill="#fff"/><path d="M144.98 273.515h-24.15v184.954h24.15V273.515zM185.791 273.515h-24.15v184.954h24.15V273.515z" fill="#F7C4BA"/><path d="M212.86 85.986v79.506H105.84V85.986h17.15c.2.04.39.04.59.04.2 0 .39 0 .59-.04 6.95-.212 12.82-4.916 15.5-11.528l18.92 40.914 18.72-40.682c2.74 6.219 8.48 11.084 15.13 11.296.2.04.39.04.59.04.2 0 .39 0 .59-.04h19.24z" fill="#000"/><path d="M124.17 93.053c-.2.03-.39.03-.59.03-.19 0-.39 0-.59-.03h1.18zM193.61 93.053c-.2.03-.39.03-.59.03-.19 0-.39 0-.59-.03h1.18z" fill="#231F20"/><path d="M201.77 335.194c-.16.03-.29.05-.46.081a202.043 202.043 0 01-42.4 4.492h-.51c.05-58.125.08-116.24.14-174.366h17.82l25.41 169.793z" fill="#B2D793"/><path d="M294.89 324.655c-12.97 11.518-26.99 21.128-41.74 28.8a3.38 3.38 0 01-.49.273 204.125 204.125 0 01-45.55 17.07c-.16.05-.35.081-.51.111-15.64 3.785-31.66 5.663-47.68 5.713h-.54c-16.02-.05-32.04-1.928-47.68-5.713-.16-.03-.35-.051-.51-.111a203.991 203.991 0 01-45.58-17.07l-.48-.243v-.03c-14.72-7.672-28.75-17.292-41.72-28.8 4.5-8.601 9.01-17.232 13.51-25.832a197.77 197.77 0 0028.21 17.807c.16.111.32.192.48.272v-.03c3.16 1.635 6.36 3.19 9.58 4.623.14.111.3.162.43.222 11.54 5.23 23.43 9.277 35.57 12.225v.03c.16.051.35.081.51.111 1.59.404 3.21.758 4.83 1.111.16.03.3.05.46.081a202.02 202.02 0 0042.39 4.492h.54c14.21 0 28.42-1.494 42.4-4.492.16-.031.29-.051.46-.081 1.62-.353 3.24-.707 4.83-1.111.16-.03.35-.05.51-.111v-.03c12.11-2.948 24-6.995 35.54-12.225.13-.05.3-.111.43-.222 3.21-1.443 6.42-2.998 9.58-4.623v.03c.16-.08.32-.161.49-.272a199.087 199.087 0 0028.23-17.807c4.5 8.6 9 17.231 13.5 25.832z" fill="#000"/><path d="M123.49 165.401C107.2 217.51 90.91 269.609 74.62 321.717c-.13-.05-.3-.111-.43-.222a203.199 203.199 0 01-9.58-4.623v.03c-.16-.081-.32-.161-.48-.272a198.002 198.002 0 01-28.21-17.807c23.25-44.488 46.49-88.934 69.74-133.422h17.83z" fill="#1BB16B"/><path d="M110.189 370.808c.16.05.35.08.51.111v.03c-.16-.061-.35-.091-.51-.141z" fill="#51B27F"/><path d="M141.12 165.401c-8.39 56.621-16.78 113.253-25.13 169.874-.16-.031-.3-.051-.46-.081-1.62-.354-3.24-.707-4.83-1.111-.16-.03-.35-.05-.52-.111v-.02c-12.13-2.947-24.03-6.995-35.57-12.225-.14-.05-.3-.111-.43-.222 16.37-52.028 32.74-104.076 49.11-156.094h17.83v-.01z" fill="#92CB7B"/><path d="M158.889 339.767h-.51a202.02 202.02 0 01-42.39-4.492c-.16-.031-.3-.051-.46-.081l25.4-169.793h17.8c.06 58.126.11 116.241.16 174.366z" fill="#E9F2E1"/><path d="M206.6 370.908c.16-.03.35-.05.51-.111-.16.051-.35.081-.51.132v-.021z" fill="#FCD0B0"/><path d="M243.089 321.505c-.13.111-.3.162-.43.212a200.643 200.643 0 01-35.54 12.225v.03c-.16.05-.35.081-.51.111-1.59.414-3.21.767-4.83 1.121-.16.03-.29.05-.46.08-8.36-56.631-16.74-113.252-25.13-169.873h17.83c16.36 52.008 32.7 104.066 49.07 156.094z" fill="#92CB7B"/><path d="M281.381 298.823a199.182 199.182 0 01-28.24 17.807c-.16.111-.32.191-.49.272v-.03a181.07 181.07 0 01-9.57 4.623c-.13.111-.3.162-.43.222-16.26-52.108-32.58-104.207-48.84-156.316h17.8c23.25 44.488 46.53 88.945 69.77 133.422z" fill="#1BB16B"/><path d="M183.011 55.45c0 7.38-2.22 14.092-5.97 19.26-4.47 6.32-11.12 10.307-18.59 10.307-7.53 0-14.29-4.078-18.79-10.538-3.62-5.139-5.77-11.791-5.77-19.039 0-.818.03-1.645.1-2.463.1-1.353.26-2.635.49-3.917 2.25-12.416 10.99-21.895 21.76-23.046.72-.1 1.47-.131 2.22-.131.72 0 1.44.03 2.15.1 10.76 1.121 19.57 10.64 21.79 23.087.23 1.222.39 2.443.49 3.685.09.888.12 1.776.12 2.695z" fill="#F7C4BA"/><path d="M161.651 32.172c0 3.948-1.181 7.602-3.231 10.64-3.36 5.007-9.069 8.298-15.529 8.298a18.21 18.21 0 01-8.411-2.04c2.25-12.416 10.99-21.894 21.76-23.045.72-.101 1.471-.131 2.221-.131.72 0 1.429.03 2.149.1a18.492 18.492 0 011.041 6.178z" fill="#231F20"/><path d="M182.389 49.06c-2.55 1.322-5.42 2.039-8.48 2.039-6.46 0-12.13-3.291-15.49-8.298-2.05-3.029-3.23-6.683-3.23-10.64 0-2.17.36-4.25 1.04-6.158.72-.1 1.47-.13 2.22-.13.71 0 1.43.03 2.15.1 10.77 1.13 19.58 10.64 21.79 23.087z" fill="#231F20"/><path d="M101.91 71.016c-22.78-11.76-50.69-2.655-62.34 20.34l-18.85 37.199c-11.65 22.996-2.63 51.17 20.15 62.93 22.78 11.761 50.69 2.655 62.34-20.34l18.85-37.199c11.65-22.996 2.63-51.17-20.15-62.93z" fill="#fff"/><path d="M191.709 37.169a2.389 2.389 0 01-.71-3.14c1.06-1.867-.69-4.078-2.73-3.452a2.338 2.338 0 01-2.87-1.393c-.78-2-3.59-2-4.37 0a2.338 2.338 0 01-2.87 1.393 2.237 2.237 0 00-1.9.252c-.17-.343-.4-.666-.76-.909a2.389 2.389 0 01-.71-3.139c1.06-1.867-.69-4.078-2.73-3.452a2.338 2.338 0 01-2.87-1.393c-.78-2-3.59-2-4.37 0a2.333 2.333 0 01-2.87 1.393c-2.04-.626-3.79 1.585-2.73 3.452.6 1.05.3 2.382-.66 3.09-.05-.041-.09-.102-.14-.132a2.389 2.389 0 01-.71-3.14c1.06-1.867-.69-4.078-2.72-3.452a2.338 2.338 0 01-2.87-1.393c-.78-1.999-3.59-1.999-4.37 0a2.338 2.338 0 01-2.87 1.393c-2.04-.626-3.79 1.585-2.72 3.452.61 1.07.3 2.443-.71 3.14a2.33 2.33 0 00-1.02 1.877c-1.09-.212-1.91-1.13-1.92-2.27-.02-2.151-2.64-3.17-4.07-1.586a2.344 2.344 0 01-3.18.263c-1.68-1.333-4.1.1-3.77 2.23a2.38 2.38 0 01-1.78 2.676c-2.07.494-2.47 3.3-.62 4.37a2.389 2.389 0 01.96 3.07c-.91 1.948 1.01 4.007 2.99 3.21 1.14-.455 2.44.05 2.98 1.16.94 1.929 3.73 1.696 4.36-.353a2.344 2.344 0 012.75-1.625c2.08.464 3.64-1.888 2.43-3.664a2.39 2.39 0 01.46-3.19c.56-.465.82-1.08.85-1.696a2.348 2.348 0 011.55 2.362c-.15 2.14 2.37 3.371 3.94 1.918.9-.838 2.29-.838 3.19 0 1.57 1.453 4.09.232 3.94-1.918a2.357 2.357 0 011.99-2.514c.34-.05.63-.191.89-.353.31.262.69.464 1.15.535 1.21.192 2.07 1.282 1.99 2.524-.15 2.14 2.37 3.371 3.94 1.908.9-.838 2.29-.838 3.19 0 1.57 1.463 4.09.232 3.94-1.908a2.366 2.366 0 011.99-2.524c.33-.05.6-.172.86-.323.02.04.03.09.05.131.61 1.07.3 2.433-.71 3.14-1.76 1.211-1.14 3.977.97 4.3 1.21.182 2.08 1.282 1.99 2.514-.15 2.15 2.37 3.371 3.94 1.918.9-.838 2.29-.838 3.19 0 1.57 1.463 4.09.232 3.94-1.918-.09-1.232.77-2.332 1.99-2.514 2.05-.353 2.68-3.11.92-4.32z" fill="#E52226"/><path d="M277.489 145.343l16.36 12.265-49.73 69.916-11.26-21.532 44.63-60.649z" fill="#F7C4BA"/><path d="M296.72 128.959l-19.06-37.612c-11.65-22.996-39.561-32.101-62.341-20.341-22.78 11.76-31.8 39.934-20.15 62.93l19.06 37.613c11.65 22.995 39.56 32.101 62.34 20.34 22.79-11.75 31.811-39.934 20.151-62.93z" fill="#fff"/><path d="M207.049 479.356h-45.39v-7.723h-.04v-58.72h24.17v50.746c0 4.401 3.53 7.964 7.89 7.964h5.72c4.23.02 7.65 3.473 7.65 7.733zM144.889 412.922v66.433h-44.43c0-4.27 3.42-7.722 7.65-7.722h4.71c4.36 0 7.89-3.563 7.89-7.965v-50.746h24.18z" fill="#000"/><path d="M163.49 72.702c-.19 2.533-2.32 4.532-4.87 4.532-2.61 0-4.68-1.999-4.88-4.532h.34c.63 0 1.49-1.192 1.59-1.414.26-.565.82-.878 1.45-.878s1.21.343 1.55.878c.24-.535.82-.878 1.45-.878s1.16.333 1.5.878c.11.172 1.01 1.414 1.59 1.414h.28z" fill="#E52226"/><path d="M217.971 494.629l-1.33.212 1.29-.222h.02l.02.01z" fill="#F19B96"/><path d="M311.24 521.794v41.055l-32.539-9.257-186.19-53.048L19 479.497l144.461.111L216 494.639l.5.081.12.121h.01l60.55 17.272 34.06 9.681z" fill="#1BB16B"/><path d="M311.239 521.794l-34.06-9.681-60.55-17.272 62.07 17.676 32.54 9.277zM217.971 494.629l-1.33.212 1.29-.222h.02l.02.01z" fill="#F1F0EF"/><path d="M91 500.098v41.986L0 515.809v-36.312h19l72 20.601z" fill="#F7C4BA"/><path d="M297 600.633H151.027L116 590.652V549.15l73.581 20.919L297 600.633z" fill="#B2D793"/><path d="M151 600.633H0v-42.398l116.139 32.595L151 600.633z" fill="#1BB16B"/><path d="M311 479.497v.511l-.33-.11-32.258 5.027-60.53 9.414-.311.05h-.02l-1.302.22h-.01l-.21.03-.531-.15L163 479.497h148z" fill="#92CB7B"/><path d="M311.239 480.123l-93.27 14.506-1.34.212 1.3-.222h.02l.31-.051 60.44-9.489 32.21-5.067.33.111z" fill="#FAD6CE"/><path d="M217.971 494.629l-1.33.212 1.29-.222h.02l.02.01z" fill="#FCD2B2"/><path d="M311 562.778v37.855h-14.449l-107.007-30.599-73.299-20.942v41.765L0 558.235v-42.54l91 25.884v-41.388l188 53.502 32 9.085z" fill="#92CB7B"/><path d="M311.239 521.794l-34.06-9.681-60.55-17.272 62.07 17.676 32.54 9.277z" fill="#FCD2B2"/><path d="M311.239 480.123l-93.27 14.506-1.34.212 1.3-.222h.02l.31-.051 60.44-9.489 32.21-5.067.33.111z" fill="#FCD2B2"/><path d="M310.97 479.497l.03 42.398-32.334-9.324L216 494.639l2.5-.505 92.47-14.637z" fill="#F48D83"/><path d="M566 599.624H309V853h257V599.624z" fill="#F7C4BA"/><path d="M462.8 719.397c-1.72-5.462-7.15-8.54-12.38-7.198-.56-5.481-4.99-9.761-10.37-9.761-5.59 0-10.14 4.623-10.4 10.437-5.28-1.231-10.65 1.989-12.24 7.511-1.58 5.512 1.16 11.316 6.19 13.365-2.55 4.836-1.28 11.014 3.12 14.274 4.48 3.321 10.58 2.382 14.02-1.978 3.57 4.058 9.54 4.734 13.85 1.362 4.42-3.432 5.49-9.802 2.62-14.597 4.8-2.291 7.27-8.045 5.59-13.415zm-22.65 14.364c-3.74 0-6.78-3.19-6.78-7.116 0-3.937 3.03-7.117 6.78-7.117 3.74 0 6.78 3.19 6.78 7.117-.01 3.936-3.04 7.116-6.78 7.116z" fill="#E52226"/><path d="M446.919 726.645c0 3.937-3.03 7.126-6.78 7.126-3.74 0-6.78-3.189-6.78-7.126 0-3.937 3.03-7.117 6.78-7.117 3.75-.01 6.78 3.18 6.78 7.117z" fill="#F19B96"/><path d="M460.15 669.711c.1-7.349-2.5-14.445-5.56-20.946l-3.28 3.159c3.76-9.145-7.03-19.593-11.15-25.57-4.86 7.148-14.59 15.678-11.15 25.57-.8-.777-2.48-2.402-3.28-3.159-3.95 8.923-9.68 22.309-1.21 30.163l-3.61-.939c2.29 23.298 36.22 23.298 38.51 0l-3.61.939c2.51-2.241 4.16-5.532 4.34-9.217z" fill="#E52226"/><path d="M440.16 626.344v69.118c-9.06 0-18.1-5.825-19.26-17.474l3.61.939c-8.46-7.844-2.73-21.229 1.22-30.163.79.757 2.47 2.382 3.28 3.16-3.44-9.883 6.28-18.423 11.15-25.58z" fill="#F48D83"/><path d="M380.57 665.168c-.39-3.079-.49-5.875-.28-8.449 2.37-.384 4.48-2.049 5.43-4.553 1.43-3.785-.33-8.075-3.93-9.579-3.61-1.505-7.69.353-9.12 4.138-1.23 3.251-.1 6.875 2.54 8.783-.31 3.18-.23 6.622.24 10.397.22 1.686.49 3.291.82 4.805-4.98-4.199-10.02-8.812-15.54-13.981.04-.081.07-.151.1-.242 1.43-3.775-.33-8.066-3.93-9.58-3.6-1.504-7.69.353-9.12 4.129-1.43 3.785.33 8.086 3.93 9.59 1.79.747 3.7.666 5.35-.081 5.5 5.158 10.53 9.762 15.5 13.971-1.33.353-2.69.787-4.08 1.302-2.93 1.09-5.51 2.332-7.8 3.766a6.53 6.53 0 00-1.14-.818c-3.42-1.948-7.67-.626-9.53 2.958-1.85 3.583-.59 8.055 2.81 10.003 3.41 1.949 7.67.626 9.52-2.957.73-1.403.98-2.938.81-4.412v-.01c2.03-1.302 4.37-2.423 7.05-3.422 2.75-1.019 5.3-1.686 7.72-2.009 4.62 3.675 9.31 7.046 14.38 10.226-4.59 1.524-8.92 3.705-12.84 5.805-.1.05-.21.111-.32.171a5.58 5.58 0 00-.54-.404c-3.27-2.19-7.61-1.181-9.7 2.252-2.07 3.442-1.11 8.005 2.15 10.195 3.27 2.181 7.62 1.171 9.69-2.271.96-1.565 1.27-3.392 1.01-5.098.02-.01.03-.01.04-.02 5.38-2.867 11.07-5.694 17.03-6.794.51.283 1.01.565 1.52.838.01.02.01.04.01.05l.04-.02c5.35 2.908 11.2 5.694 17.85 8.439l1.89-5.047c-5.72-2.382-10.84-4.775-15.56-7.268-1.85-6.531-1.66-13.608-1.24-20.381 2.44-.333 4.65-2.009 5.62-4.593 1.43-3.786-.32-8.076-3.93-9.59-3.61-1.504-7.69.353-9.13 4.139-1.2 3.169-.16 6.702 2.34 8.641-.01.171-.01.333-.03.484-.36 5.613-.59 11.851.36 17.959-5.3-3.099-10.11-6.38-14.8-9.964-1.56-3.159-2.61-6.945-3.19-11.498zM501.291 665.168c.39-3.079.49-5.875.28-8.449-2.37-.384-4.48-2.049-5.43-4.553-1.43-3.785.33-8.075 3.93-9.579 3.6-1.505 7.69.353 9.13 4.138 1.23 3.251.1 6.875-2.54 8.783.31 3.18.23 6.622-.25 10.397a57.652 57.652 0 01-.82 4.805c4.98-4.199 10.02-8.812 15.54-13.981a1.752 1.752 0 01-.1-.242c-1.43-3.775.32-8.066 3.93-9.58 3.61-1.504 7.69.353 9.12 4.129 1.43 3.785-.33 8.086-3.94 9.59-1.79.747-3.7.666-5.35-.081-5.5 5.158-10.53 9.762-15.5 13.971 1.32.353 2.69.787 4.08 1.302 2.93 1.09 5.51 2.332 7.8 3.766a6.53 6.53 0 011.14-.818c3.42-1.948 7.67-.626 9.53 2.958 1.85 3.583.59 8.055-2.81 10.003-3.4 1.949-7.67.626-9.52-2.957a7.636 7.636 0 01-.81-4.412v-.01c-2.04-1.302-4.37-2.423-7.05-3.422-2.75-1.019-5.3-1.686-7.72-2.009-4.62 3.675-9.31 7.046-14.38 10.226 4.6 1.524 8.92 3.705 12.84 5.805.1.05.21.111.32.171.17-.141.35-.282.54-.404 3.27-2.19 7.61-1.181 9.7 2.252 2.08 3.442 1.12 8.005-2.15 10.195-3.27 2.181-7.62 1.171-9.69-2.271a7.52 7.52 0 01-1-5.098c-.01-.01-.03-.01-.04-.02-5.38-2.867-11.07-5.694-17.04-6.794-.51.283-1.01.565-1.52.838-.01.02-.01.04-.01.05l-.04-.02c-5.35 2.908-11.2 5.694-17.85 8.439l-1.89-5.047c5.72-2.382 10.84-4.775 15.56-7.268 1.85-6.531 1.66-13.608 1.24-20.381-2.45-.333-4.65-2.009-5.62-4.593-1.43-3.786.32-8.076 3.93-9.59 3.61-1.504 7.69.353 9.13 4.139 1.2 3.169.16 6.702-2.34 8.641l.03.484c.36 5.613.6 11.851-.36 17.959 5.3-3.099 10.11-6.38 14.8-9.964 1.56-3.159 2.62-6.945 3.2-11.498z" fill="#E52226"/><path d="M421.7 784.75c-.1 7.349 2.5 14.445 5.56 20.946l3.28-3.159c-3.76 9.145 7.02 19.593 11.15 25.569 4.86-7.147 14.59-15.677 11.15-25.569.8.777 2.48 2.392 3.28 3.159 3.95-8.924 9.68-22.309 1.21-30.163l3.61.939c-2.29-23.298-36.21-23.288-38.51 0l3.61-.939c-2.51 2.241-4.16 5.532-4.34 9.217z" fill="#F48D83"/><path d="M441.689 828.107v-69.119c9.06 0 18.1 5.835 19.25 17.474l-3.61-.939c8.46 7.844 2.73 21.24-1.22 30.163-.79-.757-2.47-2.382-3.28-3.159 3.46 9.892-6.27 18.433-11.14 25.58zM501.291 789.282c.39 3.079.49 5.876.28 8.45-2.37.393-4.48 2.049-5.43 4.552-1.43 3.786.33 8.086 3.93 9.58 3.6 1.504 7.69-.343 9.13-4.139 1.23-3.24.1-6.874-2.54-8.782.31-3.18.23-6.622-.25-10.387a58.726 58.726 0 00-.82-4.816c4.98 4.2 10.02 8.813 15.54 13.982-.04.08-.07.151-.1.242-1.43 3.775.32 8.066 3.93 9.57 3.61 1.504 7.69-.354 9.12-4.129 1.43-3.786-.33-8.086-3.94-9.59a6.658 6.658 0 00-5.35.081c-5.5-5.159-10.53-9.762-15.5-13.971 1.32-.364 2.69-.798 4.08-1.303 2.93-1.09 5.51-2.331 7.8-3.775.35.313.73.586 1.14.818 3.42 1.948 7.67.626 9.53-2.958 1.85-3.584.59-8.056-2.81-10.004-3.4-1.948-7.67-.626-9.52 2.958a7.632 7.632 0 00-.81 4.411v.01c-2.04 1.303-4.37 2.423-7.05 3.422-2.75 1.02-5.3 1.686-7.72 2.019-4.62-3.674-9.31-7.046-14.38-10.226 4.6-1.524 8.92-3.714 12.84-5.804.1-.05.21-.111.32-.172.17.142.35.273.54.404 3.27 2.191 7.61 1.181 9.7-2.251 2.08-3.442 1.12-8.005-2.15-10.196-3.27-2.18-7.62-1.181-9.69 2.262a7.527 7.527 0 00-1 5.097c-.01.011-.03.011-.04.021-5.38 2.867-11.07 5.693-17.04 6.783-.51-.282-1.01-.565-1.52-.838-.01-.02-.01-.04-.01-.05l-.04.02c-5.35-2.907-11.2-5.693-17.85-8.439l-1.89 5.047c5.72 2.373 10.84 4.775 15.56 7.269 1.85 6.521 1.66 13.607 1.24 20.381-2.45.333-4.65 2.019-5.62 4.593-1.43 3.785.32 8.075 3.93 9.59 3.61 1.504 7.69-.354 9.13-4.139 1.2-3.18.16-6.703-2.34-8.641l.03-.485c.36-5.612.6-11.851-.36-17.958 5.3 3.099 10.11 6.38 14.8 9.963 1.56 3.19 2.62 6.986 3.2 11.528zM380.57 789.282c-.39 3.079-.49 5.876-.28 8.45 2.37.393 4.48 2.049 5.43 4.552 1.43 3.786-.33 8.086-3.93 9.58-3.61 1.504-7.69-.343-9.12-4.139-1.23-3.24-.1-6.874 2.54-8.782-.31-3.18-.23-6.622.24-10.387.22-1.686.49-3.291.82-4.816-4.98 4.2-10.02 8.813-15.54 13.982.04.08.07.151.1.242 1.43 3.775-.33 8.066-3.93 9.57-3.6 1.504-7.69-.354-9.12-4.129-1.43-3.786.33-8.086 3.93-9.59a6.658 6.658 0 015.35.081c5.5-5.159 10.53-9.762 15.5-13.971a52.69 52.69 0 01-4.08-1.303c-2.93-1.09-5.51-2.331-7.8-3.775a6.53 6.53 0 01-1.14.818c-3.42 1.948-7.67.626-9.53-2.958-1.85-3.584-.59-8.056 2.81-10.004 3.41-1.948 7.67-.626 9.52 2.958.73 1.403.98 2.937.81 4.411v.01c2.03 1.303 4.37 2.423 7.05 3.422 2.75 1.02 5.3 1.686 7.72 2.019 4.62-3.674 9.31-7.046 14.38-10.226-4.59-1.524-8.92-3.714-12.84-5.804-.1-.05-.21-.111-.32-.172-.17.142-.35.273-.54.404-3.27 2.191-7.61 1.181-9.7-2.251-2.07-3.442-1.11-8.005 2.15-10.196 3.27-2.18 7.62-1.181 9.69 2.262a7.59 7.59 0 011.01 5.097c.02.011.03.011.04.021 5.38 2.867 11.07 5.693 17.03 6.783.51-.282 1.01-.565 1.52-.838.01-.02.01-.04.01-.05l.04.02c5.35-2.907 11.2-5.693 17.85-8.439l1.89 5.047c-5.72 2.373-10.84 4.775-15.56 7.269-1.85 6.521-1.66 13.607-1.24 20.381 2.44.333 4.65 2.019 5.62 4.593 1.43 3.785-.32 8.075-3.93 9.59-3.61 1.504-7.69-.354-9.13-4.139-1.2-3.18-.16-6.703 2.34-8.641-.01-.172-.01-.333-.03-.485-.36-5.612-.59-11.851.36-17.958-5.3 3.099-10.11 6.38-14.8 9.963-1.56 3.19-2.61 6.986-3.19 11.528z" fill="#E52226"/><path d="M352.69 715.329c10.68 0 15.89 6.703 15.89 11.902 0 5.199-5.21 11.891-15.89 11.891s-22.78-11.891-22.78-11.891 12.1-11.902 22.78-11.902zM529.73 715.329c-10.68 0-15.89 6.703-15.89 11.902 0 5.199 5.21 11.891 15.89 11.891s22.78-11.891 22.78-11.891-12.1-11.902-22.78-11.902z" fill="#F48D83"/><path d="M568.46 0H311.24v126.123h257.22V0z" fill="#1BB16B"/><path d="M568 126.184H311v447.194h257V126.184z" fill="#97CF9B"/><path d="M627.29 44.508h-4.92l-.69-19.967h6.3l-.69 19.967z" fill="#231F20"/><path d="M654.379 59.337c0-12.608-7.91-22.834-17.66-22.834-3.15 0-6.1 1.07-8.66 2.927a5.436 5.436 0 01-6.45 0c-2.56-1.867-5.52-2.927-8.67-2.927-9.75 0-17.66 10.226-17.66 22.834 0 6.531 2.12 12.416 5.53 16.575 4.55 6.189 13.6 10.398 24.02 10.398 10.43 0 19.47-4.22 24.03-10.398 3.4-4.159 5.52-10.044 5.52-16.575z" fill="#E52226"/><path d="M720.96 44.508h-4.93l-.68-19.967h6.29l-.68 19.967z" fill="#231F20"/><path d="M748.049 59.337c0-12.608-7.91-22.834-17.66-22.834-3.15 0-6.11 1.07-8.66 2.927a5.436 5.436 0 01-6.45 0c-2.56-1.867-5.52-2.927-8.67-2.927-9.75 0-17.66 10.226-17.66 22.834 0 6.531 2.12 12.416 5.53 16.575 4.55 6.189 13.6 10.398 24.02 10.398 10.43 0 19.47-4.22 24.03-10.398 3.39-4.159 5.52-10.044 5.52-16.575z" fill="#E52226"/><path d="M814.62 44.508h-4.92l-.69-19.967h6.3l-.69 19.967z" fill="#231F20"/><path d="M841.709 59.337c0-12.608-7.91-22.834-17.66-22.834-3.15 0-6.11 1.07-8.66 2.927a5.436 5.436 0 01-6.45 0c-2.56-1.867-5.52-2.927-8.67-2.927-9.75 0-17.66 10.226-17.66 22.834 0 6.531 2.13 12.416 5.53 16.575 4.55 6.189 13.6 10.398 24.02 10.398 10.43 0 19.48-4.22 24.03-10.398 3.4-4.159 5.52-10.044 5.52-16.575z" fill="#E52226"/><path d="M908.29 44.508h-4.92l-.69-19.967h6.29l-.68 19.967z" fill="#231F20"/><path d="M935.379 59.337c0-12.608-7.91-22.834-17.66-22.834-3.15 0-6.1 1.07-8.66 2.927a5.436 5.436 0 01-6.45 0c-2.56-1.867-5.52-2.927-8.67-2.927-9.75 0-17.66 10.226-17.66 22.834 0 6.531 2.12 12.416 5.53 16.575 4.55 6.189 13.6 10.398 24.02 10.398 10.43 0 19.47-4.22 24.03-10.398 3.39-4.159 5.52-10.044 5.52-16.575zM396 520.041v79.583h-85v-79.583h25.629l14.648-8.643 14.808-8.683 14.777 8.683 3.537 2.097 11.141 6.546h.46zM484 520.041v79.583h85v-79.583h-25.629l-14.658-8.643-14.798-8.683-14.777 8.683-3.538 2.097-11.14 6.546H484z" fill="#E52226"/><path d="M966 706.627H566V853h400V706.627z" fill="#1BB16B"/><path d="M890.409 815.276c0 10.721-8.3 19.412-18.52 19.412-10.24 0-18.52-8.701-18.52-19.412 0-1.241.11-2.463.33-3.634.9-4.987 3.62-9.297 7.4-12.144 3.04-2.291 6.76-3.634 10.79-3.634 4.02 0 7.75 1.343 10.79 3.634 3.79 2.857 6.51 7.157 7.4 12.144.22 1.171.33 2.393.33 3.634zM751.521 815.276c0 10.721-8.301 19.412-18.521 19.412-10.24 0-18.52-8.701-18.52-19.412 0-1.241.111-2.463.331-3.634.9-4.987 3.619-9.297 7.399-12.144 3.04-2.291 6.76-3.634 10.79-3.634 4.02 0 7.751 1.343 10.791 3.634 3.79 2.857 6.51 7.157 7.4 12.144.22 1.171.33 2.393.33 3.634z" fill="#E52226"/><path d="M917.93 783.72l-9.82-9.56-32.92-34.746c-3.29-3.19-7.61-4.966-12.09-4.966l-72.4.202c-2.48 0-4.88.898-6.79 2.533l-32.51 31.304s-34.42 5.653-35.1 5.703c-7.78.515-14.07 6.986-14.66 15.223l-.64 8.954h15.8c4.73-5.895 12.31-9.186 20.51-7.551 4.9.99 9.12 3.756 12.14 7.551a22.816 22.816 0 014.9 12.588c.12 1.393.09 2.796-.07 4.23-.01.061-.01.111-.02.172h96.09a22.71 22.71 0 01-.08-4.402c.35-4.775 2.14-9.125 4.92-12.588 4.72-5.885 12.29-9.186 20.49-7.551 4.91.97 9.14 3.746 12.16 7.551h33.25v-7.066c0-2.877-1.14-5.623-3.16-7.581zm-86.99-14.9H765.1l20.16-24.833c2.43-2.998 6-4.724 9.76-4.724h35.92v29.557zm46.22 0h-39.77l-1.2-29.396 22.92.303c3.35.041 6.53 1.615 8.69 4.301l13.54 16.787c2.56 3.301.11 8.005-4.18 8.005z" fill="#fff"/><path d="M716.799 798.368a22.763 22.763 0 00-4.92 12.588h-15.17v-12.588h20.09zM855.189 798.368c-2.78 3.462-4.57 7.813-4.92 12.588h-95.92a22.816 22.816 0 00-4.9-12.588h105.74zM923.78 798.368v12.588h-31.03a22.902 22.902 0 00-4.91-12.588h35.94z" fill="#E52226"/><path d="M467.52 231.158h-10.05v-48.222h-36.16v48.222h-10.06v80.293h56.27v-80.293z" fill="#fff"/><path d="M411.271 311.451h-.3l.02.06h.3l-.02-.06z" fill="#C6E3C7"/><path d="M410.99 311.501h-19.31l.02-.05h19.26l.03.05zM410 160.262h-.16v-.1c.06.05.11.07.16.1z" fill="#FAD5CD"/><path d="M445.98 209.989c-.52 3.18-3.27 5.623-6.59 5.623-3.3 0-6.04-2.443-6.59-5.623-.1-.353-.12-.757-.12-1.16 0-3.735 3.02-6.754 6.72-6.754 3.7 0 6.69 3.029 6.69 6.754-.01.403-.03.807-.11 1.16z" fill="#F7C4BA"/><path d="M410 160.262h-.16v-.1c.06.05.11.07.16.1z" fill="#FAD5CD"/><path d="M486.721 293.815v17.182l.26.454h-.26 6.69v-17.636h-6.69zM391.81 311.259l.23-.394v-17.05h-6.69v17.636h6.35l.11-.192z" fill="#E52226"/><path d="M411.25 311.391l-.08-.132-4.78-8.338-4.9-8.58-4.91 8.58-4.53 7.945h-.01v.585h-.34l-.02.051h19.62l-.03-.051-.02-.06z" fill="#E52226"/><path d="M392.039 310.865l-.23.394-.11.192h.34v-.586z" fill="#F7A89E"/><path d="M482.21 303.102l-4.91-8.58-4.93 8.58-4.77 8.349h19.12v-.455l-4.51-7.894z" fill="#E52226"/><path d="M486.721 310.997v.454h.26l-.26-.454z" fill="#F7A89E"/><path d="M493 311.925v287.699H385V311.925h6.376l-.039.061h19.609l-.04-.061H493z" fill="#fff"/><path d="M481.57 324.393h-7.17v36.986h7.17v-36.986zM462.54 324.393h-7.19v36.986h7.19v-36.986zM443.479 324.393h-7.19v36.986h7.19v-36.986zM424.45 324.393h-7.19v36.986h7.19v-36.986zM405.4 324.393h-7.22v36.986h7.22v-36.986zM416.78 556.822h-10.71v20.29h10.71v-20.29zM416.78 523.015h-10.71v20.29h10.71v-20.29zM416.78 489.208h-10.71v20.29h10.71v-20.29zM416.78 455.401h-10.71v20.29h10.71v-20.29zM416.78 421.594h-10.71v20.29h10.71v-20.29zM416.78 387.787h-10.71v20.29h10.71v-20.29zM435.691 556.822H424.98v20.29h10.711v-20.29zM435.691 523.015H424.98v20.29h10.711v-20.29zM435.691 489.208H424.98v20.29h10.711v-20.29zM435.691 455.401H424.98v20.29h10.711v-20.29zM435.691 421.594H424.98v20.29h10.711v-20.29zM435.691 387.787H424.98v20.29h10.711v-20.29zM454.62 556.822h-10.71v20.29h10.71v-20.29zM454.62 523.015h-10.71v20.29h10.71v-20.29zM454.62 489.208h-10.71v20.29h10.71v-20.29zM454.62 455.401h-10.71v20.29h10.71v-20.29zM454.62 421.594h-10.71v20.29h10.71v-20.29zM454.62 387.787h-10.71v20.29h10.71v-20.29zM473.55 556.822h-10.71v20.29h10.71v-20.29zM473.55 523.015h-10.71v20.29h10.71v-20.29zM473.55 489.208h-10.71v20.29h10.71v-20.29zM473.55 455.401h-10.71v20.29h10.71v-20.29zM473.55 421.594h-10.71v20.29h10.71v-20.29zM473.55 387.787h-10.71v20.29h10.71v-20.29zM498.579 371.555h-117.47v6.773h117.47v-6.773z" fill="#F7C4BA"/><path d="M454.8 172.781c-6.55 0-11.85-5.25-12.04-11.811 2.17-1.252 3.65-3.584 3.65-6.289a7.316 7.316 0 00-3.21-6.057V12.356c-1.18-.939-2.44-1.514-3.77-1.514-1.35 0-2.63.585-3.82 1.554v136.016c-2.15 1.262-3.61 3.584-3.61 6.269a7.236 7.236 0 003.38 6.137c-.12 6.633-5.46 11.952-12.05 11.952-.67 0-1.35-.05-2-.171v10.337h36.16v-10.438c-.9.182-1.77.283-2.69.283z" fill="#E52226"/><path d="M439.84 21.33c-22.84 0-41.34 18.675-41.34 41.732 0 21.602 16.26 39.369 37.09 41.509V77.527c-6.18-1.817-10.71-7.621-10.71-14.455 0-8.329 6.71-15.102 14.96-15.102 8.27 0 14.96 6.773 14.96 15.102 0 7.177-4.95 13.193-11.61 14.697v26.872c21.27-1.685 38.01-19.654 38.01-41.57 0-23.066-18.52-41.74-41.36-41.74z" fill="#fff"/><path d="M449.264 81.044l-3.774 4.941 4.895 3.81 3.773-4.941-4.894-3.81zM435.6 95.546v1.03l-3.3 4.3-4.89-3.816 3.79-4.926 4.4 3.412zM417.794 79.901l-3.774 4.94 4.893 3.81 3.775-4.94-4.894-3.81zM411.326 38.145l-3.773 4.94 4.894 3.81 3.773-4.941-4.894-3.809zM428.723 38.784l-3.774 4.94 4.894 3.81 3.774-4.94-4.894-3.81zM412.564 60.586l-3.773 4.941 4.895 3.809 3.772-4.941-4.894-3.809zM447.865 27.466l-3.775 4.94 4.893 3.81 3.775-4.94-4.893-3.81zM462.732 58.488l-3.773 4.94 4.895 3.81 3.772-4.942-4.894-3.808zM466.314 38.342l-3.775 4.94 4.893 3.81 3.775-4.94-4.893-3.81zM470.779 73.784l-3.773 4.94 4.894 3.81 3.773-4.942-4.894-3.808z" fill="#000"/><path d="M838.071 206.183h-.371c-.73-.151-1.45-.242-2.22-.353.85.091 1.731.202 2.591.353zM831.761 290.999v.02h-.62c.2 0 .42 0 .62-.02z" fill="#D0D2D3"/><path d="M841.049 273.263h-9.26v169.57h9.26v-169.57zM819.589 276.533h-9.3v167.622h9.3V276.533z" fill="#E52226"/><path d="M750.849 111.859v.051c0 .363-.05.736-.05 1.1.05-.424.1-.838.16-1.262l-.11.111z" fill="#fff"/><path d="M760.409 133.3l-23.99 13.264-29.55 16.303 22.12-25.681 21.86-25.267v-.05l.1-.101c-.05.424-.1.837-.16 1.261-.05.424-.05.889-.05 1.313 0 .838.05 1.625.16 2.412 0 .313.05.677.1 1 .1.787.26 1.524.42 2.251.21.888.52 1.787.83 2.624.31.889.73 1.727 1.14 2.514.73 1.464 1.61 2.776 2.65 4.038.31.363.62.737.99 1.1.41.475.83.889 1.3 1.313.62.605 1.35 1.181 2.08 1.706z" fill="#E52226"/><path d="M823.03 280.218c-2.28.363-4.57.575-6.91.575-2.39 0-4.73-.212-6.96-.575h13.87z" fill="#231F20"/><path d="M820.78 279.925c-2.29.363-4.57.575-6.91.575-2.39 0-4.73-.212-6.96-.575h13.87z" fill="#fff"/><path d="M777.391 114.535c0 2.251-1.35 4.249-3.27 5.188a5.46 5.46 0 01-2.44.576c-3.17 0-5.71-2.625-5.71-5.764 0-3.2 2.55-5.764 5.71-5.764.88 0 1.71.212 2.44.575 1.91.888 3.27 2.877 3.27 5.189z" fill="#231F20"/><path d="M864.721 222.244l-8.31-16.04-13.92-7.703-11.58-3.351-3.17-.676-1.61-.212c-.32-.081-.68-.152-1.12-.212-3.58-.495-7.71-.626-7.7-.616-.4-.01-.81-.01-1.21-.01-.78 0-1.56 0-2.28.05a68.48 68.48 0 00-16.88 2.726v-79.94c0-1.08.03-2.17.01-3.25-.06-3.402-1.18-6.925-2.77-9.903-.56-1.05-1.2-2.049-1.91-2.998a11.31 11.31 0 00-.53-.687c-4.26-5.188-10.7-8.49-17.86-8.49-11.94 0-21.81 9.177-23.05 20.917l.1-.101c-.05.424-.1.838-.16 1.262-.05.424-.05.888-.05 1.312 0 .838.05 1.625.16 2.413 0 .313.05.686.1.999.1.787.26 1.524.42 2.251.21.888.52 1.787.83 2.625.31.888.73 1.726 1.14 2.513.73 1.464 1.66 2.776 2.65 4.038.31.364.62.737.99 1.1.42.475.83.889 1.3 1.313.62.626 1.35 1.201 2.08 1.726a22.765 22.765 0 0013.5 4.401h.21v71.39c0 12.164-.93 24.479 0 36.694.68 8.802 6.49 17.716 12.77 23.531a43.767 43.767 0 0010.33 7.076c2.13 1.04 4.73 2.271 7.32 3.049 0 0 10.97 3.725 23.91.524 1.44.061 2.79-.02 3.87-.161 1.4-.162 2.34-.424 2.34-.424l12.57-3.038 5.71-1.363.62-.949 10.28-14.991 12.25-15.616-11.35-21.179zm-90.61-102.521c-.73.363-1.56.575-2.44.575-3.17 0-5.71-2.625-5.71-5.764 0-3.2 2.54-5.764 5.71-5.764.88 0 1.71.212 2.44.575 1.92.889 3.27 2.887 3.27 5.189.01 2.251-1.35 4.24-3.27 5.189zm74.67 85.189c-6.07-4.876-13.38-8.48-21.32-10.216 8.1 1.776 15.38 5.35 21.32 10.216zm2.18 1.897c-.59-.535-1.18-1.07-1.8-1.574.62.514 1.22 1.029 1.8 1.574z" fill="#fff"/><path d="M894.84 264.278c0 5.704-.73 11.185-2.13 16.515h-68.85c.1-.01.551-.071.681-.101 2.73-.525 5.24-1.06 7.78-1.908 18.85-6.067 32.35-22.319 32.35-41.418 0-21.684-17.5-39.783-40.6-43.317a53.633 53.633 0 00-3.221-.373c-.83-.071-1.659-.162-2.539-.212 42.46 1.009 76.529 32.353 76.529 70.814z" fill="#231F20"/><path d="M966 398.597v201.027H566V398.668l23.649-35.97 11.789-17.98v-18.65h22.35V342.7l13.118 19.988 23.589 35.859v.111h.439c6.495-2.576 12.959-10.445 17.555-21.631 1.768-4.279 3.227-9.056 4.346-14.116.18-.852.349-1.704.509-2.556a87.957 87.957 0 001.369-11.185l18.264-21.54c-1.059-.132-1.989-.7-2.668-1.572h6.075c-.64.832-1.549 1.41-2.558 1.542l18.194 21.428a84.793 84.793 0 001.258 10.627c.18 1.096.38 2.15.62 3.256 1.099 5.07 2.587 9.837 4.346 14.116 4.546 11.186 11.02 19.055 17.514 21.631h1.988l15.367-26.914 15.396-26.965 15.416 26.965 15.196 26.579v-19.166h10.441v-20.151h12.189v-20.231h17.334v20.242h11.22v20.15h11.26v19.481h.04l23.609-14.725 23.628-14.745 23.629 14.745L966 398.597z" fill="#B2D793"/><path d="M745.995 398.664c-6.55-2.575-13.07-10.444-17.665-21.628-1.783-4.279-3.275-9.055-4.383-14.114a59.274 59.274 0 01-.625-3.255 84.316 84.316 0 01-1.27-10.627l-18.349-21.425c1.028-.132 1.934-.72 2.579-1.541.665-.852 1.069-1.977 1.069-3.224 0-2.688-1.824-4.868-4.122-4.868-2.297 0-4.141 2.17-4.141 4.868 0 1.257.403 2.372 1.068 3.224.695.872 1.622 1.43 2.7 1.572l-18.42 21.536a87.306 87.306 0 01-1.38 11.185c-.162.851-.333 1.703-.514 2.555-1.139 5.059-2.61 9.835-4.394 14.114-4.635 11.184-11.155 19.053-17.705 21.628H660v200.96h88v-200.96h-2.005zM712.48 416.46h15.165v38.744H712.48V416.46zm0 61.943h15.165v38.744H712.48v-38.744zm0 61.964h15.165v38.744H712.48v-38.744zM680.345 416.46h15.165v38.744h-15.165V416.46zm0 61.943h15.165v38.744h-15.165v-38.744zm0 61.964h15.165v38.744h-15.165v-38.744z" fill="#97CF9B"/><path d="M636.535 362.676l-13.05-19.987v-16.631h-22.233v18.649l-11.727 17.979L566 398.666h.07v200.958H660v-201.09l-23.465-35.858zm-29.985 205.41h-19.003v-29.763h19.003v29.763zm0-54.993h-19.003v-29.722h19.003v29.722zm0-54.983h-19.003v-29.742h19.003v29.742zm6.48-66.259c-3.469 0-6.281-3.316-6.281-7.443 0-4.097 2.812-7.413 6.281-7.413 3.449 0 6.281 3.316 6.281 7.413 0 4.127-2.832 7.443-6.281 7.443zm25.482 176.235H619.49v-29.763h19.022v29.763zm0-54.993H619.49v-29.722h19.022v29.722zm0-54.983H619.49v-29.742h19.022v29.742z" fill="#1BB16B"/><path d="M871.95 398.176v-19.524h-11.351v-20.195h-11.311v-20.286h-17.475v20.286h-12.288v20.195H809v19.839h.181v201.132H872V398.176h-.05zm-23.176-3.456h8.863v51.935h-8.863V394.72zm0 66.845h8.863v51.934h-8.863v-51.934zm0 66.854h8.863v51.935h-8.863v-51.935zm-25.24-133.699h8.863v51.935h-8.863V394.72zm0 66.845h8.863v51.934h-8.863v-51.934zm0 66.854h8.863v51.935h-8.863v-51.935z" fill="#92CB7B"/><path d="M808.812 397.885L793.76 371.25l-15.27-27.021-15.25 27.021-15.22 26.97-.02.02v201.384h60.98V398.24h.02l-.188-.355zm-14.597 59.255h-11.984v-14.308h11.984v14.308zm-11.984 62.162h11.984v14.288h-11.984v-14.288zm11.984 52.538h-11.984v-14.308h11.984v14.308zm-11.984-90.758h11.984v14.288h-11.984v-14.288zm-9.728-87.171h11.984v14.288h-11.984v-14.288zm-9.718 48.921h11.984v14.308h-11.984v-14.308zm0 38.25h11.984v14.288h-11.984v-14.288zm0 38.22h11.984v14.288h-11.984v-14.288zm0 38.23h11.984v14.308h-11.984v-14.308z" fill="#231F20"/><path d="M965.911 397.976l-23.411-14.73-23.5-14.79-23.5 14.79-23.48 14.771H872v201.607h93.911V398.027H966l-.089-.051zm-60.614 178.343h-15.59v-23.967h15.59v23.967zm0-45.888h-15.59v-23.966h15.59v23.966zm0-45.898h-15.59v-23.966h15.59v23.966zm0-45.878h-15.59v-23.976h15.59v23.976zm21.294 0h-15.59v-23.976h15.59v23.976zm21.682 137.664h-15.59v-23.967h15.59v23.967zm0-45.888h-15.59v-23.966h15.59v23.966zm0-45.898h-15.59v-23.966h15.59v23.966zm0-45.878h-15.59v-23.976h15.59v23.976z" fill="#fff"/><path d="M966 599.624H566v107.003h400V599.624z" fill="#F48D83"/><path d="M672.82 611.939c-22.26 0-40.3 18.211-40.3 40.672s18.04 40.681 40.3 40.681c22.25 0 40.289-18.21 40.289-40.681 0-22.461-18.039-40.672-40.289-40.672zm0 53.815c-7.19 0-13.01-5.885-13.01-13.143 0-7.248 5.82-13.133 13.01-13.133 7.18 0 13.009 5.885 13.009 13.133 0 7.268-5.829 13.143-13.009 13.143z" fill="#E52226"/><path d="M667.118 625.924l-4.243 4.283 4.243 4.282 4.242-4.282-4.242-4.283zM685.821 617.505l-4.243 4.283 4.243 4.283 4.242-4.283-4.242-4.283zM697.221 630.943l-4.242 4.283 4.242 4.283 4.243-4.283-4.243-4.283zM698.264 671.965l-4.243 4.283 4.243 4.282 4.243-4.282-4.243-4.283zM681.584 669.188l-4.242 4.283 4.242 4.282 4.243-4.282-4.243-4.283zM699.834 650.19l-4.242 4.283 4.242 4.283 4.243-4.283-4.243-4.283zM661.825 677.698l-4.243 4.283 4.243 4.283 4.242-4.283-4.242-4.283zM651.258 645.899l-4.242 4.283 4.242 4.282 4.243-4.282-4.243-4.283zM645.395 664.904l-4.243 4.283 4.243 4.283 4.243-4.283-4.243-4.283zM645.395 630.159l-4.243 4.282 4.243 4.283 4.243-4.283-4.243-4.282z" fill="#231F20"/><path d="M808.719 652.621c0-22.461-18.04-40.682-40.29-40.682s-40.3 18.211-40.3 40.682c0 22.471 18.04 40.671 40.3 40.671 22.26 0 40.29-18.2 40.29-40.671zm-53.31 0c0-7.258 5.83-13.133 13.02-13.133 7.18 0 13.01 5.875 13.01 13.133 0 7.248-5.83 13.133-13.01 13.133-7.19 0-13.02-5.875-13.02-13.133z" fill="#E52226"/><path d="M790.674 642.542l-4.242 4.283 4.242 4.283 4.243-4.283-4.243-4.283zM799.006 661.55l-4.242 4.283 4.242 4.282 4.243-4.282-4.243-4.283zM785.688 673.064l-4.243 4.283 4.243 4.282 4.243-4.282-4.243-4.283zM745.057 674.11l-4.243 4.283 4.243 4.282 4.243-4.282-4.243-4.283zM747.807 657.271l-4.243 4.283 4.243 4.283 4.243-4.283-4.243-4.283zM766.627 675.696l-4.242 4.283 4.242 4.282 4.243-4.282-4.243-4.283zM739.377 637.324l-4.242 4.283 4.242 4.283 4.243-4.283-4.243-4.283zM770.866 626.658l-4.243 4.282 4.243 4.283 4.242-4.283-4.242-4.282zM752.132 620.628l-4.243 4.283 4.242 4.284 4.243-4.283-4.242-4.284zM786.554 620.626l-4.243 4.283 4.242 4.283 4.243-4.283-4.242-4.283z" fill="#231F20"/><path d="M864.511 693.292c22.25 0 40.3-18.21 40.3-40.671 0-22.471-18.04-40.682-40.3-40.682-22.26 0-40.29 18.211-40.29 40.682 0 22.471 18.03 40.671 40.29 40.671zm0-53.814c7.19 0 13.01 5.885 13.01 13.143 0 7.248-5.82 13.133-13.01 13.133-7.18 0-13.01-5.885-13.01-13.133 0-7.258 5.82-13.143 13.01-13.143z" fill="#E52226"/><path d="M870.186 670.773l-4.243 4.283 4.243 4.282 4.243-4.282-4.243-4.283zM851.471 679.149l-4.242 4.283 4.242 4.282 4.243-4.282-4.243-4.283zM840.065 665.719l-4.243 4.283 4.243 4.283 4.242-4.283-4.242-4.283zM839.026 624.692l-4.243 4.283 4.243 4.282 4.242-4.282-4.242-4.283zM855.691 627.426l-4.242 4.283 4.243 4.282 4.242-4.283-4.243-4.282zM837.457 646.465l-4.242 4.283 4.242 4.283 4.243-4.283-4.243-4.283zM875.465 618.958l-4.242 4.283 4.242 4.282 4.243-4.282-4.243-4.283zM886.026 650.748l-4.243 4.283 4.243 4.283 4.242-4.283-4.242-4.283zM891.911 631.794l-4.243 4.282 4.242 4.283 4.243-4.282-4.242-4.283zM891.911 666.539l-4.243 4.282 4.242 4.284 4.243-4.282-4.242-4.284z" fill="#231F20"/><path d="M311 599.624H0V853h311V599.624z" fill="#E52226"/><path d="M126.55 697.168c-4.48 7.834-12.87 13.113-22.49 13.113s-18.01-5.279-22.49-13.113c4.48-7.833 12.87-13.113 22.49-13.113 9.62.01 18.01 5.29 22.49 13.113zM235.4 697.168c-4.48 7.834-12.87 13.113-22.49 13.113s-18.01-5.279-22.49-13.113c4.48-7.833 12.87-13.113 22.49-13.113 9.62.01 18.01 5.29 22.49 13.113z" fill="#F7C4BA"/><path d="M217.829 753.345c.84 21.401-13.08 40.399-13.08 40.399l-2.06-9.307-.48 1.514c-5.67 17.736-39.58 46.607-39.58 46.607.45.596-2.98-6.067-9.57-10.922-9.1-6.703-15.69-9.711-23.46-20.906l1.19 11.578s-16.64-12.164-20.83-24.459c-3.02-8.863-3.72-26.862-3.72-26.862l-4.72 17.08s-4.48-11.599-3.54-24.712c2.55-35.664 26.83-64.767 59.92-64.767 33.11-.01 58.54 29.022 59.93 64.757z" fill="#F48D83"/><path d="M127.461 674.133s-37.99-10.479-13.41-43.397c.47-.636-.31-1.434-.93-.959-11.91 9.226-41.07 35.674.76 58.468l10.61 5.593 2.97-19.705zM190.42 674.132s37.53-10.357 13.86-42.791c-.54-.737.37-1.656 1.08-1.101 12.25 9.611 39.81 35.584-1.34 58.004l-10.61 5.593-2.99-19.705z" fill="#F7C4BA"/><path d="M169.209 793.189h-20.61c-16.13 0-23.16-19.039-23.16-35.321l-12.74-49.071 6.7-38.168h79.03l6.25 38.3-12.52 48.515c-.01 16.282-6.82 35.745-22.95 35.745z" fill="#F7C4BA"/><path d="M142.059 715.844c0 3.371-2.71 6.107-6.05 6.107s-6.05-2.736-6.05-6.107c0-3.372 2.71-6.108 6.05-6.108s6.05 2.736 6.05 6.108zM190.42 715.844c0 3.371-2.71 6.107-6.05 6.107s-6.05-2.736-6.05-6.107c0-3.372 2.71-6.108 6.05-6.108 3.35 0 6.05 2.736 6.05 6.108z" fill="#E52226"/><path d="M112.5 649.582c9.13-21.532 70.41-34.554 92.3 0 1.92 3.039 4.39 11.246 1.92 21.129-.38 1.514-1.47 4.613-1.47 4.613l-4.18-3.19S186 700.47 164.68 706.86c-.24 0-33.58-23.036-33.58-23.036l.33 8.853s-7.54-4.402-9.18-5.916c-9.56-8.813-16.46-21.34-9.75-37.179z" fill="#F48D83"/><path d="M192.149 757.444v15.475c0 11.185-8.98 20.27-20.08 20.27h-26.53c-11.1 0-20.09-9.075-20.09-20.27v-15.061c1.16-.465 2.37-.848 3.62-1.111a24.54 24.54 0 015.62-.636c1.94 0 3.82.212 5.62.636 5.65 1.272 10.6 4.442 14.16 8.803 2.57 3.159 7.23 3.159 9.8 0 3.56-4.361 8.51-7.531 14.17-8.803 1.8-.424 3.68-.636 5.62-.636s3.82.212 5.62.636c.84.182 1.66.414 2.47.697z" fill="#E52226"/><path d="M152.669 783.074c-2.11 1.817-5.88.838-8.44-2.18-2.55-3.019-2.92-6.936-.81-8.753 2.11-1.817 5.88-.837 8.44 2.181 2.56 3.018 2.92 6.935.81 8.752zM167.509 783.074c2.11 1.817 5.88.838 8.44-2.18 2.55-3.019 2.92-6.936.81-8.753-2.11-1.817-5.88-.837-8.44 2.181-2.55 3.018-2.91 6.935-.81 8.752z" fill="#F3B5B5"/></g><defs><clipPath id="clip0"><path fill="#fff" d="M0 0h966v853H0z"/></clipPath></defs></svg>