<svg width="88" height="80" viewBox="0 0 88 80" fill="none" xmlns="http://www.w3.org/2000/svg">
<path d="M51.0129 13.6305C34.2698 5.11136 17.7645 12.6956 14.5343 19.0441C11.3041 25.3925 12.2297 31.8571 18.9272 35.2649C25.6247 38.6727 28.167 41.9631 25.7445 46.7241C22.515 53.0713 25.1146 60.3877 31.8121 63.7955C53.5787 74.8707 69.275 68.8732 74.927 57.7649C84.6156 38.7202 71.1001 23.8512 51.0129 13.6305ZM43.5969 17.8492C44.147 18.1299 44.6394 18.5102 45.046 18.9685C45.4526 19.4268 45.7655 19.9541 45.9667 20.5202C46.168 21.0863 46.2537 21.6802 46.219 22.2679C46.1843 22.8557 46.0298 23.4258 45.7644 23.9457C44.6488 26.1382 41.8713 26.96 39.5597 25.7838C37.2481 24.6076 36.2779 21.8774 37.3929 19.6861C37.6569 19.1655 38.0268 18.705 38.4815 18.3309C38.9361 17.9569 39.4667 17.6765 40.0428 17.506C40.6189 17.3354 41.2292 17.2779 41.8391 17.3368C42.4489 17.3957 43.0462 17.5698 43.5969 17.8492ZM56.9893 24.6634C57.5393 24.9441 58.0317 25.3245 58.4383 25.7828C58.8449 26.2411 59.1578 26.7683 59.3591 27.3344C59.5603 27.9005 59.6461 28.4944 59.6113 29.0822C59.5766 29.6699 59.4222 30.24 59.1567 30.7599C58.8929 31.2807 58.523 31.7414 58.0683 32.1156C57.6137 32.4899 57.0831 32.7704 56.5069 32.9411C55.9307 33.1118 55.3202 33.1693 54.7103 33.1105C54.1003 33.0516 53.5028 32.8775 52.952 32.5981C52.4021 32.3172 51.9098 31.9367 51.5033 31.4783C51.0969 31.0199 50.7842 30.4925 50.5831 29.9264C50.382 29.3602 50.2965 28.7663 50.3314 28.1786C50.3663 27.5909 50.5209 27.0208 50.7865 26.501C51.3196 25.4498 52.2725 24.6657 53.4357 24.3211C54.5989 23.9765 55.8771 24.0996 56.9893 24.6634ZM67.1547 37.8262C67.7051 38.1069 68.1978 38.4873 68.6046 38.9457C69.0114 39.4041 69.3245 39.9316 69.5258 40.4979C69.7272 41.0642 69.8129 41.6584 69.7781 42.2463C69.7432 42.8343 69.5886 43.4046 69.3229 43.9246C69.059 44.4455 68.689 44.9062 68.2343 45.2804C67.7795 45.6546 67.2488 45.935 66.6725 46.1055C66.0962 46.276 65.4856 46.3334 64.8756 46.2742C64.2656 46.2151 63.6682 46.0406 63.1175 45.7608C62.5673 45.4803 62.0749 45.1001 61.6683 44.6418C61.2616 44.1836 60.9488 43.6563 60.7476 43.0902C60.5464 42.5241 60.4609 41.9302 60.4958 41.3425C60.5308 40.7548 60.6856 40.1848 60.9513 39.665C61.215 39.1442 61.5847 38.6835 62.0392 38.3092C62.4937 37.9348 63.0242 37.6543 63.6003 37.4835C64.1764 37.3128 64.7868 37.2551 65.3967 37.3139C66.0066 37.3727 66.604 37.5468 67.1547 37.8262ZM27.0323 21.4081C27.5823 21.6886 28.0747 22.0687 28.4813 22.5268C28.8879 22.985 29.2007 23.5121 29.4019 24.0781C29.6032 24.644 29.6888 25.2378 29.654 25.8254C29.6192 26.413 29.4646 26.9829 29.1991 27.5026C28.0835 29.6952 25.306 30.5169 22.9957 29.3414C20.6855 28.1659 19.7139 25.435 20.8289 23.2437C21.3623 22.1927 22.3155 21.4089 23.4788 21.0647C24.6422 20.7204 25.9204 20.844 27.0323 21.4081ZM39.8853 47.9256C42.6595 49.3371 43.8237 52.6109 42.4843 55.2432C41.1469 57.8718 37.8145 58.8592 35.0404 57.4476C32.2662 56.0361 31.1026 52.7611 32.4401 50.1325C32.7566 49.5075 33.2003 48.9545 33.7458 48.5053C34.2913 48.0561 34.9279 47.7194 35.6194 47.5144C36.3108 47.3095 37.0434 47.2403 37.7754 47.3108C38.5073 47.3814 39.2243 47.5903 39.8853 47.9256Z" fill="#C42729"/>
</svg>
