<svg width="88" height="80" viewBox="0 0 88 80" fill="none" xmlns="http://www.w3.org/2000/svg">
<path d="M51.0133 13.6305C34.2702 5.11136 17.7649 12.6956 14.5347 19.0441C11.3045 25.3925 12.2301 31.8571 18.9276 35.2649C25.6251 38.6727 28.1674 41.9631 25.7449 46.7241C22.5154 53.0713 25.115 60.3877 31.8125 63.7955C53.579 74.8707 69.2753 68.8732 74.9274 57.7649C84.616 38.7202 71.1005 23.8512 51.0133 13.6305ZM43.5973 17.8492C44.1474 18.1299 44.6397 18.5102 45.0463 18.9685C45.453 19.4268 45.7658 19.9541 45.9671 20.5202C46.1684 21.0863 46.2541 21.6802 46.2194 22.2679C46.1846 22.8557 46.0302 23.4258 45.7648 23.9457C44.6491 26.1382 41.8716 26.96 39.56 25.7838C37.2485 24.6076 36.2782 21.8774 37.3932 19.6861C37.6572 19.1655 38.0271 18.705 38.4818 18.3309C38.9365 17.9569 39.467 17.6765 40.0431 17.506C40.6192 17.3354 41.2296 17.2779 41.8394 17.3368C42.4493 17.3957 43.0466 17.5698 43.5973 17.8492ZM56.9897 24.6634C57.5397 24.9441 58.0321 25.3245 58.4387 25.7828C58.8453 26.2411 59.1582 26.7683 59.3594 27.3344C59.5607 27.9005 59.6464 28.4944 59.6117 29.0822C59.577 29.6699 59.4225 30.24 59.1571 30.7599C58.8932 31.2807 58.5234 31.7414 58.0687 32.1156C57.614 32.4899 57.0835 32.7704 56.5073 32.9411C55.9311 33.1118 55.3206 33.1693 54.7106 33.1105C54.1007 33.0516 53.5032 32.8775 52.9524 32.5981C52.4024 32.3172 51.9102 31.9367 51.5037 31.4783C51.0972 31.0199 50.7845 30.4925 50.5835 29.9264C50.3824 29.3602 50.2968 28.7663 50.3317 28.1786C50.3667 27.5909 50.5213 27.0208 50.7869 26.501C51.32 25.4498 52.2729 24.6657 53.4361 24.3211C54.5993 23.9765 55.8775 24.0996 56.9897 24.6634ZM67.1551 37.8262C67.7054 38.1069 68.1981 38.4873 68.605 38.9457C69.0118 39.4041 69.3249 39.9316 69.5262 40.4979C69.7275 41.0642 69.8133 41.6584 69.7784 42.2463C69.7436 42.8343 69.5889 43.4046 69.3232 43.9246C69.0593 44.4455 68.6894 44.9062 68.2346 45.2804C67.7799 45.6546 67.2492 45.935 66.6729 46.1055C66.0966 46.276 65.486 46.3334 64.876 46.2742C64.266 46.2151 63.6685 46.0406 63.1178 45.7608C62.5677 45.4803 62.0753 45.1001 61.6686 44.6418C61.262 44.1836 60.9492 43.6563 60.748 43.0902C60.5468 42.5241 60.4613 41.9302 60.4962 41.3425C60.5312 40.7548 60.6859 40.1848 60.9517 39.665C61.2154 39.1442 61.5851 38.6835 62.0396 38.3092C62.4941 37.9348 63.0245 37.6543 63.6006 37.4835C64.1767 37.3128 64.7872 37.2551 65.3971 37.3139C66.0069 37.3727 66.6043 37.5468 67.1551 37.8262ZM27.0327 21.4081C27.5827 21.6886 28.0751 22.0687 28.4817 22.5268C28.8882 22.985 29.2011 23.5121 29.4023 24.0781C29.6035 24.644 29.6892 25.2378 29.6544 25.8254C29.6196 26.413 29.465 26.9829 29.1995 27.5026C28.0839 29.6952 25.3063 30.5169 22.9961 29.3414C20.6858 28.1659 19.7143 25.435 20.8293 23.2437C21.3627 22.1927 22.3159 21.4089 23.4792 21.0647C24.6425 20.7204 25.9207 20.844 27.0327 21.4081ZM39.8857 47.9256C42.6599 49.3371 43.8241 52.6109 42.4847 55.2432C41.1472 57.8718 37.8149 58.8592 35.0407 57.4476C32.2666 56.0361 31.103 52.7611 32.4404 50.1325C32.757 49.5075 33.2006 48.9545 33.7462 48.5053C34.2917 48.0561 34.9283 47.7194 35.6197 47.5144C36.3111 47.3095 37.0437 47.2403 37.7757 47.3108C38.5077 47.3814 39.2247 47.5903 39.8857 47.9256Z" fill="#1BB36C"/>
</svg>
